<svg xmlns="http://www.w3.org/2000/svg" viewBox="0 0 710 109" role="img" aria-label="git-активность candycate-studio за год: змейка съедает клетки коммитов">
<title>git-активность candycate-studio</title>
<style>.c{animation-duration:11.46s;animation-timing-function:linear;animation-iteration-count:infinite}.sg{transform-box:view-box;transform-origin:0 0;fill:#d8285a;animation:snk 11.46s linear infinite}@keyframes snk{0%{transform:translate(-22px,53px)}0.524%{transform:translate(-9px,53px)}1.047%{transform:translate(4px,53px)}1.571%{transform:translate(17px,53px)}2.094%{transform:translate(30px,53px)}2.618%{transform:translate(43px,53px)}3.141%{transform:translate(43px,40px)}3.665%{transform:translate(56px,40px)}4.188%{transform:translate(69px,40px)}4.712%{transform:translate(69px,53px)}5.236%{transform:translate(82px,53px)}5.759%{transform:translate(95px,53px)}6.283%{transform:translate(108px,53px)}6.806%{transform:translate(108px,66px)}7.33%{transform:translate(121px,66px)}7.853%{transform:translate(121px,53px)}8.377%{transform:translate(121px,40px)}8.901%{transform:translate(134px,40px)}9.424%{transform:translate(134px,53px)}9.948%{transform:translate(134px,66px)}10.471%{transform:translate(147px,66px)}10.995%{transform:translate(160px,66px)}11.518%{transform:translate(173px,66px)}12.042%{transform:translate(173px,53px)}12.565%{transform:translate(173px,40px)}13.089%{transform:translate(186px,40px)}13.613%{transform:translate(186px,53px)}14.136%{transform:translate(199px,53px)}14.66%{transform:translate(212px,53px)}15.183%{transform:translate(225px,53px)}15.707%{transform:translate(225px,40px)}16.23%{transform:translate(238px,40px)}16.754%{transform:translate(251px,40px)}17.277%{transform:translate(264px,40px)}17.801%{transform:translate(277px,40px)}18.325%{transform:translate(277px,53px)}18.848%{transform:translate(277px,66px)}19.372%{transform:translate(290px,66px)}19.895%{transform:translate(290px,53px)}20.419%{transform:translate(303px,53px)}20.942%{transform:translate(303px,66px)}21.466%{transform:translate(316px,66px)}21.99%{transform:translate(329px,66px)}22.513%{transform:translate(329px,53px)}23.037%{transform:translate(342px,53px)}23.56%{transform:translate(355px,53px)}24.084%{transform:translate(368px,53px)}24.607%{transform:translate(368px,66px)}25.131%{transform:translate(381px,66px)}25.654%{transform:translate(381px,53px)}26.178%{transform:translate(394px,53px)}26.702%{transform:translate(407px,53px)}27.225%{transform:translate(407px,66px)}27.749%{transform:translate(420px,66px)}28.272%{transform:translate(420px,53px)}28.796%{transform:translate(433px,53px)}29.319%{transform:translate(433px,66px)}29.843%{transform:translate(446px,66px)}30.366%{transform:translate(459px,66px)}30.89%{transform:translate(472px,66px)}31.414%{transform:translate(472px,53px)}31.937%{transform:translate(485px,53px)}32.461%{transform:translate(498px,53px)}32.984%{transform:translate(511px,53px)}33.508%{transform:translate(511px,66px)}34.031%{transform:translate(524px,66px)}34.555%{transform:translate(537px,66px)}35.079%{transform:translate(537px,53px)}35.602%{transform:translate(537px,40px)}36.126%{transform:translate(550px,40px)}36.649%{transform:translate(563px,40px)}37.173%{transform:translate(576px,40px)}37.696%{transform:translate(589px,40px)}38.22%{transform:translate(589px,53px)}38.743%{transform:translate(602px,53px)}39.267%{transform:translate(615px,53px)}39.791%{transform:translate(628px,53px)}40.314%{transform:translate(641px,53px)}40.838%{transform:translate(641px,66px)}41.361%{transform:translate(628px,66px)}41.885%{transform:translate(615px,66px)}42.408%{transform:translate(615px,79px)}42.932%{transform:translate(628px,79px)}43.455%{transform:translate(641px,79px)}43.979%{transform:translate(654px,79px)}44.503%{transform:translate(654px,66px)}45.026%{transform:translate(654px,53px)}45.55%{transform:translate(641px,53px)}46.073%{transform:translate(641px,40px)}46.597%{transform:translate(654px,40px)}47.12%{transform:translate(654px,27px)}47.644%{transform:translate(641px,27px)}48.168%{transform:translate(628px,27px)}48.691%{transform:translate(628px,14px)}49.215%{transform:translate(641px,14px)}49.738%{transform:translate(654px,14px)}50.262%{transform:translate(667px,14px)}50.785%{transform:translate(680px,14px)}51.309%{transform:translate(680px,27px)}51.832%{transform:translate(667px,27px)}52.356%{transform:translate(667px,40px)}52.88%{transform:translate(667px,53px)}53.403%{transform:translate(680px,53px)}53.927%{transform:translate(680px,40px)}54.45%{transform:translate(693px,40px)}54.974%{transform:translate(693px,53px)}55.497%{transform:translate(693px,66px)}56.021%{transform:translate(680px,66px)}56.545%{transform:translate(680px,79px)}57.068%{transform:translate(693px,79px)}57.592%{transform:translate(693px,92px)}58.115%{transform:translate(680px,92px)}58.639%{transform:translate(667px,92px)}59.162%{transform:translate(667px,79px)}59.686%{transform:translate(667px,66px)}60.209%{transform:translate(654px,66px)}60.733%{transform:translate(654px,53px)}61.257%{transform:translate(654px,40px)}61.78%{transform:translate(654px,27px)}62.304%{transform:translate(641px,27px)}62.827%{transform:translate(641px,40px)}63.351%{transform:translate(628px,40px)}63.874%{transform:translate(628px,27px)}64.398%{transform:translate(628px,14px)}64.921%{transform:translate(641px,14px)}65.445%{transform:translate(654px,14px)}65.969%{transform:translate(667px,14px)}66.492%{transform:translate(667px,27px)}67.016%{transform:translate(680px,27px)}67.539%{transform:translate(693px,27px)}68.063%{transform:translate(693px,40px)}68.586%{transform:translate(680px,40px)}69.11%{transform:translate(680px,53px)}69.634%{transform:translate(693px,53px)}70.157%{transform:translate(693px,66px)}70.681%{transform:translate(693px,79px)}71.204%{transform:translate(680px,79px)}71.728%{transform:translate(680px,66px)}72.251%{transform:translate(667px,66px)}72.775%{transform:translate(667px,53px)}73.298%{transform:translate(667px,40px)}73.822%{transform:translate(654px,40px)}74.346%{transform:translate(654px,27px)}74.869%{transform:translate(641px,27px)}75.393%{transform:translate(641px,40px)}75.916%{transform:translate(641px,53px)}76.44%{transform:translate(654px,53px)}76.963%{transform:translate(654px,66px)}77.487%{transform:translate(654px,79px)}78.01%{transform:translate(667px,79px)}78.534%{transform:translate(667px,92px)}79.058%{transform:translate(654px,92px)}79.581%{transform:translate(641px,92px)}80.105%{transform:translate(641px,79px)}80.628%{transform:translate(641px,66px)}81.152%{transform:translate(628px,66px)}81.675%{transform:translate(628px,53px)}82.199%{transform:translate(628px,40px)}82.723%{transform:translate(628px,27px)}83.246%{transform:translate(628px,14px)}83.77%{transform:translate(641px,14px)}84.293%{transform:translate(654px,14px)}84.817%{transform:translate(667px,14px)}85.34%{transform:translate(680px,14px)}85.864%{transform:translate(693px,14px)}86.387%{transform:translate(693px,27px)}86.911%{transform:translate(693px,40px)}87.435%{transform:translate(693px,53px)}87.958%{transform:translate(680px,53px)}88.482%{transform:translate(667px,53px)}89.005%{transform:translate(667px,66px)}89.529%{transform:translate(667px,79px)}90.052%{transform:translate(667px,92px)}90.576%{transform:translate(654px,92px)}91.099%{transform:translate(641px,92px)}91.623%{transform:translate(628px,92px)}92.147%{transform:translate(615px,92px)}92.67%{transform:translate(615px,79px)}93.194%{transform:translate(628px,79px)}93.717%{transform:translate(641px,79px)}94.241%{transform:translate(654px,79px)}94.764%{transform:translate(654px,66px)}95.288%{transform:translate(654px,53px)}95.812%{transform:translate(654px,40px)}96.335%{transform:translate(667px,40px)}96.859%{transform:translate(680px,40px)}97.382%{transform:translate(680px,27px)}97.906%{transform:translate(693px,27px)}98.429%{transform:translate(706px,27px)}98.953%{transform:translate(719px,27px)}99.476%{transform:translate(732px,27px)}100%{transform:translate(745px,27px)}}@keyframes e45_5{0%,42.408%{fill:#a7e8d8;opacity:1}42.827%,100%{fill:#8b95a1;opacity:.2}}@keyframes e45_6{0%,92.147%{fill:#5fcdb5;opacity:1}92.565%,100%{fill:#8b95a1;opacity:.2}}@keyframes e46_0{0%,48.691%{fill:#1f7a6b;opacity:1}49.11%,100%{fill:#8b95a1;opacity:.2}}@keyframes e46_1{0%,48.168%{fill:#35a08e;opacity:1}48.586%,100%{fill:#8b95a1;opacity:.2}}@keyframes e46_3{0%,39.791%{fill:#35a08e;opacity:1}40.209%,100%{fill:#8b95a1;opacity:.2}}@keyframes e47_0{0%,49.215%{fill:#a7e8d8;opacity:1}49.634%,100%{fill:#8b95a1;opacity:.2}}@keyframes e47_1{0%,47.644%{fill:#35a08e;opacity:1}48.063%,100%{fill:#8b95a1;opacity:.2}}@keyframes e47_2{0%,46.073%{fill:#5fcdb5;opacity:1}46.492%,100%{fill:#8b95a1;opacity:.2}}@keyframes e47_3{0%,40.314%{fill:#35a08e;opacity:1}40.733%,100%{fill:#8b95a1;opacity:.2}}@keyframes e47_4{0%,40.838%{fill:#a7e8d8;opacity:1}41.257%,100%{fill:#8b95a1;opacity:.2}}@keyframes e48_1{0%,47.12%{fill:#a7e8d8;opacity:1}47.539%,100%{fill:#8b95a1;opacity:.2}}@keyframes e48_2{0%,46.597%{fill:#a7e8d8;opacity:1}47.016%,100%{fill:#8b95a1;opacity:.2}}@keyframes e50_0{0%,50.785%{fill:#a7e8d8;opacity:1}51.204%,100%{fill:#8b95a1;opacity:.2}}@keyframes e50_1{0%,51.309%{fill:#35a08e;opacity:1}51.728%,100%{fill:#8b95a1;opacity:.2}}@keyframes e50_2{0%,53.927%{fill:#5fcdb5;opacity:1}54.346%,100%{fill:#8b95a1;opacity:.2}}@keyframes e50_3{0%,53.403%{fill:#1f7a6b;opacity:1}53.822%,100%{fill:#8b95a1;opacity:.2}}@keyframes e50_4{0%,56.021%{fill:#5fcdb5;opacity:1}56.44%,100%{fill:#8b95a1;opacity:.2}}@keyframes e50_5{0%,56.545%{fill:#5fcdb5;opacity:1}56.963%,100%{fill:#8b95a1;opacity:.2}}@keyframes e50_6{0%,58.115%{fill:#1f7a6b;opacity:1}58.534%,100%{fill:#8b95a1;opacity:.2}}@keyframes e51_0{0%,85.864%{fill:#1f7a6b;opacity:1}86.283%,100%{fill:#8b95a1;opacity:.2}}@keyframes e51_1{0%,67.539%{fill:#1f7a6b;opacity:1}67.958%,100%{fill:#8b95a1;opacity:.2}}@keyframes e51_2{0%,54.45%{fill:#35a08e;opacity:1}54.869%,100%{fill:#8b95a1;opacity:.2}}@keyframes g19{0%,54.45%{opacity:0}54.712%,100%{opacity:0.635}}@keyframes g18{0%,53.927%{opacity:0}54.188%,100%{opacity:0.65}}@keyframes g17{0%,53.403%{opacity:0}53.665%,100%{opacity:0.665}}@keyframes g16{0%,51.309%{opacity:0}51.571%,100%{opacity:0.68}}@keyframes g15{0%,50.785%{opacity:0}51.047%,100%{opacity:0.695}}@keyframes g14{0%,49.215%{opacity:0}49.476%,100%{opacity:0.71}}@keyframes g13{0%,48.691%{opacity:0}48.953%,100%{opacity:0.725}}@keyframes g12{0%,48.168%{opacity:0}48.429%,100%{opacity:0.74}}@keyframes g11{0%,47.644%{opacity:0}47.906%,100%{opacity:0.755}}@keyframes g10{0%,47.12%{opacity:0}47.382%,100%{opacity:0.77}}@keyframes g9{0%,46.597%{opacity:0}46.859%,100%{opacity:0.785}}@keyframes g8{0%,46.073%{opacity:0}46.335%,100%{opacity:0.8}}@keyframes g7{0%,42.408%{opacity:0}42.67%,100%{opacity:0.815}}@keyframes g6{0%,40.838%{opacity:0}41.099%,100%{opacity:0.83}}@keyframes g5{0%,40.314%{opacity:0}40.576%,100%{opacity:0.845}}@keyframes g4{0%,39.791%{opacity:0}40.052%,100%{opacity:0.86}}@media(prefers-reduced-motion:reduce){.sg{display:none}.c{animation:none}}</style>
<rect x="30" y="14" width="11" height="11" rx="2.5" fill="#8b95a1" opacity="0.20"/>
<rect x="30" y="27" width="11" height="11" rx="2.5" fill="#8b95a1" opacity="0.20"/>
<rect x="30" y="40" width="11" height="11" rx="2.5" fill="#8b95a1" opacity="0.20"/>
<rect x="30" y="53" width="11" height="11" rx="2.5" fill="#8b95a1" opacity="0.20"/>
<rect x="30" y="66" width="11" height="11" rx="2.5" fill="#8b95a1" opacity="0.20"/>
<rect x="30" y="79" width="11" height="11" rx="2.5" fill="#8b95a1" opacity="0.20"/>
<rect x="30" y="92" width="11" height="11" rx="2.5" fill="#8b95a1" opacity="0.20"/>
<rect x="43" y="14" width="11" height="11" rx="2.5" fill="#8b95a1" opacity="0.20"/>
<rect x="43" y="27" width="11" height="11" rx="2.5" fill="#8b95a1" opacity="0.20"/>
<rect x="43" y="40" width="11" height="11" rx="2.5" fill="#8b95a1" opacity="0.20"/>
<rect x="43" y="53" width="11" height="11" rx="2.5" fill="#8b95a1" opacity="0.20"/>
<rect x="43" y="66" width="11" height="11" rx="2.5" fill="#8b95a1" opacity="0.20"/>
<rect x="43" y="79" width="11" height="11" rx="2.5" fill="#8b95a1" opacity="0.20"/>
<rect x="43" y="92" width="11" height="11" rx="2.5" fill="#8b95a1" opacity="0.20"/>
<rect x="56" y="14" width="11" height="11" rx="2.5" fill="#8b95a1" opacity="0.20"/>
<rect x="56" y="27" width="11" height="11" rx="2.5" fill="#8b95a1" opacity="0.20"/>
<rect x="56" y="40" width="11" height="11" rx="2.5" fill="#8b95a1" opacity="0.20"/>
<rect x="56" y="53" width="11" height="11" rx="2.5" fill="#8b95a1" opacity="0.20"/>
<rect x="56" y="66" width="11" height="11" rx="2.5" fill="#8b95a1" opacity="0.20"/>
<rect x="56" y="79" width="11" height="11" rx="2.5" fill="#8b95a1" opacity="0.20"/>
<rect x="56" y="92" width="11" height="11" rx="2.5" fill="#8b95a1" opacity="0.20"/>
<rect x="69" y="14" width="11" height="11" rx="2.5" fill="#8b95a1" opacity="0.20"/>
<rect x="69" y="27" width="11" height="11" rx="2.5" fill="#8b95a1" opacity="0.20"/>
<rect x="69" y="40" width="11" height="11" rx="2.5" fill="#8b95a1" opacity="0.20"/>
<rect x="69" y="53" width="11" height="11" rx="2.5" fill="#8b95a1" opacity="0.20"/>
<rect x="69" y="66" width="11" height="11" rx="2.5" fill="#8b95a1" opacity="0.20"/>
<rect x="69" y="79" width="11" height="11" rx="2.5" fill="#8b95a1" opacity="0.20"/>
<rect x="69" y="92" width="11" height="11" rx="2.5" fill="#8b95a1" opacity="0.20"/>
<rect x="82" y="14" width="11" height="11" rx="2.5" fill="#8b95a1" opacity="0.20"/>
<rect x="82" y="27" width="11" height="11" rx="2.5" fill="#8b95a1" opacity="0.20"/>
<rect x="82" y="40" width="11" height="11" rx="2.5" fill="#8b95a1" opacity="0.20"/>
<rect x="82" y="53" width="11" height="11" rx="2.5" fill="#8b95a1" opacity="0.20"/>
<rect x="82" y="66" width="11" height="11" rx="2.5" fill="#8b95a1" opacity="0.20"/>
<rect x="82" y="79" width="11" height="11" rx="2.5" fill="#8b95a1" opacity="0.20"/>
<rect x="82" y="92" width="11" height="11" rx="2.5" fill="#8b95a1" opacity="0.20"/>
<rect x="95" y="14" width="11" height="11" rx="2.5" fill="#8b95a1" opacity="0.20"/>
<rect x="95" y="27" width="11" height="11" rx="2.5" fill="#8b95a1" opacity="0.20"/>
<rect x="95" y="40" width="11" height="11" rx="2.5" fill="#8b95a1" opacity="0.20"/>
<rect x="95" y="53" width="11" height="11" rx="2.5" fill="#8b95a1" opacity="0.20"/>
<rect x="95" y="66" width="11" height="11" rx="2.5" fill="#8b95a1" opacity="0.20"/>
<rect x="95" y="79" width="11" height="11" rx="2.5" fill="#8b95a1" opacity="0.20"/>
<rect x="95" y="92" width="11" height="11" rx="2.5" fill="#8b95a1" opacity="0.20"/>
<rect x="108" y="14" width="11" height="11" rx="2.5" fill="#8b95a1" opacity="0.20"/>
<rect x="108" y="27" width="11" height="11" rx="2.5" fill="#8b95a1" opacity="0.20"/>
<rect x="108" y="40" width="11" height="11" rx="2.5" fill="#8b95a1" opacity="0.20"/>
<rect x="108" y="53" width="11" height="11" rx="2.5" fill="#8b95a1" opacity="0.20"/>
<rect x="108" y="66" width="11" height="11" rx="2.5" fill="#8b95a1" opacity="0.20"/>
<rect x="108" y="79" width="11" height="11" rx="2.5" fill="#8b95a1" opacity="0.20"/>
<rect x="108" y="92" width="11" height="11" rx="2.5" fill="#8b95a1" opacity="0.20"/>
<rect x="121" y="14" width="11" height="11" rx="2.5" fill="#8b95a1" opacity="0.20"/>
<rect x="121" y="27" width="11" height="11" rx="2.5" fill="#8b95a1" opacity="0.20"/>
<rect x="121" y="40" width="11" height="11" rx="2.5" fill="#8b95a1" opacity="0.20"/>
<rect x="121" y="53" width="11" height="11" rx="2.5" fill="#8b95a1" opacity="0.20"/>
<rect x="121" y="66" width="11" height="11" rx="2.5" fill="#8b95a1" opacity="0.20"/>
<rect x="121" y="79" width="11" height="11" rx="2.5" fill="#8b95a1" opacity="0.20"/>
<rect x="121" y="92" width="11" height="11" rx="2.5" fill="#8b95a1" opacity="0.20"/>
<rect x="134" y="14" width="11" height="11" rx="2.5" fill="#8b95a1" opacity="0.20"/>
<rect x="134" y="27" width="11" height="11" rx="2.5" fill="#8b95a1" opacity="0.20"/>
<rect x="134" y="40" width="11" height="11" rx="2.5" fill="#8b95a1" opacity="0.20"/>
<rect x="134" y="53" width="11" height="11" rx="2.5" fill="#8b95a1" opacity="0.20"/>
<rect x="134" y="66" width="11" height="11" rx="2.5" fill="#8b95a1" opacity="0.20"/>
<rect x="134" y="79" width="11" height="11" rx="2.5" fill="#8b95a1" opacity="0.20"/>
<rect x="134" y="92" width="11" height="11" rx="2.5" fill="#8b95a1" opacity="0.20"/>
<rect x="147" y="14" width="11" height="11" rx="2.5" fill="#8b95a1" opacity="0.20"/>
<rect x="147" y="27" width="11" height="11" rx="2.5" fill="#8b95a1" opacity="0.20"/>
<rect x="147" y="40" width="11" height="11" rx="2.5" fill="#8b95a1" opacity="0.20"/>
<rect x="147" y="53" width="11" height="11" rx="2.5" fill="#8b95a1" opacity="0.20"/>
<rect x="147" y="66" width="11" height="11" rx="2.5" fill="#8b95a1" opacity="0.20"/>
<rect x="147" y="79" width="11" height="11" rx="2.5" fill="#8b95a1" opacity="0.20"/>
<rect x="147" y="92" width="11" height="11" rx="2.5" fill="#8b95a1" opacity="0.20"/>
<rect x="160" y="14" width="11" height="11" rx="2.5" fill="#8b95a1" opacity="0.20"/>
<rect x="160" y="27" width="11" height="11" rx="2.5" fill="#8b95a1" opacity="0.20"/>
<rect x="160" y="40" width="11" height="11" rx="2.5" fill="#8b95a1" opacity="0.20"/>
<rect x="160" y="53" width="11" height="11" rx="2.5" fill="#8b95a1" opacity="0.20"/>
<rect x="160" y="66" width="11" height="11" rx="2.5" fill="#8b95a1" opacity="0.20"/>
<rect x="160" y="79" width="11" height="11" rx="2.5" fill="#8b95a1" opacity="0.20"/>
<rect x="160" y="92" width="11" height="11" rx="2.5" fill="#8b95a1" opacity="0.20"/>
<rect x="173" y="14" width="11" height="11" rx="2.5" fill="#8b95a1" opacity="0.20"/>
<rect x="173" y="27" width="11" height="11" rx="2.5" fill="#8b95a1" opacity="0.20"/>
<rect x="173" y="40" width="11" height="11" rx="2.5" fill="#8b95a1" opacity="0.20"/>
<rect x="173" y="53" width="11" height="11" rx="2.5" fill="#8b95a1" opacity="0.20"/>
<rect x="173" y="66" width="11" height="11" rx="2.5" fill="#8b95a1" opacity="0.20"/>
<rect x="173" y="79" width="11" height="11" rx="2.5" fill="#8b95a1" opacity="0.20"/>
<rect x="173" y="92" width="11" height="11" rx="2.5" fill="#8b95a1" opacity="0.20"/>
<rect x="186" y="14" width="11" height="11" rx="2.5" fill="#8b95a1" opacity="0.20"/>
<rect x="186" y="27" width="11" height="11" rx="2.5" fill="#8b95a1" opacity="0.20"/>
<rect x="186" y="40" width="11" height="11" rx="2.5" fill="#8b95a1" opacity="0.20"/>
<rect x="186" y="53" width="11" height="11" rx="2.5" fill="#8b95a1" opacity="0.20"/>
<rect x="186" y="66" width="11" height="11" rx="2.5" fill="#8b95a1" opacity="0.20"/>
<rect x="186" y="79" width="11" height="11" rx="2.5" fill="#8b95a1" opacity="0.20"/>
<rect x="186" y="92" width="11" height="11" rx="2.5" fill="#8b95a1" opacity="0.20"/>
<rect x="199" y="14" width="11" height="11" rx="2.5" fill="#8b95a1" opacity="0.20"/>
<rect x="199" y="27" width="11" height="11" rx="2.5" fill="#8b95a1" opacity="0.20"/>
<rect x="199" y="40" width="11" height="11" rx="2.5" fill="#8b95a1" opacity="0.20"/>
<rect x="199" y="53" width="11" height="11" rx="2.5" fill="#8b95a1" opacity="0.20"/>
<rect x="199" y="66" width="11" height="11" rx="2.5" fill="#8b95a1" opacity="0.20"/>
<rect x="199" y="79" width="11" height="11" rx="2.5" fill="#8b95a1" opacity="0.20"/>
<rect x="199" y="92" width="11" height="11" rx="2.5" fill="#8b95a1" opacity="0.20"/>
<rect x="212" y="14" width="11" height="11" rx="2.5" fill="#8b95a1" opacity="0.20"/>
<rect x="212" y="27" width="11" height="11" rx="2.5" fill="#8b95a1" opacity="0.20"/>
<rect x="212" y="40" width="11" height="11" rx="2.5" fill="#8b95a1" opacity="0.20"/>
<rect x="212" y="53" width="11" height="11" rx="2.5" fill="#8b95a1" opacity="0.20"/>
<rect x="212" y="66" width="11" height="11" rx="2.5" fill="#8b95a1" opacity="0.20"/>
<rect x="212" y="79" width="11" height="11" rx="2.5" fill="#8b95a1" opacity="0.20"/>
<rect x="212" y="92" width="11" height="11" rx="2.5" fill="#8b95a1" opacity="0.20"/>
<rect x="225" y="14" width="11" height="11" rx="2.5" fill="#8b95a1" opacity="0.20"/>
<rect x="225" y="27" width="11" height="11" rx="2.5" fill="#8b95a1" opacity="0.20"/>
<rect x="225" y="40" width="11" height="11" rx="2.5" fill="#8b95a1" opacity="0.20"/>
<rect x="225" y="53" width="11" height="11" rx="2.5" fill="#8b95a1" opacity="0.20"/>
<rect x="225" y="66" width="11" height="11" rx="2.5" fill="#8b95a1" opacity="0.20"/>
<rect x="225" y="79" width="11" height="11" rx="2.5" fill="#8b95a1" opacity="0.20"/>
<rect x="225" y="92" width="11" height="11" rx="2.5" fill="#8b95a1" opacity="0.20"/>
<rect x="238" y="14" width="11" height="11" rx="2.5" fill="#8b95a1" opacity="0.20"/>
<rect x="238" y="27" width="11" height="11" rx="2.5" fill="#8b95a1" opacity="0.20"/>
<rect x="238" y="40" width="11" height="11" rx="2.5" fill="#8b95a1" opacity="0.20"/>
<rect x="238" y="53" width="11" height="11" rx="2.5" fill="#8b95a1" opacity="0.20"/>
<rect x="238" y="66" width="11" height="11" rx="2.5" fill="#8b95a1" opacity="0.20"/>
<rect x="238" y="79" width="11" height="11" rx="2.5" fill="#8b95a1" opacity="0.20"/>
<rect x="238" y="92" width="11" height="11" rx="2.5" fill="#8b95a1" opacity="0.20"/>
<rect x="251" y="14" width="11" height="11" rx="2.5" fill="#8b95a1" opacity="0.20"/>
<rect x="251" y="27" width="11" height="11" rx="2.5" fill="#8b95a1" opacity="0.20"/>
<rect x="251" y="40" width="11" height="11" rx="2.5" fill="#8b95a1" opacity="0.20"/>
<rect x="251" y="53" width="11" height="11" rx="2.5" fill="#8b95a1" opacity="0.20"/>
<rect x="251" y="66" width="11" height="11" rx="2.5" fill="#8b95a1" opacity="0.20"/>
<rect x="251" y="79" width="11" height="11" rx="2.5" fill="#8b95a1" opacity="0.20"/>
<rect x="251" y="92" width="11" height="11" rx="2.5" fill="#8b95a1" opacity="0.20"/>
<rect x="264" y="14" width="11" height="11" rx="2.5" fill="#8b95a1" opacity="0.20"/>
<rect x="264" y="27" width="11" height="11" rx="2.5" fill="#8b95a1" opacity="0.20"/>
<rect x="264" y="40" width="11" height="11" rx="2.5" fill="#8b95a1" opacity="0.20"/>
<rect x="264" y="53" width="11" height="11" rx="2.5" fill="#8b95a1" opacity="0.20"/>
<rect x="264" y="66" width="11" height="11" rx="2.5" fill="#8b95a1" opacity="0.20"/>
<rect x="264" y="79" width="11" height="11" rx="2.5" fill="#8b95a1" opacity="0.20"/>
<rect x="264" y="92" width="11" height="11" rx="2.5" fill="#8b95a1" opacity="0.20"/>
<rect x="277" y="14" width="11" height="11" rx="2.5" fill="#8b95a1" opacity="0.20"/>
<rect x="277" y="27" width="11" height="11" rx="2.5" fill="#8b95a1" opacity="0.20"/>
<rect x="277" y="40" width="11" height="11" rx="2.5" fill="#8b95a1" opacity="0.20"/>
<rect x="277" y="53" width="11" height="11" rx="2.5" fill="#8b95a1" opacity="0.20"/>
<rect x="277" y="66" width="11" height="11" rx="2.5" fill="#8b95a1" opacity="0.20"/>
<rect x="277" y="79" width="11" height="11" rx="2.5" fill="#8b95a1" opacity="0.20"/>
<rect x="277" y="92" width="11" height="11" rx="2.5" fill="#8b95a1" opacity="0.20"/>
<rect x="290" y="14" width="11" height="11" rx="2.5" fill="#8b95a1" opacity="0.20"/>
<rect x="290" y="27" width="11" height="11" rx="2.5" fill="#8b95a1" opacity="0.20"/>
<rect x="290" y="40" width="11" height="11" rx="2.5" fill="#8b95a1" opacity="0.20"/>
<rect x="290" y="53" width="11" height="11" rx="2.5" fill="#8b95a1" opacity="0.20"/>
<rect x="290" y="66" width="11" height="11" rx="2.5" fill="#8b95a1" opacity="0.20"/>
<rect x="290" y="79" width="11" height="11" rx="2.5" fill="#8b95a1" opacity="0.20"/>
<rect x="290" y="92" width="11" height="11" rx="2.5" fill="#8b95a1" opacity="0.20"/>
<rect x="303" y="14" width="11" height="11" rx="2.5" fill="#8b95a1" opacity="0.20"/>
<rect x="303" y="27" width="11" height="11" rx="2.5" fill="#8b95a1" opacity="0.20"/>
<rect x="303" y="40" width="11" height="11" rx="2.5" fill="#8b95a1" opacity="0.20"/>
<rect x="303" y="53" width="11" height="11" rx="2.5" fill="#8b95a1" opacity="0.20"/>
<rect x="303" y="66" width="11" height="11" rx="2.5" fill="#8b95a1" opacity="0.20"/>
<rect x="303" y="79" width="11" height="11" rx="2.5" fill="#8b95a1" opacity="0.20"/>
<rect x="303" y="92" width="11" height="11" rx="2.5" fill="#8b95a1" opacity="0.20"/>
<rect x="316" y="14" width="11" height="11" rx="2.5" fill="#8b95a1" opacity="0.20"/>
<rect x="316" y="27" width="11" height="11" rx="2.5" fill="#8b95a1" opacity="0.20"/>
<rect x="316" y="40" width="11" height="11" rx="2.5" fill="#8b95a1" opacity="0.20"/>
<rect x="316" y="53" width="11" height="11" rx="2.5" fill="#8b95a1" opacity="0.20"/>
<rect x="316" y="66" width="11" height="11" rx="2.5" fill="#8b95a1" opacity="0.20"/>
<rect x="316" y="79" width="11" height="11" rx="2.5" fill="#8b95a1" opacity="0.20"/>
<rect x="316" y="92" width="11" height="11" rx="2.5" fill="#8b95a1" opacity="0.20"/>
<rect x="329" y="14" width="11" height="11" rx="2.5" fill="#8b95a1" opacity="0.20"/>
<rect x="329" y="27" width="11" height="11" rx="2.5" fill="#8b95a1" opacity="0.20"/>
<rect x="329" y="40" width="11" height="11" rx="2.5" fill="#8b95a1" opacity="0.20"/>
<rect x="329" y="53" width="11" height="11" rx="2.5" fill="#8b95a1" opacity="0.20"/>
<rect x="329" y="66" width="11" height="11" rx="2.5" fill="#8b95a1" opacity="0.20"/>
<rect x="329" y="79" width="11" height="11" rx="2.5" fill="#8b95a1" opacity="0.20"/>
<rect x="329" y="92" width="11" height="11" rx="2.5" fill="#8b95a1" opacity="0.20"/>
<rect x="342" y="14" width="11" height="11" rx="2.5" fill="#8b95a1" opacity="0.20"/>
<rect x="342" y="27" width="11" height="11" rx="2.5" fill="#8b95a1" opacity="0.20"/>
<rect x="342" y="40" width="11" height="11" rx="2.5" fill="#8b95a1" opacity="0.20"/>
<rect x="342" y="53" width="11" height="11" rx="2.5" fill="#8b95a1" opacity="0.20"/>
<rect x="342" y="66" width="11" height="11" rx="2.5" fill="#8b95a1" opacity="0.20"/>
<rect x="342" y="79" width="11" height="11" rx="2.5" fill="#8b95a1" opacity="0.20"/>
<rect x="342" y="92" width="11" height="11" rx="2.5" fill="#8b95a1" opacity="0.20"/>
<rect x="355" y="14" width="11" height="11" rx="2.5" fill="#8b95a1" opacity="0.20"/>
<rect x="355" y="27" width="11" height="11" rx="2.5" fill="#8b95a1" opacity="0.20"/>
<rect x="355" y="40" width="11" height="11" rx="2.5" fill="#8b95a1" opacity="0.20"/>
<rect x="355" y="53" width="11" height="11" rx="2.5" fill="#8b95a1" opacity="0.20"/>
<rect x="355" y="66" width="11" height="11" rx="2.5" fill="#8b95a1" opacity="0.20"/>
<rect x="355" y="79" width="11" height="11" rx="2.5" fill="#8b95a1" opacity="0.20"/>
<rect x="355" y="92" width="11" height="11" rx="2.5" fill="#8b95a1" opacity="0.20"/>
<rect x="368" y="14" width="11" height="11" rx="2.5" fill="#8b95a1" opacity="0.20"/>
<rect x="368" y="27" width="11" height="11" rx="2.5" fill="#8b95a1" opacity="0.20"/>
<rect x="368" y="40" width="11" height="11" rx="2.5" fill="#8b95a1" opacity="0.20"/>
<rect x="368" y="53" width="11" height="11" rx="2.5" fill="#8b95a1" opacity="0.20"/>
<rect x="368" y="66" width="11" height="11" rx="2.5" fill="#8b95a1" opacity="0.20"/>
<rect x="368" y="79" width="11" height="11" rx="2.5" fill="#8b95a1" opacity="0.20"/>
<rect x="368" y="92" width="11" height="11" rx="2.5" fill="#8b95a1" opacity="0.20"/>
<rect x="381" y="14" width="11" height="11" rx="2.5" fill="#8b95a1" opacity="0.20"/>
<rect x="381" y="27" width="11" height="11" rx="2.5" fill="#8b95a1" opacity="0.20"/>
<rect x="381" y="40" width="11" height="11" rx="2.5" fill="#8b95a1" opacity="0.20"/>
<rect x="381" y="53" width="11" height="11" rx="2.5" fill="#8b95a1" opacity="0.20"/>
<rect x="381" y="66" width="11" height="11" rx="2.5" fill="#8b95a1" opacity="0.20"/>
<rect x="381" y="79" width="11" height="11" rx="2.5" fill="#8b95a1" opacity="0.20"/>
<rect x="381" y="92" width="11" height="11" rx="2.5" fill="#8b95a1" opacity="0.20"/>
<rect x="394" y="14" width="11" height="11" rx="2.5" fill="#8b95a1" opacity="0.20"/>
<rect x="394" y="27" width="11" height="11" rx="2.5" fill="#8b95a1" opacity="0.20"/>
<rect x="394" y="40" width="11" height="11" rx="2.5" fill="#8b95a1" opacity="0.20"/>
<rect x="394" y="53" width="11" height="11" rx="2.5" fill="#8b95a1" opacity="0.20"/>
<rect x="394" y="66" width="11" height="11" rx="2.5" fill="#8b95a1" opacity="0.20"/>
<rect x="394" y="79" width="11" height="11" rx="2.5" fill="#8b95a1" opacity="0.20"/>
<rect x="394" y="92" width="11" height="11" rx="2.5" fill="#8b95a1" opacity="0.20"/>
<rect x="407" y="14" width="11" height="11" rx="2.5" fill="#8b95a1" opacity="0.20"/>
<rect x="407" y="27" width="11" height="11" rx="2.5" fill="#8b95a1" opacity="0.20"/>
<rect x="407" y="40" width="11" height="11" rx="2.5" fill="#8b95a1" opacity="0.20"/>
<rect x="407" y="53" width="11" height="11" rx="2.5" fill="#8b95a1" opacity="0.20"/>
<rect x="407" y="66" width="11" height="11" rx="2.5" fill="#8b95a1" opacity="0.20"/>
<rect x="407" y="79" width="11" height="11" rx="2.5" fill="#8b95a1" opacity="0.20"/>
<rect x="407" y="92" width="11" height="11" rx="2.5" fill="#8b95a1" opacity="0.20"/>
<rect x="420" y="14" width="11" height="11" rx="2.5" fill="#8b95a1" opacity="0.20"/>
<rect x="420" y="27" width="11" height="11" rx="2.5" fill="#8b95a1" opacity="0.20"/>
<rect x="420" y="40" width="11" height="11" rx="2.5" fill="#8b95a1" opacity="0.20"/>
<rect x="420" y="53" width="11" height="11" rx="2.5" fill="#8b95a1" opacity="0.20"/>
<rect x="420" y="66" width="11" height="11" rx="2.5" fill="#8b95a1" opacity="0.20"/>
<rect x="420" y="79" width="11" height="11" rx="2.5" fill="#8b95a1" opacity="0.20"/>
<rect x="420" y="92" width="11" height="11" rx="2.5" fill="#8b95a1" opacity="0.20"/>
<rect x="433" y="14" width="11" height="11" rx="2.5" fill="#8b95a1" opacity="0.20"/>
<rect x="433" y="27" width="11" height="11" rx="2.5" fill="#8b95a1" opacity="0.20"/>
<rect x="433" y="40" width="11" height="11" rx="2.5" fill="#8b95a1" opacity="0.20"/>
<rect x="433" y="53" width="11" height="11" rx="2.5" fill="#8b95a1" opacity="0.20"/>
<rect x="433" y="66" width="11" height="11" rx="2.5" fill="#8b95a1" opacity="0.20"/>
<rect x="433" y="79" width="11" height="11" rx="2.5" fill="#8b95a1" opacity="0.20"/>
<rect x="433" y="92" width="11" height="11" rx="2.5" fill="#8b95a1" opacity="0.20"/>
<rect x="446" y="14" width="11" height="11" rx="2.5" fill="#8b95a1" opacity="0.20"/>
<rect x="446" y="27" width="11" height="11" rx="2.5" fill="#8b95a1" opacity="0.20"/>
<rect x="446" y="40" width="11" height="11" rx="2.5" fill="#8b95a1" opacity="0.20"/>
<rect x="446" y="53" width="11" height="11" rx="2.5" fill="#8b95a1" opacity="0.20"/>
<rect x="446" y="66" width="11" height="11" rx="2.5" fill="#8b95a1" opacity="0.20"/>
<rect x="446" y="79" width="11" height="11" rx="2.5" fill="#8b95a1" opacity="0.20"/>
<rect x="446" y="92" width="11" height="11" rx="2.5" fill="#8b95a1" opacity="0.20"/>
<rect x="459" y="14" width="11" height="11" rx="2.5" fill="#8b95a1" opacity="0.20"/>
<rect x="459" y="27" width="11" height="11" rx="2.5" fill="#8b95a1" opacity="0.20"/>
<rect x="459" y="40" width="11" height="11" rx="2.5" fill="#8b95a1" opacity="0.20"/>
<rect x="459" y="53" width="11" height="11" rx="2.5" fill="#8b95a1" opacity="0.20"/>
<rect x="459" y="66" width="11" height="11" rx="2.5" fill="#8b95a1" opacity="0.20"/>
<rect x="459" y="79" width="11" height="11" rx="2.5" fill="#8b95a1" opacity="0.20"/>
<rect x="459" y="92" width="11" height="11" rx="2.5" fill="#8b95a1" opacity="0.20"/>
<rect x="472" y="14" width="11" height="11" rx="2.5" fill="#8b95a1" opacity="0.20"/>
<rect x="472" y="27" width="11" height="11" rx="2.5" fill="#8b95a1" opacity="0.20"/>
<rect x="472" y="40" width="11" height="11" rx="2.5" fill="#8b95a1" opacity="0.20"/>
<rect x="472" y="53" width="11" height="11" rx="2.5" fill="#8b95a1" opacity="0.20"/>
<rect x="472" y="66" width="11" height="11" rx="2.5" fill="#8b95a1" opacity="0.20"/>
<rect x="472" y="79" width="11" height="11" rx="2.5" fill="#8b95a1" opacity="0.20"/>
<rect x="472" y="92" width="11" height="11" rx="2.5" fill="#8b95a1" opacity="0.20"/>
<rect x="485" y="14" width="11" height="11" rx="2.5" fill="#8b95a1" opacity="0.20"/>
<rect x="485" y="27" width="11" height="11" rx="2.5" fill="#8b95a1" opacity="0.20"/>
<rect x="485" y="40" width="11" height="11" rx="2.5" fill="#8b95a1" opacity="0.20"/>
<rect x="485" y="53" width="11" height="11" rx="2.5" fill="#8b95a1" opacity="0.20"/>
<rect x="485" y="66" width="11" height="11" rx="2.5" fill="#8b95a1" opacity="0.20"/>
<rect x="485" y="79" width="11" height="11" rx="2.5" fill="#8b95a1" opacity="0.20"/>
<rect x="485" y="92" width="11" height="11" rx="2.5" fill="#8b95a1" opacity="0.20"/>
<rect x="498" y="14" width="11" height="11" rx="2.5" fill="#8b95a1" opacity="0.20"/>
<rect x="498" y="27" width="11" height="11" rx="2.5" fill="#8b95a1" opacity="0.20"/>
<rect x="498" y="40" width="11" height="11" rx="2.5" fill="#8b95a1" opacity="0.20"/>
<rect x="498" y="53" width="11" height="11" rx="2.5" fill="#8b95a1" opacity="0.20"/>
<rect x="498" y="66" width="11" height="11" rx="2.5" fill="#8b95a1" opacity="0.20"/>
<rect x="498" y="79" width="11" height="11" rx="2.5" fill="#8b95a1" opacity="0.20"/>
<rect x="498" y="92" width="11" height="11" rx="2.5" fill="#8b95a1" opacity="0.20"/>
<rect x="511" y="14" width="11" height="11" rx="2.5" fill="#8b95a1" opacity="0.20"/>
<rect x="511" y="27" width="11" height="11" rx="2.5" fill="#8b95a1" opacity="0.20"/>
<rect x="511" y="40" width="11" height="11" rx="2.5" fill="#8b95a1" opacity="0.20"/>
<rect x="511" y="53" width="11" height="11" rx="2.5" fill="#8b95a1" opacity="0.20"/>
<rect x="511" y="66" width="11" height="11" rx="2.5" fill="#8b95a1" opacity="0.20"/>
<rect x="511" y="79" width="11" height="11" rx="2.5" fill="#8b95a1" opacity="0.20"/>
<rect x="511" y="92" width="11" height="11" rx="2.5" fill="#8b95a1" opacity="0.20"/>
<rect x="524" y="14" width="11" height="11" rx="2.5" fill="#8b95a1" opacity="0.20"/>
<rect x="524" y="27" width="11" height="11" rx="2.5" fill="#8b95a1" opacity="0.20"/>
<rect x="524" y="40" width="11" height="11" rx="2.5" fill="#8b95a1" opacity="0.20"/>
<rect x="524" y="53" width="11" height="11" rx="2.5" fill="#8b95a1" opacity="0.20"/>
<rect x="524" y="66" width="11" height="11" rx="2.5" fill="#8b95a1" opacity="0.20"/>
<rect x="524" y="79" width="11" height="11" rx="2.5" fill="#8b95a1" opacity="0.20"/>
<rect x="524" y="92" width="11" height="11" rx="2.5" fill="#8b95a1" opacity="0.20"/>
<rect x="537" y="14" width="11" height="11" rx="2.5" fill="#8b95a1" opacity="0.20"/>
<rect x="537" y="27" width="11" height="11" rx="2.5" fill="#8b95a1" opacity="0.20"/>
<rect x="537" y="40" width="11" height="11" rx="2.5" fill="#8b95a1" opacity="0.20"/>
<rect x="537" y="53" width="11" height="11" rx="2.5" fill="#8b95a1" opacity="0.20"/>
<rect x="537" y="66" width="11" height="11" rx="2.5" fill="#8b95a1" opacity="0.20"/>
<rect x="537" y="79" width="11" height="11" rx="2.5" fill="#8b95a1" opacity="0.20"/>
<rect x="537" y="92" width="11" height="11" rx="2.5" fill="#8b95a1" opacity="0.20"/>
<rect x="550" y="14" width="11" height="11" rx="2.5" fill="#8b95a1" opacity="0.20"/>
<rect x="550" y="27" width="11" height="11" rx="2.5" fill="#8b95a1" opacity="0.20"/>
<rect x="550" y="40" width="11" height="11" rx="2.5" fill="#8b95a1" opacity="0.20"/>
<rect x="550" y="53" width="11" height="11" rx="2.5" fill="#8b95a1" opacity="0.20"/>
<rect x="550" y="66" width="11" height="11" rx="2.5" fill="#8b95a1" opacity="0.20"/>
<rect x="550" y="79" width="11" height="11" rx="2.5" fill="#8b95a1" opacity="0.20"/>
<rect x="550" y="92" width="11" height="11" rx="2.5" fill="#8b95a1" opacity="0.20"/>
<rect x="563" y="14" width="11" height="11" rx="2.5" fill="#8b95a1" opacity="0.20"/>
<rect x="563" y="27" width="11" height="11" rx="2.5" fill="#8b95a1" opacity="0.20"/>
<rect x="563" y="40" width="11" height="11" rx="2.5" fill="#8b95a1" opacity="0.20"/>
<rect x="563" y="53" width="11" height="11" rx="2.5" fill="#8b95a1" opacity="0.20"/>
<rect x="563" y="66" width="11" height="11" rx="2.5" fill="#8b95a1" opacity="0.20"/>
<rect x="563" y="79" width="11" height="11" rx="2.5" fill="#8b95a1" opacity="0.20"/>
<rect x="563" y="92" width="11" height="11" rx="2.5" fill="#8b95a1" opacity="0.20"/>
<rect x="576" y="14" width="11" height="11" rx="2.5" fill="#8b95a1" opacity="0.20"/>
<rect x="576" y="27" width="11" height="11" rx="2.5" fill="#8b95a1" opacity="0.20"/>
<rect x="576" y="40" width="11" height="11" rx="2.5" fill="#8b95a1" opacity="0.20"/>
<rect x="576" y="53" width="11" height="11" rx="2.5" fill="#8b95a1" opacity="0.20"/>
<rect x="576" y="66" width="11" height="11" rx="2.5" fill="#8b95a1" opacity="0.20"/>
<rect x="576" y="79" width="11" height="11" rx="2.5" fill="#8b95a1" opacity="0.20"/>
<rect x="576" y="92" width="11" height="11" rx="2.5" fill="#8b95a1" opacity="0.20"/>
<rect x="589" y="14" width="11" height="11" rx="2.5" fill="#8b95a1" opacity="0.20"/>
<rect x="589" y="27" width="11" height="11" rx="2.5" fill="#8b95a1" opacity="0.20"/>
<rect x="589" y="40" width="11" height="11" rx="2.5" fill="#8b95a1" opacity="0.20"/>
<rect x="589" y="53" width="11" height="11" rx="2.5" fill="#8b95a1" opacity="0.20"/>
<rect x="589" y="66" width="11" height="11" rx="2.5" fill="#8b95a1" opacity="0.20"/>
<rect x="589" y="79" width="11" height="11" rx="2.5" fill="#8b95a1" opacity="0.20"/>
<rect x="589" y="92" width="11" height="11" rx="2.5" fill="#8b95a1" opacity="0.20"/>
<rect x="602" y="14" width="11" height="11" rx="2.5" fill="#8b95a1" opacity="0.20"/>
<rect x="602" y="27" width="11" height="11" rx="2.5" fill="#8b95a1" opacity="0.20"/>
<rect x="602" y="40" width="11" height="11" rx="2.5" fill="#8b95a1" opacity="0.20"/>
<rect x="602" y="53" width="11" height="11" rx="2.5" fill="#8b95a1" opacity="0.20"/>
<rect x="602" y="66" width="11" height="11" rx="2.5" fill="#8b95a1" opacity="0.20"/>
<rect x="602" y="79" width="11" height="11" rx="2.5" fill="#8b95a1" opacity="0.20"/>
<rect x="602" y="92" width="11" height="11" rx="2.5" fill="#8b95a1" opacity="0.20"/>
<rect x="615" y="14" width="11" height="11" rx="2.5" fill="#8b95a1" opacity="0.20"/>
<rect x="615" y="27" width="11" height="11" rx="2.5" fill="#8b95a1" opacity="0.20"/>
<rect x="615" y="40" width="11" height="11" rx="2.5" fill="#8b95a1" opacity="0.20"/>
<rect x="615" y="53" width="11" height="11" rx="2.5" fill="#8b95a1" opacity="0.20"/>
<rect x="615" y="66" width="11" height="11" rx="2.5" fill="#8b95a1" opacity="0.20"/>
<rect x="615" y="79" width="11" height="11" rx="2.5" fill="#a7e8d8" class="c" style="animation-name:e45_5"/>
<rect x="615" y="92" width="11" height="11" rx="2.5" fill="#5fcdb5" class="c" style="animation-name:e45_6"/>
<rect x="628" y="14" width="11" height="11" rx="2.5" fill="#1f7a6b" class="c" style="animation-name:e46_0"/>
<rect x="628" y="27" width="11" height="11" rx="2.5" fill="#35a08e" class="c" style="animation-name:e46_1"/>
<rect x="628" y="40" width="11" height="11" rx="2.5" fill="#8b95a1" opacity="0.20"/>
<rect x="628" y="53" width="11" height="11" rx="2.5" fill="#35a08e" class="c" style="animation-name:e46_3"/>
<rect x="628" y="66" width="11" height="11" rx="2.5" fill="#8b95a1" opacity="0.20"/>
<rect x="628" y="79" width="11" height="11" rx="2.5" fill="#8b95a1" opacity="0.20"/>
<rect x="628" y="92" width="11" height="11" rx="2.5" fill="#8b95a1" opacity="0.20"/>
<rect x="641" y="14" width="11" height="11" rx="2.5" fill="#a7e8d8" class="c" style="animation-name:e47_0"/>
<rect x="641" y="27" width="11" height="11" rx="2.5" fill="#35a08e" class="c" style="animation-name:e47_1"/>
<rect x="641" y="40" width="11" height="11" rx="2.5" fill="#5fcdb5" class="c" style="animation-name:e47_2"/>
<rect x="641" y="53" width="11" height="11" rx="2.5" fill="#35a08e" class="c" style="animation-name:e47_3"/>
<rect x="641" y="66" width="11" height="11" rx="2.5" fill="#a7e8d8" class="c" style="animation-name:e47_4"/>
<rect x="641" y="79" width="11" height="11" rx="2.5" fill="#8b95a1" opacity="0.20"/>
<rect x="641" y="92" width="11" height="11" rx="2.5" fill="#8b95a1" opacity="0.20"/>
<rect x="654" y="14" width="11" height="11" rx="2.5" fill="#8b95a1" opacity="0.20"/>
<rect x="654" y="27" width="11" height="11" rx="2.5" fill="#a7e8d8" class="c" style="animation-name:e48_1"/>
<rect x="654" y="40" width="11" height="11" rx="2.5" fill="#a7e8d8" class="c" style="animation-name:e48_2"/>
<rect x="654" y="53" width="11" height="11" rx="2.5" fill="#8b95a1" opacity="0.20"/>
<rect x="654" y="66" width="11" height="11" rx="2.5" fill="#8b95a1" opacity="0.20"/>
<rect x="654" y="79" width="11" height="11" rx="2.5" fill="#8b95a1" opacity="0.20"/>
<rect x="654" y="92" width="11" height="11" rx="2.5" fill="#8b95a1" opacity="0.20"/>
<rect x="667" y="14" width="11" height="11" rx="2.5" fill="#8b95a1" opacity="0.20"/>
<rect x="667" y="27" width="11" height="11" rx="2.5" fill="#8b95a1" opacity="0.20"/>
<rect x="667" y="40" width="11" height="11" rx="2.5" fill="#8b95a1" opacity="0.20"/>
<rect x="667" y="53" width="11" height="11" rx="2.5" fill="#8b95a1" opacity="0.20"/>
<rect x="667" y="66" width="11" height="11" rx="2.5" fill="#8b95a1" opacity="0.20"/>
<rect x="667" y="79" width="11" height="11" rx="2.5" fill="#8b95a1" opacity="0.20"/>
<rect x="667" y="92" width="11" height="11" rx="2.5" fill="#8b95a1" opacity="0.20"/>
<rect x="680" y="14" width="11" height="11" rx="2.5" fill="#a7e8d8" class="c" style="animation-name:e50_0"/>
<rect x="680" y="27" width="11" height="11" rx="2.5" fill="#35a08e" class="c" style="animation-name:e50_1"/>
<rect x="680" y="40" width="11" height="11" rx="2.5" fill="#5fcdb5" class="c" style="animation-name:e50_2"/>
<rect x="680" y="53" width="11" height="11" rx="2.5" fill="#1f7a6b" class="c" style="animation-name:e50_3"/>
<rect x="680" y="66" width="11" height="11" rx="2.5" fill="#5fcdb5" class="c" style="animation-name:e50_4"/>
<rect x="680" y="79" width="11" height="11" rx="2.5" fill="#5fcdb5" class="c" style="animation-name:e50_5"/>
<rect x="680" y="92" width="11" height="11" rx="2.5" fill="#1f7a6b" class="c" style="animation-name:e50_6"/>
<rect x="693" y="14" width="11" height="11" rx="2.5" fill="#1f7a6b" class="c" style="animation-name:e51_0"/>
<rect x="693" y="27" width="11" height="11" rx="2.5" fill="#1f7a6b" class="c" style="animation-name:e51_1"/>
<rect x="693" y="40" width="11" height="11" rx="2.5" fill="#35a08e" class="c" style="animation-name:e51_2"/>
<rect x="693" y="53" width="11" height="11" rx="2.5" fill="#8b95a1" opacity="0.20"/>
<rect x="693" y="66" width="11" height="11" rx="2.5" fill="#8b95a1" opacity="0.20"/>
<rect x="693" y="79" width="11" height="11" rx="2.5" fill="#8b95a1" opacity="0.20"/>
<rect x="693" y="92" width="11" height="11" rx="2.5" fill="#8b95a1" opacity="0.20"/>
<text x="3" y="35.5" font-size="9" fill="#8b95a1">Пн</text>
<text x="3" y="61.5" font-size="9" fill="#8b95a1">Ср</text>
<text x="3" y="87.5" font-size="9" fill="#8b95a1">Пт</text>
<clipPath id="gclip"><rect x="30" y="14" width="674" height="89"/></clipPath>
<g clip-path="url(#gclip)">
<rect class="sg" style="animation-name:snk,g19;animation-delay:1.140s,0s" x="0" y="0" width="11" height="11" rx="3"/>
<rect class="sg" style="animation-name:snk,g18;animation-delay:1.080s,0s" x="0" y="0" width="11" height="11" rx="3"/>
<rect class="sg" style="animation-name:snk,g17;animation-delay:1.020s,0s" x="0" y="0" width="11" height="11" rx="3"/>
<rect class="sg" style="animation-name:snk,g16;animation-delay:0.960s,0s" x="0" y="0" width="11" height="11" rx="3"/>
<rect class="sg" style="animation-name:snk,g15;animation-delay:0.900s,0s" x="0" y="0" width="11" height="11" rx="3"/>
<rect class="sg" style="animation-name:snk,g14;animation-delay:0.840s,0s" x="0" y="0" width="11" height="11" rx="3"/>
<rect class="sg" style="animation-name:snk,g13;animation-delay:0.780s,0s" x="0" y="0" width="11" height="11" rx="3"/>
<rect class="sg" style="animation-name:snk,g12;animation-delay:0.720s,0s" x="0" y="0" width="11" height="11" rx="3"/>
<rect class="sg" style="animation-name:snk,g11;animation-delay:0.660s,0s" x="0" y="0" width="11" height="11" rx="3"/>
<rect class="sg" style="animation-name:snk,g10;animation-delay:0.600s,0s" x="0" y="0" width="11" height="11" rx="3"/>
<rect class="sg" style="animation-name:snk,g9;animation-delay:0.540s,0s" x="0" y="0" width="11" height="11" rx="3"/>
<rect class="sg" style="animation-name:snk,g8;animation-delay:0.480s,0s" x="0" y="0" width="11" height="11" rx="3"/>
<rect class="sg" style="animation-name:snk,g7;animation-delay:0.420s,0s" x="0" y="0" width="11" height="11" rx="3"/>
<rect class="sg" style="animation-name:snk,g6;animation-delay:0.360s,0s" x="0" y="0" width="11" height="11" rx="3"/>
<rect class="sg" style="animation-name:snk,g5;animation-delay:0.300s,0s" x="0" y="0" width="11" height="11" rx="3"/>
<rect class="sg" style="animation-name:snk,g4;animation-delay:0.240s,0s" x="0" y="0" width="11" height="11" rx="3"/>
<rect class="sg" style="animation-delay:0.180s;opacity:0.875" x="0" y="0" width="11" height="11" rx="3"/>
<rect class="sg" style="animation-delay:0.120s;opacity:0.89" x="0" y="0" width="11" height="11" rx="3"/>
<rect class="sg" style="animation-delay:0.060s;opacity:0.905" x="0" y="0" width="11" height="11" rx="3"/>
<rect class="sg" style="animation-delay:0.000s;opacity:1" x="0" y="0" width="11" height="11" rx="5.5"/>
</g>
</svg>
