<svg xmlns="http://www.w3.org/2000/svg" viewBox="0 0 710 109" role="img" aria-label="git-активность candycate-studio за год: змейка съедает клетки коммитов">
<title>git-активность candycate-studio</title>
<style>.c{animation-duration:11.76s;animation-timing-function:linear;animation-iteration-count:infinite}.sg{transform-box:view-box;transform-origin:0 0;fill:#d8285a;animation:snk 11.76s linear infinite}@keyframes snk{0%{transform:translate(-22px,53px)}0.51%{transform:translate(-9px,53px)}1.02%{transform:translate(4px,53px)}1.531%{transform:translate(17px,53px)}2.041%{transform:translate(30px,53px)}2.551%{transform:translate(30px,40px)}3.061%{transform:translate(43px,40px)}3.571%{transform:translate(43px,53px)}4.082%{transform:translate(56px,53px)}4.592%{transform:translate(69px,53px)}5.102%{transform:translate(69px,66px)}5.612%{transform:translate(82px,66px)}6.122%{transform:translate(82px,53px)}6.633%{transform:translate(95px,53px)}7.143%{transform:translate(95px,40px)}7.653%{transform:translate(108px,40px)}8.163%{transform:translate(108px,53px)}8.673%{transform:translate(108px,66px)}9.184%{transform:translate(121px,66px)}9.694%{transform:translate(121px,53px)}10.204%{transform:translate(121px,40px)}10.714%{transform:translate(134px,40px)}11.224%{transform:translate(134px,53px)}11.735%{transform:translate(147px,53px)}12.245%{transform:translate(147px,66px)}12.755%{transform:translate(160px,66px)}13.265%{transform:translate(173px,66px)}13.776%{transform:translate(186px,66px)}14.286%{transform:translate(186px,53px)}14.796%{transform:translate(199px,53px)}15.306%{transform:translate(212px,53px)}15.816%{transform:translate(225px,53px)}16.327%{transform:translate(238px,53px)}16.837%{transform:translate(238px,40px)}17.347%{transform:translate(251px,40px)}17.857%{transform:translate(251px,53px)}18.367%{transform:translate(251px,66px)}18.878%{transform:translate(264px,66px)}19.388%{transform:translate(277px,66px)}19.898%{transform:translate(290px,66px)}20.408%{transform:translate(303px,66px)}20.918%{transform:translate(316px,66px)}21.429%{transform:translate(329px,66px)}21.939%{transform:translate(342px,66px)}22.449%{transform:translate(355px,66px)}22.959%{transform:translate(368px,66px)}23.469%{transform:translate(368px,53px)}23.98%{transform:translate(381px,53px)}24.49%{transform:translate(394px,53px)}25%{transform:translate(407px,53px)}25.51%{transform:translate(420px,53px)}26.02%{transform:translate(433px,53px)}26.531%{transform:translate(446px,53px)}27.041%{transform:translate(459px,53px)}27.551%{transform:translate(472px,53px)}28.061%{transform:translate(485px,53px)}28.571%{transform:translate(498px,53px)}29.082%{transform:translate(511px,53px)}29.592%{transform:translate(524px,53px)}30.102%{transform:translate(537px,53px)}30.612%{transform:translate(537px,66px)}31.122%{transform:translate(550px,66px)}31.633%{transform:translate(550px,53px)}32.143%{transform:translate(550px,40px)}32.653%{transform:translate(563px,40px)}33.163%{transform:translate(563px,53px)}33.673%{transform:translate(563px,66px)}34.184%{transform:translate(576px,66px)}34.694%{transform:translate(576px,53px)}35.204%{transform:translate(576px,40px)}35.714%{transform:translate(576px,27px)}36.224%{transform:translate(563px,27px)}36.735%{transform:translate(563px,14px)}37.245%{transform:translate(550px,14px)}37.755%{transform:translate(550px,27px)}38.265%{transform:translate(537px,27px)}38.776%{transform:translate(537px,40px)}39.286%{transform:translate(550px,40px)}39.796%{transform:translate(563px,40px)}40.306%{transform:translate(576px,40px)}40.816%{transform:translate(589px,40px)}41.327%{transform:translate(589px,27px)}41.837%{transform:translate(602px,27px)}42.347%{transform:translate(602px,14px)}42.857%{transform:translate(615px,14px)}43.367%{transform:translate(628px,14px)}43.878%{transform:translate(628px,27px)}44.388%{transform:translate(615px,27px)}44.898%{transform:translate(615px,40px)}45.408%{transform:translate(628px,40px)}45.918%{transform:translate(641px,40px)}46.429%{transform:translate(654px,40px)}46.939%{transform:translate(667px,40px)}47.449%{transform:translate(667px,53px)}47.959%{transform:translate(667px,66px)}48.469%{transform:translate(654px,66px)}48.98%{transform:translate(654px,53px)}49.49%{transform:translate(641px,53px)}50%{transform:translate(628px,53px)}50.51%{transform:translate(628px,66px)}51.02%{transform:translate(641px,66px)}51.531%{transform:translate(641px,79px)}52.041%{transform:translate(628px,79px)}52.551%{transform:translate(628px,92px)}53.061%{transform:translate(615px,92px)}53.571%{transform:translate(615px,79px)}54.082%{transform:translate(615px,66px)}54.592%{transform:translate(602px,66px)}55.102%{transform:translate(602px,79px)}55.612%{transform:translate(602px,92px)}56.122%{transform:translate(589px,92px)}56.633%{transform:translate(576px,92px)}57.143%{transform:translate(563px,92px)}57.653%{transform:translate(550px,92px)}58.163%{transform:translate(550px,79px)}58.673%{transform:translate(563px,79px)}59.184%{transform:translate(576px,79px)}59.694%{transform:translate(589px,79px)}60.204%{transform:translate(589px,92px)}60.714%{transform:translate(602px,92px)}61.224%{transform:translate(615px,92px)}61.735%{transform:translate(628px,92px)}62.245%{transform:translate(641px,92px)}62.755%{transform:translate(654px,92px)}63.265%{transform:translate(654px,79px)}63.776%{transform:translate(654px,66px)}64.286%{transform:translate(667px,66px)}64.796%{transform:translate(680px,66px)}65.306%{transform:translate(680px,79px)}65.816%{transform:translate(667px,79px)}66.327%{transform:translate(667px,92px)}66.837%{transform:translate(680px,92px)}67.347%{transform:translate(693px,92px)}67.857%{transform:translate(693px,79px)}68.367%{transform:translate(693px,66px)}68.878%{transform:translate(680px,66px)}69.388%{transform:translate(680px,53px)}69.898%{transform:translate(667px,53px)}70.408%{transform:translate(667px,40px)}70.918%{transform:translate(680px,40px)}71.429%{transform:translate(693px,40px)}71.939%{transform:translate(693px,27px)}72.449%{transform:translate(693px,14px)}72.959%{transform:translate(680px,14px)}73.469%{transform:translate(667px,14px)}73.98%{transform:translate(654px,14px)}74.49%{transform:translate(641px,14px)}75%{transform:translate(641px,27px)}75.51%{transform:translate(641px,40px)}76.02%{transform:translate(654px,40px)}76.531%{transform:translate(654px,27px)}77.041%{transform:translate(667px,27px)}77.551%{transform:translate(680px,27px)}78.061%{transform:translate(693px,27px)}78.571%{transform:translate(693px,40px)}79.082%{transform:translate(693px,53px)}79.592%{transform:translate(693px,66px)}80.102%{transform:translate(680px,66px)}80.612%{transform:translate(667px,66px)}81.122%{transform:translate(654px,66px)}81.633%{transform:translate(641px,66px)}82.143%{transform:translate(628px,66px)}82.653%{transform:translate(628px,53px)}83.163%{transform:translate(615px,53px)}83.673%{transform:translate(602px,53px)}84.184%{transform:translate(602px,40px)}84.694%{transform:translate(589px,40px)}85.204%{transform:translate(589px,53px)}85.714%{transform:translate(589px,66px)}86.224%{transform:translate(589px,79px)}86.735%{transform:translate(576px,79px)}87.245%{transform:translate(563px,79px)}87.755%{transform:translate(563px,66px)}88.265%{transform:translate(550px,66px)}88.776%{transform:translate(550px,79px)}89.286%{transform:translate(537px,79px)}89.796%{transform:translate(537px,92px)}90.306%{transform:translate(550px,92px)}90.816%{transform:translate(563px,92px)}91.327%{transform:translate(576px,92px)}91.837%{transform:translate(589px,92px)}92.347%{transform:translate(602px,92px)}92.857%{transform:translate(615px,92px)}93.367%{transform:translate(628px,92px)}93.878%{transform:translate(641px,92px)}94.388%{transform:translate(654px,92px)}94.898%{transform:translate(667px,92px)}95.408%{transform:translate(680px,92px)}95.918%{transform:translate(693px,92px)}96.429%{transform:translate(706px,92px)}96.939%{transform:translate(719px,92px)}97.449%{transform:translate(732px,92px)}97.959%{transform:translate(745px,92px)}98.469%{transform:translate(758px,92px)}98.98%{transform:translate(771px,92px)}99.49%{transform:translate(784px,92px)}100%{transform:translate(797px,92px)}}@keyframes e39_5{0%,89.286%{fill:#a7e8d8;opacity:1}89.694%,100%{fill:#8b95a1;opacity:.2}}@keyframes e39_6{0%,89.796%{fill:#5fcdb5;opacity:1}90.204%,100%{fill:#8b95a1;opacity:.2}}@keyframes e40_0{0%,37.245%{fill:#1f7a6b;opacity:1}37.653%,100%{fill:#8b95a1;opacity:.2}}@keyframes e40_1{0%,37.755%{fill:#35a08e;opacity:1}38.163%,100%{fill:#8b95a1;opacity:.2}}@keyframes e40_3{0%,31.633%{fill:#35a08e;opacity:1}32.041%,100%{fill:#8b95a1;opacity:.2}}@keyframes e41_0{0%,36.735%{fill:#a7e8d8;opacity:1}37.143%,100%{fill:#8b95a1;opacity:.2}}@keyframes e41_1{0%,36.224%{fill:#35a08e;opacity:1}36.633%,100%{fill:#8b95a1;opacity:.2}}@keyframes e41_2{0%,32.653%{fill:#5fcdb5;opacity:1}33.061%,100%{fill:#8b95a1;opacity:.2}}@keyframes e41_3{0%,33.163%{fill:#35a08e;opacity:1}33.571%,100%{fill:#8b95a1;opacity:.2}}@keyframes e41_4{0%,33.673%{fill:#a7e8d8;opacity:1}34.082%,100%{fill:#8b95a1;opacity:.2}}@keyframes e42_1{0%,35.714%{fill:#a7e8d8;opacity:1}36.122%,100%{fill:#8b95a1;opacity:.2}}@keyframes e42_2{0%,35.204%{fill:#a7e8d8;opacity:1}35.612%,100%{fill:#8b95a1;opacity:.2}}@keyframes e44_0{0%,42.347%{fill:#a7e8d8;opacity:1}42.755%,100%{fill:#8b95a1;opacity:.2}}@keyframes e44_1{0%,41.837%{fill:#35a08e;opacity:1}42.245%,100%{fill:#8b95a1;opacity:.2}}@keyframes e44_2{0%,84.184%{fill:#5fcdb5;opacity:1}84.592%,100%{fill:#8b95a1;opacity:.2}}@keyframes e44_3{0%,83.673%{fill:#1f7a6b;opacity:1}84.082%,100%{fill:#8b95a1;opacity:.2}}@keyframes e44_4{0%,54.592%{fill:#5fcdb5;opacity:1}55%,100%{fill:#8b95a1;opacity:.2}}@keyframes e44_5{0%,55.102%{fill:#5fcdb5;opacity:1}55.51%,100%{fill:#8b95a1;opacity:.2}}@keyframes e44_6{0%,55.612%{fill:#1f7a6b;opacity:1}56.02%,100%{fill:#8b95a1;opacity:.2}}@keyframes e45_0{0%,42.857%{fill:#1f7a6b;opacity:1}43.265%,100%{fill:#8b95a1;opacity:.2}}@keyframes e45_1{0%,44.388%{fill:#1f7a6b;opacity:1}44.796%,100%{fill:#8b95a1;opacity:.2}}@keyframes e45_2{0%,44.898%{fill:#35a08e;opacity:1}45.306%,100%{fill:#8b95a1;opacity:.2}}@keyframes e45_3{0%,83.163%{fill:#35a08e;opacity:1}83.571%,100%{fill:#8b95a1;opacity:.2}}@keyframes e45_4{0%,54.082%{fill:#1f7a6b;opacity:1}54.49%,100%{fill:#8b95a1;opacity:.2}}@keyframes e45_5{0%,53.571%{fill:#1f7a6b;opacity:1}53.98%,100%{fill:#8b95a1;opacity:.2}}@keyframes e45_6{0%,53.061%{fill:#5fcdb5;opacity:1}53.469%,100%{fill:#8b95a1;opacity:.2}}@keyframes e46_0{0%,43.367%{fill:#1f7a6b;opacity:1}43.776%,100%{fill:#8b95a1;opacity:.2}}@keyframes e46_1{0%,43.878%{fill:#1f7a6b;opacity:1}44.286%,100%{fill:#8b95a1;opacity:.2}}@keyframes e46_2{0%,45.408%{fill:#1f7a6b;opacity:1}45.816%,100%{fill:#8b95a1;opacity:.2}}@keyframes e46_3{0%,50%{fill:#1f7a6b;opacity:1}50.408%,100%{fill:#8b95a1;opacity:.2}}@keyframes e46_4{0%,50.51%{fill:#1f7a6b;opacity:1}50.918%,100%{fill:#8b95a1;opacity:.2}}@keyframes e46_5{0%,52.041%{fill:#a7e8d8;opacity:1}52.449%,100%{fill:#8b95a1;opacity:.2}}@keyframes e46_6{0%,52.551%{fill:#35a08e;opacity:1}52.959%,100%{fill:#8b95a1;opacity:.2}}@keyframes e47_0{0%,74.49%{fill:#5fcdb5;opacity:1}74.898%,100%{fill:#8b95a1;opacity:.2}}@keyframes e47_1{0%,75%{fill:#35a08e;opacity:1}75.408%,100%{fill:#8b95a1;opacity:.2}}@keyframes e47_2{0%,45.918%{fill:#35a08e;opacity:1}46.327%,100%{fill:#8b95a1;opacity:.2}}@keyframes e47_3{0%,49.49%{fill:#5fcdb5;opacity:1}49.898%,100%{fill:#8b95a1;opacity:.2}}@keyframes e47_4{0%,51.02%{fill:#1f7a6b;opacity:1}51.429%,100%{fill:#8b95a1;opacity:.2}}@keyframes e47_5{0%,51.531%{fill:#a7e8d8;opacity:1}51.939%,100%{fill:#8b95a1;opacity:.2}}@keyframes e47_6{0%,62.245%{fill:#35a08e;opacity:1}62.653%,100%{fill:#8b95a1;opacity:.2}}@keyframes e48_0{0%,73.98%{fill:#5fcdb5;opacity:1}74.388%,100%{fill:#8b95a1;opacity:.2}}@keyframes e48_1{0%,76.531%{fill:#5fcdb5;opacity:1}76.939%,100%{fill:#8b95a1;opacity:.2}}@keyframes e48_2{0%,46.429%{fill:#5fcdb5;opacity:1}46.837%,100%{fill:#8b95a1;opacity:.2}}@keyframes e48_3{0%,48.98%{fill:#a7e8d8;opacity:1}49.388%,100%{fill:#8b95a1;opacity:.2}}@keyframes e48_4{0%,48.469%{fill:#a7e8d8;opacity:1}48.878%,100%{fill:#8b95a1;opacity:.2}}@keyframes e48_5{0%,63.265%{fill:#a7e8d8;opacity:1}63.673%,100%{fill:#8b95a1;opacity:.2}}@keyframes e48_6{0%,62.755%{fill:#35a08e;opacity:1}63.163%,100%{fill:#8b95a1;opacity:.2}}@keyframes e49_0{0%,73.469%{fill:#5fcdb5;opacity:1}73.878%,100%{fill:#8b95a1;opacity:.2}}@keyframes e49_1{0%,77.041%{fill:#a7e8d8;opacity:1}77.449%,100%{fill:#8b95a1;opacity:.2}}@keyframes e49_2{0%,46.939%{fill:#5fcdb5;opacity:1}47.347%,100%{fill:#8b95a1;opacity:.2}}@keyframes e49_3{0%,47.449%{fill:#a7e8d8;opacity:1}47.857%,100%{fill:#8b95a1;opacity:.2}}@keyframes e49_4{0%,47.959%{fill:#35a08e;opacity:1}48.367%,100%{fill:#8b95a1;opacity:.2}}@keyframes e49_5{0%,65.816%{fill:#1f7a6b;opacity:1}66.224%,100%{fill:#8b95a1;opacity:.2}}@keyframes e49_6{0%,66.327%{fill:#1f7a6b;opacity:1}66.735%,100%{fill:#8b95a1;opacity:.2}}@keyframes e50_0{0%,72.959%{fill:#1f7a6b;opacity:1}73.367%,100%{fill:#8b95a1;opacity:.2}}@keyframes e50_1{0%,77.551%{fill:#a7e8d8;opacity:1}77.959%,100%{fill:#8b95a1;opacity:.2}}@keyframes e50_2{0%,70.918%{fill:#a7e8d8;opacity:1}71.327%,100%{fill:#8b95a1;opacity:.2}}@keyframes e50_3{0%,69.388%{fill:#a7e8d8;opacity:1}69.796%,100%{fill:#8b95a1;opacity:.2}}@keyframes e50_4{0%,64.796%{fill:#5fcdb5;opacity:1}65.204%,100%{fill:#8b95a1;opacity:.2}}@keyframes e50_5{0%,65.306%{fill:#a7e8d8;opacity:1}65.714%,100%{fill:#8b95a1;opacity:.2}}@keyframes e50_6{0%,66.837%{fill:#a7e8d8;opacity:1}67.245%,100%{fill:#8b95a1;opacity:.2}}@keyframes e51_0{0%,72.449%{fill:#5fcdb5;opacity:1}72.857%,100%{fill:#8b95a1;opacity:.2}}@keyframes e51_1{0%,71.939%{fill:#a7e8d8;opacity:1}72.347%,100%{fill:#8b95a1;opacity:.2}}@keyframes e51_2{0%,71.429%{fill:#5fcdb5;opacity:1}71.837%,100%{fill:#8b95a1;opacity:.2}}@keyframes e51_3{0%,79.082%{fill:#a7e8d8;opacity:1}79.49%,100%{fill:#8b95a1;opacity:.2}}@keyframes g5{0%,32.653%{opacity:0}32.908%,100%{opacity:0.845}}@keyframes g4{0%,31.633%{opacity:0}31.888%,100%{opacity:0.86}}@media(prefers-reduced-motion:reduce){.sg{display:none}.c{animation:none}}</style>
<rect x="30" y="14" width="11" height="11" rx="2.5" fill="#8b95a1" opacity="0.20"/>
<rect x="30" y="27" width="11" height="11" rx="2.5" fill="#8b95a1" opacity="0.20"/>
<rect x="30" y="40" width="11" height="11" rx="2.5" fill="#8b95a1" opacity="0.20"/>
<rect x="30" y="53" width="11" height="11" rx="2.5" fill="#8b95a1" opacity="0.20"/>
<rect x="30" y="66" width="11" height="11" rx="2.5" fill="#8b95a1" opacity="0.20"/>
<rect x="30" y="79" width="11" height="11" rx="2.5" fill="#8b95a1" opacity="0.20"/>
<rect x="30" y="92" width="11" height="11" rx="2.5" fill="#8b95a1" opacity="0.20"/>
<rect x="43" y="14" width="11" height="11" rx="2.5" fill="#8b95a1" opacity="0.20"/>
<rect x="43" y="27" width="11" height="11" rx="2.5" fill="#8b95a1" opacity="0.20"/>
<rect x="43" y="40" width="11" height="11" rx="2.5" fill="#8b95a1" opacity="0.20"/>
<rect x="43" y="53" width="11" height="11" rx="2.5" fill="#8b95a1" opacity="0.20"/>
<rect x="43" y="66" width="11" height="11" rx="2.5" fill="#8b95a1" opacity="0.20"/>
<rect x="43" y="79" width="11" height="11" rx="2.5" fill="#8b95a1" opacity="0.20"/>
<rect x="43" y="92" width="11" height="11" rx="2.5" fill="#8b95a1" opacity="0.20"/>
<rect x="56" y="14" width="11" height="11" rx="2.5" fill="#8b95a1" opacity="0.20"/>
<rect x="56" y="27" width="11" height="11" rx="2.5" fill="#8b95a1" opacity="0.20"/>
<rect x="56" y="40" width="11" height="11" rx="2.5" fill="#8b95a1" opacity="0.20"/>
<rect x="56" y="53" width="11" height="11" rx="2.5" fill="#8b95a1" opacity="0.20"/>
<rect x="56" y="66" width="11" height="11" rx="2.5" fill="#8b95a1" opacity="0.20"/>
<rect x="56" y="79" width="11" height="11" rx="2.5" fill="#8b95a1" opacity="0.20"/>
<rect x="56" y="92" width="11" height="11" rx="2.5" fill="#8b95a1" opacity="0.20"/>
<rect x="69" y="14" width="11" height="11" rx="2.5" fill="#8b95a1" opacity="0.20"/>
<rect x="69" y="27" width="11" height="11" rx="2.5" fill="#8b95a1" opacity="0.20"/>
<rect x="69" y="40" width="11" height="11" rx="2.5" fill="#8b95a1" opacity="0.20"/>
<rect x="69" y="53" width="11" height="11" rx="2.5" fill="#8b95a1" opacity="0.20"/>
<rect x="69" y="66" width="11" height="11" rx="2.5" fill="#8b95a1" opacity="0.20"/>
<rect x="69" y="79" width="11" height="11" rx="2.5" fill="#8b95a1" opacity="0.20"/>
<rect x="69" y="92" width="11" height="11" rx="2.5" fill="#8b95a1" opacity="0.20"/>
<rect x="82" y="14" width="11" height="11" rx="2.5" fill="#8b95a1" opacity="0.20"/>
<rect x="82" y="27" width="11" height="11" rx="2.5" fill="#8b95a1" opacity="0.20"/>
<rect x="82" y="40" width="11" height="11" rx="2.5" fill="#8b95a1" opacity="0.20"/>
<rect x="82" y="53" width="11" height="11" rx="2.5" fill="#8b95a1" opacity="0.20"/>
<rect x="82" y="66" width="11" height="11" rx="2.5" fill="#8b95a1" opacity="0.20"/>
<rect x="82" y="79" width="11" height="11" rx="2.5" fill="#8b95a1" opacity="0.20"/>
<rect x="82" y="92" width="11" height="11" rx="2.5" fill="#8b95a1" opacity="0.20"/>
<rect x="95" y="14" width="11" height="11" rx="2.5" fill="#8b95a1" opacity="0.20"/>
<rect x="95" y="27" width="11" height="11" rx="2.5" fill="#8b95a1" opacity="0.20"/>
<rect x="95" y="40" width="11" height="11" rx="2.5" fill="#8b95a1" opacity="0.20"/>
<rect x="95" y="53" width="11" height="11" rx="2.5" fill="#8b95a1" opacity="0.20"/>
<rect x="95" y="66" width="11" height="11" rx="2.5" fill="#8b95a1" opacity="0.20"/>
<rect x="95" y="79" width="11" height="11" rx="2.5" fill="#8b95a1" opacity="0.20"/>
<rect x="95" y="92" width="11" height="11" rx="2.5" fill="#8b95a1" opacity="0.20"/>
<rect x="108" y="14" width="11" height="11" rx="2.5" fill="#8b95a1" opacity="0.20"/>
<rect x="108" y="27" width="11" height="11" rx="2.5" fill="#8b95a1" opacity="0.20"/>
<rect x="108" y="40" width="11" height="11" rx="2.5" fill="#8b95a1" opacity="0.20"/>
<rect x="108" y="53" width="11" height="11" rx="2.5" fill="#8b95a1" opacity="0.20"/>
<rect x="108" y="66" width="11" height="11" rx="2.5" fill="#8b95a1" opacity="0.20"/>
<rect x="108" y="79" width="11" height="11" rx="2.5" fill="#8b95a1" opacity="0.20"/>
<rect x="108" y="92" width="11" height="11" rx="2.5" fill="#8b95a1" opacity="0.20"/>
<rect x="121" y="14" width="11" height="11" rx="2.5" fill="#8b95a1" opacity="0.20"/>
<rect x="121" y="27" width="11" height="11" rx="2.5" fill="#8b95a1" opacity="0.20"/>
<rect x="121" y="40" width="11" height="11" rx="2.5" fill="#8b95a1" opacity="0.20"/>
<rect x="121" y="53" width="11" height="11" rx="2.5" fill="#8b95a1" opacity="0.20"/>
<rect x="121" y="66" width="11" height="11" rx="2.5" fill="#8b95a1" opacity="0.20"/>
<rect x="121" y="79" width="11" height="11" rx="2.5" fill="#8b95a1" opacity="0.20"/>
<rect x="121" y="92" width="11" height="11" rx="2.5" fill="#8b95a1" opacity="0.20"/>
<rect x="134" y="14" width="11" height="11" rx="2.5" fill="#8b95a1" opacity="0.20"/>
<rect x="134" y="27" width="11" height="11" rx="2.5" fill="#8b95a1" opacity="0.20"/>
<rect x="134" y="40" width="11" height="11" rx="2.5" fill="#8b95a1" opacity="0.20"/>
<rect x="134" y="53" width="11" height="11" rx="2.5" fill="#8b95a1" opacity="0.20"/>
<rect x="134" y="66" width="11" height="11" rx="2.5" fill="#8b95a1" opacity="0.20"/>
<rect x="134" y="79" width="11" height="11" rx="2.5" fill="#8b95a1" opacity="0.20"/>
<rect x="134" y="92" width="11" height="11" rx="2.5" fill="#8b95a1" opacity="0.20"/>
<rect x="147" y="14" width="11" height="11" rx="2.5" fill="#8b95a1" opacity="0.20"/>
<rect x="147" y="27" width="11" height="11" rx="2.5" fill="#8b95a1" opacity="0.20"/>
<rect x="147" y="40" width="11" height="11" rx="2.5" fill="#8b95a1" opacity="0.20"/>
<rect x="147" y="53" width="11" height="11" rx="2.5" fill="#8b95a1" opacity="0.20"/>
<rect x="147" y="66" width="11" height="11" rx="2.5" fill="#8b95a1" opacity="0.20"/>
<rect x="147" y="79" width="11" height="11" rx="2.5" fill="#8b95a1" opacity="0.20"/>
<rect x="147" y="92" width="11" height="11" rx="2.5" fill="#8b95a1" opacity="0.20"/>
<rect x="160" y="14" width="11" height="11" rx="2.5" fill="#8b95a1" opacity="0.20"/>
<rect x="160" y="27" width="11" height="11" rx="2.5" fill="#8b95a1" opacity="0.20"/>
<rect x="160" y="40" width="11" height="11" rx="2.5" fill="#8b95a1" opacity="0.20"/>
<rect x="160" y="53" width="11" height="11" rx="2.5" fill="#8b95a1" opacity="0.20"/>
<rect x="160" y="66" width="11" height="11" rx="2.5" fill="#8b95a1" opacity="0.20"/>
<rect x="160" y="79" width="11" height="11" rx="2.5" fill="#8b95a1" opacity="0.20"/>
<rect x="160" y="92" width="11" height="11" rx="2.5" fill="#8b95a1" opacity="0.20"/>
<rect x="173" y="14" width="11" height="11" rx="2.5" fill="#8b95a1" opacity="0.20"/>
<rect x="173" y="27" width="11" height="11" rx="2.5" fill="#8b95a1" opacity="0.20"/>
<rect x="173" y="40" width="11" height="11" rx="2.5" fill="#8b95a1" opacity="0.20"/>
<rect x="173" y="53" width="11" height="11" rx="2.5" fill="#8b95a1" opacity="0.20"/>
<rect x="173" y="66" width="11" height="11" rx="2.5" fill="#8b95a1" opacity="0.20"/>
<rect x="173" y="79" width="11" height="11" rx="2.5" fill="#8b95a1" opacity="0.20"/>
<rect x="173" y="92" width="11" height="11" rx="2.5" fill="#8b95a1" opacity="0.20"/>
<rect x="186" y="14" width="11" height="11" rx="2.5" fill="#8b95a1" opacity="0.20"/>
<rect x="186" y="27" width="11" height="11" rx="2.5" fill="#8b95a1" opacity="0.20"/>
<rect x="186" y="40" width="11" height="11" rx="2.5" fill="#8b95a1" opacity="0.20"/>
<rect x="186" y="53" width="11" height="11" rx="2.5" fill="#8b95a1" opacity="0.20"/>
<rect x="186" y="66" width="11" height="11" rx="2.5" fill="#8b95a1" opacity="0.20"/>
<rect x="186" y="79" width="11" height="11" rx="2.5" fill="#8b95a1" opacity="0.20"/>
<rect x="186" y="92" width="11" height="11" rx="2.5" fill="#8b95a1" opacity="0.20"/>
<rect x="199" y="14" width="11" height="11" rx="2.5" fill="#8b95a1" opacity="0.20"/>
<rect x="199" y="27" width="11" height="11" rx="2.5" fill="#8b95a1" opacity="0.20"/>
<rect x="199" y="40" width="11" height="11" rx="2.5" fill="#8b95a1" opacity="0.20"/>
<rect x="199" y="53" width="11" height="11" rx="2.5" fill="#8b95a1" opacity="0.20"/>
<rect x="199" y="66" width="11" height="11" rx="2.5" fill="#8b95a1" opacity="0.20"/>
<rect x="199" y="79" width="11" height="11" rx="2.5" fill="#8b95a1" opacity="0.20"/>
<rect x="199" y="92" width="11" height="11" rx="2.5" fill="#8b95a1" opacity="0.20"/>
<rect x="212" y="14" width="11" height="11" rx="2.5" fill="#8b95a1" opacity="0.20"/>
<rect x="212" y="27" width="11" height="11" rx="2.5" fill="#8b95a1" opacity="0.20"/>
<rect x="212" y="40" width="11" height="11" rx="2.5" fill="#8b95a1" opacity="0.20"/>
<rect x="212" y="53" width="11" height="11" rx="2.5" fill="#8b95a1" opacity="0.20"/>
<rect x="212" y="66" width="11" height="11" rx="2.5" fill="#8b95a1" opacity="0.20"/>
<rect x="212" y="79" width="11" height="11" rx="2.5" fill="#8b95a1" opacity="0.20"/>
<rect x="212" y="92" width="11" height="11" rx="2.5" fill="#8b95a1" opacity="0.20"/>
<rect x="225" y="14" width="11" height="11" rx="2.5" fill="#8b95a1" opacity="0.20"/>
<rect x="225" y="27" width="11" height="11" rx="2.5" fill="#8b95a1" opacity="0.20"/>
<rect x="225" y="40" width="11" height="11" rx="2.5" fill="#8b95a1" opacity="0.20"/>
<rect x="225" y="53" width="11" height="11" rx="2.5" fill="#8b95a1" opacity="0.20"/>
<rect x="225" y="66" width="11" height="11" rx="2.5" fill="#8b95a1" opacity="0.20"/>
<rect x="225" y="79" width="11" height="11" rx="2.5" fill="#8b95a1" opacity="0.20"/>
<rect x="225" y="92" width="11" height="11" rx="2.5" fill="#8b95a1" opacity="0.20"/>
<rect x="238" y="14" width="11" height="11" rx="2.5" fill="#8b95a1" opacity="0.20"/>
<rect x="238" y="27" width="11" height="11" rx="2.5" fill="#8b95a1" opacity="0.20"/>
<rect x="238" y="40" width="11" height="11" rx="2.5" fill="#8b95a1" opacity="0.20"/>
<rect x="238" y="53" width="11" height="11" rx="2.5" fill="#8b95a1" opacity="0.20"/>
<rect x="238" y="66" width="11" height="11" rx="2.5" fill="#8b95a1" opacity="0.20"/>
<rect x="238" y="79" width="11" height="11" rx="2.5" fill="#8b95a1" opacity="0.20"/>
<rect x="238" y="92" width="11" height="11" rx="2.5" fill="#8b95a1" opacity="0.20"/>
<rect x="251" y="14" width="11" height="11" rx="2.5" fill="#8b95a1" opacity="0.20"/>
<rect x="251" y="27" width="11" height="11" rx="2.5" fill="#8b95a1" opacity="0.20"/>
<rect x="251" y="40" width="11" height="11" rx="2.5" fill="#8b95a1" opacity="0.20"/>
<rect x="251" y="53" width="11" height="11" rx="2.5" fill="#8b95a1" opacity="0.20"/>
<rect x="251" y="66" width="11" height="11" rx="2.5" fill="#8b95a1" opacity="0.20"/>
<rect x="251" y="79" width="11" height="11" rx="2.5" fill="#8b95a1" opacity="0.20"/>
<rect x="251" y="92" width="11" height="11" rx="2.5" fill="#8b95a1" opacity="0.20"/>
<rect x="264" y="14" width="11" height="11" rx="2.5" fill="#8b95a1" opacity="0.20"/>
<rect x="264" y="27" width="11" height="11" rx="2.5" fill="#8b95a1" opacity="0.20"/>
<rect x="264" y="40" width="11" height="11" rx="2.5" fill="#8b95a1" opacity="0.20"/>
<rect x="264" y="53" width="11" height="11" rx="2.5" fill="#8b95a1" opacity="0.20"/>
<rect x="264" y="66" width="11" height="11" rx="2.5" fill="#8b95a1" opacity="0.20"/>
<rect x="264" y="79" width="11" height="11" rx="2.5" fill="#8b95a1" opacity="0.20"/>
<rect x="264" y="92" width="11" height="11" rx="2.5" fill="#8b95a1" opacity="0.20"/>
<rect x="277" y="14" width="11" height="11" rx="2.5" fill="#8b95a1" opacity="0.20"/>
<rect x="277" y="27" width="11" height="11" rx="2.5" fill="#8b95a1" opacity="0.20"/>
<rect x="277" y="40" width="11" height="11" rx="2.5" fill="#8b95a1" opacity="0.20"/>
<rect x="277" y="53" width="11" height="11" rx="2.5" fill="#8b95a1" opacity="0.20"/>
<rect x="277" y="66" width="11" height="11" rx="2.5" fill="#8b95a1" opacity="0.20"/>
<rect x="277" y="79" width="11" height="11" rx="2.5" fill="#8b95a1" opacity="0.20"/>
<rect x="277" y="92" width="11" height="11" rx="2.5" fill="#8b95a1" opacity="0.20"/>
<rect x="290" y="14" width="11" height="11" rx="2.5" fill="#8b95a1" opacity="0.20"/>
<rect x="290" y="27" width="11" height="11" rx="2.5" fill="#8b95a1" opacity="0.20"/>
<rect x="290" y="40" width="11" height="11" rx="2.5" fill="#8b95a1" opacity="0.20"/>
<rect x="290" y="53" width="11" height="11" rx="2.5" fill="#8b95a1" opacity="0.20"/>
<rect x="290" y="66" width="11" height="11" rx="2.5" fill="#8b95a1" opacity="0.20"/>
<rect x="290" y="79" width="11" height="11" rx="2.5" fill="#8b95a1" opacity="0.20"/>
<rect x="290" y="92" width="11" height="11" rx="2.5" fill="#8b95a1" opacity="0.20"/>
<rect x="303" y="14" width="11" height="11" rx="2.5" fill="#8b95a1" opacity="0.20"/>
<rect x="303" y="27" width="11" height="11" rx="2.5" fill="#8b95a1" opacity="0.20"/>
<rect x="303" y="40" width="11" height="11" rx="2.5" fill="#8b95a1" opacity="0.20"/>
<rect x="303" y="53" width="11" height="11" rx="2.5" fill="#8b95a1" opacity="0.20"/>
<rect x="303" y="66" width="11" height="11" rx="2.5" fill="#8b95a1" opacity="0.20"/>
<rect x="303" y="79" width="11" height="11" rx="2.5" fill="#8b95a1" opacity="0.20"/>
<rect x="303" y="92" width="11" height="11" rx="2.5" fill="#8b95a1" opacity="0.20"/>
<rect x="316" y="14" width="11" height="11" rx="2.5" fill="#8b95a1" opacity="0.20"/>
<rect x="316" y="27" width="11" height="11" rx="2.5" fill="#8b95a1" opacity="0.20"/>
<rect x="316" y="40" width="11" height="11" rx="2.5" fill="#8b95a1" opacity="0.20"/>
<rect x="316" y="53" width="11" height="11" rx="2.5" fill="#8b95a1" opacity="0.20"/>
<rect x="316" y="66" width="11" height="11" rx="2.5" fill="#8b95a1" opacity="0.20"/>
<rect x="316" y="79" width="11" height="11" rx="2.5" fill="#8b95a1" opacity="0.20"/>
<rect x="316" y="92" width="11" height="11" rx="2.5" fill="#8b95a1" opacity="0.20"/>
<rect x="329" y="14" width="11" height="11" rx="2.5" fill="#8b95a1" opacity="0.20"/>
<rect x="329" y="27" width="11" height="11" rx="2.5" fill="#8b95a1" opacity="0.20"/>
<rect x="329" y="40" width="11" height="11" rx="2.5" fill="#8b95a1" opacity="0.20"/>
<rect x="329" y="53" width="11" height="11" rx="2.5" fill="#8b95a1" opacity="0.20"/>
<rect x="329" y="66" width="11" height="11" rx="2.5" fill="#8b95a1" opacity="0.20"/>
<rect x="329" y="79" width="11" height="11" rx="2.5" fill="#8b95a1" opacity="0.20"/>
<rect x="329" y="92" width="11" height="11" rx="2.5" fill="#8b95a1" opacity="0.20"/>
<rect x="342" y="14" width="11" height="11" rx="2.5" fill="#8b95a1" opacity="0.20"/>
<rect x="342" y="27" width="11" height="11" rx="2.5" fill="#8b95a1" opacity="0.20"/>
<rect x="342" y="40" width="11" height="11" rx="2.5" fill="#8b95a1" opacity="0.20"/>
<rect x="342" y="53" width="11" height="11" rx="2.5" fill="#8b95a1" opacity="0.20"/>
<rect x="342" y="66" width="11" height="11" rx="2.5" fill="#8b95a1" opacity="0.20"/>
<rect x="342" y="79" width="11" height="11" rx="2.5" fill="#8b95a1" opacity="0.20"/>
<rect x="342" y="92" width="11" height="11" rx="2.5" fill="#8b95a1" opacity="0.20"/>
<rect x="355" y="14" width="11" height="11" rx="2.5" fill="#8b95a1" opacity="0.20"/>
<rect x="355" y="27" width="11" height="11" rx="2.5" fill="#8b95a1" opacity="0.20"/>
<rect x="355" y="40" width="11" height="11" rx="2.5" fill="#8b95a1" opacity="0.20"/>
<rect x="355" y="53" width="11" height="11" rx="2.5" fill="#8b95a1" opacity="0.20"/>
<rect x="355" y="66" width="11" height="11" rx="2.5" fill="#8b95a1" opacity="0.20"/>
<rect x="355" y="79" width="11" height="11" rx="2.5" fill="#8b95a1" opacity="0.20"/>
<rect x="355" y="92" width="11" height="11" rx="2.5" fill="#8b95a1" opacity="0.20"/>
<rect x="368" y="14" width="11" height="11" rx="2.5" fill="#8b95a1" opacity="0.20"/>
<rect x="368" y="27" width="11" height="11" rx="2.5" fill="#8b95a1" opacity="0.20"/>
<rect x="368" y="40" width="11" height="11" rx="2.5" fill="#8b95a1" opacity="0.20"/>
<rect x="368" y="53" width="11" height="11" rx="2.5" fill="#8b95a1" opacity="0.20"/>
<rect x="368" y="66" width="11" height="11" rx="2.5" fill="#8b95a1" opacity="0.20"/>
<rect x="368" y="79" width="11" height="11" rx="2.5" fill="#8b95a1" opacity="0.20"/>
<rect x="368" y="92" width="11" height="11" rx="2.5" fill="#8b95a1" opacity="0.20"/>
<rect x="381" y="14" width="11" height="11" rx="2.5" fill="#8b95a1" opacity="0.20"/>
<rect x="381" y="27" width="11" height="11" rx="2.5" fill="#8b95a1" opacity="0.20"/>
<rect x="381" y="40" width="11" height="11" rx="2.5" fill="#8b95a1" opacity="0.20"/>
<rect x="381" y="53" width="11" height="11" rx="2.5" fill="#8b95a1" opacity="0.20"/>
<rect x="381" y="66" width="11" height="11" rx="2.5" fill="#8b95a1" opacity="0.20"/>
<rect x="381" y="79" width="11" height="11" rx="2.5" fill="#8b95a1" opacity="0.20"/>
<rect x="381" y="92" width="11" height="11" rx="2.5" fill="#8b95a1" opacity="0.20"/>
<rect x="394" y="14" width="11" height="11" rx="2.5" fill="#8b95a1" opacity="0.20"/>
<rect x="394" y="27" width="11" height="11" rx="2.5" fill="#8b95a1" opacity="0.20"/>
<rect x="394" y="40" width="11" height="11" rx="2.5" fill="#8b95a1" opacity="0.20"/>
<rect x="394" y="53" width="11" height="11" rx="2.5" fill="#8b95a1" opacity="0.20"/>
<rect x="394" y="66" width="11" height="11" rx="2.5" fill="#8b95a1" opacity="0.20"/>
<rect x="394" y="79" width="11" height="11" rx="2.5" fill="#8b95a1" opacity="0.20"/>
<rect x="394" y="92" width="11" height="11" rx="2.5" fill="#8b95a1" opacity="0.20"/>
<rect x="407" y="14" width="11" height="11" rx="2.5" fill="#8b95a1" opacity="0.20"/>
<rect x="407" y="27" width="11" height="11" rx="2.5" fill="#8b95a1" opacity="0.20"/>
<rect x="407" y="40" width="11" height="11" rx="2.5" fill="#8b95a1" opacity="0.20"/>
<rect x="407" y="53" width="11" height="11" rx="2.5" fill="#8b95a1" opacity="0.20"/>
<rect x="407" y="66" width="11" height="11" rx="2.5" fill="#8b95a1" opacity="0.20"/>
<rect x="407" y="79" width="11" height="11" rx="2.5" fill="#8b95a1" opacity="0.20"/>
<rect x="407" y="92" width="11" height="11" rx="2.5" fill="#8b95a1" opacity="0.20"/>
<rect x="420" y="14" width="11" height="11" rx="2.5" fill="#8b95a1" opacity="0.20"/>
<rect x="420" y="27" width="11" height="11" rx="2.5" fill="#8b95a1" opacity="0.20"/>
<rect x="420" y="40" width="11" height="11" rx="2.5" fill="#8b95a1" opacity="0.20"/>
<rect x="420" y="53" width="11" height="11" rx="2.5" fill="#8b95a1" opacity="0.20"/>
<rect x="420" y="66" width="11" height="11" rx="2.5" fill="#8b95a1" opacity="0.20"/>
<rect x="420" y="79" width="11" height="11" rx="2.5" fill="#8b95a1" opacity="0.20"/>
<rect x="420" y="92" width="11" height="11" rx="2.5" fill="#8b95a1" opacity="0.20"/>
<rect x="433" y="14" width="11" height="11" rx="2.5" fill="#8b95a1" opacity="0.20"/>
<rect x="433" y="27" width="11" height="11" rx="2.5" fill="#8b95a1" opacity="0.20"/>
<rect x="433" y="40" width="11" height="11" rx="2.5" fill="#8b95a1" opacity="0.20"/>
<rect x="433" y="53" width="11" height="11" rx="2.5" fill="#8b95a1" opacity="0.20"/>
<rect x="433" y="66" width="11" height="11" rx="2.5" fill="#8b95a1" opacity="0.20"/>
<rect x="433" y="79" width="11" height="11" rx="2.5" fill="#8b95a1" opacity="0.20"/>
<rect x="433" y="92" width="11" height="11" rx="2.5" fill="#8b95a1" opacity="0.20"/>
<rect x="446" y="14" width="11" height="11" rx="2.5" fill="#8b95a1" opacity="0.20"/>
<rect x="446" y="27" width="11" height="11" rx="2.5" fill="#8b95a1" opacity="0.20"/>
<rect x="446" y="40" width="11" height="11" rx="2.5" fill="#8b95a1" opacity="0.20"/>
<rect x="446" y="53" width="11" height="11" rx="2.5" fill="#8b95a1" opacity="0.20"/>
<rect x="446" y="66" width="11" height="11" rx="2.5" fill="#8b95a1" opacity="0.20"/>
<rect x="446" y="79" width="11" height="11" rx="2.5" fill="#8b95a1" opacity="0.20"/>
<rect x="446" y="92" width="11" height="11" rx="2.5" fill="#8b95a1" opacity="0.20"/>
<rect x="459" y="14" width="11" height="11" rx="2.5" fill="#8b95a1" opacity="0.20"/>
<rect x="459" y="27" width="11" height="11" rx="2.5" fill="#8b95a1" opacity="0.20"/>
<rect x="459" y="40" width="11" height="11" rx="2.5" fill="#8b95a1" opacity="0.20"/>
<rect x="459" y="53" width="11" height="11" rx="2.5" fill="#8b95a1" opacity="0.20"/>
<rect x="459" y="66" width="11" height="11" rx="2.5" fill="#8b95a1" opacity="0.20"/>
<rect x="459" y="79" width="11" height="11" rx="2.5" fill="#8b95a1" opacity="0.20"/>
<rect x="459" y="92" width="11" height="11" rx="2.5" fill="#8b95a1" opacity="0.20"/>
<rect x="472" y="14" width="11" height="11" rx="2.5" fill="#8b95a1" opacity="0.20"/>
<rect x="472" y="27" width="11" height="11" rx="2.5" fill="#8b95a1" opacity="0.20"/>
<rect x="472" y="40" width="11" height="11" rx="2.5" fill="#8b95a1" opacity="0.20"/>
<rect x="472" y="53" width="11" height="11" rx="2.5" fill="#8b95a1" opacity="0.20"/>
<rect x="472" y="66" width="11" height="11" rx="2.5" fill="#8b95a1" opacity="0.20"/>
<rect x="472" y="79" width="11" height="11" rx="2.5" fill="#8b95a1" opacity="0.20"/>
<rect x="472" y="92" width="11" height="11" rx="2.5" fill="#8b95a1" opacity="0.20"/>
<rect x="485" y="14" width="11" height="11" rx="2.5" fill="#8b95a1" opacity="0.20"/>
<rect x="485" y="27" width="11" height="11" rx="2.5" fill="#8b95a1" opacity="0.20"/>
<rect x="485" y="40" width="11" height="11" rx="2.5" fill="#8b95a1" opacity="0.20"/>
<rect x="485" y="53" width="11" height="11" rx="2.5" fill="#8b95a1" opacity="0.20"/>
<rect x="485" y="66" width="11" height="11" rx="2.5" fill="#8b95a1" opacity="0.20"/>
<rect x="485" y="79" width="11" height="11" rx="2.5" fill="#8b95a1" opacity="0.20"/>
<rect x="485" y="92" width="11" height="11" rx="2.5" fill="#8b95a1" opacity="0.20"/>
<rect x="498" y="14" width="11" height="11" rx="2.5" fill="#8b95a1" opacity="0.20"/>
<rect x="498" y="27" width="11" height="11" rx="2.5" fill="#8b95a1" opacity="0.20"/>
<rect x="498" y="40" width="11" height="11" rx="2.5" fill="#8b95a1" opacity="0.20"/>
<rect x="498" y="53" width="11" height="11" rx="2.5" fill="#8b95a1" opacity="0.20"/>
<rect x="498" y="66" width="11" height="11" rx="2.5" fill="#8b95a1" opacity="0.20"/>
<rect x="498" y="79" width="11" height="11" rx="2.5" fill="#8b95a1" opacity="0.20"/>
<rect x="498" y="92" width="11" height="11" rx="2.5" fill="#8b95a1" opacity="0.20"/>
<rect x="511" y="14" width="11" height="11" rx="2.5" fill="#8b95a1" opacity="0.20"/>
<rect x="511" y="27" width="11" height="11" rx="2.5" fill="#8b95a1" opacity="0.20"/>
<rect x="511" y="40" width="11" height="11" rx="2.5" fill="#8b95a1" opacity="0.20"/>
<rect x="511" y="53" width="11" height="11" rx="2.5" fill="#8b95a1" opacity="0.20"/>
<rect x="511" y="66" width="11" height="11" rx="2.5" fill="#8b95a1" opacity="0.20"/>
<rect x="511" y="79" width="11" height="11" rx="2.5" fill="#8b95a1" opacity="0.20"/>
<rect x="511" y="92" width="11" height="11" rx="2.5" fill="#8b95a1" opacity="0.20"/>
<rect x="524" y="14" width="11" height="11" rx="2.5" fill="#8b95a1" opacity="0.20"/>
<rect x="524" y="27" width="11" height="11" rx="2.5" fill="#8b95a1" opacity="0.20"/>
<rect x="524" y="40" width="11" height="11" rx="2.5" fill="#8b95a1" opacity="0.20"/>
<rect x="524" y="53" width="11" height="11" rx="2.5" fill="#8b95a1" opacity="0.20"/>
<rect x="524" y="66" width="11" height="11" rx="2.5" fill="#8b95a1" opacity="0.20"/>
<rect x="524" y="79" width="11" height="11" rx="2.5" fill="#8b95a1" opacity="0.20"/>
<rect x="524" y="92" width="11" height="11" rx="2.5" fill="#8b95a1" opacity="0.20"/>
<rect x="537" y="14" width="11" height="11" rx="2.5" fill="#8b95a1" opacity="0.20"/>
<rect x="537" y="27" width="11" height="11" rx="2.5" fill="#8b95a1" opacity="0.20"/>
<rect x="537" y="40" width="11" height="11" rx="2.5" fill="#8b95a1" opacity="0.20"/>
<rect x="537" y="53" width="11" height="11" rx="2.5" fill="#8b95a1" opacity="0.20"/>
<rect x="537" y="66" width="11" height="11" rx="2.5" fill="#8b95a1" opacity="0.20"/>
<rect x="537" y="79" width="11" height="11" rx="2.5" fill="#a7e8d8" class="c" style="animation-name:e39_5"/>
<rect x="537" y="92" width="11" height="11" rx="2.5" fill="#5fcdb5" class="c" style="animation-name:e39_6"/>
<rect x="550" y="14" width="11" height="11" rx="2.5" fill="#1f7a6b" class="c" style="animation-name:e40_0"/>
<rect x="550" y="27" width="11" height="11" rx="2.5" fill="#35a08e" class="c" style="animation-name:e40_1"/>
<rect x="550" y="40" width="11" height="11" rx="2.5" fill="#8b95a1" opacity="0.20"/>
<rect x="550" y="53" width="11" height="11" rx="2.5" fill="#35a08e" class="c" style="animation-name:e40_3"/>
<rect x="550" y="66" width="11" height="11" rx="2.5" fill="#8b95a1" opacity="0.20"/>
<rect x="550" y="79" width="11" height="11" rx="2.5" fill="#8b95a1" opacity="0.20"/>
<rect x="550" y="92" width="11" height="11" rx="2.5" fill="#8b95a1" opacity="0.20"/>
<rect x="563" y="14" width="11" height="11" rx="2.5" fill="#a7e8d8" class="c" style="animation-name:e41_0"/>
<rect x="563" y="27" width="11" height="11" rx="2.5" fill="#35a08e" class="c" style="animation-name:e41_1"/>
<rect x="563" y="40" width="11" height="11" rx="2.5" fill="#5fcdb5" class="c" style="animation-name:e41_2"/>
<rect x="563" y="53" width="11" height="11" rx="2.5" fill="#35a08e" class="c" style="animation-name:e41_3"/>
<rect x="563" y="66" width="11" height="11" rx="2.5" fill="#a7e8d8" class="c" style="animation-name:e41_4"/>
<rect x="563" y="79" width="11" height="11" rx="2.5" fill="#8b95a1" opacity="0.20"/>
<rect x="563" y="92" width="11" height="11" rx="2.5" fill="#8b95a1" opacity="0.20"/>
<rect x="576" y="14" width="11" height="11" rx="2.5" fill="#8b95a1" opacity="0.20"/>
<rect x="576" y="27" width="11" height="11" rx="2.5" fill="#a7e8d8" class="c" style="animation-name:e42_1"/>
<rect x="576" y="40" width="11" height="11" rx="2.5" fill="#a7e8d8" class="c" style="animation-name:e42_2"/>
<rect x="576" y="53" width="11" height="11" rx="2.5" fill="#8b95a1" opacity="0.20"/>
<rect x="576" y="66" width="11" height="11" rx="2.5" fill="#8b95a1" opacity="0.20"/>
<rect x="576" y="79" width="11" height="11" rx="2.5" fill="#8b95a1" opacity="0.20"/>
<rect x="576" y="92" width="11" height="11" rx="2.5" fill="#8b95a1" opacity="0.20"/>
<rect x="589" y="14" width="11" height="11" rx="2.5" fill="#8b95a1" opacity="0.20"/>
<rect x="589" y="27" width="11" height="11" rx="2.5" fill="#8b95a1" opacity="0.20"/>
<rect x="589" y="40" width="11" height="11" rx="2.5" fill="#8b95a1" opacity="0.20"/>
<rect x="589" y="53" width="11" height="11" rx="2.5" fill="#8b95a1" opacity="0.20"/>
<rect x="589" y="66" width="11" height="11" rx="2.5" fill="#8b95a1" opacity="0.20"/>
<rect x="589" y="79" width="11" height="11" rx="2.5" fill="#8b95a1" opacity="0.20"/>
<rect x="589" y="92" width="11" height="11" rx="2.5" fill="#8b95a1" opacity="0.20"/>
<rect x="602" y="14" width="11" height="11" rx="2.5" fill="#a7e8d8" class="c" style="animation-name:e44_0"/>
<rect x="602" y="27" width="11" height="11" rx="2.5" fill="#35a08e" class="c" style="animation-name:e44_1"/>
<rect x="602" y="40" width="11" height="11" rx="2.5" fill="#5fcdb5" class="c" style="animation-name:e44_2"/>
<rect x="602" y="53" width="11" height="11" rx="2.5" fill="#1f7a6b" class="c" style="animation-name:e44_3"/>
<rect x="602" y="66" width="11" height="11" rx="2.5" fill="#5fcdb5" class="c" style="animation-name:e44_4"/>
<rect x="602" y="79" width="11" height="11" rx="2.5" fill="#5fcdb5" class="c" style="animation-name:e44_5"/>
<rect x="602" y="92" width="11" height="11" rx="2.5" fill="#1f7a6b" class="c" style="animation-name:e44_6"/>
<rect x="615" y="14" width="11" height="11" rx="2.5" fill="#1f7a6b" class="c" style="animation-name:e45_0"/>
<rect x="615" y="27" width="11" height="11" rx="2.5" fill="#1f7a6b" class="c" style="animation-name:e45_1"/>
<rect x="615" y="40" width="11" height="11" rx="2.5" fill="#35a08e" class="c" style="animation-name:e45_2"/>
<rect x="615" y="53" width="11" height="11" rx="2.5" fill="#35a08e" class="c" style="animation-name:e45_3"/>
<rect x="615" y="66" width="11" height="11" rx="2.5" fill="#1f7a6b" class="c" style="animation-name:e45_4"/>
<rect x="615" y="79" width="11" height="11" rx="2.5" fill="#1f7a6b" class="c" style="animation-name:e45_5"/>
<rect x="615" y="92" width="11" height="11" rx="2.5" fill="#5fcdb5" class="c" style="animation-name:e45_6"/>
<rect x="628" y="14" width="11" height="11" rx="2.5" fill="#1f7a6b" class="c" style="animation-name:e46_0"/>
<rect x="628" y="27" width="11" height="11" rx="2.5" fill="#1f7a6b" class="c" style="animation-name:e46_1"/>
<rect x="628" y="40" width="11" height="11" rx="2.5" fill="#1f7a6b" class="c" style="animation-name:e46_2"/>
<rect x="628" y="53" width="11" height="11" rx="2.5" fill="#1f7a6b" class="c" style="animation-name:e46_3"/>
<rect x="628" y="66" width="11" height="11" rx="2.5" fill="#1f7a6b" class="c" style="animation-name:e46_4"/>
<rect x="628" y="79" width="11" height="11" rx="2.5" fill="#a7e8d8" class="c" style="animation-name:e46_5"/>
<rect x="628" y="92" width="11" height="11" rx="2.5" fill="#35a08e" class="c" style="animation-name:e46_6"/>
<rect x="641" y="14" width="11" height="11" rx="2.5" fill="#5fcdb5" class="c" style="animation-name:e47_0"/>
<rect x="641" y="27" width="11" height="11" rx="2.5" fill="#35a08e" class="c" style="animation-name:e47_1"/>
<rect x="641" y="40" width="11" height="11" rx="2.5" fill="#35a08e" class="c" style="animation-name:e47_2"/>
<rect x="641" y="53" width="11" height="11" rx="2.5" fill="#5fcdb5" class="c" style="animation-name:e47_3"/>
<rect x="641" y="66" width="11" height="11" rx="2.5" fill="#1f7a6b" class="c" style="animation-name:e47_4"/>
<rect x="641" y="79" width="11" height="11" rx="2.5" fill="#a7e8d8" class="c" style="animation-name:e47_5"/>
<rect x="641" y="92" width="11" height="11" rx="2.5" fill="#35a08e" class="c" style="animation-name:e47_6"/>
<rect x="654" y="14" width="11" height="11" rx="2.5" fill="#5fcdb5" class="c" style="animation-name:e48_0"/>
<rect x="654" y="27" width="11" height="11" rx="2.5" fill="#5fcdb5" class="c" style="animation-name:e48_1"/>
<rect x="654" y="40" width="11" height="11" rx="2.5" fill="#5fcdb5" class="c" style="animation-name:e48_2"/>
<rect x="654" y="53" width="11" height="11" rx="2.5" fill="#a7e8d8" class="c" style="animation-name:e48_3"/>
<rect x="654" y="66" width="11" height="11" rx="2.5" fill="#a7e8d8" class="c" style="animation-name:e48_4"/>
<rect x="654" y="79" width="11" height="11" rx="2.5" fill="#a7e8d8" class="c" style="animation-name:e48_5"/>
<rect x="654" y="92" width="11" height="11" rx="2.5" fill="#35a08e" class="c" style="animation-name:e48_6"/>
<rect x="667" y="14" width="11" height="11" rx="2.5" fill="#5fcdb5" class="c" style="animation-name:e49_0"/>
<rect x="667" y="27" width="11" height="11" rx="2.5" fill="#a7e8d8" class="c" style="animation-name:e49_1"/>
<rect x="667" y="40" width="11" height="11" rx="2.5" fill="#5fcdb5" class="c" style="animation-name:e49_2"/>
<rect x="667" y="53" width="11" height="11" rx="2.5" fill="#a7e8d8" class="c" style="animation-name:e49_3"/>
<rect x="667" y="66" width="11" height="11" rx="2.5" fill="#35a08e" class="c" style="animation-name:e49_4"/>
<rect x="667" y="79" width="11" height="11" rx="2.5" fill="#1f7a6b" class="c" style="animation-name:e49_5"/>
<rect x="667" y="92" width="11" height="11" rx="2.5" fill="#1f7a6b" class="c" style="animation-name:e49_6"/>
<rect x="680" y="14" width="11" height="11" rx="2.5" fill="#1f7a6b" class="c" style="animation-name:e50_0"/>
<rect x="680" y="27" width="11" height="11" rx="2.5" fill="#a7e8d8" class="c" style="animation-name:e50_1"/>
<rect x="680" y="40" width="11" height="11" rx="2.5" fill="#a7e8d8" class="c" style="animation-name:e50_2"/>
<rect x="680" y="53" width="11" height="11" rx="2.5" fill="#a7e8d8" class="c" style="animation-name:e50_3"/>
<rect x="680" y="66" width="11" height="11" rx="2.5" fill="#5fcdb5" class="c" style="animation-name:e50_4"/>
<rect x="680" y="79" width="11" height="11" rx="2.5" fill="#a7e8d8" class="c" style="animation-name:e50_5"/>
<rect x="680" y="92" width="11" height="11" rx="2.5" fill="#a7e8d8" class="c" style="animation-name:e50_6"/>
<rect x="693" y="14" width="11" height="11" rx="2.5" fill="#5fcdb5" class="c" style="animation-name:e51_0"/>
<rect x="693" y="27" width="11" height="11" rx="2.5" fill="#a7e8d8" class="c" style="animation-name:e51_1"/>
<rect x="693" y="40" width="11" height="11" rx="2.5" fill="#5fcdb5" class="c" style="animation-name:e51_2"/>
<rect x="693" y="53" width="11" height="11" rx="2.5" fill="#a7e8d8" class="c" style="animation-name:e51_3"/>
<rect x="693" y="66" width="11" height="11" rx="2.5" fill="#8b95a1" opacity="0.20"/>
<rect x="693" y="79" width="11" height="11" rx="2.5" fill="#8b95a1" opacity="0.20"/>
<rect x="693" y="92" width="11" height="11" rx="2.5" fill="#8b95a1" opacity="0.20"/>
<text x="3" y="35.5" font-size="9" fill="#8b95a1">Пн</text>
<text x="3" y="61.5" font-size="9" fill="#8b95a1">Ср</text>
<text x="3" y="87.5" font-size="9" fill="#8b95a1">Пт</text>
<clipPath id="gclip"><rect x="30" y="14" width="674" height="89"/></clipPath>
<g clip-path="url(#gclip)">
<rect class="sg" style="animation-name:snk,g5;animation-delay:0.300s,0s" x="0" y="0" width="11" height="11" rx="3"/>
<rect class="sg" style="animation-name:snk,g4;animation-delay:0.240s,0s" x="0" y="0" width="11" height="11" rx="3"/>
<rect class="sg" style="animation-delay:0.180s;opacity:0.875" x="0" y="0" width="11" height="11" rx="3"/>
<rect class="sg" style="animation-delay:0.120s;opacity:0.89" x="0" y="0" width="11" height="11" rx="3"/>
<rect class="sg" style="animation-delay:0.060s;opacity:0.905" x="0" y="0" width="11" height="11" rx="3"/>
<rect class="sg" style="animation-delay:0.000s;opacity:1" x="0" y="0" width="11" height="11" rx="5.5"/>
</g>
</svg>
