<svg xmlns="http://www.w3.org/2000/svg" viewBox="0 0 710 109" role="img" aria-label="git-активность candycate-studio за год: змейка съедает клетки коммитов">
<title>git-активность candycate-studio</title>
<style>.c{animation-duration:11.64s;animation-timing-function:linear;animation-iteration-count:infinite}.sg{transform-box:view-box;transform-origin:0 0;fill:#d8285a;animation:snk 11.64s linear infinite}@keyframes snk{0%{transform:translate(-22px,53px)}0.515%{transform:translate(-9px,53px)}1.031%{transform:translate(4px,53px)}1.546%{transform:translate(17px,53px)}2.062%{transform:translate(30px,53px)}2.577%{transform:translate(43px,53px)}3.093%{transform:translate(56px,53px)}3.608%{transform:translate(69px,53px)}4.124%{transform:translate(82px,53px)}4.639%{transform:translate(95px,53px)}5.155%{transform:translate(95px,66px)}5.67%{transform:translate(108px,66px)}6.186%{transform:translate(108px,53px)}6.701%{transform:translate(108px,40px)}7.216%{transform:translate(121px,40px)}7.732%{transform:translate(134px,40px)}8.247%{transform:translate(134px,53px)}8.763%{transform:translate(147px,53px)}9.278%{transform:translate(160px,53px)}9.794%{transform:translate(160px,66px)}10.309%{transform:translate(173px,66px)}10.825%{transform:translate(173px,53px)}11.34%{transform:translate(173px,40px)}11.856%{transform:translate(186px,40px)}12.371%{transform:translate(186px,53px)}12.887%{transform:translate(199px,53px)}13.402%{transform:translate(212px,53px)}13.918%{transform:translate(225px,53px)}14.433%{transform:translate(225px,40px)}14.948%{transform:translate(238px,40px)}15.464%{transform:translate(238px,53px)}15.979%{transform:translate(251px,53px)}16.495%{transform:translate(264px,53px)}17.01%{transform:translate(264px,40px)}17.526%{transform:translate(277px,40px)}18.041%{transform:translate(277px,53px)}18.557%{transform:translate(290px,53px)}19.072%{transform:translate(303px,53px)}19.588%{transform:translate(303px,66px)}20.103%{transform:translate(316px,66px)}20.619%{transform:translate(316px,53px)}21.134%{transform:translate(329px,53px)}21.649%{transform:translate(342px,53px)}22.165%{transform:translate(355px,53px)}22.68%{transform:translate(355px,40px)}23.196%{transform:translate(368px,40px)}23.711%{transform:translate(381px,40px)}24.227%{transform:translate(394px,40px)}24.742%{transform:translate(394px,53px)}25.258%{transform:translate(407px,53px)}25.773%{transform:translate(407px,40px)}26.289%{transform:translate(420px,40px)}26.804%{transform:translate(433px,40px)}27.32%{transform:translate(433px,53px)}27.835%{transform:translate(446px,53px)}28.351%{transform:translate(459px,53px)}28.866%{transform:translate(472px,53px)}29.381%{transform:translate(472px,66px)}29.897%{transform:translate(485px,66px)}30.412%{transform:translate(485px,53px)}30.928%{transform:translate(498px,53px)}31.443%{transform:translate(511px,53px)}31.959%{transform:translate(511px,40px)}32.474%{transform:translate(524px,40px)}32.99%{transform:translate(537px,40px)}33.505%{transform:translate(537px,53px)}34.021%{transform:translate(550px,53px)}34.536%{transform:translate(563px,53px)}35.052%{transform:translate(563px,66px)}35.567%{transform:translate(576px,66px)}36.082%{transform:translate(576px,53px)}36.598%{transform:translate(576px,40px)}37.113%{transform:translate(563px,40px)}37.629%{transform:translate(563px,27px)}38.144%{transform:translate(550px,27px)}38.66%{transform:translate(550px,14px)}39.175%{transform:translate(563px,14px)}39.691%{transform:translate(576px,14px)}40.206%{transform:translate(589px,14px)}40.722%{transform:translate(589px,27px)}41.237%{transform:translate(576px,27px)}41.753%{transform:translate(576px,40px)}42.268%{transform:translate(589px,40px)}42.784%{transform:translate(602px,40px)}43.299%{transform:translate(602px,27px)}43.814%{transform:translate(602px,14px)}44.33%{transform:translate(615px,14px)}44.845%{transform:translate(615px,27px)}45.361%{transform:translate(615px,40px)}45.876%{transform:translate(615px,53px)}46.392%{transform:translate(615px,66px)}46.907%{transform:translate(628px,66px)}47.423%{transform:translate(628px,79px)}47.938%{transform:translate(615px,79px)}48.454%{transform:translate(602px,79px)}48.969%{transform:translate(602px,92px)}49.485%{transform:translate(615px,92px)}50%{transform:translate(628px,92px)}50.515%{transform:translate(641px,92px)}51.031%{transform:translate(654px,92px)}51.546%{transform:translate(667px,92px)}52.062%{transform:translate(680px,92px)}52.577%{transform:translate(680px,79px)}53.093%{transform:translate(667px,79px)}53.608%{transform:translate(667px,66px)}54.124%{transform:translate(654px,66px)}54.639%{transform:translate(654px,79px)}55.155%{transform:translate(641px,79px)}55.67%{transform:translate(641px,66px)}56.186%{transform:translate(628px,66px)}56.701%{transform:translate(628px,53px)}57.216%{transform:translate(628px,40px)}57.732%{transform:translate(641px,40px)}58.247%{transform:translate(641px,53px)}58.763%{transform:translate(654px,53px)}59.278%{transform:translate(654px,40px)}59.794%{transform:translate(667px,40px)}60.309%{transform:translate(667px,27px)}60.825%{transform:translate(654px,27px)}61.34%{transform:translate(654px,14px)}61.856%{transform:translate(667px,14px)}62.371%{transform:translate(680px,14px)}62.887%{transform:translate(693px,14px)}63.402%{transform:translate(693px,27px)}63.918%{transform:translate(680px,27px)}64.433%{transform:translate(667px,27px)}64.948%{transform:translate(667px,40px)}65.464%{transform:translate(680px,40px)}65.979%{transform:translate(693px,40px)}66.495%{transform:translate(693px,53px)}67.01%{transform:translate(693px,66px)}67.526%{transform:translate(680px,66px)}68.041%{transform:translate(667px,66px)}68.557%{transform:translate(667px,53px)}69.072%{transform:translate(680px,53px)}69.588%{transform:translate(680px,40px)}70.103%{transform:translate(667px,40px)}70.619%{transform:translate(667px,27px)}71.134%{transform:translate(667px,14px)}71.649%{transform:translate(654px,14px)}72.165%{transform:translate(641px,14px)}72.68%{transform:translate(628px,14px)}73.196%{transform:translate(628px,27px)}73.711%{transform:translate(641px,27px)}74.227%{transform:translate(641px,40px)}74.742%{transform:translate(641px,53px)}75.258%{transform:translate(628px,53px)}75.773%{transform:translate(628px,40px)}76.289%{transform:translate(615px,40px)}76.804%{transform:translate(615px,53px)}77.32%{transform:translate(602px,53px)}77.835%{transform:translate(589px,53px)}78.351%{transform:translate(589px,66px)}78.866%{transform:translate(602px,66px)}79.381%{transform:translate(602px,79px)}79.897%{transform:translate(589px,79px)}80.412%{transform:translate(589px,92px)}80.928%{transform:translate(576px,92px)}81.443%{transform:translate(563px,92px)}81.959%{transform:translate(563px,79px)}82.474%{transform:translate(563px,66px)}82.99%{transform:translate(550px,66px)}83.505%{transform:translate(550px,79px)}84.021%{transform:translate(550px,92px)}84.536%{transform:translate(537px,92px)}85.052%{transform:translate(537px,79px)}85.567%{transform:translate(524px,79px)}86.082%{transform:translate(524px,92px)}86.598%{transform:translate(511px,92px)}87.113%{transform:translate(498px,92px)}87.629%{transform:translate(498px,79px)}88.144%{transform:translate(511px,79px)}88.66%{transform:translate(511px,66px)}89.175%{transform:translate(524px,66px)}89.691%{transform:translate(537px,66px)}90.206%{transform:translate(550px,66px)}90.722%{transform:translate(563px,66px)}91.237%{transform:translate(576px,66px)}91.753%{transform:translate(589px,66px)}92.268%{transform:translate(602px,66px)}92.784%{transform:translate(615px,66px)}93.299%{transform:translate(628px,66px)}93.814%{transform:translate(641px,66px)}94.33%{transform:translate(654px,66px)}94.845%{transform:translate(667px,66px)}95.361%{transform:translate(680px,66px)}95.876%{transform:translate(693px,66px)}96.392%{transform:translate(706px,66px)}96.907%{transform:translate(719px,66px)}97.423%{transform:translate(732px,66px)}97.938%{transform:translate(745px,66px)}98.454%{transform:translate(758px,66px)}98.969%{transform:translate(771px,66px)}99.485%{transform:translate(784px,66px)}100%{transform:translate(797px,66px)}}@keyframes e39_5{0%,85.052%{fill:#a7e8d8;opacity:1}85.464%,100%{fill:#8b95a1;opacity:.2}}@keyframes e39_6{0%,84.536%{fill:#35a08e;opacity:1}84.948%,100%{fill:#8b95a1;opacity:.2}}@keyframes e40_0{0%,38.66%{fill:#1f7a6b;opacity:1}39.072%,100%{fill:#8b95a1;opacity:.2}}@keyframes e40_1{0%,38.144%{fill:#35a08e;opacity:1}38.557%,100%{fill:#8b95a1;opacity:.2}}@keyframes e40_3{0%,34.021%{fill:#35a08e;opacity:1}34.433%,100%{fill:#8b95a1;opacity:.2}}@keyframes e41_0{0%,39.175%{fill:#a7e8d8;opacity:1}39.588%,100%{fill:#8b95a1;opacity:.2}}@keyframes e41_1{0%,37.629%{fill:#35a08e;opacity:1}38.041%,100%{fill:#8b95a1;opacity:.2}}@keyframes e41_2{0%,37.113%{fill:#5fcdb5;opacity:1}37.526%,100%{fill:#8b95a1;opacity:.2}}@keyframes e41_3{0%,34.536%{fill:#35a08e;opacity:1}34.948%,100%{fill:#8b95a1;opacity:.2}}@keyframes e41_4{0%,35.052%{fill:#a7e8d8;opacity:1}35.464%,100%{fill:#8b95a1;opacity:.2}}@keyframes e42_1{0%,41.237%{fill:#a7e8d8;opacity:1}41.649%,100%{fill:#8b95a1;opacity:.2}}@keyframes e42_2{0%,36.598%{fill:#a7e8d8;opacity:1}37.01%,100%{fill:#8b95a1;opacity:.2}}@keyframes e44_0{0%,43.814%{fill:#a7e8d8;opacity:1}44.227%,100%{fill:#8b95a1;opacity:.2}}@keyframes e44_1{0%,43.299%{fill:#35a08e;opacity:1}43.711%,100%{fill:#8b95a1;opacity:.2}}@keyframes e44_2{0%,42.784%{fill:#5fcdb5;opacity:1}43.196%,100%{fill:#8b95a1;opacity:.2}}@keyframes e44_3{0%,77.32%{fill:#1f7a6b;opacity:1}77.732%,100%{fill:#8b95a1;opacity:.2}}@keyframes e44_4{0%,78.866%{fill:#5fcdb5;opacity:1}79.278%,100%{fill:#8b95a1;opacity:.2}}@keyframes e44_5{0%,48.454%{fill:#35a08e;opacity:1}48.866%,100%{fill:#8b95a1;opacity:.2}}@keyframes e44_6{0%,48.969%{fill:#1f7a6b;opacity:1}49.381%,100%{fill:#8b95a1;opacity:.2}}@keyframes e45_0{0%,44.33%{fill:#1f7a6b;opacity:1}44.742%,100%{fill:#8b95a1;opacity:.2}}@keyframes e45_1{0%,44.845%{fill:#1f7a6b;opacity:1}45.258%,100%{fill:#8b95a1;opacity:.2}}@keyframes e45_2{0%,45.361%{fill:#35a08e;opacity:1}45.773%,100%{fill:#8b95a1;opacity:.2}}@keyframes e45_3{0%,45.876%{fill:#35a08e;opacity:1}46.289%,100%{fill:#8b95a1;opacity:.2}}@keyframes e45_4{0%,46.392%{fill:#1f7a6b;opacity:1}46.804%,100%{fill:#8b95a1;opacity:.2}}@keyframes e45_5{0%,47.938%{fill:#1f7a6b;opacity:1}48.351%,100%{fill:#8b95a1;opacity:.2}}@keyframes e45_6{0%,49.485%{fill:#5fcdb5;opacity:1}49.897%,100%{fill:#8b95a1;opacity:.2}}@keyframes e46_0{0%,72.68%{fill:#1f7a6b;opacity:1}73.093%,100%{fill:#8b95a1;opacity:.2}}@keyframes e46_1{0%,73.196%{fill:#1f7a6b;opacity:1}73.608%,100%{fill:#8b95a1;opacity:.2}}@keyframes e46_2{0%,57.216%{fill:#1f7a6b;opacity:1}57.629%,100%{fill:#8b95a1;opacity:.2}}@keyframes e46_3{0%,56.701%{fill:#1f7a6b;opacity:1}57.113%,100%{fill:#8b95a1;opacity:.2}}@keyframes e46_4{0%,46.907%{fill:#1f7a6b;opacity:1}47.32%,100%{fill:#8b95a1;opacity:.2}}@keyframes e46_5{0%,47.423%{fill:#a7e8d8;opacity:1}47.835%,100%{fill:#8b95a1;opacity:.2}}@keyframes e46_6{0%,50%{fill:#35a08e;opacity:1}50.412%,100%{fill:#8b95a1;opacity:.2}}@keyframes e47_0{0%,72.165%{fill:#5fcdb5;opacity:1}72.577%,100%{fill:#8b95a1;opacity:.2}}@keyframes e47_1{0%,73.711%{fill:#35a08e;opacity:1}74.124%,100%{fill:#8b95a1;opacity:.2}}@keyframes e47_2{0%,57.732%{fill:#35a08e;opacity:1}58.144%,100%{fill:#8b95a1;opacity:.2}}@keyframes e47_3{0%,58.247%{fill:#5fcdb5;opacity:1}58.66%,100%{fill:#8b95a1;opacity:.2}}@keyframes e47_4{0%,55.67%{fill:#1f7a6b;opacity:1}56.082%,100%{fill:#8b95a1;opacity:.2}}@keyframes e47_5{0%,55.155%{fill:#a7e8d8;opacity:1}55.567%,100%{fill:#8b95a1;opacity:.2}}@keyframes e47_6{0%,50.515%{fill:#35a08e;opacity:1}50.928%,100%{fill:#8b95a1;opacity:.2}}@keyframes e48_0{0%,61.34%{fill:#5fcdb5;opacity:1}61.753%,100%{fill:#8b95a1;opacity:.2}}@keyframes e48_1{0%,60.825%{fill:#5fcdb5;opacity:1}61.237%,100%{fill:#8b95a1;opacity:.2}}@keyframes e48_2{0%,59.278%{fill:#35a08e;opacity:1}59.691%,100%{fill:#8b95a1;opacity:.2}}@keyframes e48_3{0%,58.763%{fill:#a7e8d8;opacity:1}59.175%,100%{fill:#8b95a1;opacity:.2}}@keyframes e48_4{0%,54.124%{fill:#a7e8d8;opacity:1}54.536%,100%{fill:#8b95a1;opacity:.2}}@keyframes e48_5{0%,54.639%{fill:#a7e8d8;opacity:1}55.052%,100%{fill:#8b95a1;opacity:.2}}@keyframes e48_6{0%,51.031%{fill:#35a08e;opacity:1}51.443%,100%{fill:#8b95a1;opacity:.2}}@keyframes e49_0{0%,61.856%{fill:#5fcdb5;opacity:1}62.268%,100%{fill:#8b95a1;opacity:.2}}@keyframes e49_1{0%,60.309%{fill:#a7e8d8;opacity:1}60.722%,100%{fill:#8b95a1;opacity:.2}}@keyframes e49_2{0%,59.794%{fill:#35a08e;opacity:1}60.206%,100%{fill:#8b95a1;opacity:.2}}@keyframes e49_3{0%,68.557%{fill:#a7e8d8;opacity:1}68.969%,100%{fill:#8b95a1;opacity:.2}}@keyframes e49_4{0%,53.608%{fill:#35a08e;opacity:1}54.021%,100%{fill:#8b95a1;opacity:.2}}@keyframes e49_5{0%,53.093%{fill:#1f7a6b;opacity:1}53.505%,100%{fill:#8b95a1;opacity:.2}}@keyframes e49_6{0%,51.546%{fill:#1f7a6b;opacity:1}51.959%,100%{fill:#8b95a1;opacity:.2}}@keyframes e50_0{0%,62.371%{fill:#1f7a6b;opacity:1}62.784%,100%{fill:#8b95a1;opacity:.2}}@keyframes e50_1{0%,63.918%{fill:#a7e8d8;opacity:1}64.33%,100%{fill:#8b95a1;opacity:.2}}@keyframes e50_2{0%,65.464%{fill:#a7e8d8;opacity:1}65.876%,100%{fill:#8b95a1;opacity:.2}}@keyframes e50_3{0%,69.072%{fill:#a7e8d8;opacity:1}69.485%,100%{fill:#8b95a1;opacity:.2}}@keyframes e50_4{0%,67.526%{fill:#5fcdb5;opacity:1}67.938%,100%{fill:#8b95a1;opacity:.2}}@keyframes e50_5{0%,52.577%{fill:#a7e8d8;opacity:1}52.99%,100%{fill:#8b95a1;opacity:.2}}@keyframes e50_6{0%,52.062%{fill:#a7e8d8;opacity:1}52.474%,100%{fill:#8b95a1;opacity:.2}}@keyframes e51_0{0%,62.887%{fill:#5fcdb5;opacity:1}63.299%,100%{fill:#8b95a1;opacity:.2}}@keyframes e51_1{0%,63.402%{fill:#a7e8d8;opacity:1}63.814%,100%{fill:#8b95a1;opacity:.2}}@keyframes e51_2{0%,65.979%{fill:#5fcdb5;opacity:1}66.392%,100%{fill:#8b95a1;opacity:.2}}@keyframes e51_3{0%,66.495%{fill:#a7e8d8;opacity:1}66.907%,100%{fill:#8b95a1;opacity:.2}}@keyframes e51_4{0%,67.01%{fill:#a7e8d8;opacity:1}67.423%,100%{fill:#8b95a1;opacity:.2}}@keyframes g5{0%,34.536%{opacity:0}34.794%,100%{opacity:0.845}}@keyframes g4{0%,34.021%{opacity:0}34.278%,100%{opacity:0.86}}@media(prefers-reduced-motion:reduce){.sg{display:none}.c{animation:none}}</style>
<rect x="30" y="14" width="11" height="11" rx="2.5" fill="#8b95a1" opacity="0.20"/>
<rect x="30" y="27" width="11" height="11" rx="2.5" fill="#8b95a1" opacity="0.20"/>
<rect x="30" y="40" width="11" height="11" rx="2.5" fill="#8b95a1" opacity="0.20"/>
<rect x="30" y="53" width="11" height="11" rx="2.5" fill="#8b95a1" opacity="0.20"/>
<rect x="30" y="66" width="11" height="11" rx="2.5" fill="#8b95a1" opacity="0.20"/>
<rect x="30" y="79" width="11" height="11" rx="2.5" fill="#8b95a1" opacity="0.20"/>
<rect x="30" y="92" width="11" height="11" rx="2.5" fill="#8b95a1" opacity="0.20"/>
<rect x="43" y="14" width="11" height="11" rx="2.5" fill="#8b95a1" opacity="0.20"/>
<rect x="43" y="27" width="11" height="11" rx="2.5" fill="#8b95a1" opacity="0.20"/>
<rect x="43" y="40" width="11" height="11" rx="2.5" fill="#8b95a1" opacity="0.20"/>
<rect x="43" y="53" width="11" height="11" rx="2.5" fill="#8b95a1" opacity="0.20"/>
<rect x="43" y="66" width="11" height="11" rx="2.5" fill="#8b95a1" opacity="0.20"/>
<rect x="43" y="79" width="11" height="11" rx="2.5" fill="#8b95a1" opacity="0.20"/>
<rect x="43" y="92" width="11" height="11" rx="2.5" fill="#8b95a1" opacity="0.20"/>
<rect x="56" y="14" width="11" height="11" rx="2.5" fill="#8b95a1" opacity="0.20"/>
<rect x="56" y="27" width="11" height="11" rx="2.5" fill="#8b95a1" opacity="0.20"/>
<rect x="56" y="40" width="11" height="11" rx="2.5" fill="#8b95a1" opacity="0.20"/>
<rect x="56" y="53" width="11" height="11" rx="2.5" fill="#8b95a1" opacity="0.20"/>
<rect x="56" y="66" width="11" height="11" rx="2.5" fill="#8b95a1" opacity="0.20"/>
<rect x="56" y="79" width="11" height="11" rx="2.5" fill="#8b95a1" opacity="0.20"/>
<rect x="56" y="92" width="11" height="11" rx="2.5" fill="#8b95a1" opacity="0.20"/>
<rect x="69" y="14" width="11" height="11" rx="2.5" fill="#8b95a1" opacity="0.20"/>
<rect x="69" y="27" width="11" height="11" rx="2.5" fill="#8b95a1" opacity="0.20"/>
<rect x="69" y="40" width="11" height="11" rx="2.5" fill="#8b95a1" opacity="0.20"/>
<rect x="69" y="53" width="11" height="11" rx="2.5" fill="#8b95a1" opacity="0.20"/>
<rect x="69" y="66" width="11" height="11" rx="2.5" fill="#8b95a1" opacity="0.20"/>
<rect x="69" y="79" width="11" height="11" rx="2.5" fill="#8b95a1" opacity="0.20"/>
<rect x="69" y="92" width="11" height="11" rx="2.5" fill="#8b95a1" opacity="0.20"/>
<rect x="82" y="14" width="11" height="11" rx="2.5" fill="#8b95a1" opacity="0.20"/>
<rect x="82" y="27" width="11" height="11" rx="2.5" fill="#8b95a1" opacity="0.20"/>
<rect x="82" y="40" width="11" height="11" rx="2.5" fill="#8b95a1" opacity="0.20"/>
<rect x="82" y="53" width="11" height="11" rx="2.5" fill="#8b95a1" opacity="0.20"/>
<rect x="82" y="66" width="11" height="11" rx="2.5" fill="#8b95a1" opacity="0.20"/>
<rect x="82" y="79" width="11" height="11" rx="2.5" fill="#8b95a1" opacity="0.20"/>
<rect x="82" y="92" width="11" height="11" rx="2.5" fill="#8b95a1" opacity="0.20"/>
<rect x="95" y="14" width="11" height="11" rx="2.5" fill="#8b95a1" opacity="0.20"/>
<rect x="95" y="27" width="11" height="11" rx="2.5" fill="#8b95a1" opacity="0.20"/>
<rect x="95" y="40" width="11" height="11" rx="2.5" fill="#8b95a1" opacity="0.20"/>
<rect x="95" y="53" width="11" height="11" rx="2.5" fill="#8b95a1" opacity="0.20"/>
<rect x="95" y="66" width="11" height="11" rx="2.5" fill="#8b95a1" opacity="0.20"/>
<rect x="95" y="79" width="11" height="11" rx="2.5" fill="#8b95a1" opacity="0.20"/>
<rect x="95" y="92" width="11" height="11" rx="2.5" fill="#8b95a1" opacity="0.20"/>
<rect x="108" y="14" width="11" height="11" rx="2.5" fill="#8b95a1" opacity="0.20"/>
<rect x="108" y="27" width="11" height="11" rx="2.5" fill="#8b95a1" opacity="0.20"/>
<rect x="108" y="40" width="11" height="11" rx="2.5" fill="#8b95a1" opacity="0.20"/>
<rect x="108" y="53" width="11" height="11" rx="2.5" fill="#8b95a1" opacity="0.20"/>
<rect x="108" y="66" width="11" height="11" rx="2.5" fill="#8b95a1" opacity="0.20"/>
<rect x="108" y="79" width="11" height="11" rx="2.5" fill="#8b95a1" opacity="0.20"/>
<rect x="108" y="92" width="11" height="11" rx="2.5" fill="#8b95a1" opacity="0.20"/>
<rect x="121" y="14" width="11" height="11" rx="2.5" fill="#8b95a1" opacity="0.20"/>
<rect x="121" y="27" width="11" height="11" rx="2.5" fill="#8b95a1" opacity="0.20"/>
<rect x="121" y="40" width="11" height="11" rx="2.5" fill="#8b95a1" opacity="0.20"/>
<rect x="121" y="53" width="11" height="11" rx="2.5" fill="#8b95a1" opacity="0.20"/>
<rect x="121" y="66" width="11" height="11" rx="2.5" fill="#8b95a1" opacity="0.20"/>
<rect x="121" y="79" width="11" height="11" rx="2.5" fill="#8b95a1" opacity="0.20"/>
<rect x="121" y="92" width="11" height="11" rx="2.5" fill="#8b95a1" opacity="0.20"/>
<rect x="134" y="14" width="11" height="11" rx="2.5" fill="#8b95a1" opacity="0.20"/>
<rect x="134" y="27" width="11" height="11" rx="2.5" fill="#8b95a1" opacity="0.20"/>
<rect x="134" y="40" width="11" height="11" rx="2.5" fill="#8b95a1" opacity="0.20"/>
<rect x="134" y="53" width="11" height="11" rx="2.5" fill="#8b95a1" opacity="0.20"/>
<rect x="134" y="66" width="11" height="11" rx="2.5" fill="#8b95a1" opacity="0.20"/>
<rect x="134" y="79" width="11" height="11" rx="2.5" fill="#8b95a1" opacity="0.20"/>
<rect x="134" y="92" width="11" height="11" rx="2.5" fill="#8b95a1" opacity="0.20"/>
<rect x="147" y="14" width="11" height="11" rx="2.5" fill="#8b95a1" opacity="0.20"/>
<rect x="147" y="27" width="11" height="11" rx="2.5" fill="#8b95a1" opacity="0.20"/>
<rect x="147" y="40" width="11" height="11" rx="2.5" fill="#8b95a1" opacity="0.20"/>
<rect x="147" y="53" width="11" height="11" rx="2.5" fill="#8b95a1" opacity="0.20"/>
<rect x="147" y="66" width="11" height="11" rx="2.5" fill="#8b95a1" opacity="0.20"/>
<rect x="147" y="79" width="11" height="11" rx="2.5" fill="#8b95a1" opacity="0.20"/>
<rect x="147" y="92" width="11" height="11" rx="2.5" fill="#8b95a1" opacity="0.20"/>
<rect x="160" y="14" width="11" height="11" rx="2.5" fill="#8b95a1" opacity="0.20"/>
<rect x="160" y="27" width="11" height="11" rx="2.5" fill="#8b95a1" opacity="0.20"/>
<rect x="160" y="40" width="11" height="11" rx="2.5" fill="#8b95a1" opacity="0.20"/>
<rect x="160" y="53" width="11" height="11" rx="2.5" fill="#8b95a1" opacity="0.20"/>
<rect x="160" y="66" width="11" height="11" rx="2.5" fill="#8b95a1" opacity="0.20"/>
<rect x="160" y="79" width="11" height="11" rx="2.5" fill="#8b95a1" opacity="0.20"/>
<rect x="160" y="92" width="11" height="11" rx="2.5" fill="#8b95a1" opacity="0.20"/>
<rect x="173" y="14" width="11" height="11" rx="2.5" fill="#8b95a1" opacity="0.20"/>
<rect x="173" y="27" width="11" height="11" rx="2.5" fill="#8b95a1" opacity="0.20"/>
<rect x="173" y="40" width="11" height="11" rx="2.5" fill="#8b95a1" opacity="0.20"/>
<rect x="173" y="53" width="11" height="11" rx="2.5" fill="#8b95a1" opacity="0.20"/>
<rect x="173" y="66" width="11" height="11" rx="2.5" fill="#8b95a1" opacity="0.20"/>
<rect x="173" y="79" width="11" height="11" rx="2.5" fill="#8b95a1" opacity="0.20"/>
<rect x="173" y="92" width="11" height="11" rx="2.5" fill="#8b95a1" opacity="0.20"/>
<rect x="186" y="14" width="11" height="11" rx="2.5" fill="#8b95a1" opacity="0.20"/>
<rect x="186" y="27" width="11" height="11" rx="2.5" fill="#8b95a1" opacity="0.20"/>
<rect x="186" y="40" width="11" height="11" rx="2.5" fill="#8b95a1" opacity="0.20"/>
<rect x="186" y="53" width="11" height="11" rx="2.5" fill="#8b95a1" opacity="0.20"/>
<rect x="186" y="66" width="11" height="11" rx="2.5" fill="#8b95a1" opacity="0.20"/>
<rect x="186" y="79" width="11" height="11" rx="2.5" fill="#8b95a1" opacity="0.20"/>
<rect x="186" y="92" width="11" height="11" rx="2.5" fill="#8b95a1" opacity="0.20"/>
<rect x="199" y="14" width="11" height="11" rx="2.5" fill="#8b95a1" opacity="0.20"/>
<rect x="199" y="27" width="11" height="11" rx="2.5" fill="#8b95a1" opacity="0.20"/>
<rect x="199" y="40" width="11" height="11" rx="2.5" fill="#8b95a1" opacity="0.20"/>
<rect x="199" y="53" width="11" height="11" rx="2.5" fill="#8b95a1" opacity="0.20"/>
<rect x="199" y="66" width="11" height="11" rx="2.5" fill="#8b95a1" opacity="0.20"/>
<rect x="199" y="79" width="11" height="11" rx="2.5" fill="#8b95a1" opacity="0.20"/>
<rect x="199" y="92" width="11" height="11" rx="2.5" fill="#8b95a1" opacity="0.20"/>
<rect x="212" y="14" width="11" height="11" rx="2.5" fill="#8b95a1" opacity="0.20"/>
<rect x="212" y="27" width="11" height="11" rx="2.5" fill="#8b95a1" opacity="0.20"/>
<rect x="212" y="40" width="11" height="11" rx="2.5" fill="#8b95a1" opacity="0.20"/>
<rect x="212" y="53" width="11" height="11" rx="2.5" fill="#8b95a1" opacity="0.20"/>
<rect x="212" y="66" width="11" height="11" rx="2.5" fill="#8b95a1" opacity="0.20"/>
<rect x="212" y="79" width="11" height="11" rx="2.5" fill="#8b95a1" opacity="0.20"/>
<rect x="212" y="92" width="11" height="11" rx="2.5" fill="#8b95a1" opacity="0.20"/>
<rect x="225" y="14" width="11" height="11" rx="2.5" fill="#8b95a1" opacity="0.20"/>
<rect x="225" y="27" width="11" height="11" rx="2.5" fill="#8b95a1" opacity="0.20"/>
<rect x="225" y="40" width="11" height="11" rx="2.5" fill="#8b95a1" opacity="0.20"/>
<rect x="225" y="53" width="11" height="11" rx="2.5" fill="#8b95a1" opacity="0.20"/>
<rect x="225" y="66" width="11" height="11" rx="2.5" fill="#8b95a1" opacity="0.20"/>
<rect x="225" y="79" width="11" height="11" rx="2.5" fill="#8b95a1" opacity="0.20"/>
<rect x="225" y="92" width="11" height="11" rx="2.5" fill="#8b95a1" opacity="0.20"/>
<rect x="238" y="14" width="11" height="11" rx="2.5" fill="#8b95a1" opacity="0.20"/>
<rect x="238" y="27" width="11" height="11" rx="2.5" fill="#8b95a1" opacity="0.20"/>
<rect x="238" y="40" width="11" height="11" rx="2.5" fill="#8b95a1" opacity="0.20"/>
<rect x="238" y="53" width="11" height="11" rx="2.5" fill="#8b95a1" opacity="0.20"/>
<rect x="238" y="66" width="11" height="11" rx="2.5" fill="#8b95a1" opacity="0.20"/>
<rect x="238" y="79" width="11" height="11" rx="2.5" fill="#8b95a1" opacity="0.20"/>
<rect x="238" y="92" width="11" height="11" rx="2.5" fill="#8b95a1" opacity="0.20"/>
<rect x="251" y="14" width="11" height="11" rx="2.5" fill="#8b95a1" opacity="0.20"/>
<rect x="251" y="27" width="11" height="11" rx="2.5" fill="#8b95a1" opacity="0.20"/>
<rect x="251" y="40" width="11" height="11" rx="2.5" fill="#8b95a1" opacity="0.20"/>
<rect x="251" y="53" width="11" height="11" rx="2.5" fill="#8b95a1" opacity="0.20"/>
<rect x="251" y="66" width="11" height="11" rx="2.5" fill="#8b95a1" opacity="0.20"/>
<rect x="251" y="79" width="11" height="11" rx="2.5" fill="#8b95a1" opacity="0.20"/>
<rect x="251" y="92" width="11" height="11" rx="2.5" fill="#8b95a1" opacity="0.20"/>
<rect x="264" y="14" width="11" height="11" rx="2.5" fill="#8b95a1" opacity="0.20"/>
<rect x="264" y="27" width="11" height="11" rx="2.5" fill="#8b95a1" opacity="0.20"/>
<rect x="264" y="40" width="11" height="11" rx="2.5" fill="#8b95a1" opacity="0.20"/>
<rect x="264" y="53" width="11" height="11" rx="2.5" fill="#8b95a1" opacity="0.20"/>
<rect x="264" y="66" width="11" height="11" rx="2.5" fill="#8b95a1" opacity="0.20"/>
<rect x="264" y="79" width="11" height="11" rx="2.5" fill="#8b95a1" opacity="0.20"/>
<rect x="264" y="92" width="11" height="11" rx="2.5" fill="#8b95a1" opacity="0.20"/>
<rect x="277" y="14" width="11" height="11" rx="2.5" fill="#8b95a1" opacity="0.20"/>
<rect x="277" y="27" width="11" height="11" rx="2.5" fill="#8b95a1" opacity="0.20"/>
<rect x="277" y="40" width="11" height="11" rx="2.5" fill="#8b95a1" opacity="0.20"/>
<rect x="277" y="53" width="11" height="11" rx="2.5" fill="#8b95a1" opacity="0.20"/>
<rect x="277" y="66" width="11" height="11" rx="2.5" fill="#8b95a1" opacity="0.20"/>
<rect x="277" y="79" width="11" height="11" rx="2.5" fill="#8b95a1" opacity="0.20"/>
<rect x="277" y="92" width="11" height="11" rx="2.5" fill="#8b95a1" opacity="0.20"/>
<rect x="290" y="14" width="11" height="11" rx="2.5" fill="#8b95a1" opacity="0.20"/>
<rect x="290" y="27" width="11" height="11" rx="2.5" fill="#8b95a1" opacity="0.20"/>
<rect x="290" y="40" width="11" height="11" rx="2.5" fill="#8b95a1" opacity="0.20"/>
<rect x="290" y="53" width="11" height="11" rx="2.5" fill="#8b95a1" opacity="0.20"/>
<rect x="290" y="66" width="11" height="11" rx="2.5" fill="#8b95a1" opacity="0.20"/>
<rect x="290" y="79" width="11" height="11" rx="2.5" fill="#8b95a1" opacity="0.20"/>
<rect x="290" y="92" width="11" height="11" rx="2.5" fill="#8b95a1" opacity="0.20"/>
<rect x="303" y="14" width="11" height="11" rx="2.5" fill="#8b95a1" opacity="0.20"/>
<rect x="303" y="27" width="11" height="11" rx="2.5" fill="#8b95a1" opacity="0.20"/>
<rect x="303" y="40" width="11" height="11" rx="2.5" fill="#8b95a1" opacity="0.20"/>
<rect x="303" y="53" width="11" height="11" rx="2.5" fill="#8b95a1" opacity="0.20"/>
<rect x="303" y="66" width="11" height="11" rx="2.5" fill="#8b95a1" opacity="0.20"/>
<rect x="303" y="79" width="11" height="11" rx="2.5" fill="#8b95a1" opacity="0.20"/>
<rect x="303" y="92" width="11" height="11" rx="2.5" fill="#8b95a1" opacity="0.20"/>
<rect x="316" y="14" width="11" height="11" rx="2.5" fill="#8b95a1" opacity="0.20"/>
<rect x="316" y="27" width="11" height="11" rx="2.5" fill="#8b95a1" opacity="0.20"/>
<rect x="316" y="40" width="11" height="11" rx="2.5" fill="#8b95a1" opacity="0.20"/>
<rect x="316" y="53" width="11" height="11" rx="2.5" fill="#8b95a1" opacity="0.20"/>
<rect x="316" y="66" width="11" height="11" rx="2.5" fill="#8b95a1" opacity="0.20"/>
<rect x="316" y="79" width="11" height="11" rx="2.5" fill="#8b95a1" opacity="0.20"/>
<rect x="316" y="92" width="11" height="11" rx="2.5" fill="#8b95a1" opacity="0.20"/>
<rect x="329" y="14" width="11" height="11" rx="2.5" fill="#8b95a1" opacity="0.20"/>
<rect x="329" y="27" width="11" height="11" rx="2.5" fill="#8b95a1" opacity="0.20"/>
<rect x="329" y="40" width="11" height="11" rx="2.5" fill="#8b95a1" opacity="0.20"/>
<rect x="329" y="53" width="11" height="11" rx="2.5" fill="#8b95a1" opacity="0.20"/>
<rect x="329" y="66" width="11" height="11" rx="2.5" fill="#8b95a1" opacity="0.20"/>
<rect x="329" y="79" width="11" height="11" rx="2.5" fill="#8b95a1" opacity="0.20"/>
<rect x="329" y="92" width="11" height="11" rx="2.5" fill="#8b95a1" opacity="0.20"/>
<rect x="342" y="14" width="11" height="11" rx="2.5" fill="#8b95a1" opacity="0.20"/>
<rect x="342" y="27" width="11" height="11" rx="2.5" fill="#8b95a1" opacity="0.20"/>
<rect x="342" y="40" width="11" height="11" rx="2.5" fill="#8b95a1" opacity="0.20"/>
<rect x="342" y="53" width="11" height="11" rx="2.5" fill="#8b95a1" opacity="0.20"/>
<rect x="342" y="66" width="11" height="11" rx="2.5" fill="#8b95a1" opacity="0.20"/>
<rect x="342" y="79" width="11" height="11" rx="2.5" fill="#8b95a1" opacity="0.20"/>
<rect x="342" y="92" width="11" height="11" rx="2.5" fill="#8b95a1" opacity="0.20"/>
<rect x="355" y="14" width="11" height="11" rx="2.5" fill="#8b95a1" opacity="0.20"/>
<rect x="355" y="27" width="11" height="11" rx="2.5" fill="#8b95a1" opacity="0.20"/>
<rect x="355" y="40" width="11" height="11" rx="2.5" fill="#8b95a1" opacity="0.20"/>
<rect x="355" y="53" width="11" height="11" rx="2.5" fill="#8b95a1" opacity="0.20"/>
<rect x="355" y="66" width="11" height="11" rx="2.5" fill="#8b95a1" opacity="0.20"/>
<rect x="355" y="79" width="11" height="11" rx="2.5" fill="#8b95a1" opacity="0.20"/>
<rect x="355" y="92" width="11" height="11" rx="2.5" fill="#8b95a1" opacity="0.20"/>
<rect x="368" y="14" width="11" height="11" rx="2.5" fill="#8b95a1" opacity="0.20"/>
<rect x="368" y="27" width="11" height="11" rx="2.5" fill="#8b95a1" opacity="0.20"/>
<rect x="368" y="40" width="11" height="11" rx="2.5" fill="#8b95a1" opacity="0.20"/>
<rect x="368" y="53" width="11" height="11" rx="2.5" fill="#8b95a1" opacity="0.20"/>
<rect x="368" y="66" width="11" height="11" rx="2.5" fill="#8b95a1" opacity="0.20"/>
<rect x="368" y="79" width="11" height="11" rx="2.5" fill="#8b95a1" opacity="0.20"/>
<rect x="368" y="92" width="11" height="11" rx="2.5" fill="#8b95a1" opacity="0.20"/>
<rect x="381" y="14" width="11" height="11" rx="2.5" fill="#8b95a1" opacity="0.20"/>
<rect x="381" y="27" width="11" height="11" rx="2.5" fill="#8b95a1" opacity="0.20"/>
<rect x="381" y="40" width="11" height="11" rx="2.5" fill="#8b95a1" opacity="0.20"/>
<rect x="381" y="53" width="11" height="11" rx="2.5" fill="#8b95a1" opacity="0.20"/>
<rect x="381" y="66" width="11" height="11" rx="2.5" fill="#8b95a1" opacity="0.20"/>
<rect x="381" y="79" width="11" height="11" rx="2.5" fill="#8b95a1" opacity="0.20"/>
<rect x="381" y="92" width="11" height="11" rx="2.5" fill="#8b95a1" opacity="0.20"/>
<rect x="394" y="14" width="11" height="11" rx="2.5" fill="#8b95a1" opacity="0.20"/>
<rect x="394" y="27" width="11" height="11" rx="2.5" fill="#8b95a1" opacity="0.20"/>
<rect x="394" y="40" width="11" height="11" rx="2.5" fill="#8b95a1" opacity="0.20"/>
<rect x="394" y="53" width="11" height="11" rx="2.5" fill="#8b95a1" opacity="0.20"/>
<rect x="394" y="66" width="11" height="11" rx="2.5" fill="#8b95a1" opacity="0.20"/>
<rect x="394" y="79" width="11" height="11" rx="2.5" fill="#8b95a1" opacity="0.20"/>
<rect x="394" y="92" width="11" height="11" rx="2.5" fill="#8b95a1" opacity="0.20"/>
<rect x="407" y="14" width="11" height="11" rx="2.5" fill="#8b95a1" opacity="0.20"/>
<rect x="407" y="27" width="11" height="11" rx="2.5" fill="#8b95a1" opacity="0.20"/>
<rect x="407" y="40" width="11" height="11" rx="2.5" fill="#8b95a1" opacity="0.20"/>
<rect x="407" y="53" width="11" height="11" rx="2.5" fill="#8b95a1" opacity="0.20"/>
<rect x="407" y="66" width="11" height="11" rx="2.5" fill="#8b95a1" opacity="0.20"/>
<rect x="407" y="79" width="11" height="11" rx="2.5" fill="#8b95a1" opacity="0.20"/>
<rect x="407" y="92" width="11" height="11" rx="2.5" fill="#8b95a1" opacity="0.20"/>
<rect x="420" y="14" width="11" height="11" rx="2.5" fill="#8b95a1" opacity="0.20"/>
<rect x="420" y="27" width="11" height="11" rx="2.5" fill="#8b95a1" opacity="0.20"/>
<rect x="420" y="40" width="11" height="11" rx="2.5" fill="#8b95a1" opacity="0.20"/>
<rect x="420" y="53" width="11" height="11" rx="2.5" fill="#8b95a1" opacity="0.20"/>
<rect x="420" y="66" width="11" height="11" rx="2.5" fill="#8b95a1" opacity="0.20"/>
<rect x="420" y="79" width="11" height="11" rx="2.5" fill="#8b95a1" opacity="0.20"/>
<rect x="420" y="92" width="11" height="11" rx="2.5" fill="#8b95a1" opacity="0.20"/>
<rect x="433" y="14" width="11" height="11" rx="2.5" fill="#8b95a1" opacity="0.20"/>
<rect x="433" y="27" width="11" height="11" rx="2.5" fill="#8b95a1" opacity="0.20"/>
<rect x="433" y="40" width="11" height="11" rx="2.5" fill="#8b95a1" opacity="0.20"/>
<rect x="433" y="53" width="11" height="11" rx="2.5" fill="#8b95a1" opacity="0.20"/>
<rect x="433" y="66" width="11" height="11" rx="2.5" fill="#8b95a1" opacity="0.20"/>
<rect x="433" y="79" width="11" height="11" rx="2.5" fill="#8b95a1" opacity="0.20"/>
<rect x="433" y="92" width="11" height="11" rx="2.5" fill="#8b95a1" opacity="0.20"/>
<rect x="446" y="14" width="11" height="11" rx="2.5" fill="#8b95a1" opacity="0.20"/>
<rect x="446" y="27" width="11" height="11" rx="2.5" fill="#8b95a1" opacity="0.20"/>
<rect x="446" y="40" width="11" height="11" rx="2.5" fill="#8b95a1" opacity="0.20"/>
<rect x="446" y="53" width="11" height="11" rx="2.5" fill="#8b95a1" opacity="0.20"/>
<rect x="446" y="66" width="11" height="11" rx="2.5" fill="#8b95a1" opacity="0.20"/>
<rect x="446" y="79" width="11" height="11" rx="2.5" fill="#8b95a1" opacity="0.20"/>
<rect x="446" y="92" width="11" height="11" rx="2.5" fill="#8b95a1" opacity="0.20"/>
<rect x="459" y="14" width="11" height="11" rx="2.5" fill="#8b95a1" opacity="0.20"/>
<rect x="459" y="27" width="11" height="11" rx="2.5" fill="#8b95a1" opacity="0.20"/>
<rect x="459" y="40" width="11" height="11" rx="2.5" fill="#8b95a1" opacity="0.20"/>
<rect x="459" y="53" width="11" height="11" rx="2.5" fill="#8b95a1" opacity="0.20"/>
<rect x="459" y="66" width="11" height="11" rx="2.5" fill="#8b95a1" opacity="0.20"/>
<rect x="459" y="79" width="11" height="11" rx="2.5" fill="#8b95a1" opacity="0.20"/>
<rect x="459" y="92" width="11" height="11" rx="2.5" fill="#8b95a1" opacity="0.20"/>
<rect x="472" y="14" width="11" height="11" rx="2.5" fill="#8b95a1" opacity="0.20"/>
<rect x="472" y="27" width="11" height="11" rx="2.5" fill="#8b95a1" opacity="0.20"/>
<rect x="472" y="40" width="11" height="11" rx="2.5" fill="#8b95a1" opacity="0.20"/>
<rect x="472" y="53" width="11" height="11" rx="2.5" fill="#8b95a1" opacity="0.20"/>
<rect x="472" y="66" width="11" height="11" rx="2.5" fill="#8b95a1" opacity="0.20"/>
<rect x="472" y="79" width="11" height="11" rx="2.5" fill="#8b95a1" opacity="0.20"/>
<rect x="472" y="92" width="11" height="11" rx="2.5" fill="#8b95a1" opacity="0.20"/>
<rect x="485" y="14" width="11" height="11" rx="2.5" fill="#8b95a1" opacity="0.20"/>
<rect x="485" y="27" width="11" height="11" rx="2.5" fill="#8b95a1" opacity="0.20"/>
<rect x="485" y="40" width="11" height="11" rx="2.5" fill="#8b95a1" opacity="0.20"/>
<rect x="485" y="53" width="11" height="11" rx="2.5" fill="#8b95a1" opacity="0.20"/>
<rect x="485" y="66" width="11" height="11" rx="2.5" fill="#8b95a1" opacity="0.20"/>
<rect x="485" y="79" width="11" height="11" rx="2.5" fill="#8b95a1" opacity="0.20"/>
<rect x="485" y="92" width="11" height="11" rx="2.5" fill="#8b95a1" opacity="0.20"/>
<rect x="498" y="14" width="11" height="11" rx="2.5" fill="#8b95a1" opacity="0.20"/>
<rect x="498" y="27" width="11" height="11" rx="2.5" fill="#8b95a1" opacity="0.20"/>
<rect x="498" y="40" width="11" height="11" rx="2.5" fill="#8b95a1" opacity="0.20"/>
<rect x="498" y="53" width="11" height="11" rx="2.5" fill="#8b95a1" opacity="0.20"/>
<rect x="498" y="66" width="11" height="11" rx="2.5" fill="#8b95a1" opacity="0.20"/>
<rect x="498" y="79" width="11" height="11" rx="2.5" fill="#8b95a1" opacity="0.20"/>
<rect x="498" y="92" width="11" height="11" rx="2.5" fill="#8b95a1" opacity="0.20"/>
<rect x="511" y="14" width="11" height="11" rx="2.5" fill="#8b95a1" opacity="0.20"/>
<rect x="511" y="27" width="11" height="11" rx="2.5" fill="#8b95a1" opacity="0.20"/>
<rect x="511" y="40" width="11" height="11" rx="2.5" fill="#8b95a1" opacity="0.20"/>
<rect x="511" y="53" width="11" height="11" rx="2.5" fill="#8b95a1" opacity="0.20"/>
<rect x="511" y="66" width="11" height="11" rx="2.5" fill="#8b95a1" opacity="0.20"/>
<rect x="511" y="79" width="11" height="11" rx="2.5" fill="#8b95a1" opacity="0.20"/>
<rect x="511" y="92" width="11" height="11" rx="2.5" fill="#8b95a1" opacity="0.20"/>
<rect x="524" y="14" width="11" height="11" rx="2.5" fill="#8b95a1" opacity="0.20"/>
<rect x="524" y="27" width="11" height="11" rx="2.5" fill="#8b95a1" opacity="0.20"/>
<rect x="524" y="40" width="11" height="11" rx="2.5" fill="#8b95a1" opacity="0.20"/>
<rect x="524" y="53" width="11" height="11" rx="2.5" fill="#8b95a1" opacity="0.20"/>
<rect x="524" y="66" width="11" height="11" rx="2.5" fill="#8b95a1" opacity="0.20"/>
<rect x="524" y="79" width="11" height="11" rx="2.5" fill="#8b95a1" opacity="0.20"/>
<rect x="524" y="92" width="11" height="11" rx="2.5" fill="#8b95a1" opacity="0.20"/>
<rect x="537" y="14" width="11" height="11" rx="2.5" fill="#8b95a1" opacity="0.20"/>
<rect x="537" y="27" width="11" height="11" rx="2.5" fill="#8b95a1" opacity="0.20"/>
<rect x="537" y="40" width="11" height="11" rx="2.5" fill="#8b95a1" opacity="0.20"/>
<rect x="537" y="53" width="11" height="11" rx="2.5" fill="#8b95a1" opacity="0.20"/>
<rect x="537" y="66" width="11" height="11" rx="2.5" fill="#8b95a1" opacity="0.20"/>
<rect x="537" y="79" width="11" height="11" rx="2.5" fill="#a7e8d8" class="c" style="animation-name:e39_5"/>
<rect x="537" y="92" width="11" height="11" rx="2.5" fill="#35a08e" class="c" style="animation-name:e39_6"/>
<rect x="550" y="14" width="11" height="11" rx="2.5" fill="#1f7a6b" class="c" style="animation-name:e40_0"/>
<rect x="550" y="27" width="11" height="11" rx="2.5" fill="#35a08e" class="c" style="animation-name:e40_1"/>
<rect x="550" y="40" width="11" height="11" rx="2.5" fill="#8b95a1" opacity="0.20"/>
<rect x="550" y="53" width="11" height="11" rx="2.5" fill="#35a08e" class="c" style="animation-name:e40_3"/>
<rect x="550" y="66" width="11" height="11" rx="2.5" fill="#8b95a1" opacity="0.20"/>
<rect x="550" y="79" width="11" height="11" rx="2.5" fill="#8b95a1" opacity="0.20"/>
<rect x="550" y="92" width="11" height="11" rx="2.5" fill="#8b95a1" opacity="0.20"/>
<rect x="563" y="14" width="11" height="11" rx="2.5" fill="#a7e8d8" class="c" style="animation-name:e41_0"/>
<rect x="563" y="27" width="11" height="11" rx="2.5" fill="#35a08e" class="c" style="animation-name:e41_1"/>
<rect x="563" y="40" width="11" height="11" rx="2.5" fill="#5fcdb5" class="c" style="animation-name:e41_2"/>
<rect x="563" y="53" width="11" height="11" rx="2.5" fill="#35a08e" class="c" style="animation-name:e41_3"/>
<rect x="563" y="66" width="11" height="11" rx="2.5" fill="#a7e8d8" class="c" style="animation-name:e41_4"/>
<rect x="563" y="79" width="11" height="11" rx="2.5" fill="#8b95a1" opacity="0.20"/>
<rect x="563" y="92" width="11" height="11" rx="2.5" fill="#8b95a1" opacity="0.20"/>
<rect x="576" y="14" width="11" height="11" rx="2.5" fill="#8b95a1" opacity="0.20"/>
<rect x="576" y="27" width="11" height="11" rx="2.5" fill="#a7e8d8" class="c" style="animation-name:e42_1"/>
<rect x="576" y="40" width="11" height="11" rx="2.5" fill="#a7e8d8" class="c" style="animation-name:e42_2"/>
<rect x="576" y="53" width="11" height="11" rx="2.5" fill="#8b95a1" opacity="0.20"/>
<rect x="576" y="66" width="11" height="11" rx="2.5" fill="#8b95a1" opacity="0.20"/>
<rect x="576" y="79" width="11" height="11" rx="2.5" fill="#8b95a1" opacity="0.20"/>
<rect x="576" y="92" width="11" height="11" rx="2.5" fill="#8b95a1" opacity="0.20"/>
<rect x="589" y="14" width="11" height="11" rx="2.5" fill="#8b95a1" opacity="0.20"/>
<rect x="589" y="27" width="11" height="11" rx="2.5" fill="#8b95a1" opacity="0.20"/>
<rect x="589" y="40" width="11" height="11" rx="2.5" fill="#8b95a1" opacity="0.20"/>
<rect x="589" y="53" width="11" height="11" rx="2.5" fill="#8b95a1" opacity="0.20"/>
<rect x="589" y="66" width="11" height="11" rx="2.5" fill="#8b95a1" opacity="0.20"/>
<rect x="589" y="79" width="11" height="11" rx="2.5" fill="#8b95a1" opacity="0.20"/>
<rect x="589" y="92" width="11" height="11" rx="2.5" fill="#8b95a1" opacity="0.20"/>
<rect x="602" y="14" width="11" height="11" rx="2.5" fill="#a7e8d8" class="c" style="animation-name:e44_0"/>
<rect x="602" y="27" width="11" height="11" rx="2.5" fill="#35a08e" class="c" style="animation-name:e44_1"/>
<rect x="602" y="40" width="11" height="11" rx="2.5" fill="#5fcdb5" class="c" style="animation-name:e44_2"/>
<rect x="602" y="53" width="11" height="11" rx="2.5" fill="#1f7a6b" class="c" style="animation-name:e44_3"/>
<rect x="602" y="66" width="11" height="11" rx="2.5" fill="#5fcdb5" class="c" style="animation-name:e44_4"/>
<rect x="602" y="79" width="11" height="11" rx="2.5" fill="#35a08e" class="c" style="animation-name:e44_5"/>
<rect x="602" y="92" width="11" height="11" rx="2.5" fill="#1f7a6b" class="c" style="animation-name:e44_6"/>
<rect x="615" y="14" width="11" height="11" rx="2.5" fill="#1f7a6b" class="c" style="animation-name:e45_0"/>
<rect x="615" y="27" width="11" height="11" rx="2.5" fill="#1f7a6b" class="c" style="animation-name:e45_1"/>
<rect x="615" y="40" width="11" height="11" rx="2.5" fill="#35a08e" class="c" style="animation-name:e45_2"/>
<rect x="615" y="53" width="11" height="11" rx="2.5" fill="#35a08e" class="c" style="animation-name:e45_3"/>
<rect x="615" y="66" width="11" height="11" rx="2.5" fill="#1f7a6b" class="c" style="animation-name:e45_4"/>
<rect x="615" y="79" width="11" height="11" rx="2.5" fill="#1f7a6b" class="c" style="animation-name:e45_5"/>
<rect x="615" y="92" width="11" height="11" rx="2.5" fill="#5fcdb5" class="c" style="animation-name:e45_6"/>
<rect x="628" y="14" width="11" height="11" rx="2.5" fill="#1f7a6b" class="c" style="animation-name:e46_0"/>
<rect x="628" y="27" width="11" height="11" rx="2.5" fill="#1f7a6b" class="c" style="animation-name:e46_1"/>
<rect x="628" y="40" width="11" height="11" rx="2.5" fill="#1f7a6b" class="c" style="animation-name:e46_2"/>
<rect x="628" y="53" width="11" height="11" rx="2.5" fill="#1f7a6b" class="c" style="animation-name:e46_3"/>
<rect x="628" y="66" width="11" height="11" rx="2.5" fill="#1f7a6b" class="c" style="animation-name:e46_4"/>
<rect x="628" y="79" width="11" height="11" rx="2.5" fill="#a7e8d8" class="c" style="animation-name:e46_5"/>
<rect x="628" y="92" width="11" height="11" rx="2.5" fill="#35a08e" class="c" style="animation-name:e46_6"/>
<rect x="641" y="14" width="11" height="11" rx="2.5" fill="#5fcdb5" class="c" style="animation-name:e47_0"/>
<rect x="641" y="27" width="11" height="11" rx="2.5" fill="#35a08e" class="c" style="animation-name:e47_1"/>
<rect x="641" y="40" width="11" height="11" rx="2.5" fill="#35a08e" class="c" style="animation-name:e47_2"/>
<rect x="641" y="53" width="11" height="11" rx="2.5" fill="#5fcdb5" class="c" style="animation-name:e47_3"/>
<rect x="641" y="66" width="11" height="11" rx="2.5" fill="#1f7a6b" class="c" style="animation-name:e47_4"/>
<rect x="641" y="79" width="11" height="11" rx="2.5" fill="#a7e8d8" class="c" style="animation-name:e47_5"/>
<rect x="641" y="92" width="11" height="11" rx="2.5" fill="#35a08e" class="c" style="animation-name:e47_6"/>
<rect x="654" y="14" width="11" height="11" rx="2.5" fill="#5fcdb5" class="c" style="animation-name:e48_0"/>
<rect x="654" y="27" width="11" height="11" rx="2.5" fill="#5fcdb5" class="c" style="animation-name:e48_1"/>
<rect x="654" y="40" width="11" height="11" rx="2.5" fill="#35a08e" class="c" style="animation-name:e48_2"/>
<rect x="654" y="53" width="11" height="11" rx="2.5" fill="#a7e8d8" class="c" style="animation-name:e48_3"/>
<rect x="654" y="66" width="11" height="11" rx="2.5" fill="#a7e8d8" class="c" style="animation-name:e48_4"/>
<rect x="654" y="79" width="11" height="11" rx="2.5" fill="#a7e8d8" class="c" style="animation-name:e48_5"/>
<rect x="654" y="92" width="11" height="11" rx="2.5" fill="#35a08e" class="c" style="animation-name:e48_6"/>
<rect x="667" y="14" width="11" height="11" rx="2.5" fill="#5fcdb5" class="c" style="animation-name:e49_0"/>
<rect x="667" y="27" width="11" height="11" rx="2.5" fill="#a7e8d8" class="c" style="animation-name:e49_1"/>
<rect x="667" y="40" width="11" height="11" rx="2.5" fill="#35a08e" class="c" style="animation-name:e49_2"/>
<rect x="667" y="53" width="11" height="11" rx="2.5" fill="#a7e8d8" class="c" style="animation-name:e49_3"/>
<rect x="667" y="66" width="11" height="11" rx="2.5" fill="#35a08e" class="c" style="animation-name:e49_4"/>
<rect x="667" y="79" width="11" height="11" rx="2.5" fill="#1f7a6b" class="c" style="animation-name:e49_5"/>
<rect x="667" y="92" width="11" height="11" rx="2.5" fill="#1f7a6b" class="c" style="animation-name:e49_6"/>
<rect x="680" y="14" width="11" height="11" rx="2.5" fill="#1f7a6b" class="c" style="animation-name:e50_0"/>
<rect x="680" y="27" width="11" height="11" rx="2.5" fill="#a7e8d8" class="c" style="animation-name:e50_1"/>
<rect x="680" y="40" width="11" height="11" rx="2.5" fill="#a7e8d8" class="c" style="animation-name:e50_2"/>
<rect x="680" y="53" width="11" height="11" rx="2.5" fill="#a7e8d8" class="c" style="animation-name:e50_3"/>
<rect x="680" y="66" width="11" height="11" rx="2.5" fill="#5fcdb5" class="c" style="animation-name:e50_4"/>
<rect x="680" y="79" width="11" height="11" rx="2.5" fill="#a7e8d8" class="c" style="animation-name:e50_5"/>
<rect x="680" y="92" width="11" height="11" rx="2.5" fill="#a7e8d8" class="c" style="animation-name:e50_6"/>
<rect x="693" y="14" width="11" height="11" rx="2.5" fill="#5fcdb5" class="c" style="animation-name:e51_0"/>
<rect x="693" y="27" width="11" height="11" rx="2.5" fill="#a7e8d8" class="c" style="animation-name:e51_1"/>
<rect x="693" y="40" width="11" height="11" rx="2.5" fill="#5fcdb5" class="c" style="animation-name:e51_2"/>
<rect x="693" y="53" width="11" height="11" rx="2.5" fill="#a7e8d8" class="c" style="animation-name:e51_3"/>
<rect x="693" y="66" width="11" height="11" rx="2.5" fill="#a7e8d8" class="c" style="animation-name:e51_4"/>
<rect x="693" y="79" width="11" height="11" rx="2.5" fill="#8b95a1" opacity="0.20"/>
<rect x="693" y="92" width="11" height="11" rx="2.5" fill="#8b95a1" opacity="0.20"/>
<text x="3" y="35.5" font-size="9" fill="#8b95a1">Пн</text>
<text x="3" y="61.5" font-size="9" fill="#8b95a1">Ср</text>
<text x="3" y="87.5" font-size="9" fill="#8b95a1">Пт</text>
<clipPath id="gclip"><rect x="30" y="14" width="674" height="89"/></clipPath>
<g clip-path="url(#gclip)">
<rect class="sg" style="animation-name:snk,g5;animation-delay:0.300s,0s" x="0" y="0" width="11" height="11" rx="3"/>
<rect class="sg" style="animation-name:snk,g4;animation-delay:0.240s,0s" x="0" y="0" width="11" height="11" rx="3"/>
<rect class="sg" style="animation-delay:0.180s;opacity:0.875" x="0" y="0" width="11" height="11" rx="3"/>
<rect class="sg" style="animation-delay:0.120s;opacity:0.89" x="0" y="0" width="11" height="11" rx="3"/>
<rect class="sg" style="animation-delay:0.060s;opacity:0.905" x="0" y="0" width="11" height="11" rx="3"/>
<rect class="sg" style="animation-delay:0.000s;opacity:1" x="0" y="0" width="11" height="11" rx="5.5"/>
</g>
</svg>
