<svg xmlns="http://www.w3.org/2000/svg" viewBox="0 0 710 109" role="img" aria-label="git-активность candycate-studio за год: змейка съедает клетки коммитов">
<title>git-активность candycate-studio</title>
<style>.c{animation-duration:10s;animation-timing-function:linear;animation-iteration-count:infinite}.sg{transform-box:view-box;transform-origin:0 0;fill:#d8285a;animation:snk 10s linear infinite}@keyframes snk{0%{transform:translate(-22px,53px)}0.685%{transform:translate(-9px,53px)}1.37%{transform:translate(4px,53px)}2.055%{transform:translate(17px,53px)}2.74%{transform:translate(30px,53px)}3.425%{transform:translate(43px,53px)}4.11%{transform:translate(43px,66px)}4.795%{transform:translate(56px,66px)}5.479%{transform:translate(56px,53px)}6.164%{transform:translate(56px,40px)}6.849%{transform:translate(69px,40px)}7.534%{transform:translate(82px,40px)}8.219%{transform:translate(95px,40px)}8.904%{transform:translate(95px,53px)}9.589%{transform:translate(108px,53px)}10.274%{transform:translate(108px,40px)}10.959%{transform:translate(121px,40px)}11.644%{transform:translate(121px,53px)}12.329%{transform:translate(134px,53px)}13.014%{transform:translate(134px,40px)}13.699%{transform:translate(147px,40px)}14.384%{transform:translate(160px,40px)}15.068%{transform:translate(173px,40px)}15.753%{transform:translate(186px,40px)}16.438%{transform:translate(186px,53px)}17.123%{transform:translate(199px,53px)}17.808%{transform:translate(212px,53px)}18.493%{transform:translate(225px,53px)}19.178%{transform:translate(238px,53px)}19.863%{transform:translate(238px,40px)}20.548%{transform:translate(251px,40px)}21.233%{transform:translate(264px,40px)}21.918%{transform:translate(264px,53px)}22.603%{transform:translate(264px,66px)}23.288%{transform:translate(277px,66px)}23.973%{transform:translate(277px,53px)}24.658%{transform:translate(290px,53px)}25.342%{transform:translate(303px,53px)}26.027%{transform:translate(316px,53px)}26.712%{transform:translate(329px,53px)}27.397%{transform:translate(329px,40px)}28.082%{transform:translate(342px,40px)}28.767%{transform:translate(342px,53px)}29.452%{transform:translate(355px,53px)}30.137%{transform:translate(368px,53px)}30.822%{transform:translate(381px,53px)}31.507%{transform:translate(394px,53px)}32.192%{transform:translate(394px,40px)}32.877%{transform:translate(407px,40px)}33.562%{transform:translate(420px,40px)}34.247%{transform:translate(420px,53px)}34.932%{transform:translate(433px,53px)}35.616%{transform:translate(433px,66px)}36.301%{transform:translate(446px,66px)}36.986%{transform:translate(459px,66px)}37.671%{transform:translate(472px,66px)}38.356%{transform:translate(472px,53px)}39.041%{transform:translate(485px,53px)}39.726%{transform:translate(498px,53px)}40.411%{transform:translate(511px,53px)}41.096%{transform:translate(524px,53px)}41.781%{transform:translate(537px,53px)}42.466%{transform:translate(537px,66px)}43.151%{transform:translate(550px,66px)}43.836%{transform:translate(563px,66px)}44.521%{transform:translate(576px,66px)}45.205%{transform:translate(576px,53px)}45.89%{transform:translate(589px,53px)}46.575%{transform:translate(602px,53px)}47.26%{transform:translate(615px,53px)}47.945%{transform:translate(628px,53px)}48.63%{transform:translate(641px,53px)}49.315%{transform:translate(641px,66px)}50%{transform:translate(628px,66px)}50.685%{transform:translate(615px,66px)}51.37%{transform:translate(602px,66px)}52.055%{transform:translate(602px,53px)}52.74%{transform:translate(615px,53px)}53.425%{transform:translate(628px,53px)}54.11%{transform:translate(628px,40px)}54.795%{transform:translate(641px,40px)}55.479%{transform:translate(641px,27px)}56.164%{transform:translate(641px,14px)}56.849%{transform:translate(628px,14px)}57.534%{transform:translate(628px,27px)}58.219%{transform:translate(615px,27px)}58.904%{transform:translate(615px,14px)}59.589%{transform:translate(602px,14px)}60.274%{transform:translate(589px,14px)}60.959%{transform:translate(589px,27px)}61.644%{transform:translate(602px,27px)}62.329%{transform:translate(602px,40px)}63.014%{transform:translate(615px,40px)}63.699%{transform:translate(615px,27px)}64.384%{transform:translate(615px,14px)}65.068%{transform:translate(628px,14px)}65.753%{transform:translate(641px,14px)}66.438%{transform:translate(654px,14px)}67.123%{transform:translate(654px,27px)}67.808%{transform:translate(667px,27px)}68.493%{transform:translate(667px,14px)}69.178%{transform:translate(680px,14px)}69.863%{transform:translate(693px,14px)}70.548%{transform:translate(693px,27px)}71.233%{transform:translate(680px,27px)}71.918%{transform:translate(680px,40px)}72.603%{transform:translate(680px,53px)}73.288%{transform:translate(680px,66px)}73.973%{transform:translate(680px,79px)}74.658%{transform:translate(680px,92px)}75.342%{transform:translate(667px,92px)}76.027%{transform:translate(667px,79px)}76.712%{transform:translate(667px,66px)}77.397%{transform:translate(667px,53px)}78.082%{transform:translate(667px,40px)}78.767%{transform:translate(680px,40px)}79.452%{transform:translate(693px,40px)}80.137%{transform:translate(693px,53px)}80.822%{transform:translate(680px,53px)}81.507%{transform:translate(680px,66px)}82.192%{transform:translate(680px,79px)}82.877%{transform:translate(667px,79px)}83.562%{transform:translate(667px,66px)}84.247%{transform:translate(654px,66px)}84.932%{transform:translate(641px,66px)}85.616%{transform:translate(641px,79px)}86.301%{transform:translate(628px,79px)}86.986%{transform:translate(615px,79px)}87.671%{transform:translate(615px,66px)}88.356%{transform:translate(602px,66px)}89.041%{transform:translate(602px,79px)}89.726%{transform:translate(602px,92px)}90.411%{transform:translate(615px,92px)}91.096%{transform:translate(628px,92px)}91.781%{transform:translate(641px,92px)}92.466%{transform:translate(654px,92px)}93.151%{transform:translate(667px,92px)}93.836%{transform:translate(680px,92px)}94.521%{transform:translate(693px,92px)}95.205%{transform:translate(706px,92px)}95.89%{transform:translate(719px,92px)}96.575%{transform:translate(732px,92px)}97.26%{transform:translate(745px,92px)}97.945%{transform:translate(758px,92px)}98.63%{transform:translate(771px,92px)}99.315%{transform:translate(784px,92px)}100%{transform:translate(797px,92px)}}@keyframes e44_5{0%,89.041%{fill:#a7e8d8;opacity:1}89.589%,100%{fill:#8b95a1;opacity:.2}}@keyframes e44_6{0%,89.726%{fill:#5fcdb5;opacity:1}90.274%,100%{fill:#8b95a1;opacity:.2}}@keyframes e45_0{0%,58.904%{fill:#1f7a6b;opacity:1}59.452%,100%{fill:#8b95a1;opacity:.2}}@keyframes e45_1{0%,58.219%{fill:#35a08e;opacity:1}58.767%,100%{fill:#8b95a1;opacity:.2}}@keyframes e45_3{0%,47.26%{fill:#35a08e;opacity:1}47.808%,100%{fill:#8b95a1;opacity:.2}}@keyframes e46_0{0%,56.849%{fill:#a7e8d8;opacity:1}57.397%,100%{fill:#8b95a1;opacity:.2}}@keyframes e46_1{0%,57.534%{fill:#5fcdb5;opacity:1}58.082%,100%{fill:#8b95a1;opacity:.2}}@keyframes e46_2{0%,54.11%{fill:#a7e8d8;opacity:1}54.658%,100%{fill:#8b95a1;opacity:.2}}@keyframes e46_3{0%,47.945%{fill:#5fcdb5;opacity:1}48.493%,100%{fill:#8b95a1;opacity:.2}}@keyframes e46_4{0%,50%{fill:#a7e8d8;opacity:1}50.548%,100%{fill:#8b95a1;opacity:.2}}@keyframes e47_1{0%,55.479%{fill:#a7e8d8;opacity:1}56.027%,100%{fill:#8b95a1;opacity:.2}}@keyframes e47_2{0%,54.795%{fill:#a7e8d8;opacity:1}55.342%,100%{fill:#8b95a1;opacity:.2}}@keyframes e49_0{0%,68.493%{fill:#a7e8d8;opacity:1}69.041%,100%{fill:#8b95a1;opacity:.2}}@keyframes e49_1{0%,67.808%{fill:#35a08e;opacity:1}68.356%,100%{fill:#8b95a1;opacity:.2}}@keyframes e49_2{0%,78.082%{fill:#5fcdb5;opacity:1}78.63%,100%{fill:#8b95a1;opacity:.2}}@keyframes e49_3{0%,77.397%{fill:#35a08e;opacity:1}77.945%,100%{fill:#8b95a1;opacity:.2}}@keyframes e49_4{0%,76.712%{fill:#5fcdb5;opacity:1}77.26%,100%{fill:#8b95a1;opacity:.2}}@keyframes e49_5{0%,76.027%{fill:#5fcdb5;opacity:1}76.575%,100%{fill:#8b95a1;opacity:.2}}@keyframes e49_6{0%,75.342%{fill:#1f7a6b;opacity:1}75.89%,100%{fill:#8b95a1;opacity:.2}}@keyframes e50_0{0%,69.178%{fill:#1f7a6b;opacity:1}69.726%,100%{fill:#8b95a1;opacity:.2}}@keyframes e50_1{0%,71.233%{fill:#1f7a6b;opacity:1}71.781%,100%{fill:#8b95a1;opacity:.2}}@keyframes e50_2{0%,71.918%{fill:#35a08e;opacity:1}72.466%,100%{fill:#8b95a1;opacity:.2}}@keyframes e50_3{0%,72.603%{fill:#35a08e;opacity:1}73.151%,100%{fill:#8b95a1;opacity:.2}}@keyframes e50_4{0%,73.288%{fill:#1f7a6b;opacity:1}73.836%,100%{fill:#8b95a1;opacity:.2}}@keyframes e50_5{0%,73.973%{fill:#35a08e;opacity:1}74.521%,100%{fill:#8b95a1;opacity:.2}}@keyframes e50_6{0%,74.658%{fill:#a7e8d8;opacity:1}75.205%,100%{fill:#8b95a1;opacity:.2}}@keyframes e51_0{0%,69.863%{fill:#1f7a6b;opacity:1}70.411%,100%{fill:#8b95a1;opacity:.2}}@keyframes e51_1{0%,70.548%{fill:#1f7a6b;opacity:1}71.096%,100%{fill:#8b95a1;opacity:.2}}@keyframes e51_2{0%,79.452%{fill:#35a08e;opacity:1}80%,100%{fill:#8b95a1;opacity:.2}}@keyframes e51_3{0%,80.137%{fill:#5fcdb5;opacity:1}80.685%,100%{fill:#8b95a1;opacity:.2}}@keyframes g5{0%,47.945%{opacity:0}48.288%,100%{opacity:0.845}}@keyframes g4{0%,47.26%{opacity:0}47.603%,100%{opacity:0.86}}@media(prefers-reduced-motion:reduce){.sg{display:none}.c{animation:none}}</style>
<rect x="30" y="14" width="11" height="11" rx="2.5" fill="#8b95a1" opacity="0.20"/>
<rect x="30" y="27" width="11" height="11" rx="2.5" fill="#8b95a1" opacity="0.20"/>
<rect x="30" y="40" width="11" height="11" rx="2.5" fill="#8b95a1" opacity="0.20"/>
<rect x="30" y="53" width="11" height="11" rx="2.5" fill="#8b95a1" opacity="0.20"/>
<rect x="30" y="66" width="11" height="11" rx="2.5" fill="#8b95a1" opacity="0.20"/>
<rect x="30" y="79" width="11" height="11" rx="2.5" fill="#8b95a1" opacity="0.20"/>
<rect x="30" y="92" width="11" height="11" rx="2.5" fill="#8b95a1" opacity="0.20"/>
<rect x="43" y="14" width="11" height="11" rx="2.5" fill="#8b95a1" opacity="0.20"/>
<rect x="43" y="27" width="11" height="11" rx="2.5" fill="#8b95a1" opacity="0.20"/>
<rect x="43" y="40" width="11" height="11" rx="2.5" fill="#8b95a1" opacity="0.20"/>
<rect x="43" y="53" width="11" height="11" rx="2.5" fill="#8b95a1" opacity="0.20"/>
<rect x="43" y="66" width="11" height="11" rx="2.5" fill="#8b95a1" opacity="0.20"/>
<rect x="43" y="79" width="11" height="11" rx="2.5" fill="#8b95a1" opacity="0.20"/>
<rect x="43" y="92" width="11" height="11" rx="2.5" fill="#8b95a1" opacity="0.20"/>
<rect x="56" y="14" width="11" height="11" rx="2.5" fill="#8b95a1" opacity="0.20"/>
<rect x="56" y="27" width="11" height="11" rx="2.5" fill="#8b95a1" opacity="0.20"/>
<rect x="56" y="40" width="11" height="11" rx="2.5" fill="#8b95a1" opacity="0.20"/>
<rect x="56" y="53" width="11" height="11" rx="2.5" fill="#8b95a1" opacity="0.20"/>
<rect x="56" y="66" width="11" height="11" rx="2.5" fill="#8b95a1" opacity="0.20"/>
<rect x="56" y="79" width="11" height="11" rx="2.5" fill="#8b95a1" opacity="0.20"/>
<rect x="56" y="92" width="11" height="11" rx="2.5" fill="#8b95a1" opacity="0.20"/>
<rect x="69" y="14" width="11" height="11" rx="2.5" fill="#8b95a1" opacity="0.20"/>
<rect x="69" y="27" width="11" height="11" rx="2.5" fill="#8b95a1" opacity="0.20"/>
<rect x="69" y="40" width="11" height="11" rx="2.5" fill="#8b95a1" opacity="0.20"/>
<rect x="69" y="53" width="11" height="11" rx="2.5" fill="#8b95a1" opacity="0.20"/>
<rect x="69" y="66" width="11" height="11" rx="2.5" fill="#8b95a1" opacity="0.20"/>
<rect x="69" y="79" width="11" height="11" rx="2.5" fill="#8b95a1" opacity="0.20"/>
<rect x="69" y="92" width="11" height="11" rx="2.5" fill="#8b95a1" opacity="0.20"/>
<rect x="82" y="14" width="11" height="11" rx="2.5" fill="#8b95a1" opacity="0.20"/>
<rect x="82" y="27" width="11" height="11" rx="2.5" fill="#8b95a1" opacity="0.20"/>
<rect x="82" y="40" width="11" height="11" rx="2.5" fill="#8b95a1" opacity="0.20"/>
<rect x="82" y="53" width="11" height="11" rx="2.5" fill="#8b95a1" opacity="0.20"/>
<rect x="82" y="66" width="11" height="11" rx="2.5" fill="#8b95a1" opacity="0.20"/>
<rect x="82" y="79" width="11" height="11" rx="2.5" fill="#8b95a1" opacity="0.20"/>
<rect x="82" y="92" width="11" height="11" rx="2.5" fill="#8b95a1" opacity="0.20"/>
<rect x="95" y="14" width="11" height="11" rx="2.5" fill="#8b95a1" opacity="0.20"/>
<rect x="95" y="27" width="11" height="11" rx="2.5" fill="#8b95a1" opacity="0.20"/>
<rect x="95" y="40" width="11" height="11" rx="2.5" fill="#8b95a1" opacity="0.20"/>
<rect x="95" y="53" width="11" height="11" rx="2.5" fill="#8b95a1" opacity="0.20"/>
<rect x="95" y="66" width="11" height="11" rx="2.5" fill="#8b95a1" opacity="0.20"/>
<rect x="95" y="79" width="11" height="11" rx="2.5" fill="#8b95a1" opacity="0.20"/>
<rect x="95" y="92" width="11" height="11" rx="2.5" fill="#8b95a1" opacity="0.20"/>
<rect x="108" y="14" width="11" height="11" rx="2.5" fill="#8b95a1" opacity="0.20"/>
<rect x="108" y="27" width="11" height="11" rx="2.5" fill="#8b95a1" opacity="0.20"/>
<rect x="108" y="40" width="11" height="11" rx="2.5" fill="#8b95a1" opacity="0.20"/>
<rect x="108" y="53" width="11" height="11" rx="2.5" fill="#8b95a1" opacity="0.20"/>
<rect x="108" y="66" width="11" height="11" rx="2.5" fill="#8b95a1" opacity="0.20"/>
<rect x="108" y="79" width="11" height="11" rx="2.5" fill="#8b95a1" opacity="0.20"/>
<rect x="108" y="92" width="11" height="11" rx="2.5" fill="#8b95a1" opacity="0.20"/>
<rect x="121" y="14" width="11" height="11" rx="2.5" fill="#8b95a1" opacity="0.20"/>
<rect x="121" y="27" width="11" height="11" rx="2.5" fill="#8b95a1" opacity="0.20"/>
<rect x="121" y="40" width="11" height="11" rx="2.5" fill="#8b95a1" opacity="0.20"/>
<rect x="121" y="53" width="11" height="11" rx="2.5" fill="#8b95a1" opacity="0.20"/>
<rect x="121" y="66" width="11" height="11" rx="2.5" fill="#8b95a1" opacity="0.20"/>
<rect x="121" y="79" width="11" height="11" rx="2.5" fill="#8b95a1" opacity="0.20"/>
<rect x="121" y="92" width="11" height="11" rx="2.5" fill="#8b95a1" opacity="0.20"/>
<rect x="134" y="14" width="11" height="11" rx="2.5" fill="#8b95a1" opacity="0.20"/>
<rect x="134" y="27" width="11" height="11" rx="2.5" fill="#8b95a1" opacity="0.20"/>
<rect x="134" y="40" width="11" height="11" rx="2.5" fill="#8b95a1" opacity="0.20"/>
<rect x="134" y="53" width="11" height="11" rx="2.5" fill="#8b95a1" opacity="0.20"/>
<rect x="134" y="66" width="11" height="11" rx="2.5" fill="#8b95a1" opacity="0.20"/>
<rect x="134" y="79" width="11" height="11" rx="2.5" fill="#8b95a1" opacity="0.20"/>
<rect x="134" y="92" width="11" height="11" rx="2.5" fill="#8b95a1" opacity="0.20"/>
<rect x="147" y="14" width="11" height="11" rx="2.5" fill="#8b95a1" opacity="0.20"/>
<rect x="147" y="27" width="11" height="11" rx="2.5" fill="#8b95a1" opacity="0.20"/>
<rect x="147" y="40" width="11" height="11" rx="2.5" fill="#8b95a1" opacity="0.20"/>
<rect x="147" y="53" width="11" height="11" rx="2.5" fill="#8b95a1" opacity="0.20"/>
<rect x="147" y="66" width="11" height="11" rx="2.5" fill="#8b95a1" opacity="0.20"/>
<rect x="147" y="79" width="11" height="11" rx="2.5" fill="#8b95a1" opacity="0.20"/>
<rect x="147" y="92" width="11" height="11" rx="2.5" fill="#8b95a1" opacity="0.20"/>
<rect x="160" y="14" width="11" height="11" rx="2.5" fill="#8b95a1" opacity="0.20"/>
<rect x="160" y="27" width="11" height="11" rx="2.5" fill="#8b95a1" opacity="0.20"/>
<rect x="160" y="40" width="11" height="11" rx="2.5" fill="#8b95a1" opacity="0.20"/>
<rect x="160" y="53" width="11" height="11" rx="2.5" fill="#8b95a1" opacity="0.20"/>
<rect x="160" y="66" width="11" height="11" rx="2.5" fill="#8b95a1" opacity="0.20"/>
<rect x="160" y="79" width="11" height="11" rx="2.5" fill="#8b95a1" opacity="0.20"/>
<rect x="160" y="92" width="11" height="11" rx="2.5" fill="#8b95a1" opacity="0.20"/>
<rect x="173" y="14" width="11" height="11" rx="2.5" fill="#8b95a1" opacity="0.20"/>
<rect x="173" y="27" width="11" height="11" rx="2.5" fill="#8b95a1" opacity="0.20"/>
<rect x="173" y="40" width="11" height="11" rx="2.5" fill="#8b95a1" opacity="0.20"/>
<rect x="173" y="53" width="11" height="11" rx="2.5" fill="#8b95a1" opacity="0.20"/>
<rect x="173" y="66" width="11" height="11" rx="2.5" fill="#8b95a1" opacity="0.20"/>
<rect x="173" y="79" width="11" height="11" rx="2.5" fill="#8b95a1" opacity="0.20"/>
<rect x="173" y="92" width="11" height="11" rx="2.5" fill="#8b95a1" opacity="0.20"/>
<rect x="186" y="14" width="11" height="11" rx="2.5" fill="#8b95a1" opacity="0.20"/>
<rect x="186" y="27" width="11" height="11" rx="2.5" fill="#8b95a1" opacity="0.20"/>
<rect x="186" y="40" width="11" height="11" rx="2.5" fill="#8b95a1" opacity="0.20"/>
<rect x="186" y="53" width="11" height="11" rx="2.5" fill="#8b95a1" opacity="0.20"/>
<rect x="186" y="66" width="11" height="11" rx="2.5" fill="#8b95a1" opacity="0.20"/>
<rect x="186" y="79" width="11" height="11" rx="2.5" fill="#8b95a1" opacity="0.20"/>
<rect x="186" y="92" width="11" height="11" rx="2.5" fill="#8b95a1" opacity="0.20"/>
<rect x="199" y="14" width="11" height="11" rx="2.5" fill="#8b95a1" opacity="0.20"/>
<rect x="199" y="27" width="11" height="11" rx="2.5" fill="#8b95a1" opacity="0.20"/>
<rect x="199" y="40" width="11" height="11" rx="2.5" fill="#8b95a1" opacity="0.20"/>
<rect x="199" y="53" width="11" height="11" rx="2.5" fill="#8b95a1" opacity="0.20"/>
<rect x="199" y="66" width="11" height="11" rx="2.5" fill="#8b95a1" opacity="0.20"/>
<rect x="199" y="79" width="11" height="11" rx="2.5" fill="#8b95a1" opacity="0.20"/>
<rect x="199" y="92" width="11" height="11" rx="2.5" fill="#8b95a1" opacity="0.20"/>
<rect x="212" y="14" width="11" height="11" rx="2.5" fill="#8b95a1" opacity="0.20"/>
<rect x="212" y="27" width="11" height="11" rx="2.5" fill="#8b95a1" opacity="0.20"/>
<rect x="212" y="40" width="11" height="11" rx="2.5" fill="#8b95a1" opacity="0.20"/>
<rect x="212" y="53" width="11" height="11" rx="2.5" fill="#8b95a1" opacity="0.20"/>
<rect x="212" y="66" width="11" height="11" rx="2.5" fill="#8b95a1" opacity="0.20"/>
<rect x="212" y="79" width="11" height="11" rx="2.5" fill="#8b95a1" opacity="0.20"/>
<rect x="212" y="92" width="11" height="11" rx="2.5" fill="#8b95a1" opacity="0.20"/>
<rect x="225" y="14" width="11" height="11" rx="2.5" fill="#8b95a1" opacity="0.20"/>
<rect x="225" y="27" width="11" height="11" rx="2.5" fill="#8b95a1" opacity="0.20"/>
<rect x="225" y="40" width="11" height="11" rx="2.5" fill="#8b95a1" opacity="0.20"/>
<rect x="225" y="53" width="11" height="11" rx="2.5" fill="#8b95a1" opacity="0.20"/>
<rect x="225" y="66" width="11" height="11" rx="2.5" fill="#8b95a1" opacity="0.20"/>
<rect x="225" y="79" width="11" height="11" rx="2.5" fill="#8b95a1" opacity="0.20"/>
<rect x="225" y="92" width="11" height="11" rx="2.5" fill="#8b95a1" opacity="0.20"/>
<rect x="238" y="14" width="11" height="11" rx="2.5" fill="#8b95a1" opacity="0.20"/>
<rect x="238" y="27" width="11" height="11" rx="2.5" fill="#8b95a1" opacity="0.20"/>
<rect x="238" y="40" width="11" height="11" rx="2.5" fill="#8b95a1" opacity="0.20"/>
<rect x="238" y="53" width="11" height="11" rx="2.5" fill="#8b95a1" opacity="0.20"/>
<rect x="238" y="66" width="11" height="11" rx="2.5" fill="#8b95a1" opacity="0.20"/>
<rect x="238" y="79" width="11" height="11" rx="2.5" fill="#8b95a1" opacity="0.20"/>
<rect x="238" y="92" width="11" height="11" rx="2.5" fill="#8b95a1" opacity="0.20"/>
<rect x="251" y="14" width="11" height="11" rx="2.5" fill="#8b95a1" opacity="0.20"/>
<rect x="251" y="27" width="11" height="11" rx="2.5" fill="#8b95a1" opacity="0.20"/>
<rect x="251" y="40" width="11" height="11" rx="2.5" fill="#8b95a1" opacity="0.20"/>
<rect x="251" y="53" width="11" height="11" rx="2.5" fill="#8b95a1" opacity="0.20"/>
<rect x="251" y="66" width="11" height="11" rx="2.5" fill="#8b95a1" opacity="0.20"/>
<rect x="251" y="79" width="11" height="11" rx="2.5" fill="#8b95a1" opacity="0.20"/>
<rect x="251" y="92" width="11" height="11" rx="2.5" fill="#8b95a1" opacity="0.20"/>
<rect x="264" y="14" width="11" height="11" rx="2.5" fill="#8b95a1" opacity="0.20"/>
<rect x="264" y="27" width="11" height="11" rx="2.5" fill="#8b95a1" opacity="0.20"/>
<rect x="264" y="40" width="11" height="11" rx="2.5" fill="#8b95a1" opacity="0.20"/>
<rect x="264" y="53" width="11" height="11" rx="2.5" fill="#8b95a1" opacity="0.20"/>
<rect x="264" y="66" width="11" height="11" rx="2.5" fill="#8b95a1" opacity="0.20"/>
<rect x="264" y="79" width="11" height="11" rx="2.5" fill="#8b95a1" opacity="0.20"/>
<rect x="264" y="92" width="11" height="11" rx="2.5" fill="#8b95a1" opacity="0.20"/>
<rect x="277" y="14" width="11" height="11" rx="2.5" fill="#8b95a1" opacity="0.20"/>
<rect x="277" y="27" width="11" height="11" rx="2.5" fill="#8b95a1" opacity="0.20"/>
<rect x="277" y="40" width="11" height="11" rx="2.5" fill="#8b95a1" opacity="0.20"/>
<rect x="277" y="53" width="11" height="11" rx="2.5" fill="#8b95a1" opacity="0.20"/>
<rect x="277" y="66" width="11" height="11" rx="2.5" fill="#8b95a1" opacity="0.20"/>
<rect x="277" y="79" width="11" height="11" rx="2.5" fill="#8b95a1" opacity="0.20"/>
<rect x="277" y="92" width="11" height="11" rx="2.5" fill="#8b95a1" opacity="0.20"/>
<rect x="290" y="14" width="11" height="11" rx="2.5" fill="#8b95a1" opacity="0.20"/>
<rect x="290" y="27" width="11" height="11" rx="2.5" fill="#8b95a1" opacity="0.20"/>
<rect x="290" y="40" width="11" height="11" rx="2.5" fill="#8b95a1" opacity="0.20"/>
<rect x="290" y="53" width="11" height="11" rx="2.5" fill="#8b95a1" opacity="0.20"/>
<rect x="290" y="66" width="11" height="11" rx="2.5" fill="#8b95a1" opacity="0.20"/>
<rect x="290" y="79" width="11" height="11" rx="2.5" fill="#8b95a1" opacity="0.20"/>
<rect x="290" y="92" width="11" height="11" rx="2.5" fill="#8b95a1" opacity="0.20"/>
<rect x="303" y="14" width="11" height="11" rx="2.5" fill="#8b95a1" opacity="0.20"/>
<rect x="303" y="27" width="11" height="11" rx="2.5" fill="#8b95a1" opacity="0.20"/>
<rect x="303" y="40" width="11" height="11" rx="2.5" fill="#8b95a1" opacity="0.20"/>
<rect x="303" y="53" width="11" height="11" rx="2.5" fill="#8b95a1" opacity="0.20"/>
<rect x="303" y="66" width="11" height="11" rx="2.5" fill="#8b95a1" opacity="0.20"/>
<rect x="303" y="79" width="11" height="11" rx="2.5" fill="#8b95a1" opacity="0.20"/>
<rect x="303" y="92" width="11" height="11" rx="2.5" fill="#8b95a1" opacity="0.20"/>
<rect x="316" y="14" width="11" height="11" rx="2.5" fill="#8b95a1" opacity="0.20"/>
<rect x="316" y="27" width="11" height="11" rx="2.5" fill="#8b95a1" opacity="0.20"/>
<rect x="316" y="40" width="11" height="11" rx="2.5" fill="#8b95a1" opacity="0.20"/>
<rect x="316" y="53" width="11" height="11" rx="2.5" fill="#8b95a1" opacity="0.20"/>
<rect x="316" y="66" width="11" height="11" rx="2.5" fill="#8b95a1" opacity="0.20"/>
<rect x="316" y="79" width="11" height="11" rx="2.5" fill="#8b95a1" opacity="0.20"/>
<rect x="316" y="92" width="11" height="11" rx="2.5" fill="#8b95a1" opacity="0.20"/>
<rect x="329" y="14" width="11" height="11" rx="2.5" fill="#8b95a1" opacity="0.20"/>
<rect x="329" y="27" width="11" height="11" rx="2.5" fill="#8b95a1" opacity="0.20"/>
<rect x="329" y="40" width="11" height="11" rx="2.5" fill="#8b95a1" opacity="0.20"/>
<rect x="329" y="53" width="11" height="11" rx="2.5" fill="#8b95a1" opacity="0.20"/>
<rect x="329" y="66" width="11" height="11" rx="2.5" fill="#8b95a1" opacity="0.20"/>
<rect x="329" y="79" width="11" height="11" rx="2.5" fill="#8b95a1" opacity="0.20"/>
<rect x="329" y="92" width="11" height="11" rx="2.5" fill="#8b95a1" opacity="0.20"/>
<rect x="342" y="14" width="11" height="11" rx="2.5" fill="#8b95a1" opacity="0.20"/>
<rect x="342" y="27" width="11" height="11" rx="2.5" fill="#8b95a1" opacity="0.20"/>
<rect x="342" y="40" width="11" height="11" rx="2.5" fill="#8b95a1" opacity="0.20"/>
<rect x="342" y="53" width="11" height="11" rx="2.5" fill="#8b95a1" opacity="0.20"/>
<rect x="342" y="66" width="11" height="11" rx="2.5" fill="#8b95a1" opacity="0.20"/>
<rect x="342" y="79" width="11" height="11" rx="2.5" fill="#8b95a1" opacity="0.20"/>
<rect x="342" y="92" width="11" height="11" rx="2.5" fill="#8b95a1" opacity="0.20"/>
<rect x="355" y="14" width="11" height="11" rx="2.5" fill="#8b95a1" opacity="0.20"/>
<rect x="355" y="27" width="11" height="11" rx="2.5" fill="#8b95a1" opacity="0.20"/>
<rect x="355" y="40" width="11" height="11" rx="2.5" fill="#8b95a1" opacity="0.20"/>
<rect x="355" y="53" width="11" height="11" rx="2.5" fill="#8b95a1" opacity="0.20"/>
<rect x="355" y="66" width="11" height="11" rx="2.5" fill="#8b95a1" opacity="0.20"/>
<rect x="355" y="79" width="11" height="11" rx="2.5" fill="#8b95a1" opacity="0.20"/>
<rect x="355" y="92" width="11" height="11" rx="2.5" fill="#8b95a1" opacity="0.20"/>
<rect x="368" y="14" width="11" height="11" rx="2.5" fill="#8b95a1" opacity="0.20"/>
<rect x="368" y="27" width="11" height="11" rx="2.5" fill="#8b95a1" opacity="0.20"/>
<rect x="368" y="40" width="11" height="11" rx="2.5" fill="#8b95a1" opacity="0.20"/>
<rect x="368" y="53" width="11" height="11" rx="2.5" fill="#8b95a1" opacity="0.20"/>
<rect x="368" y="66" width="11" height="11" rx="2.5" fill="#8b95a1" opacity="0.20"/>
<rect x="368" y="79" width="11" height="11" rx="2.5" fill="#8b95a1" opacity="0.20"/>
<rect x="368" y="92" width="11" height="11" rx="2.5" fill="#8b95a1" opacity="0.20"/>
<rect x="381" y="14" width="11" height="11" rx="2.5" fill="#8b95a1" opacity="0.20"/>
<rect x="381" y="27" width="11" height="11" rx="2.5" fill="#8b95a1" opacity="0.20"/>
<rect x="381" y="40" width="11" height="11" rx="2.5" fill="#8b95a1" opacity="0.20"/>
<rect x="381" y="53" width="11" height="11" rx="2.5" fill="#8b95a1" opacity="0.20"/>
<rect x="381" y="66" width="11" height="11" rx="2.5" fill="#8b95a1" opacity="0.20"/>
<rect x="381" y="79" width="11" height="11" rx="2.5" fill="#8b95a1" opacity="0.20"/>
<rect x="381" y="92" width="11" height="11" rx="2.5" fill="#8b95a1" opacity="0.20"/>
<rect x="394" y="14" width="11" height="11" rx="2.5" fill="#8b95a1" opacity="0.20"/>
<rect x="394" y="27" width="11" height="11" rx="2.5" fill="#8b95a1" opacity="0.20"/>
<rect x="394" y="40" width="11" height="11" rx="2.5" fill="#8b95a1" opacity="0.20"/>
<rect x="394" y="53" width="11" height="11" rx="2.5" fill="#8b95a1" opacity="0.20"/>
<rect x="394" y="66" width="11" height="11" rx="2.5" fill="#8b95a1" opacity="0.20"/>
<rect x="394" y="79" width="11" height="11" rx="2.5" fill="#8b95a1" opacity="0.20"/>
<rect x="394" y="92" width="11" height="11" rx="2.5" fill="#8b95a1" opacity="0.20"/>
<rect x="407" y="14" width="11" height="11" rx="2.5" fill="#8b95a1" opacity="0.20"/>
<rect x="407" y="27" width="11" height="11" rx="2.5" fill="#8b95a1" opacity="0.20"/>
<rect x="407" y="40" width="11" height="11" rx="2.5" fill="#8b95a1" opacity="0.20"/>
<rect x="407" y="53" width="11" height="11" rx="2.5" fill="#8b95a1" opacity="0.20"/>
<rect x="407" y="66" width="11" height="11" rx="2.5" fill="#8b95a1" opacity="0.20"/>
<rect x="407" y="79" width="11" height="11" rx="2.5" fill="#8b95a1" opacity="0.20"/>
<rect x="407" y="92" width="11" height="11" rx="2.5" fill="#8b95a1" opacity="0.20"/>
<rect x="420" y="14" width="11" height="11" rx="2.5" fill="#8b95a1" opacity="0.20"/>
<rect x="420" y="27" width="11" height="11" rx="2.5" fill="#8b95a1" opacity="0.20"/>
<rect x="420" y="40" width="11" height="11" rx="2.5" fill="#8b95a1" opacity="0.20"/>
<rect x="420" y="53" width="11" height="11" rx="2.5" fill="#8b95a1" opacity="0.20"/>
<rect x="420" y="66" width="11" height="11" rx="2.5" fill="#8b95a1" opacity="0.20"/>
<rect x="420" y="79" width="11" height="11" rx="2.5" fill="#8b95a1" opacity="0.20"/>
<rect x="420" y="92" width="11" height="11" rx="2.5" fill="#8b95a1" opacity="0.20"/>
<rect x="433" y="14" width="11" height="11" rx="2.5" fill="#8b95a1" opacity="0.20"/>
<rect x="433" y="27" width="11" height="11" rx="2.5" fill="#8b95a1" opacity="0.20"/>
<rect x="433" y="40" width="11" height="11" rx="2.5" fill="#8b95a1" opacity="0.20"/>
<rect x="433" y="53" width="11" height="11" rx="2.5" fill="#8b95a1" opacity="0.20"/>
<rect x="433" y="66" width="11" height="11" rx="2.5" fill="#8b95a1" opacity="0.20"/>
<rect x="433" y="79" width="11" height="11" rx="2.5" fill="#8b95a1" opacity="0.20"/>
<rect x="433" y="92" width="11" height="11" rx="2.5" fill="#8b95a1" opacity="0.20"/>
<rect x="446" y="14" width="11" height="11" rx="2.5" fill="#8b95a1" opacity="0.20"/>
<rect x="446" y="27" width="11" height="11" rx="2.5" fill="#8b95a1" opacity="0.20"/>
<rect x="446" y="40" width="11" height="11" rx="2.5" fill="#8b95a1" opacity="0.20"/>
<rect x="446" y="53" width="11" height="11" rx="2.5" fill="#8b95a1" opacity="0.20"/>
<rect x="446" y="66" width="11" height="11" rx="2.5" fill="#8b95a1" opacity="0.20"/>
<rect x="446" y="79" width="11" height="11" rx="2.5" fill="#8b95a1" opacity="0.20"/>
<rect x="446" y="92" width="11" height="11" rx="2.5" fill="#8b95a1" opacity="0.20"/>
<rect x="459" y="14" width="11" height="11" rx="2.5" fill="#8b95a1" opacity="0.20"/>
<rect x="459" y="27" width="11" height="11" rx="2.5" fill="#8b95a1" opacity="0.20"/>
<rect x="459" y="40" width="11" height="11" rx="2.5" fill="#8b95a1" opacity="0.20"/>
<rect x="459" y="53" width="11" height="11" rx="2.5" fill="#8b95a1" opacity="0.20"/>
<rect x="459" y="66" width="11" height="11" rx="2.5" fill="#8b95a1" opacity="0.20"/>
<rect x="459" y="79" width="11" height="11" rx="2.5" fill="#8b95a1" opacity="0.20"/>
<rect x="459" y="92" width="11" height="11" rx="2.5" fill="#8b95a1" opacity="0.20"/>
<rect x="472" y="14" width="11" height="11" rx="2.5" fill="#8b95a1" opacity="0.20"/>
<rect x="472" y="27" width="11" height="11" rx="2.5" fill="#8b95a1" opacity="0.20"/>
<rect x="472" y="40" width="11" height="11" rx="2.5" fill="#8b95a1" opacity="0.20"/>
<rect x="472" y="53" width="11" height="11" rx="2.5" fill="#8b95a1" opacity="0.20"/>
<rect x="472" y="66" width="11" height="11" rx="2.5" fill="#8b95a1" opacity="0.20"/>
<rect x="472" y="79" width="11" height="11" rx="2.5" fill="#8b95a1" opacity="0.20"/>
<rect x="472" y="92" width="11" height="11" rx="2.5" fill="#8b95a1" opacity="0.20"/>
<rect x="485" y="14" width="11" height="11" rx="2.5" fill="#8b95a1" opacity="0.20"/>
<rect x="485" y="27" width="11" height="11" rx="2.5" fill="#8b95a1" opacity="0.20"/>
<rect x="485" y="40" width="11" height="11" rx="2.5" fill="#8b95a1" opacity="0.20"/>
<rect x="485" y="53" width="11" height="11" rx="2.5" fill="#8b95a1" opacity="0.20"/>
<rect x="485" y="66" width="11" height="11" rx="2.5" fill="#8b95a1" opacity="0.20"/>
<rect x="485" y="79" width="11" height="11" rx="2.5" fill="#8b95a1" opacity="0.20"/>
<rect x="485" y="92" width="11" height="11" rx="2.5" fill="#8b95a1" opacity="0.20"/>
<rect x="498" y="14" width="11" height="11" rx="2.5" fill="#8b95a1" opacity="0.20"/>
<rect x="498" y="27" width="11" height="11" rx="2.5" fill="#8b95a1" opacity="0.20"/>
<rect x="498" y="40" width="11" height="11" rx="2.5" fill="#8b95a1" opacity="0.20"/>
<rect x="498" y="53" width="11" height="11" rx="2.5" fill="#8b95a1" opacity="0.20"/>
<rect x="498" y="66" width="11" height="11" rx="2.5" fill="#8b95a1" opacity="0.20"/>
<rect x="498" y="79" width="11" height="11" rx="2.5" fill="#8b95a1" opacity="0.20"/>
<rect x="498" y="92" width="11" height="11" rx="2.5" fill="#8b95a1" opacity="0.20"/>
<rect x="511" y="14" width="11" height="11" rx="2.5" fill="#8b95a1" opacity="0.20"/>
<rect x="511" y="27" width="11" height="11" rx="2.5" fill="#8b95a1" opacity="0.20"/>
<rect x="511" y="40" width="11" height="11" rx="2.5" fill="#8b95a1" opacity="0.20"/>
<rect x="511" y="53" width="11" height="11" rx="2.5" fill="#8b95a1" opacity="0.20"/>
<rect x="511" y="66" width="11" height="11" rx="2.5" fill="#8b95a1" opacity="0.20"/>
<rect x="511" y="79" width="11" height="11" rx="2.5" fill="#8b95a1" opacity="0.20"/>
<rect x="511" y="92" width="11" height="11" rx="2.5" fill="#8b95a1" opacity="0.20"/>
<rect x="524" y="14" width="11" height="11" rx="2.5" fill="#8b95a1" opacity="0.20"/>
<rect x="524" y="27" width="11" height="11" rx="2.5" fill="#8b95a1" opacity="0.20"/>
<rect x="524" y="40" width="11" height="11" rx="2.5" fill="#8b95a1" opacity="0.20"/>
<rect x="524" y="53" width="11" height="11" rx="2.5" fill="#8b95a1" opacity="0.20"/>
<rect x="524" y="66" width="11" height="11" rx="2.5" fill="#8b95a1" opacity="0.20"/>
<rect x="524" y="79" width="11" height="11" rx="2.5" fill="#8b95a1" opacity="0.20"/>
<rect x="524" y="92" width="11" height="11" rx="2.5" fill="#8b95a1" opacity="0.20"/>
<rect x="537" y="14" width="11" height="11" rx="2.5" fill="#8b95a1" opacity="0.20"/>
<rect x="537" y="27" width="11" height="11" rx="2.5" fill="#8b95a1" opacity="0.20"/>
<rect x="537" y="40" width="11" height="11" rx="2.5" fill="#8b95a1" opacity="0.20"/>
<rect x="537" y="53" width="11" height="11" rx="2.5" fill="#8b95a1" opacity="0.20"/>
<rect x="537" y="66" width="11" height="11" rx="2.5" fill="#8b95a1" opacity="0.20"/>
<rect x="537" y="79" width="11" height="11" rx="2.5" fill="#8b95a1" opacity="0.20"/>
<rect x="537" y="92" width="11" height="11" rx="2.5" fill="#8b95a1" opacity="0.20"/>
<rect x="550" y="14" width="11" height="11" rx="2.5" fill="#8b95a1" opacity="0.20"/>
<rect x="550" y="27" width="11" height="11" rx="2.5" fill="#8b95a1" opacity="0.20"/>
<rect x="550" y="40" width="11" height="11" rx="2.5" fill="#8b95a1" opacity="0.20"/>
<rect x="550" y="53" width="11" height="11" rx="2.5" fill="#8b95a1" opacity="0.20"/>
<rect x="550" y="66" width="11" height="11" rx="2.5" fill="#8b95a1" opacity="0.20"/>
<rect x="550" y="79" width="11" height="11" rx="2.5" fill="#8b95a1" opacity="0.20"/>
<rect x="550" y="92" width="11" height="11" rx="2.5" fill="#8b95a1" opacity="0.20"/>
<rect x="563" y="14" width="11" height="11" rx="2.5" fill="#8b95a1" opacity="0.20"/>
<rect x="563" y="27" width="11" height="11" rx="2.5" fill="#8b95a1" opacity="0.20"/>
<rect x="563" y="40" width="11" height="11" rx="2.5" fill="#8b95a1" opacity="0.20"/>
<rect x="563" y="53" width="11" height="11" rx="2.5" fill="#8b95a1" opacity="0.20"/>
<rect x="563" y="66" width="11" height="11" rx="2.5" fill="#8b95a1" opacity="0.20"/>
<rect x="563" y="79" width="11" height="11" rx="2.5" fill="#8b95a1" opacity="0.20"/>
<rect x="563" y="92" width="11" height="11" rx="2.5" fill="#8b95a1" opacity="0.20"/>
<rect x="576" y="14" width="11" height="11" rx="2.5" fill="#8b95a1" opacity="0.20"/>
<rect x="576" y="27" width="11" height="11" rx="2.5" fill="#8b95a1" opacity="0.20"/>
<rect x="576" y="40" width="11" height="11" rx="2.5" fill="#8b95a1" opacity="0.20"/>
<rect x="576" y="53" width="11" height="11" rx="2.5" fill="#8b95a1" opacity="0.20"/>
<rect x="576" y="66" width="11" height="11" rx="2.5" fill="#8b95a1" opacity="0.20"/>
<rect x="576" y="79" width="11" height="11" rx="2.5" fill="#8b95a1" opacity="0.20"/>
<rect x="576" y="92" width="11" height="11" rx="2.5" fill="#8b95a1" opacity="0.20"/>
<rect x="589" y="14" width="11" height="11" rx="2.5" fill="#8b95a1" opacity="0.20"/>
<rect x="589" y="27" width="11" height="11" rx="2.5" fill="#8b95a1" opacity="0.20"/>
<rect x="589" y="40" width="11" height="11" rx="2.5" fill="#8b95a1" opacity="0.20"/>
<rect x="589" y="53" width="11" height="11" rx="2.5" fill="#8b95a1" opacity="0.20"/>
<rect x="589" y="66" width="11" height="11" rx="2.5" fill="#8b95a1" opacity="0.20"/>
<rect x="589" y="79" width="11" height="11" rx="2.5" fill="#8b95a1" opacity="0.20"/>
<rect x="589" y="92" width="11" height="11" rx="2.5" fill="#8b95a1" opacity="0.20"/>
<rect x="602" y="14" width="11" height="11" rx="2.5" fill="#8b95a1" opacity="0.20"/>
<rect x="602" y="27" width="11" height="11" rx="2.5" fill="#8b95a1" opacity="0.20"/>
<rect x="602" y="40" width="11" height="11" rx="2.5" fill="#8b95a1" opacity="0.20"/>
<rect x="602" y="53" width="11" height="11" rx="2.5" fill="#8b95a1" opacity="0.20"/>
<rect x="602" y="66" width="11" height="11" rx="2.5" fill="#8b95a1" opacity="0.20"/>
<rect x="602" y="79" width="11" height="11" rx="2.5" fill="#a7e8d8" class="c" style="animation-name:e44_5"/>
<rect x="602" y="92" width="11" height="11" rx="2.5" fill="#5fcdb5" class="c" style="animation-name:e44_6"/>
<rect x="615" y="14" width="11" height="11" rx="2.5" fill="#1f7a6b" class="c" style="animation-name:e45_0"/>
<rect x="615" y="27" width="11" height="11" rx="2.5" fill="#35a08e" class="c" style="animation-name:e45_1"/>
<rect x="615" y="40" width="11" height="11" rx="2.5" fill="#8b95a1" opacity="0.20"/>
<rect x="615" y="53" width="11" height="11" rx="2.5" fill="#35a08e" class="c" style="animation-name:e45_3"/>
<rect x="615" y="66" width="11" height="11" rx="2.5" fill="#8b95a1" opacity="0.20"/>
<rect x="615" y="79" width="11" height="11" rx="2.5" fill="#8b95a1" opacity="0.20"/>
<rect x="615" y="92" width="11" height="11" rx="2.5" fill="#8b95a1" opacity="0.20"/>
<rect x="628" y="14" width="11" height="11" rx="2.5" fill="#a7e8d8" class="c" style="animation-name:e46_0"/>
<rect x="628" y="27" width="11" height="11" rx="2.5" fill="#5fcdb5" class="c" style="animation-name:e46_1"/>
<rect x="628" y="40" width="11" height="11" rx="2.5" fill="#a7e8d8" class="c" style="animation-name:e46_2"/>
<rect x="628" y="53" width="11" height="11" rx="2.5" fill="#5fcdb5" class="c" style="animation-name:e46_3"/>
<rect x="628" y="66" width="11" height="11" rx="2.5" fill="#a7e8d8" class="c" style="animation-name:e46_4"/>
<rect x="628" y="79" width="11" height="11" rx="2.5" fill="#8b95a1" opacity="0.20"/>
<rect x="628" y="92" width="11" height="11" rx="2.5" fill="#8b95a1" opacity="0.20"/>
<rect x="641" y="14" width="11" height="11" rx="2.5" fill="#8b95a1" opacity="0.20"/>
<rect x="641" y="27" width="11" height="11" rx="2.5" fill="#a7e8d8" class="c" style="animation-name:e47_1"/>
<rect x="641" y="40" width="11" height="11" rx="2.5" fill="#a7e8d8" class="c" style="animation-name:e47_2"/>
<rect x="641" y="53" width="11" height="11" rx="2.5" fill="#8b95a1" opacity="0.20"/>
<rect x="641" y="66" width="11" height="11" rx="2.5" fill="#8b95a1" opacity="0.20"/>
<rect x="641" y="79" width="11" height="11" rx="2.5" fill="#8b95a1" opacity="0.20"/>
<rect x="641" y="92" width="11" height="11" rx="2.5" fill="#8b95a1" opacity="0.20"/>
<rect x="654" y="14" width="11" height="11" rx="2.5" fill="#8b95a1" opacity="0.20"/>
<rect x="654" y="27" width="11" height="11" rx="2.5" fill="#8b95a1" opacity="0.20"/>
<rect x="654" y="40" width="11" height="11" rx="2.5" fill="#8b95a1" opacity="0.20"/>
<rect x="654" y="53" width="11" height="11" rx="2.5" fill="#8b95a1" opacity="0.20"/>
<rect x="654" y="66" width="11" height="11" rx="2.5" fill="#8b95a1" opacity="0.20"/>
<rect x="654" y="79" width="11" height="11" rx="2.5" fill="#8b95a1" opacity="0.20"/>
<rect x="654" y="92" width="11" height="11" rx="2.5" fill="#8b95a1" opacity="0.20"/>
<rect x="667" y="14" width="11" height="11" rx="2.5" fill="#a7e8d8" class="c" style="animation-name:e49_0"/>
<rect x="667" y="27" width="11" height="11" rx="2.5" fill="#35a08e" class="c" style="animation-name:e49_1"/>
<rect x="667" y="40" width="11" height="11" rx="2.5" fill="#5fcdb5" class="c" style="animation-name:e49_2"/>
<rect x="667" y="53" width="11" height="11" rx="2.5" fill="#35a08e" class="c" style="animation-name:e49_3"/>
<rect x="667" y="66" width="11" height="11" rx="2.5" fill="#5fcdb5" class="c" style="animation-name:e49_4"/>
<rect x="667" y="79" width="11" height="11" rx="2.5" fill="#5fcdb5" class="c" style="animation-name:e49_5"/>
<rect x="667" y="92" width="11" height="11" rx="2.5" fill="#1f7a6b" class="c" style="animation-name:e49_6"/>
<rect x="680" y="14" width="11" height="11" rx="2.5" fill="#1f7a6b" class="c" style="animation-name:e50_0"/>
<rect x="680" y="27" width="11" height="11" rx="2.5" fill="#1f7a6b" class="c" style="animation-name:e50_1"/>
<rect x="680" y="40" width="11" height="11" rx="2.5" fill="#35a08e" class="c" style="animation-name:e50_2"/>
<rect x="680" y="53" width="11" height="11" rx="2.5" fill="#35a08e" class="c" style="animation-name:e50_3"/>
<rect x="680" y="66" width="11" height="11" rx="2.5" fill="#1f7a6b" class="c" style="animation-name:e50_4"/>
<rect x="680" y="79" width="11" height="11" rx="2.5" fill="#35a08e" class="c" style="animation-name:e50_5"/>
<rect x="680" y="92" width="11" height="11" rx="2.5" fill="#a7e8d8" class="c" style="animation-name:e50_6"/>
<rect x="693" y="14" width="11" height="11" rx="2.5" fill="#1f7a6b" class="c" style="animation-name:e51_0"/>
<rect x="693" y="27" width="11" height="11" rx="2.5" fill="#1f7a6b" class="c" style="animation-name:e51_1"/>
<rect x="693" y="40" width="11" height="11" rx="2.5" fill="#35a08e" class="c" style="animation-name:e51_2"/>
<rect x="693" y="53" width="11" height="11" rx="2.5" fill="#5fcdb5" class="c" style="animation-name:e51_3"/>
<rect x="693" y="66" width="11" height="11" rx="2.5" fill="#8b95a1" opacity="0.20"/>
<rect x="693" y="79" width="11" height="11" rx="2.5" fill="#8b95a1" opacity="0.20"/>
<rect x="693" y="92" width="11" height="11" rx="2.5" fill="#8b95a1" opacity="0.20"/>
<text x="3" y="35.5" font-size="9" fill="#8b95a1">Пн</text>
<text x="3" y="61.5" font-size="9" fill="#8b95a1">Ср</text>
<text x="3" y="87.5" font-size="9" fill="#8b95a1">Пт</text>
<clipPath id="gclip"><rect x="30" y="14" width="674" height="89"/></clipPath>
<g clip-path="url(#gclip)">
<rect class="sg" style="animation-name:snk,g5;animation-delay:0.342s,0s" x="0" y="0" width="11" height="11" rx="3"/>
<rect class="sg" style="animation-name:snk,g4;animation-delay:0.274s,0s" x="0" y="0" width="11" height="11" rx="3"/>
<rect class="sg" style="animation-delay:0.205s;opacity:0.875" x="0" y="0" width="11" height="11" rx="3"/>
<rect class="sg" style="animation-delay:0.137s;opacity:0.89" x="0" y="0" width="11" height="11" rx="3"/>
<rect class="sg" style="animation-delay:0.068s;opacity:0.905" x="0" y="0" width="11" height="11" rx="3"/>
<rect class="sg" style="animation-delay:0.000s;opacity:1" x="0" y="0" width="11" height="11" rx="5.5"/>
</g>
</svg>
