<svg xmlns="http://www.w3.org/2000/svg" viewBox="0 0 710 109" role="img" aria-label="git-активность candycate-studio за год: змейка съедает клетки коммитов">
<title>git-активность candycate-studio</title>
<style>.c{animation-duration:12.24s;animation-timing-function:linear;animation-iteration-count:infinite}.sg{transform-box:view-box;transform-origin:0 0;fill:#d8285a;animation:snk 12.24s linear infinite}@keyframes snk{0%{transform:translate(-22px,53px)}0.49%{transform:translate(-9px,53px)}0.98%{transform:translate(4px,53px)}1.471%{transform:translate(17px,53px)}1.961%{transform:translate(30px,53px)}2.451%{transform:translate(30px,40px)}2.941%{transform:translate(43px,40px)}3.431%{transform:translate(56px,40px)}3.922%{transform:translate(69px,40px)}4.412%{transform:translate(69px,53px)}4.902%{transform:translate(69px,66px)}5.392%{transform:translate(82px,66px)}5.882%{transform:translate(95px,66px)}6.373%{transform:translate(95px,53px)}6.863%{transform:translate(108px,53px)}7.353%{transform:translate(121px,53px)}7.843%{transform:translate(134px,53px)}8.333%{transform:translate(147px,53px)}8.824%{transform:translate(160px,53px)}9.314%{transform:translate(160px,66px)}9.804%{transform:translate(173px,66px)}10.294%{transform:translate(186px,66px)}10.784%{transform:translate(186px,53px)}11.275%{transform:translate(199px,53px)}11.765%{transform:translate(212px,53px)}12.255%{transform:translate(225px,53px)}12.745%{transform:translate(238px,53px)}13.235%{transform:translate(251px,53px)}13.725%{transform:translate(264px,53px)}14.216%{transform:translate(264px,40px)}14.706%{transform:translate(277px,40px)}15.196%{transform:translate(277px,53px)}15.686%{transform:translate(290px,53px)}16.176%{transform:translate(303px,53px)}16.667%{transform:translate(316px,53px)}17.157%{transform:translate(329px,53px)}17.647%{transform:translate(342px,53px)}18.137%{transform:translate(342px,40px)}18.627%{transform:translate(355px,40px)}19.118%{transform:translate(368px,40px)}19.608%{transform:translate(368px,53px)}20.098%{transform:translate(381px,53px)}20.588%{transform:translate(394px,53px)}21.078%{transform:translate(407px,53px)}21.569%{transform:translate(407px,40px)}22.059%{transform:translate(420px,40px)}22.549%{transform:translate(433px,40px)}23.039%{transform:translate(433px,53px)}23.529%{transform:translate(446px,53px)}24.02%{transform:translate(459px,53px)}24.51%{transform:translate(472px,53px)}25%{transform:translate(472px,40px)}25.49%{transform:translate(485px,40px)}25.98%{transform:translate(485px,53px)}26.471%{transform:translate(498px,53px)}26.961%{transform:translate(511px,53px)}27.451%{transform:translate(524px,53px)}27.941%{transform:translate(537px,53px)}28.431%{transform:translate(537px,66px)}28.922%{transform:translate(550px,66px)}29.412%{transform:translate(563px,66px)}29.902%{transform:translate(576px,66px)}30.392%{transform:translate(576px,53px)}30.882%{transform:translate(563px,53px)}31.373%{transform:translate(550px,53px)}31.863%{transform:translate(550px,40px)}32.353%{transform:translate(550px,27px)}32.843%{transform:translate(563px,27px)}33.333%{transform:translate(576px,27px)}33.824%{transform:translate(589px,27px)}34.314%{transform:translate(602px,27px)}34.804%{transform:translate(602px,40px)}35.294%{transform:translate(602px,53px)}35.784%{transform:translate(589px,53px)}36.275%{transform:translate(589px,40px)}36.765%{transform:translate(576px,40px)}37.255%{transform:translate(576px,27px)}37.745%{transform:translate(589px,27px)}38.235%{transform:translate(589px,14px)}38.725%{transform:translate(576px,14px)}39.216%{transform:translate(563px,14px)}39.706%{transform:translate(550px,14px)}40.196%{transform:translate(550px,27px)}40.686%{transform:translate(563px,27px)}41.176%{transform:translate(576px,27px)}41.667%{transform:translate(589px,27px)}42.157%{transform:translate(589px,14px)}42.647%{transform:translate(602px,14px)}43.137%{transform:translate(615px,14px)}43.627%{transform:translate(615px,27px)}44.118%{transform:translate(628px,27px)}44.608%{transform:translate(628px,40px)}45.098%{transform:translate(628px,53px)}45.588%{transform:translate(615px,53px)}46.078%{transform:translate(615px,40px)}46.569%{transform:translate(602px,40px)}47.059%{transform:translate(602px,53px)}47.549%{transform:translate(589px,53px)}48.039%{transform:translate(589px,40px)}48.529%{transform:translate(589px,27px)}49.02%{transform:translate(602px,27px)}49.51%{transform:translate(615px,27px)}50%{transform:translate(628px,27px)}50.49%{transform:translate(641px,27px)}50.98%{transform:translate(641px,40px)}51.471%{transform:translate(641px,53px)}51.961%{transform:translate(641px,66px)}52.451%{transform:translate(641px,79px)}52.941%{transform:translate(641px,92px)}53.431%{transform:translate(628px,92px)}53.922%{transform:translate(615px,92px)}54.412%{transform:translate(615px,79px)}54.902%{transform:translate(628px,79px)}55.392%{transform:translate(628px,66px)}55.882%{transform:translate(628px,53px)}56.373%{transform:translate(615px,53px)}56.863%{transform:translate(602px,53px)}57.353%{transform:translate(602px,66px)}57.843%{transform:translate(602px,79px)}58.333%{transform:translate(615px,79px)}58.824%{transform:translate(615px,66px)}59.314%{transform:translate(628px,66px)}59.804%{transform:translate(628px,79px)}60.294%{transform:translate(641px,79px)}60.784%{transform:translate(641px,66px)}61.275%{transform:translate(641px,53px)}61.765%{transform:translate(654px,53px)}62.255%{transform:translate(654px,66px)}62.745%{transform:translate(654px,79px)}63.235%{transform:translate(667px,79px)}63.725%{transform:translate(680px,79px)}64.216%{transform:translate(680px,66px)}64.706%{transform:translate(667px,66px)}65.196%{transform:translate(667px,53px)}65.686%{transform:translate(680px,53px)}66.176%{transform:translate(693px,53px)}66.667%{transform:translate(693px,40px)}67.157%{transform:translate(680px,40px)}67.647%{transform:translate(667px,40px)}68.137%{transform:translate(654px,40px)}68.627%{transform:translate(654px,27px)}69.118%{transform:translate(667px,27px)}69.608%{transform:translate(667px,14px)}70.098%{transform:translate(654px,14px)}70.588%{transform:translate(641px,14px)}71.078%{transform:translate(641px,27px)}71.569%{transform:translate(628px,27px)}72.059%{transform:translate(628px,14px)}72.549%{transform:translate(615px,14px)}73.039%{transform:translate(602px,14px)}73.529%{transform:translate(602px,27px)}74.02%{transform:translate(615px,27px)}74.51%{transform:translate(615px,40px)}75%{transform:translate(628px,40px)}75.49%{transform:translate(628px,27px)}75.98%{transform:translate(628px,14px)}76.471%{transform:translate(641px,14px)}76.961%{transform:translate(654px,14px)}77.451%{transform:translate(667px,14px)}77.941%{transform:translate(680px,14px)}78.431%{transform:translate(693px,14px)}78.922%{transform:translate(693px,27px)}79.412%{transform:translate(693px,40px)}79.902%{transform:translate(680px,40px)}80.392%{transform:translate(680px,27px)}80.882%{transform:translate(667px,27px)}81.373%{transform:translate(667px,40px)}81.863%{transform:translate(667px,53px)}82.353%{transform:translate(680px,53px)}82.843%{transform:translate(693px,53px)}83.333%{transform:translate(693px,66px)}83.824%{transform:translate(680px,66px)}84.314%{transform:translate(680px,79px)}84.804%{transform:translate(680px,92px)}85.294%{transform:translate(667px,92px)}85.784%{transform:translate(654px,92px)}86.275%{transform:translate(641px,92px)}86.765%{transform:translate(628px,92px)}87.255%{transform:translate(615px,92px)}87.745%{transform:translate(602px,92px)}88.235%{transform:translate(602px,79px)}88.725%{transform:translate(589px,79px)}89.216%{transform:translate(576px,79px)}89.706%{transform:translate(563px,79px)}90.196%{transform:translate(550px,79px)}90.686%{transform:translate(550px,92px)}91.176%{transform:translate(563px,92px)}91.667%{transform:translate(576px,92px)}92.157%{transform:translate(589px,92px)}92.647%{transform:translate(602px,92px)}93.137%{transform:translate(615px,92px)}93.627%{transform:translate(628px,92px)}94.118%{transform:translate(641px,92px)}94.608%{transform:translate(654px,92px)}95.098%{transform:translate(667px,92px)}95.588%{transform:translate(680px,92px)}96.078%{transform:translate(693px,92px)}96.569%{transform:translate(706px,92px)}97.059%{transform:translate(719px,92px)}97.549%{transform:translate(732px,92px)}98.039%{transform:translate(745px,92px)}98.529%{transform:translate(758px,92px)}99.02%{transform:translate(771px,92px)}99.51%{transform:translate(784px,92px)}100%{transform:translate(797px,92px)}}@keyframes e40_5{0%,90.196%{fill:#a7e8d8;opacity:1}90.588%,100%{fill:#8b95a1;opacity:.2}}@keyframes e40_6{0%,90.686%{fill:#5fcdb5;opacity:1}91.078%,100%{fill:#8b95a1;opacity:.2}}@keyframes e41_0{0%,39.216%{fill:#1f7a6b;opacity:1}39.608%,100%{fill:#8b95a1;opacity:.2}}@keyframes e41_1{0%,32.843%{fill:#35a08e;opacity:1}33.235%,100%{fill:#8b95a1;opacity:.2}}@keyframes e41_3{0%,30.882%{fill:#35a08e;opacity:1}31.275%,100%{fill:#8b95a1;opacity:.2}}@keyframes e42_0{0%,38.725%{fill:#a7e8d8;opacity:1}39.118%,100%{fill:#8b95a1;opacity:.2}}@keyframes e42_1{0%,33.333%{fill:#35a08e;opacity:1}33.725%,100%{fill:#8b95a1;opacity:.2}}@keyframes e42_2{0%,36.765%{fill:#5fcdb5;opacity:1}37.157%,100%{fill:#8b95a1;opacity:.2}}@keyframes e42_3{0%,30.392%{fill:#35a08e;opacity:1}30.784%,100%{fill:#8b95a1;opacity:.2}}@keyframes e42_4{0%,29.902%{fill:#a7e8d8;opacity:1}30.294%,100%{fill:#8b95a1;opacity:.2}}@keyframes e43_1{0%,33.824%{fill:#a7e8d8;opacity:1}34.216%,100%{fill:#8b95a1;opacity:.2}}@keyframes e43_2{0%,36.275%{fill:#a7e8d8;opacity:1}36.667%,100%{fill:#8b95a1;opacity:.2}}@keyframes e45_0{0%,43.137%{fill:#a7e8d8;opacity:1}43.529%,100%{fill:#8b95a1;opacity:.2}}@keyframes e45_1{0%,43.627%{fill:#35a08e;opacity:1}44.02%,100%{fill:#8b95a1;opacity:.2}}@keyframes e45_2{0%,46.078%{fill:#5fcdb5;opacity:1}46.471%,100%{fill:#8b95a1;opacity:.2}}@keyframes e45_3{0%,45.588%{fill:#1f7a6b;opacity:1}45.98%,100%{fill:#8b95a1;opacity:.2}}@keyframes e45_4{0%,58.824%{fill:#5fcdb5;opacity:1}59.216%,100%{fill:#8b95a1;opacity:.2}}@keyframes e45_5{0%,54.412%{fill:#5fcdb5;opacity:1}54.804%,100%{fill:#8b95a1;opacity:.2}}@keyframes e45_6{0%,53.922%{fill:#1f7a6b;opacity:1}54.314%,100%{fill:#8b95a1;opacity:.2}}@keyframes e46_0{0%,72.059%{fill:#1f7a6b;opacity:1}72.451%,100%{fill:#8b95a1;opacity:.2}}@keyframes e46_1{0%,44.118%{fill:#1f7a6b;opacity:1}44.51%,100%{fill:#8b95a1;opacity:.2}}@keyframes e46_2{0%,44.608%{fill:#35a08e;opacity:1}45%,100%{fill:#8b95a1;opacity:.2}}@keyframes e46_3{0%,45.098%{fill:#35a08e;opacity:1}45.49%,100%{fill:#8b95a1;opacity:.2}}@keyframes e46_4{0%,55.392%{fill:#1f7a6b;opacity:1}55.784%,100%{fill:#8b95a1;opacity:.2}}@keyframes e46_5{0%,54.902%{fill:#1f7a6b;opacity:1}55.294%,100%{fill:#8b95a1;opacity:.2}}@keyframes e46_6{0%,53.431%{fill:#5fcdb5;opacity:1}53.824%,100%{fill:#8b95a1;opacity:.2}}@keyframes e47_0{0%,70.588%{fill:#1f7a6b;opacity:1}70.98%,100%{fill:#8b95a1;opacity:.2}}@keyframes e47_1{0%,50.49%{fill:#1f7a6b;opacity:1}50.882%,100%{fill:#8b95a1;opacity:.2}}@keyframes e47_2{0%,50.98%{fill:#1f7a6b;opacity:1}51.373%,100%{fill:#8b95a1;opacity:.2}}@keyframes e47_3{0%,51.471%{fill:#35a08e;opacity:1}51.863%,100%{fill:#8b95a1;opacity:.2}}@keyframes e47_4{0%,51.961%{fill:#1f7a6b;opacity:1}52.353%,100%{fill:#8b95a1;opacity:.2}}@keyframes e47_5{0%,52.451%{fill:#a7e8d8;opacity:1}52.843%,100%{fill:#8b95a1;opacity:.2}}@keyframes e47_6{0%,52.941%{fill:#35a08e;opacity:1}53.333%,100%{fill:#8b95a1;opacity:.2}}@keyframes e48_0{0%,70.098%{fill:#5fcdb5;opacity:1}70.49%,100%{fill:#8b95a1;opacity:.2}}@keyframes e48_1{0%,68.627%{fill:#35a08e;opacity:1}69.02%,100%{fill:#8b95a1;opacity:.2}}@keyframes e48_2{0%,68.137%{fill:#35a08e;opacity:1}68.529%,100%{fill:#8b95a1;opacity:.2}}@keyframes e48_3{0%,61.765%{fill:#5fcdb5;opacity:1}62.157%,100%{fill:#8b95a1;opacity:.2}}@keyframes e48_4{0%,62.255%{fill:#35a08e;opacity:1}62.647%,100%{fill:#8b95a1;opacity:.2}}@keyframes e48_5{0%,62.745%{fill:#a7e8d8;opacity:1}63.137%,100%{fill:#8b95a1;opacity:.2}}@keyframes e48_6{0%,85.784%{fill:#35a08e;opacity:1}86.176%,100%{fill:#8b95a1;opacity:.2}}@keyframes e49_0{0%,69.608%{fill:#5fcdb5;opacity:1}70%,100%{fill:#8b95a1;opacity:.2}}@keyframes e49_1{0%,69.118%{fill:#5fcdb5;opacity:1}69.51%,100%{fill:#8b95a1;opacity:.2}}@keyframes e49_2{0%,67.647%{fill:#5fcdb5;opacity:1}68.039%,100%{fill:#8b95a1;opacity:.2}}@keyframes e49_3{0%,65.196%{fill:#a7e8d8;opacity:1}65.588%,100%{fill:#8b95a1;opacity:.2}}@keyframes e49_4{0%,64.706%{fill:#a7e8d8;opacity:1}65.098%,100%{fill:#8b95a1;opacity:.2}}@keyframes e49_5{0%,63.235%{fill:#a7e8d8;opacity:1}63.627%,100%{fill:#8b95a1;opacity:.2}}@keyframes e49_6{0%,85.294%{fill:#35a08e;opacity:1}85.686%,100%{fill:#8b95a1;opacity:.2}}@keyframes e50_0{0%,77.941%{fill:#5fcdb5;opacity:1}78.333%,100%{fill:#8b95a1;opacity:.2}}@keyframes e50_1{0%,80.392%{fill:#a7e8d8;opacity:1}80.784%,100%{fill:#8b95a1;opacity:.2}}@keyframes e50_2{0%,67.157%{fill:#5fcdb5;opacity:1}67.549%,100%{fill:#8b95a1;opacity:.2}}@keyframes e50_3{0%,65.686%{fill:#a7e8d8;opacity:1}66.078%,100%{fill:#8b95a1;opacity:.2}}@keyframes e50_4{0%,64.216%{fill:#35a08e;opacity:1}64.608%,100%{fill:#8b95a1;opacity:.2}}@keyframes e50_5{0%,63.725%{fill:#1f7a6b;opacity:1}64.118%,100%{fill:#8b95a1;opacity:.2}}@keyframes e50_6{0%,84.804%{fill:#1f7a6b;opacity:1}85.196%,100%{fill:#8b95a1;opacity:.2}}@keyframes e51_0{0%,78.431%{fill:#1f7a6b;opacity:1}78.824%,100%{fill:#8b95a1;opacity:.2}}@keyframes e51_1{0%,78.922%{fill:#a7e8d8;opacity:1}79.314%,100%{fill:#8b95a1;opacity:.2}}@keyframes e51_2{0%,66.667%{fill:#a7e8d8;opacity:1}67.059%,100%{fill:#8b95a1;opacity:.2}}@keyframes e51_3{0%,66.176%{fill:#a7e8d8;opacity:1}66.569%,100%{fill:#8b95a1;opacity:.2}}@keyframes e51_4{0%,83.333%{fill:#5fcdb5;opacity:1}83.725%,100%{fill:#8b95a1;opacity:.2}}@keyframes g5{0%,30.392%{opacity:0}30.637%,100%{opacity:0.845}}@keyframes g4{0%,29.902%{opacity:0}30.147%,100%{opacity:0.86}}@media(prefers-reduced-motion:reduce){.sg{display:none}.c{animation:none}}</style>
<rect x="30" y="14" width="11" height="11" rx="2.5" fill="#8b95a1" opacity="0.20"/>
<rect x="30" y="27" width="11" height="11" rx="2.5" fill="#8b95a1" opacity="0.20"/>
<rect x="30" y="40" width="11" height="11" rx="2.5" fill="#8b95a1" opacity="0.20"/>
<rect x="30" y="53" width="11" height="11" rx="2.5" fill="#8b95a1" opacity="0.20"/>
<rect x="30" y="66" width="11" height="11" rx="2.5" fill="#8b95a1" opacity="0.20"/>
<rect x="30" y="79" width="11" height="11" rx="2.5" fill="#8b95a1" opacity="0.20"/>
<rect x="30" y="92" width="11" height="11" rx="2.5" fill="#8b95a1" opacity="0.20"/>
<rect x="43" y="14" width="11" height="11" rx="2.5" fill="#8b95a1" opacity="0.20"/>
<rect x="43" y="27" width="11" height="11" rx="2.5" fill="#8b95a1" opacity="0.20"/>
<rect x="43" y="40" width="11" height="11" rx="2.5" fill="#8b95a1" opacity="0.20"/>
<rect x="43" y="53" width="11" height="11" rx="2.5" fill="#8b95a1" opacity="0.20"/>
<rect x="43" y="66" width="11" height="11" rx="2.5" fill="#8b95a1" opacity="0.20"/>
<rect x="43" y="79" width="11" height="11" rx="2.5" fill="#8b95a1" opacity="0.20"/>
<rect x="43" y="92" width="11" height="11" rx="2.5" fill="#8b95a1" opacity="0.20"/>
<rect x="56" y="14" width="11" height="11" rx="2.5" fill="#8b95a1" opacity="0.20"/>
<rect x="56" y="27" width="11" height="11" rx="2.5" fill="#8b95a1" opacity="0.20"/>
<rect x="56" y="40" width="11" height="11" rx="2.5" fill="#8b95a1" opacity="0.20"/>
<rect x="56" y="53" width="11" height="11" rx="2.5" fill="#8b95a1" opacity="0.20"/>
<rect x="56" y="66" width="11" height="11" rx="2.5" fill="#8b95a1" opacity="0.20"/>
<rect x="56" y="79" width="11" height="11" rx="2.5" fill="#8b95a1" opacity="0.20"/>
<rect x="56" y="92" width="11" height="11" rx="2.5" fill="#8b95a1" opacity="0.20"/>
<rect x="69" y="14" width="11" height="11" rx="2.5" fill="#8b95a1" opacity="0.20"/>
<rect x="69" y="27" width="11" height="11" rx="2.5" fill="#8b95a1" opacity="0.20"/>
<rect x="69" y="40" width="11" height="11" rx="2.5" fill="#8b95a1" opacity="0.20"/>
<rect x="69" y="53" width="11" height="11" rx="2.5" fill="#8b95a1" opacity="0.20"/>
<rect x="69" y="66" width="11" height="11" rx="2.5" fill="#8b95a1" opacity="0.20"/>
<rect x="69" y="79" width="11" height="11" rx="2.5" fill="#8b95a1" opacity="0.20"/>
<rect x="69" y="92" width="11" height="11" rx="2.5" fill="#8b95a1" opacity="0.20"/>
<rect x="82" y="14" width="11" height="11" rx="2.5" fill="#8b95a1" opacity="0.20"/>
<rect x="82" y="27" width="11" height="11" rx="2.5" fill="#8b95a1" opacity="0.20"/>
<rect x="82" y="40" width="11" height="11" rx="2.5" fill="#8b95a1" opacity="0.20"/>
<rect x="82" y="53" width="11" height="11" rx="2.5" fill="#8b95a1" opacity="0.20"/>
<rect x="82" y="66" width="11" height="11" rx="2.5" fill="#8b95a1" opacity="0.20"/>
<rect x="82" y="79" width="11" height="11" rx="2.5" fill="#8b95a1" opacity="0.20"/>
<rect x="82" y="92" width="11" height="11" rx="2.5" fill="#8b95a1" opacity="0.20"/>
<rect x="95" y="14" width="11" height="11" rx="2.5" fill="#8b95a1" opacity="0.20"/>
<rect x="95" y="27" width="11" height="11" rx="2.5" fill="#8b95a1" opacity="0.20"/>
<rect x="95" y="40" width="11" height="11" rx="2.5" fill="#8b95a1" opacity="0.20"/>
<rect x="95" y="53" width="11" height="11" rx="2.5" fill="#8b95a1" opacity="0.20"/>
<rect x="95" y="66" width="11" height="11" rx="2.5" fill="#8b95a1" opacity="0.20"/>
<rect x="95" y="79" width="11" height="11" rx="2.5" fill="#8b95a1" opacity="0.20"/>
<rect x="95" y="92" width="11" height="11" rx="2.5" fill="#8b95a1" opacity="0.20"/>
<rect x="108" y="14" width="11" height="11" rx="2.5" fill="#8b95a1" opacity="0.20"/>
<rect x="108" y="27" width="11" height="11" rx="2.5" fill="#8b95a1" opacity="0.20"/>
<rect x="108" y="40" width="11" height="11" rx="2.5" fill="#8b95a1" opacity="0.20"/>
<rect x="108" y="53" width="11" height="11" rx="2.5" fill="#8b95a1" opacity="0.20"/>
<rect x="108" y="66" width="11" height="11" rx="2.5" fill="#8b95a1" opacity="0.20"/>
<rect x="108" y="79" width="11" height="11" rx="2.5" fill="#8b95a1" opacity="0.20"/>
<rect x="108" y="92" width="11" height="11" rx="2.5" fill="#8b95a1" opacity="0.20"/>
<rect x="121" y="14" width="11" height="11" rx="2.5" fill="#8b95a1" opacity="0.20"/>
<rect x="121" y="27" width="11" height="11" rx="2.5" fill="#8b95a1" opacity="0.20"/>
<rect x="121" y="40" width="11" height="11" rx="2.5" fill="#8b95a1" opacity="0.20"/>
<rect x="121" y="53" width="11" height="11" rx="2.5" fill="#8b95a1" opacity="0.20"/>
<rect x="121" y="66" width="11" height="11" rx="2.5" fill="#8b95a1" opacity="0.20"/>
<rect x="121" y="79" width="11" height="11" rx="2.5" fill="#8b95a1" opacity="0.20"/>
<rect x="121" y="92" width="11" height="11" rx="2.5" fill="#8b95a1" opacity="0.20"/>
<rect x="134" y="14" width="11" height="11" rx="2.5" fill="#8b95a1" opacity="0.20"/>
<rect x="134" y="27" width="11" height="11" rx="2.5" fill="#8b95a1" opacity="0.20"/>
<rect x="134" y="40" width="11" height="11" rx="2.5" fill="#8b95a1" opacity="0.20"/>
<rect x="134" y="53" width="11" height="11" rx="2.5" fill="#8b95a1" opacity="0.20"/>
<rect x="134" y="66" width="11" height="11" rx="2.5" fill="#8b95a1" opacity="0.20"/>
<rect x="134" y="79" width="11" height="11" rx="2.5" fill="#8b95a1" opacity="0.20"/>
<rect x="134" y="92" width="11" height="11" rx="2.5" fill="#8b95a1" opacity="0.20"/>
<rect x="147" y="14" width="11" height="11" rx="2.5" fill="#8b95a1" opacity="0.20"/>
<rect x="147" y="27" width="11" height="11" rx="2.5" fill="#8b95a1" opacity="0.20"/>
<rect x="147" y="40" width="11" height="11" rx="2.5" fill="#8b95a1" opacity="0.20"/>
<rect x="147" y="53" width="11" height="11" rx="2.5" fill="#8b95a1" opacity="0.20"/>
<rect x="147" y="66" width="11" height="11" rx="2.5" fill="#8b95a1" opacity="0.20"/>
<rect x="147" y="79" width="11" height="11" rx="2.5" fill="#8b95a1" opacity="0.20"/>
<rect x="147" y="92" width="11" height="11" rx="2.5" fill="#8b95a1" opacity="0.20"/>
<rect x="160" y="14" width="11" height="11" rx="2.5" fill="#8b95a1" opacity="0.20"/>
<rect x="160" y="27" width="11" height="11" rx="2.5" fill="#8b95a1" opacity="0.20"/>
<rect x="160" y="40" width="11" height="11" rx="2.5" fill="#8b95a1" opacity="0.20"/>
<rect x="160" y="53" width="11" height="11" rx="2.5" fill="#8b95a1" opacity="0.20"/>
<rect x="160" y="66" width="11" height="11" rx="2.5" fill="#8b95a1" opacity="0.20"/>
<rect x="160" y="79" width="11" height="11" rx="2.5" fill="#8b95a1" opacity="0.20"/>
<rect x="160" y="92" width="11" height="11" rx="2.5" fill="#8b95a1" opacity="0.20"/>
<rect x="173" y="14" width="11" height="11" rx="2.5" fill="#8b95a1" opacity="0.20"/>
<rect x="173" y="27" width="11" height="11" rx="2.5" fill="#8b95a1" opacity="0.20"/>
<rect x="173" y="40" width="11" height="11" rx="2.5" fill="#8b95a1" opacity="0.20"/>
<rect x="173" y="53" width="11" height="11" rx="2.5" fill="#8b95a1" opacity="0.20"/>
<rect x="173" y="66" width="11" height="11" rx="2.5" fill="#8b95a1" opacity="0.20"/>
<rect x="173" y="79" width="11" height="11" rx="2.5" fill="#8b95a1" opacity="0.20"/>
<rect x="173" y="92" width="11" height="11" rx="2.5" fill="#8b95a1" opacity="0.20"/>
<rect x="186" y="14" width="11" height="11" rx="2.5" fill="#8b95a1" opacity="0.20"/>
<rect x="186" y="27" width="11" height="11" rx="2.5" fill="#8b95a1" opacity="0.20"/>
<rect x="186" y="40" width="11" height="11" rx="2.5" fill="#8b95a1" opacity="0.20"/>
<rect x="186" y="53" width="11" height="11" rx="2.5" fill="#8b95a1" opacity="0.20"/>
<rect x="186" y="66" width="11" height="11" rx="2.5" fill="#8b95a1" opacity="0.20"/>
<rect x="186" y="79" width="11" height="11" rx="2.5" fill="#8b95a1" opacity="0.20"/>
<rect x="186" y="92" width="11" height="11" rx="2.5" fill="#8b95a1" opacity="0.20"/>
<rect x="199" y="14" width="11" height="11" rx="2.5" fill="#8b95a1" opacity="0.20"/>
<rect x="199" y="27" width="11" height="11" rx="2.5" fill="#8b95a1" opacity="0.20"/>
<rect x="199" y="40" width="11" height="11" rx="2.5" fill="#8b95a1" opacity="0.20"/>
<rect x="199" y="53" width="11" height="11" rx="2.5" fill="#8b95a1" opacity="0.20"/>
<rect x="199" y="66" width="11" height="11" rx="2.5" fill="#8b95a1" opacity="0.20"/>
<rect x="199" y="79" width="11" height="11" rx="2.5" fill="#8b95a1" opacity="0.20"/>
<rect x="199" y="92" width="11" height="11" rx="2.5" fill="#8b95a1" opacity="0.20"/>
<rect x="212" y="14" width="11" height="11" rx="2.5" fill="#8b95a1" opacity="0.20"/>
<rect x="212" y="27" width="11" height="11" rx="2.5" fill="#8b95a1" opacity="0.20"/>
<rect x="212" y="40" width="11" height="11" rx="2.5" fill="#8b95a1" opacity="0.20"/>
<rect x="212" y="53" width="11" height="11" rx="2.5" fill="#8b95a1" opacity="0.20"/>
<rect x="212" y="66" width="11" height="11" rx="2.5" fill="#8b95a1" opacity="0.20"/>
<rect x="212" y="79" width="11" height="11" rx="2.5" fill="#8b95a1" opacity="0.20"/>
<rect x="212" y="92" width="11" height="11" rx="2.5" fill="#8b95a1" opacity="0.20"/>
<rect x="225" y="14" width="11" height="11" rx="2.5" fill="#8b95a1" opacity="0.20"/>
<rect x="225" y="27" width="11" height="11" rx="2.5" fill="#8b95a1" opacity="0.20"/>
<rect x="225" y="40" width="11" height="11" rx="2.5" fill="#8b95a1" opacity="0.20"/>
<rect x="225" y="53" width="11" height="11" rx="2.5" fill="#8b95a1" opacity="0.20"/>
<rect x="225" y="66" width="11" height="11" rx="2.5" fill="#8b95a1" opacity="0.20"/>
<rect x="225" y="79" width="11" height="11" rx="2.5" fill="#8b95a1" opacity="0.20"/>
<rect x="225" y="92" width="11" height="11" rx="2.5" fill="#8b95a1" opacity="0.20"/>
<rect x="238" y="14" width="11" height="11" rx="2.5" fill="#8b95a1" opacity="0.20"/>
<rect x="238" y="27" width="11" height="11" rx="2.5" fill="#8b95a1" opacity="0.20"/>
<rect x="238" y="40" width="11" height="11" rx="2.5" fill="#8b95a1" opacity="0.20"/>
<rect x="238" y="53" width="11" height="11" rx="2.5" fill="#8b95a1" opacity="0.20"/>
<rect x="238" y="66" width="11" height="11" rx="2.5" fill="#8b95a1" opacity="0.20"/>
<rect x="238" y="79" width="11" height="11" rx="2.5" fill="#8b95a1" opacity="0.20"/>
<rect x="238" y="92" width="11" height="11" rx="2.5" fill="#8b95a1" opacity="0.20"/>
<rect x="251" y="14" width="11" height="11" rx="2.5" fill="#8b95a1" opacity="0.20"/>
<rect x="251" y="27" width="11" height="11" rx="2.5" fill="#8b95a1" opacity="0.20"/>
<rect x="251" y="40" width="11" height="11" rx="2.5" fill="#8b95a1" opacity="0.20"/>
<rect x="251" y="53" width="11" height="11" rx="2.5" fill="#8b95a1" opacity="0.20"/>
<rect x="251" y="66" width="11" height="11" rx="2.5" fill="#8b95a1" opacity="0.20"/>
<rect x="251" y="79" width="11" height="11" rx="2.5" fill="#8b95a1" opacity="0.20"/>
<rect x="251" y="92" width="11" height="11" rx="2.5" fill="#8b95a1" opacity="0.20"/>
<rect x="264" y="14" width="11" height="11" rx="2.5" fill="#8b95a1" opacity="0.20"/>
<rect x="264" y="27" width="11" height="11" rx="2.5" fill="#8b95a1" opacity="0.20"/>
<rect x="264" y="40" width="11" height="11" rx="2.5" fill="#8b95a1" opacity="0.20"/>
<rect x="264" y="53" width="11" height="11" rx="2.5" fill="#8b95a1" opacity="0.20"/>
<rect x="264" y="66" width="11" height="11" rx="2.5" fill="#8b95a1" opacity="0.20"/>
<rect x="264" y="79" width="11" height="11" rx="2.5" fill="#8b95a1" opacity="0.20"/>
<rect x="264" y="92" width="11" height="11" rx="2.5" fill="#8b95a1" opacity="0.20"/>
<rect x="277" y="14" width="11" height="11" rx="2.5" fill="#8b95a1" opacity="0.20"/>
<rect x="277" y="27" width="11" height="11" rx="2.5" fill="#8b95a1" opacity="0.20"/>
<rect x="277" y="40" width="11" height="11" rx="2.5" fill="#8b95a1" opacity="0.20"/>
<rect x="277" y="53" width="11" height="11" rx="2.5" fill="#8b95a1" opacity="0.20"/>
<rect x="277" y="66" width="11" height="11" rx="2.5" fill="#8b95a1" opacity="0.20"/>
<rect x="277" y="79" width="11" height="11" rx="2.5" fill="#8b95a1" opacity="0.20"/>
<rect x="277" y="92" width="11" height="11" rx="2.5" fill="#8b95a1" opacity="0.20"/>
<rect x="290" y="14" width="11" height="11" rx="2.5" fill="#8b95a1" opacity="0.20"/>
<rect x="290" y="27" width="11" height="11" rx="2.5" fill="#8b95a1" opacity="0.20"/>
<rect x="290" y="40" width="11" height="11" rx="2.5" fill="#8b95a1" opacity="0.20"/>
<rect x="290" y="53" width="11" height="11" rx="2.5" fill="#8b95a1" opacity="0.20"/>
<rect x="290" y="66" width="11" height="11" rx="2.5" fill="#8b95a1" opacity="0.20"/>
<rect x="290" y="79" width="11" height="11" rx="2.5" fill="#8b95a1" opacity="0.20"/>
<rect x="290" y="92" width="11" height="11" rx="2.5" fill="#8b95a1" opacity="0.20"/>
<rect x="303" y="14" width="11" height="11" rx="2.5" fill="#8b95a1" opacity="0.20"/>
<rect x="303" y="27" width="11" height="11" rx="2.5" fill="#8b95a1" opacity="0.20"/>
<rect x="303" y="40" width="11" height="11" rx="2.5" fill="#8b95a1" opacity="0.20"/>
<rect x="303" y="53" width="11" height="11" rx="2.5" fill="#8b95a1" opacity="0.20"/>
<rect x="303" y="66" width="11" height="11" rx="2.5" fill="#8b95a1" opacity="0.20"/>
<rect x="303" y="79" width="11" height="11" rx="2.5" fill="#8b95a1" opacity="0.20"/>
<rect x="303" y="92" width="11" height="11" rx="2.5" fill="#8b95a1" opacity="0.20"/>
<rect x="316" y="14" width="11" height="11" rx="2.5" fill="#8b95a1" opacity="0.20"/>
<rect x="316" y="27" width="11" height="11" rx="2.5" fill="#8b95a1" opacity="0.20"/>
<rect x="316" y="40" width="11" height="11" rx="2.5" fill="#8b95a1" opacity="0.20"/>
<rect x="316" y="53" width="11" height="11" rx="2.5" fill="#8b95a1" opacity="0.20"/>
<rect x="316" y="66" width="11" height="11" rx="2.5" fill="#8b95a1" opacity="0.20"/>
<rect x="316" y="79" width="11" height="11" rx="2.5" fill="#8b95a1" opacity="0.20"/>
<rect x="316" y="92" width="11" height="11" rx="2.5" fill="#8b95a1" opacity="0.20"/>
<rect x="329" y="14" width="11" height="11" rx="2.5" fill="#8b95a1" opacity="0.20"/>
<rect x="329" y="27" width="11" height="11" rx="2.5" fill="#8b95a1" opacity="0.20"/>
<rect x="329" y="40" width="11" height="11" rx="2.5" fill="#8b95a1" opacity="0.20"/>
<rect x="329" y="53" width="11" height="11" rx="2.5" fill="#8b95a1" opacity="0.20"/>
<rect x="329" y="66" width="11" height="11" rx="2.5" fill="#8b95a1" opacity="0.20"/>
<rect x="329" y="79" width="11" height="11" rx="2.5" fill="#8b95a1" opacity="0.20"/>
<rect x="329" y="92" width="11" height="11" rx="2.5" fill="#8b95a1" opacity="0.20"/>
<rect x="342" y="14" width="11" height="11" rx="2.5" fill="#8b95a1" opacity="0.20"/>
<rect x="342" y="27" width="11" height="11" rx="2.5" fill="#8b95a1" opacity="0.20"/>
<rect x="342" y="40" width="11" height="11" rx="2.5" fill="#8b95a1" opacity="0.20"/>
<rect x="342" y="53" width="11" height="11" rx="2.5" fill="#8b95a1" opacity="0.20"/>
<rect x="342" y="66" width="11" height="11" rx="2.5" fill="#8b95a1" opacity="0.20"/>
<rect x="342" y="79" width="11" height="11" rx="2.5" fill="#8b95a1" opacity="0.20"/>
<rect x="342" y="92" width="11" height="11" rx="2.5" fill="#8b95a1" opacity="0.20"/>
<rect x="355" y="14" width="11" height="11" rx="2.5" fill="#8b95a1" opacity="0.20"/>
<rect x="355" y="27" width="11" height="11" rx="2.5" fill="#8b95a1" opacity="0.20"/>
<rect x="355" y="40" width="11" height="11" rx="2.5" fill="#8b95a1" opacity="0.20"/>
<rect x="355" y="53" width="11" height="11" rx="2.5" fill="#8b95a1" opacity="0.20"/>
<rect x="355" y="66" width="11" height="11" rx="2.5" fill="#8b95a1" opacity="0.20"/>
<rect x="355" y="79" width="11" height="11" rx="2.5" fill="#8b95a1" opacity="0.20"/>
<rect x="355" y="92" width="11" height="11" rx="2.5" fill="#8b95a1" opacity="0.20"/>
<rect x="368" y="14" width="11" height="11" rx="2.5" fill="#8b95a1" opacity="0.20"/>
<rect x="368" y="27" width="11" height="11" rx="2.5" fill="#8b95a1" opacity="0.20"/>
<rect x="368" y="40" width="11" height="11" rx="2.5" fill="#8b95a1" opacity="0.20"/>
<rect x="368" y="53" width="11" height="11" rx="2.5" fill="#8b95a1" opacity="0.20"/>
<rect x="368" y="66" width="11" height="11" rx="2.5" fill="#8b95a1" opacity="0.20"/>
<rect x="368" y="79" width="11" height="11" rx="2.5" fill="#8b95a1" opacity="0.20"/>
<rect x="368" y="92" width="11" height="11" rx="2.5" fill="#8b95a1" opacity="0.20"/>
<rect x="381" y="14" width="11" height="11" rx="2.5" fill="#8b95a1" opacity="0.20"/>
<rect x="381" y="27" width="11" height="11" rx="2.5" fill="#8b95a1" opacity="0.20"/>
<rect x="381" y="40" width="11" height="11" rx="2.5" fill="#8b95a1" opacity="0.20"/>
<rect x="381" y="53" width="11" height="11" rx="2.5" fill="#8b95a1" opacity="0.20"/>
<rect x="381" y="66" width="11" height="11" rx="2.5" fill="#8b95a1" opacity="0.20"/>
<rect x="381" y="79" width="11" height="11" rx="2.5" fill="#8b95a1" opacity="0.20"/>
<rect x="381" y="92" width="11" height="11" rx="2.5" fill="#8b95a1" opacity="0.20"/>
<rect x="394" y="14" width="11" height="11" rx="2.5" fill="#8b95a1" opacity="0.20"/>
<rect x="394" y="27" width="11" height="11" rx="2.5" fill="#8b95a1" opacity="0.20"/>
<rect x="394" y="40" width="11" height="11" rx="2.5" fill="#8b95a1" opacity="0.20"/>
<rect x="394" y="53" width="11" height="11" rx="2.5" fill="#8b95a1" opacity="0.20"/>
<rect x="394" y="66" width="11" height="11" rx="2.5" fill="#8b95a1" opacity="0.20"/>
<rect x="394" y="79" width="11" height="11" rx="2.5" fill="#8b95a1" opacity="0.20"/>
<rect x="394" y="92" width="11" height="11" rx="2.5" fill="#8b95a1" opacity="0.20"/>
<rect x="407" y="14" width="11" height="11" rx="2.5" fill="#8b95a1" opacity="0.20"/>
<rect x="407" y="27" width="11" height="11" rx="2.5" fill="#8b95a1" opacity="0.20"/>
<rect x="407" y="40" width="11" height="11" rx="2.5" fill="#8b95a1" opacity="0.20"/>
<rect x="407" y="53" width="11" height="11" rx="2.5" fill="#8b95a1" opacity="0.20"/>
<rect x="407" y="66" width="11" height="11" rx="2.5" fill="#8b95a1" opacity="0.20"/>
<rect x="407" y="79" width="11" height="11" rx="2.5" fill="#8b95a1" opacity="0.20"/>
<rect x="407" y="92" width="11" height="11" rx="2.5" fill="#8b95a1" opacity="0.20"/>
<rect x="420" y="14" width="11" height="11" rx="2.5" fill="#8b95a1" opacity="0.20"/>
<rect x="420" y="27" width="11" height="11" rx="2.5" fill="#8b95a1" opacity="0.20"/>
<rect x="420" y="40" width="11" height="11" rx="2.5" fill="#8b95a1" opacity="0.20"/>
<rect x="420" y="53" width="11" height="11" rx="2.5" fill="#8b95a1" opacity="0.20"/>
<rect x="420" y="66" width="11" height="11" rx="2.5" fill="#8b95a1" opacity="0.20"/>
<rect x="420" y="79" width="11" height="11" rx="2.5" fill="#8b95a1" opacity="0.20"/>
<rect x="420" y="92" width="11" height="11" rx="2.5" fill="#8b95a1" opacity="0.20"/>
<rect x="433" y="14" width="11" height="11" rx="2.5" fill="#8b95a1" opacity="0.20"/>
<rect x="433" y="27" width="11" height="11" rx="2.5" fill="#8b95a1" opacity="0.20"/>
<rect x="433" y="40" width="11" height="11" rx="2.5" fill="#8b95a1" opacity="0.20"/>
<rect x="433" y="53" width="11" height="11" rx="2.5" fill="#8b95a1" opacity="0.20"/>
<rect x="433" y="66" width="11" height="11" rx="2.5" fill="#8b95a1" opacity="0.20"/>
<rect x="433" y="79" width="11" height="11" rx="2.5" fill="#8b95a1" opacity="0.20"/>
<rect x="433" y="92" width="11" height="11" rx="2.5" fill="#8b95a1" opacity="0.20"/>
<rect x="446" y="14" width="11" height="11" rx="2.5" fill="#8b95a1" opacity="0.20"/>
<rect x="446" y="27" width="11" height="11" rx="2.5" fill="#8b95a1" opacity="0.20"/>
<rect x="446" y="40" width="11" height="11" rx="2.5" fill="#8b95a1" opacity="0.20"/>
<rect x="446" y="53" width="11" height="11" rx="2.5" fill="#8b95a1" opacity="0.20"/>
<rect x="446" y="66" width="11" height="11" rx="2.5" fill="#8b95a1" opacity="0.20"/>
<rect x="446" y="79" width="11" height="11" rx="2.5" fill="#8b95a1" opacity="0.20"/>
<rect x="446" y="92" width="11" height="11" rx="2.5" fill="#8b95a1" opacity="0.20"/>
<rect x="459" y="14" width="11" height="11" rx="2.5" fill="#8b95a1" opacity="0.20"/>
<rect x="459" y="27" width="11" height="11" rx="2.5" fill="#8b95a1" opacity="0.20"/>
<rect x="459" y="40" width="11" height="11" rx="2.5" fill="#8b95a1" opacity="0.20"/>
<rect x="459" y="53" width="11" height="11" rx="2.5" fill="#8b95a1" opacity="0.20"/>
<rect x="459" y="66" width="11" height="11" rx="2.5" fill="#8b95a1" opacity="0.20"/>
<rect x="459" y="79" width="11" height="11" rx="2.5" fill="#8b95a1" opacity="0.20"/>
<rect x="459" y="92" width="11" height="11" rx="2.5" fill="#8b95a1" opacity="0.20"/>
<rect x="472" y="14" width="11" height="11" rx="2.5" fill="#8b95a1" opacity="0.20"/>
<rect x="472" y="27" width="11" height="11" rx="2.5" fill="#8b95a1" opacity="0.20"/>
<rect x="472" y="40" width="11" height="11" rx="2.5" fill="#8b95a1" opacity="0.20"/>
<rect x="472" y="53" width="11" height="11" rx="2.5" fill="#8b95a1" opacity="0.20"/>
<rect x="472" y="66" width="11" height="11" rx="2.5" fill="#8b95a1" opacity="0.20"/>
<rect x="472" y="79" width="11" height="11" rx="2.5" fill="#8b95a1" opacity="0.20"/>
<rect x="472" y="92" width="11" height="11" rx="2.5" fill="#8b95a1" opacity="0.20"/>
<rect x="485" y="14" width="11" height="11" rx="2.5" fill="#8b95a1" opacity="0.20"/>
<rect x="485" y="27" width="11" height="11" rx="2.5" fill="#8b95a1" opacity="0.20"/>
<rect x="485" y="40" width="11" height="11" rx="2.5" fill="#8b95a1" opacity="0.20"/>
<rect x="485" y="53" width="11" height="11" rx="2.5" fill="#8b95a1" opacity="0.20"/>
<rect x="485" y="66" width="11" height="11" rx="2.5" fill="#8b95a1" opacity="0.20"/>
<rect x="485" y="79" width="11" height="11" rx="2.5" fill="#8b95a1" opacity="0.20"/>
<rect x="485" y="92" width="11" height="11" rx="2.5" fill="#8b95a1" opacity="0.20"/>
<rect x="498" y="14" width="11" height="11" rx="2.5" fill="#8b95a1" opacity="0.20"/>
<rect x="498" y="27" width="11" height="11" rx="2.5" fill="#8b95a1" opacity="0.20"/>
<rect x="498" y="40" width="11" height="11" rx="2.5" fill="#8b95a1" opacity="0.20"/>
<rect x="498" y="53" width="11" height="11" rx="2.5" fill="#8b95a1" opacity="0.20"/>
<rect x="498" y="66" width="11" height="11" rx="2.5" fill="#8b95a1" opacity="0.20"/>
<rect x="498" y="79" width="11" height="11" rx="2.5" fill="#8b95a1" opacity="0.20"/>
<rect x="498" y="92" width="11" height="11" rx="2.5" fill="#8b95a1" opacity="0.20"/>
<rect x="511" y="14" width="11" height="11" rx="2.5" fill="#8b95a1" opacity="0.20"/>
<rect x="511" y="27" width="11" height="11" rx="2.5" fill="#8b95a1" opacity="0.20"/>
<rect x="511" y="40" width="11" height="11" rx="2.5" fill="#8b95a1" opacity="0.20"/>
<rect x="511" y="53" width="11" height="11" rx="2.5" fill="#8b95a1" opacity="0.20"/>
<rect x="511" y="66" width="11" height="11" rx="2.5" fill="#8b95a1" opacity="0.20"/>
<rect x="511" y="79" width="11" height="11" rx="2.5" fill="#8b95a1" opacity="0.20"/>
<rect x="511" y="92" width="11" height="11" rx="2.5" fill="#8b95a1" opacity="0.20"/>
<rect x="524" y="14" width="11" height="11" rx="2.5" fill="#8b95a1" opacity="0.20"/>
<rect x="524" y="27" width="11" height="11" rx="2.5" fill="#8b95a1" opacity="0.20"/>
<rect x="524" y="40" width="11" height="11" rx="2.5" fill="#8b95a1" opacity="0.20"/>
<rect x="524" y="53" width="11" height="11" rx="2.5" fill="#8b95a1" opacity="0.20"/>
<rect x="524" y="66" width="11" height="11" rx="2.5" fill="#8b95a1" opacity="0.20"/>
<rect x="524" y="79" width="11" height="11" rx="2.5" fill="#8b95a1" opacity="0.20"/>
<rect x="524" y="92" width="11" height="11" rx="2.5" fill="#8b95a1" opacity="0.20"/>
<rect x="537" y="14" width="11" height="11" rx="2.5" fill="#8b95a1" opacity="0.20"/>
<rect x="537" y="27" width="11" height="11" rx="2.5" fill="#8b95a1" opacity="0.20"/>
<rect x="537" y="40" width="11" height="11" rx="2.5" fill="#8b95a1" opacity="0.20"/>
<rect x="537" y="53" width="11" height="11" rx="2.5" fill="#8b95a1" opacity="0.20"/>
<rect x="537" y="66" width="11" height="11" rx="2.5" fill="#8b95a1" opacity="0.20"/>
<rect x="537" y="79" width="11" height="11" rx="2.5" fill="#8b95a1" opacity="0.20"/>
<rect x="537" y="92" width="11" height="11" rx="2.5" fill="#8b95a1" opacity="0.20"/>
<rect x="550" y="14" width="11" height="11" rx="2.5" fill="#8b95a1" opacity="0.20"/>
<rect x="550" y="27" width="11" height="11" rx="2.5" fill="#8b95a1" opacity="0.20"/>
<rect x="550" y="40" width="11" height="11" rx="2.5" fill="#8b95a1" opacity="0.20"/>
<rect x="550" y="53" width="11" height="11" rx="2.5" fill="#8b95a1" opacity="0.20"/>
<rect x="550" y="66" width="11" height="11" rx="2.5" fill="#8b95a1" opacity="0.20"/>
<rect x="550" y="79" width="11" height="11" rx="2.5" fill="#a7e8d8" class="c" style="animation-name:e40_5"/>
<rect x="550" y="92" width="11" height="11" rx="2.5" fill="#5fcdb5" class="c" style="animation-name:e40_6"/>
<rect x="563" y="14" width="11" height="11" rx="2.5" fill="#1f7a6b" class="c" style="animation-name:e41_0"/>
<rect x="563" y="27" width="11" height="11" rx="2.5" fill="#35a08e" class="c" style="animation-name:e41_1"/>
<rect x="563" y="40" width="11" height="11" rx="2.5" fill="#8b95a1" opacity="0.20"/>
<rect x="563" y="53" width="11" height="11" rx="2.5" fill="#35a08e" class="c" style="animation-name:e41_3"/>
<rect x="563" y="66" width="11" height="11" rx="2.5" fill="#8b95a1" opacity="0.20"/>
<rect x="563" y="79" width="11" height="11" rx="2.5" fill="#8b95a1" opacity="0.20"/>
<rect x="563" y="92" width="11" height="11" rx="2.5" fill="#8b95a1" opacity="0.20"/>
<rect x="576" y="14" width="11" height="11" rx="2.5" fill="#a7e8d8" class="c" style="animation-name:e42_0"/>
<rect x="576" y="27" width="11" height="11" rx="2.5" fill="#35a08e" class="c" style="animation-name:e42_1"/>
<rect x="576" y="40" width="11" height="11" rx="2.5" fill="#5fcdb5" class="c" style="animation-name:e42_2"/>
<rect x="576" y="53" width="11" height="11" rx="2.5" fill="#35a08e" class="c" style="animation-name:e42_3"/>
<rect x="576" y="66" width="11" height="11" rx="2.5" fill="#a7e8d8" class="c" style="animation-name:e42_4"/>
<rect x="576" y="79" width="11" height="11" rx="2.5" fill="#8b95a1" opacity="0.20"/>
<rect x="576" y="92" width="11" height="11" rx="2.5" fill="#8b95a1" opacity="0.20"/>
<rect x="589" y="14" width="11" height="11" rx="2.5" fill="#8b95a1" opacity="0.20"/>
<rect x="589" y="27" width="11" height="11" rx="2.5" fill="#a7e8d8" class="c" style="animation-name:e43_1"/>
<rect x="589" y="40" width="11" height="11" rx="2.5" fill="#a7e8d8" class="c" style="animation-name:e43_2"/>
<rect x="589" y="53" width="11" height="11" rx="2.5" fill="#8b95a1" opacity="0.20"/>
<rect x="589" y="66" width="11" height="11" rx="2.5" fill="#8b95a1" opacity="0.20"/>
<rect x="589" y="79" width="11" height="11" rx="2.5" fill="#8b95a1" opacity="0.20"/>
<rect x="589" y="92" width="11" height="11" rx="2.5" fill="#8b95a1" opacity="0.20"/>
<rect x="602" y="14" width="11" height="11" rx="2.5" fill="#8b95a1" opacity="0.20"/>
<rect x="602" y="27" width="11" height="11" rx="2.5" fill="#8b95a1" opacity="0.20"/>
<rect x="602" y="40" width="11" height="11" rx="2.5" fill="#8b95a1" opacity="0.20"/>
<rect x="602" y="53" width="11" height="11" rx="2.5" fill="#8b95a1" opacity="0.20"/>
<rect x="602" y="66" width="11" height="11" rx="2.5" fill="#8b95a1" opacity="0.20"/>
<rect x="602" y="79" width="11" height="11" rx="2.5" fill="#8b95a1" opacity="0.20"/>
<rect x="602" y="92" width="11" height="11" rx="2.5" fill="#8b95a1" opacity="0.20"/>
<rect x="615" y="14" width="11" height="11" rx="2.5" fill="#a7e8d8" class="c" style="animation-name:e45_0"/>
<rect x="615" y="27" width="11" height="11" rx="2.5" fill="#35a08e" class="c" style="animation-name:e45_1"/>
<rect x="615" y="40" width="11" height="11" rx="2.5" fill="#5fcdb5" class="c" style="animation-name:e45_2"/>
<rect x="615" y="53" width="11" height="11" rx="2.5" fill="#1f7a6b" class="c" style="animation-name:e45_3"/>
<rect x="615" y="66" width="11" height="11" rx="2.5" fill="#5fcdb5" class="c" style="animation-name:e45_4"/>
<rect x="615" y="79" width="11" height="11" rx="2.5" fill="#5fcdb5" class="c" style="animation-name:e45_5"/>
<rect x="615" y="92" width="11" height="11" rx="2.5" fill="#1f7a6b" class="c" style="animation-name:e45_6"/>
<rect x="628" y="14" width="11" height="11" rx="2.5" fill="#1f7a6b" class="c" style="animation-name:e46_0"/>
<rect x="628" y="27" width="11" height="11" rx="2.5" fill="#1f7a6b" class="c" style="animation-name:e46_1"/>
<rect x="628" y="40" width="11" height="11" rx="2.5" fill="#35a08e" class="c" style="animation-name:e46_2"/>
<rect x="628" y="53" width="11" height="11" rx="2.5" fill="#35a08e" class="c" style="animation-name:e46_3"/>
<rect x="628" y="66" width="11" height="11" rx="2.5" fill="#1f7a6b" class="c" style="animation-name:e46_4"/>
<rect x="628" y="79" width="11" height="11" rx="2.5" fill="#1f7a6b" class="c" style="animation-name:e46_5"/>
<rect x="628" y="92" width="11" height="11" rx="2.5" fill="#5fcdb5" class="c" style="animation-name:e46_6"/>
<rect x="641" y="14" width="11" height="11" rx="2.5" fill="#1f7a6b" class="c" style="animation-name:e47_0"/>
<rect x="641" y="27" width="11" height="11" rx="2.5" fill="#1f7a6b" class="c" style="animation-name:e47_1"/>
<rect x="641" y="40" width="11" height="11" rx="2.5" fill="#1f7a6b" class="c" style="animation-name:e47_2"/>
<rect x="641" y="53" width="11" height="11" rx="2.5" fill="#35a08e" class="c" style="animation-name:e47_3"/>
<rect x="641" y="66" width="11" height="11" rx="2.5" fill="#1f7a6b" class="c" style="animation-name:e47_4"/>
<rect x="641" y="79" width="11" height="11" rx="2.5" fill="#a7e8d8" class="c" style="animation-name:e47_5"/>
<rect x="641" y="92" width="11" height="11" rx="2.5" fill="#35a08e" class="c" style="animation-name:e47_6"/>
<rect x="654" y="14" width="11" height="11" rx="2.5" fill="#5fcdb5" class="c" style="animation-name:e48_0"/>
<rect x="654" y="27" width="11" height="11" rx="2.5" fill="#35a08e" class="c" style="animation-name:e48_1"/>
<rect x="654" y="40" width="11" height="11" rx="2.5" fill="#35a08e" class="c" style="animation-name:e48_2"/>
<rect x="654" y="53" width="11" height="11" rx="2.5" fill="#5fcdb5" class="c" style="animation-name:e48_3"/>
<rect x="654" y="66" width="11" height="11" rx="2.5" fill="#35a08e" class="c" style="animation-name:e48_4"/>
<rect x="654" y="79" width="11" height="11" rx="2.5" fill="#a7e8d8" class="c" style="animation-name:e48_5"/>
<rect x="654" y="92" width="11" height="11" rx="2.5" fill="#35a08e" class="c" style="animation-name:e48_6"/>
<rect x="667" y="14" width="11" height="11" rx="2.5" fill="#5fcdb5" class="c" style="animation-name:e49_0"/>
<rect x="667" y="27" width="11" height="11" rx="2.5" fill="#5fcdb5" class="c" style="animation-name:e49_1"/>
<rect x="667" y="40" width="11" height="11" rx="2.5" fill="#5fcdb5" class="c" style="animation-name:e49_2"/>
<rect x="667" y="53" width="11" height="11" rx="2.5" fill="#a7e8d8" class="c" style="animation-name:e49_3"/>
<rect x="667" y="66" width="11" height="11" rx="2.5" fill="#a7e8d8" class="c" style="animation-name:e49_4"/>
<rect x="667" y="79" width="11" height="11" rx="2.5" fill="#a7e8d8" class="c" style="animation-name:e49_5"/>
<rect x="667" y="92" width="11" height="11" rx="2.5" fill="#35a08e" class="c" style="animation-name:e49_6"/>
<rect x="680" y="14" width="11" height="11" rx="2.5" fill="#5fcdb5" class="c" style="animation-name:e50_0"/>
<rect x="680" y="27" width="11" height="11" rx="2.5" fill="#a7e8d8" class="c" style="animation-name:e50_1"/>
<rect x="680" y="40" width="11" height="11" rx="2.5" fill="#5fcdb5" class="c" style="animation-name:e50_2"/>
<rect x="680" y="53" width="11" height="11" rx="2.5" fill="#a7e8d8" class="c" style="animation-name:e50_3"/>
<rect x="680" y="66" width="11" height="11" rx="2.5" fill="#35a08e" class="c" style="animation-name:e50_4"/>
<rect x="680" y="79" width="11" height="11" rx="2.5" fill="#1f7a6b" class="c" style="animation-name:e50_5"/>
<rect x="680" y="92" width="11" height="11" rx="2.5" fill="#1f7a6b" class="c" style="animation-name:e50_6"/>
<rect x="693" y="14" width="11" height="11" rx="2.5" fill="#1f7a6b" class="c" style="animation-name:e51_0"/>
<rect x="693" y="27" width="11" height="11" rx="2.5" fill="#a7e8d8" class="c" style="animation-name:e51_1"/>
<rect x="693" y="40" width="11" height="11" rx="2.5" fill="#a7e8d8" class="c" style="animation-name:e51_2"/>
<rect x="693" y="53" width="11" height="11" rx="2.5" fill="#a7e8d8" class="c" style="animation-name:e51_3"/>
<rect x="693" y="66" width="11" height="11" rx="2.5" fill="#5fcdb5" class="c" style="animation-name:e51_4"/>
<rect x="693" y="79" width="11" height="11" rx="2.5" fill="#8b95a1" opacity="0.20"/>
<rect x="693" y="92" width="11" height="11" rx="2.5" fill="#8b95a1" opacity="0.20"/>
<text x="3" y="35.5" font-size="9" fill="#8b95a1">Пн</text>
<text x="3" y="61.5" font-size="9" fill="#8b95a1">Ср</text>
<text x="3" y="87.5" font-size="9" fill="#8b95a1">Пт</text>
<clipPath id="gclip"><rect x="30" y="14" width="674" height="89"/></clipPath>
<g clip-path="url(#gclip)">
<rect class="sg" style="animation-name:snk,g5;animation-delay:0.300s,0s" x="0" y="0" width="11" height="11" rx="3"/>
<rect class="sg" style="animation-name:snk,g4;animation-delay:0.240s,0s" x="0" y="0" width="11" height="11" rx="3"/>
<rect class="sg" style="animation-delay:0.180s;opacity:0.875" x="0" y="0" width="11" height="11" rx="3"/>
<rect class="sg" style="animation-delay:0.120s;opacity:0.89" x="0" y="0" width="11" height="11" rx="3"/>
<rect class="sg" style="animation-delay:0.060s;opacity:0.905" x="0" y="0" width="11" height="11" rx="3"/>
<rect class="sg" style="animation-delay:0.000s;opacity:1" x="0" y="0" width="11" height="11" rx="5.5"/>
</g>
</svg>
