<svg xmlns="http://www.w3.org/2000/svg" viewBox="0 0 710 109" role="img" aria-label="git-активность candycate-studio за год: змейка съедает клетки коммитов">
<title>git-активность candycate-studio</title>
<style>.c{animation-duration:10s;animation-timing-function:linear;animation-iteration-count:infinite}.sg{transform-box:view-box;transform-origin:0 0;fill:#d8285a;animation:snk 10s linear infinite}@keyframes snk{0%{transform:translate(-22px,53px)}0.649%{transform:translate(-9px,53px)}1.299%{transform:translate(4px,53px)}1.948%{transform:translate(17px,53px)}2.597%{transform:translate(30px,53px)}3.247%{transform:translate(43px,53px)}3.896%{transform:translate(56px,53px)}4.545%{transform:translate(69px,53px)}5.195%{transform:translate(82px,53px)}5.844%{transform:translate(95px,53px)}6.494%{transform:translate(108px,53px)}7.143%{transform:translate(121px,53px)}7.792%{transform:translate(134px,53px)}8.442%{transform:translate(147px,53px)}9.091%{transform:translate(160px,53px)}9.74%{transform:translate(160px,66px)}10.39%{transform:translate(173px,66px)}11.039%{transform:translate(186px,66px)}11.688%{transform:translate(199px,66px)}12.338%{transform:translate(199px,53px)}12.987%{transform:translate(199px,40px)}13.636%{transform:translate(212px,40px)}14.286%{transform:translate(225px,40px)}14.935%{transform:translate(225px,53px)}15.584%{transform:translate(225px,66px)}16.234%{transform:translate(238px,66px)}16.883%{transform:translate(251px,66px)}17.532%{transform:translate(264px,66px)}18.182%{transform:translate(277px,66px)}18.831%{transform:translate(277px,53px)}19.481%{transform:translate(290px,53px)}20.13%{transform:translate(303px,53px)}20.779%{transform:translate(303px,40px)}21.429%{transform:translate(316px,40px)}22.078%{transform:translate(316px,53px)}22.727%{transform:translate(329px,53px)}23.377%{transform:translate(342px,53px)}24.026%{transform:translate(355px,53px)}24.675%{transform:translate(368px,53px)}25.325%{transform:translate(368px,40px)}25.974%{transform:translate(381px,40px)}26.623%{transform:translate(394px,40px)}27.273%{transform:translate(394px,53px)}27.922%{transform:translate(407px,53px)}28.571%{transform:translate(420px,53px)}29.221%{transform:translate(420px,66px)}29.87%{transform:translate(433px,66px)}30.519%{transform:translate(446px,66px)}31.169%{transform:translate(446px,53px)}31.818%{transform:translate(446px,40px)}32.468%{transform:translate(459px,40px)}33.117%{transform:translate(459px,53px)}33.766%{transform:translate(459px,66px)}34.416%{transform:translate(472px,66px)}35.065%{transform:translate(485px,66px)}35.714%{transform:translate(498px,66px)}36.364%{transform:translate(498px,53px)}37.013%{transform:translate(511px,53px)}37.662%{transform:translate(524px,53px)}38.312%{transform:translate(524px,40px)}38.961%{transform:translate(537px,40px)}39.61%{transform:translate(550px,40px)}40.26%{transform:translate(563px,40px)}40.909%{transform:translate(563px,53px)}41.558%{transform:translate(576px,53px)}42.208%{transform:translate(589px,53px)}42.857%{transform:translate(602px,53px)}43.506%{transform:translate(615px,53px)}44.156%{transform:translate(615px,66px)}44.805%{transform:translate(602px,66px)}45.455%{transform:translate(589px,66px)}46.104%{transform:translate(589px,79px)}46.753%{transform:translate(602px,79px)}47.403%{transform:translate(615px,79px)}48.052%{transform:translate(615px,92px)}48.701%{transform:translate(602px,92px)}49.351%{transform:translate(589px,92px)}50%{transform:translate(576px,92px)}50.649%{transform:translate(576px,79px)}51.299%{transform:translate(576px,66px)}51.948%{transform:translate(589px,66px)}52.597%{transform:translate(589px,53px)}53.247%{transform:translate(602px,53px)}53.896%{transform:translate(602px,40px)}54.545%{transform:translate(602px,27px)}55.195%{transform:translate(615px,27px)}55.844%{transform:translate(615px,40px)}56.494%{transform:translate(628px,40px)}57.143%{transform:translate(641px,40px)}57.792%{transform:translate(641px,53px)}58.442%{transform:translate(641px,66px)}59.091%{transform:translate(654px,66px)}59.74%{transform:translate(667px,66px)}60.39%{transform:translate(667px,53px)}61.039%{transform:translate(680px,53px)}61.688%{transform:translate(693px,53px)}62.338%{transform:translate(693px,40px)}62.987%{transform:translate(680px,40px)}63.636%{transform:translate(667px,40px)}64.286%{transform:translate(667px,27px)}64.935%{transform:translate(654px,27px)}65.584%{transform:translate(654px,40px)}66.234%{transform:translate(654px,53px)}66.883%{transform:translate(654px,66px)}67.532%{transform:translate(654px,79px)}68.182%{transform:translate(667px,79px)}68.831%{transform:translate(667px,92px)}69.481%{transform:translate(680px,92px)}70.13%{transform:translate(693px,92px)}70.779%{transform:translate(693px,79px)}71.429%{transform:translate(680px,79px)}72.078%{transform:translate(680px,66px)}72.727%{transform:translate(680px,53px)}73.377%{transform:translate(680px,40px)}74.026%{transform:translate(693px,40px)}74.675%{transform:translate(693px,27px)}75.325%{transform:translate(693px,14px)}75.974%{transform:translate(680px,14px)}76.623%{transform:translate(680px,27px)}77.273%{transform:translate(667px,27px)}77.922%{transform:translate(667px,14px)}78.571%{transform:translate(654px,14px)}79.221%{transform:translate(641px,14px)}79.87%{transform:translate(641px,27px)}80.519%{transform:translate(628px,27px)}81.169%{transform:translate(615px,27px)}81.818%{transform:translate(602px,27px)}82.468%{transform:translate(589px,27px)}83.117%{transform:translate(589px,14px)}83.766%{transform:translate(602px,14px)}84.416%{transform:translate(615px,14px)}85.065%{transform:translate(628px,14px)}85.714%{transform:translate(641px,14px)}86.364%{transform:translate(654px,14px)}87.013%{transform:translate(654px,27px)}87.662%{transform:translate(654px,40px)}88.312%{transform:translate(641px,40px)}88.961%{transform:translate(641px,53px)}89.61%{transform:translate(641px,66px)}90.26%{transform:translate(641px,79px)}90.909%{transform:translate(628px,79px)}91.558%{transform:translate(628px,92px)}92.208%{transform:translate(641px,92px)}92.857%{transform:translate(654px,92px)}93.506%{transform:translate(667px,92px)}94.156%{transform:translate(680px,92px)}94.805%{transform:translate(693px,92px)}95.455%{transform:translate(706px,92px)}96.104%{transform:translate(719px,92px)}96.753%{transform:translate(732px,92px)}97.403%{transform:translate(745px,92px)}98.052%{transform:translate(758px,92px)}98.701%{transform:translate(771px,92px)}99.351%{transform:translate(784px,92px)}100%{transform:translate(797px,92px)}}@keyframes e42_5{0%,50.649%{fill:#a7e8d8;opacity:1}51.169%,100%{fill:#8b95a1;opacity:.2}}@keyframes e42_6{0%,50%{fill:#5fcdb5;opacity:1}50.519%,100%{fill:#8b95a1;opacity:.2}}@keyframes e43_0{0%,83.117%{fill:#1f7a6b;opacity:1}83.636%,100%{fill:#8b95a1;opacity:.2}}@keyframes e43_1{0%,82.468%{fill:#35a08e;opacity:1}82.987%,100%{fill:#8b95a1;opacity:.2}}@keyframes e43_3{0%,42.208%{fill:#35a08e;opacity:1}42.727%,100%{fill:#8b95a1;opacity:.2}}@keyframes e44_0{0%,83.766%{fill:#a7e8d8;opacity:1}84.286%,100%{fill:#8b95a1;opacity:.2}}@keyframes e44_1{0%,54.545%{fill:#5fcdb5;opacity:1}55.065%,100%{fill:#8b95a1;opacity:.2}}@keyframes e44_2{0%,53.896%{fill:#a7e8d8;opacity:1}54.416%,100%{fill:#8b95a1;opacity:.2}}@keyframes e44_3{0%,42.857%{fill:#5fcdb5;opacity:1}43.377%,100%{fill:#8b95a1;opacity:.2}}@keyframes e44_4{0%,44.805%{fill:#a7e8d8;opacity:1}45.325%,100%{fill:#8b95a1;opacity:.2}}@keyframes e45_1{0%,55.195%{fill:#a7e8d8;opacity:1}55.714%,100%{fill:#8b95a1;opacity:.2}}@keyframes e45_2{0%,55.844%{fill:#a7e8d8;opacity:1}56.364%,100%{fill:#8b95a1;opacity:.2}}@keyframes e47_0{0%,79.221%{fill:#a7e8d8;opacity:1}79.74%,100%{fill:#8b95a1;opacity:.2}}@keyframes e47_1{0%,79.87%{fill:#35a08e;opacity:1}80.39%,100%{fill:#8b95a1;opacity:.2}}@keyframes e47_2{0%,57.143%{fill:#5fcdb5;opacity:1}57.662%,100%{fill:#8b95a1;opacity:.2}}@keyframes e47_3{0%,57.792%{fill:#1f7a6b;opacity:1}58.312%,100%{fill:#8b95a1;opacity:.2}}@keyframes e47_4{0%,58.442%{fill:#5fcdb5;opacity:1}58.961%,100%{fill:#8b95a1;opacity:.2}}@keyframes e47_5{0%,90.26%{fill:#5fcdb5;opacity:1}90.779%,100%{fill:#8b95a1;opacity:.2}}@keyframes e47_6{0%,92.208%{fill:#1f7a6b;opacity:1}92.727%,100%{fill:#8b95a1;opacity:.2}}@keyframes e48_0{0%,78.571%{fill:#1f7a6b;opacity:1}79.091%,100%{fill:#8b95a1;opacity:.2}}@keyframes e48_1{0%,64.935%{fill:#1f7a6b;opacity:1}65.455%,100%{fill:#8b95a1;opacity:.2}}@keyframes e48_2{0%,65.584%{fill:#35a08e;opacity:1}66.104%,100%{fill:#8b95a1;opacity:.2}}@keyframes e48_3{0%,66.234%{fill:#35a08e;opacity:1}66.753%,100%{fill:#8b95a1;opacity:.2}}@keyframes e48_4{0%,59.091%{fill:#1f7a6b;opacity:1}59.61%,100%{fill:#8b95a1;opacity:.2}}@keyframes e48_5{0%,67.532%{fill:#1f7a6b;opacity:1}68.052%,100%{fill:#8b95a1;opacity:.2}}@keyframes e48_6{0%,92.857%{fill:#a7e8d8;opacity:1}93.377%,100%{fill:#8b95a1;opacity:.2}}@keyframes e49_0{0%,77.922%{fill:#1f7a6b;opacity:1}78.442%,100%{fill:#8b95a1;opacity:.2}}@keyframes e49_1{0%,64.286%{fill:#1f7a6b;opacity:1}64.805%,100%{fill:#8b95a1;opacity:.2}}@keyframes e49_2{0%,63.636%{fill:#1f7a6b;opacity:1}64.156%,100%{fill:#8b95a1;opacity:.2}}@keyframes e49_3{0%,60.39%{fill:#35a08e;opacity:1}60.909%,100%{fill:#8b95a1;opacity:.2}}@keyframes e49_4{0%,59.74%{fill:#1f7a6b;opacity:1}60.26%,100%{fill:#8b95a1;opacity:.2}}@keyframes e49_5{0%,68.182%{fill:#a7e8d8;opacity:1}68.701%,100%{fill:#8b95a1;opacity:.2}}@keyframes e49_6{0%,68.831%{fill:#35a08e;opacity:1}69.351%,100%{fill:#8b95a1;opacity:.2}}@keyframes e50_0{0%,75.974%{fill:#5fcdb5;opacity:1}76.494%,100%{fill:#8b95a1;opacity:.2}}@keyframes e50_1{0%,76.623%{fill:#35a08e;opacity:1}77.143%,100%{fill:#8b95a1;opacity:.2}}@keyframes e50_2{0%,62.987%{fill:#35a08e;opacity:1}63.506%,100%{fill:#8b95a1;opacity:.2}}@keyframes e50_3{0%,61.039%{fill:#5fcdb5;opacity:1}61.558%,100%{fill:#8b95a1;opacity:.2}}@keyframes e50_4{0%,72.078%{fill:#35a08e;opacity:1}72.597%,100%{fill:#8b95a1;opacity:.2}}@keyframes e50_5{0%,71.429%{fill:#a7e8d8;opacity:1}71.948%,100%{fill:#8b95a1;opacity:.2}}@keyframes e50_6{0%,69.481%{fill:#35a08e;opacity:1}70%,100%{fill:#8b95a1;opacity:.2}}@keyframes e51_0{0%,75.325%{fill:#5fcdb5;opacity:1}75.844%,100%{fill:#8b95a1;opacity:.2}}@keyframes e51_1{0%,74.675%{fill:#5fcdb5;opacity:1}75.195%,100%{fill:#8b95a1;opacity:.2}}@keyframes e51_2{0%,62.338%{fill:#5fcdb5;opacity:1}62.857%,100%{fill:#8b95a1;opacity:.2}}@keyframes e51_3{0%,61.688%{fill:#a7e8d8;opacity:1}62.208%,100%{fill:#8b95a1;opacity:.2}}@keyframes g5{0%,42.857%{opacity:0}43.182%,100%{opacity:0.845}}@keyframes g4{0%,42.208%{opacity:0}42.532%,100%{opacity:0.86}}@media(prefers-reduced-motion:reduce){.sg{display:none}.c{animation:none}}</style>
<rect x="30" y="14" width="11" height="11" rx="2.5" fill="#8b95a1" opacity="0.20"/>
<rect x="30" y="27" width="11" height="11" rx="2.5" fill="#8b95a1" opacity="0.20"/>
<rect x="30" y="40" width="11" height="11" rx="2.5" fill="#8b95a1" opacity="0.20"/>
<rect x="30" y="53" width="11" height="11" rx="2.5" fill="#8b95a1" opacity="0.20"/>
<rect x="30" y="66" width="11" height="11" rx="2.5" fill="#8b95a1" opacity="0.20"/>
<rect x="30" y="79" width="11" height="11" rx="2.5" fill="#8b95a1" opacity="0.20"/>
<rect x="30" y="92" width="11" height="11" rx="2.5" fill="#8b95a1" opacity="0.20"/>
<rect x="43" y="14" width="11" height="11" rx="2.5" fill="#8b95a1" opacity="0.20"/>
<rect x="43" y="27" width="11" height="11" rx="2.5" fill="#8b95a1" opacity="0.20"/>
<rect x="43" y="40" width="11" height="11" rx="2.5" fill="#8b95a1" opacity="0.20"/>
<rect x="43" y="53" width="11" height="11" rx="2.5" fill="#8b95a1" opacity="0.20"/>
<rect x="43" y="66" width="11" height="11" rx="2.5" fill="#8b95a1" opacity="0.20"/>
<rect x="43" y="79" width="11" height="11" rx="2.5" fill="#8b95a1" opacity="0.20"/>
<rect x="43" y="92" width="11" height="11" rx="2.5" fill="#8b95a1" opacity="0.20"/>
<rect x="56" y="14" width="11" height="11" rx="2.5" fill="#8b95a1" opacity="0.20"/>
<rect x="56" y="27" width="11" height="11" rx="2.5" fill="#8b95a1" opacity="0.20"/>
<rect x="56" y="40" width="11" height="11" rx="2.5" fill="#8b95a1" opacity="0.20"/>
<rect x="56" y="53" width="11" height="11" rx="2.5" fill="#8b95a1" opacity="0.20"/>
<rect x="56" y="66" width="11" height="11" rx="2.5" fill="#8b95a1" opacity="0.20"/>
<rect x="56" y="79" width="11" height="11" rx="2.5" fill="#8b95a1" opacity="0.20"/>
<rect x="56" y="92" width="11" height="11" rx="2.5" fill="#8b95a1" opacity="0.20"/>
<rect x="69" y="14" width="11" height="11" rx="2.5" fill="#8b95a1" opacity="0.20"/>
<rect x="69" y="27" width="11" height="11" rx="2.5" fill="#8b95a1" opacity="0.20"/>
<rect x="69" y="40" width="11" height="11" rx="2.5" fill="#8b95a1" opacity="0.20"/>
<rect x="69" y="53" width="11" height="11" rx="2.5" fill="#8b95a1" opacity="0.20"/>
<rect x="69" y="66" width="11" height="11" rx="2.5" fill="#8b95a1" opacity="0.20"/>
<rect x="69" y="79" width="11" height="11" rx="2.5" fill="#8b95a1" opacity="0.20"/>
<rect x="69" y="92" width="11" height="11" rx="2.5" fill="#8b95a1" opacity="0.20"/>
<rect x="82" y="14" width="11" height="11" rx="2.5" fill="#8b95a1" opacity="0.20"/>
<rect x="82" y="27" width="11" height="11" rx="2.5" fill="#8b95a1" opacity="0.20"/>
<rect x="82" y="40" width="11" height="11" rx="2.5" fill="#8b95a1" opacity="0.20"/>
<rect x="82" y="53" width="11" height="11" rx="2.5" fill="#8b95a1" opacity="0.20"/>
<rect x="82" y="66" width="11" height="11" rx="2.5" fill="#8b95a1" opacity="0.20"/>
<rect x="82" y="79" width="11" height="11" rx="2.5" fill="#8b95a1" opacity="0.20"/>
<rect x="82" y="92" width="11" height="11" rx="2.5" fill="#8b95a1" opacity="0.20"/>
<rect x="95" y="14" width="11" height="11" rx="2.5" fill="#8b95a1" opacity="0.20"/>
<rect x="95" y="27" width="11" height="11" rx="2.5" fill="#8b95a1" opacity="0.20"/>
<rect x="95" y="40" width="11" height="11" rx="2.5" fill="#8b95a1" opacity="0.20"/>
<rect x="95" y="53" width="11" height="11" rx="2.5" fill="#8b95a1" opacity="0.20"/>
<rect x="95" y="66" width="11" height="11" rx="2.5" fill="#8b95a1" opacity="0.20"/>
<rect x="95" y="79" width="11" height="11" rx="2.5" fill="#8b95a1" opacity="0.20"/>
<rect x="95" y="92" width="11" height="11" rx="2.5" fill="#8b95a1" opacity="0.20"/>
<rect x="108" y="14" width="11" height="11" rx="2.5" fill="#8b95a1" opacity="0.20"/>
<rect x="108" y="27" width="11" height="11" rx="2.5" fill="#8b95a1" opacity="0.20"/>
<rect x="108" y="40" width="11" height="11" rx="2.5" fill="#8b95a1" opacity="0.20"/>
<rect x="108" y="53" width="11" height="11" rx="2.5" fill="#8b95a1" opacity="0.20"/>
<rect x="108" y="66" width="11" height="11" rx="2.5" fill="#8b95a1" opacity="0.20"/>
<rect x="108" y="79" width="11" height="11" rx="2.5" fill="#8b95a1" opacity="0.20"/>
<rect x="108" y="92" width="11" height="11" rx="2.5" fill="#8b95a1" opacity="0.20"/>
<rect x="121" y="14" width="11" height="11" rx="2.5" fill="#8b95a1" opacity="0.20"/>
<rect x="121" y="27" width="11" height="11" rx="2.5" fill="#8b95a1" opacity="0.20"/>
<rect x="121" y="40" width="11" height="11" rx="2.5" fill="#8b95a1" opacity="0.20"/>
<rect x="121" y="53" width="11" height="11" rx="2.5" fill="#8b95a1" opacity="0.20"/>
<rect x="121" y="66" width="11" height="11" rx="2.5" fill="#8b95a1" opacity="0.20"/>
<rect x="121" y="79" width="11" height="11" rx="2.5" fill="#8b95a1" opacity="0.20"/>
<rect x="121" y="92" width="11" height="11" rx="2.5" fill="#8b95a1" opacity="0.20"/>
<rect x="134" y="14" width="11" height="11" rx="2.5" fill="#8b95a1" opacity="0.20"/>
<rect x="134" y="27" width="11" height="11" rx="2.5" fill="#8b95a1" opacity="0.20"/>
<rect x="134" y="40" width="11" height="11" rx="2.5" fill="#8b95a1" opacity="0.20"/>
<rect x="134" y="53" width="11" height="11" rx="2.5" fill="#8b95a1" opacity="0.20"/>
<rect x="134" y="66" width="11" height="11" rx="2.5" fill="#8b95a1" opacity="0.20"/>
<rect x="134" y="79" width="11" height="11" rx="2.5" fill="#8b95a1" opacity="0.20"/>
<rect x="134" y="92" width="11" height="11" rx="2.5" fill="#8b95a1" opacity="0.20"/>
<rect x="147" y="14" width="11" height="11" rx="2.5" fill="#8b95a1" opacity="0.20"/>
<rect x="147" y="27" width="11" height="11" rx="2.5" fill="#8b95a1" opacity="0.20"/>
<rect x="147" y="40" width="11" height="11" rx="2.5" fill="#8b95a1" opacity="0.20"/>
<rect x="147" y="53" width="11" height="11" rx="2.5" fill="#8b95a1" opacity="0.20"/>
<rect x="147" y="66" width="11" height="11" rx="2.5" fill="#8b95a1" opacity="0.20"/>
<rect x="147" y="79" width="11" height="11" rx="2.5" fill="#8b95a1" opacity="0.20"/>
<rect x="147" y="92" width="11" height="11" rx="2.5" fill="#8b95a1" opacity="0.20"/>
<rect x="160" y="14" width="11" height="11" rx="2.5" fill="#8b95a1" opacity="0.20"/>
<rect x="160" y="27" width="11" height="11" rx="2.5" fill="#8b95a1" opacity="0.20"/>
<rect x="160" y="40" width="11" height="11" rx="2.5" fill="#8b95a1" opacity="0.20"/>
<rect x="160" y="53" width="11" height="11" rx="2.5" fill="#8b95a1" opacity="0.20"/>
<rect x="160" y="66" width="11" height="11" rx="2.5" fill="#8b95a1" opacity="0.20"/>
<rect x="160" y="79" width="11" height="11" rx="2.5" fill="#8b95a1" opacity="0.20"/>
<rect x="160" y="92" width="11" height="11" rx="2.5" fill="#8b95a1" opacity="0.20"/>
<rect x="173" y="14" width="11" height="11" rx="2.5" fill="#8b95a1" opacity="0.20"/>
<rect x="173" y="27" width="11" height="11" rx="2.5" fill="#8b95a1" opacity="0.20"/>
<rect x="173" y="40" width="11" height="11" rx="2.5" fill="#8b95a1" opacity="0.20"/>
<rect x="173" y="53" width="11" height="11" rx="2.5" fill="#8b95a1" opacity="0.20"/>
<rect x="173" y="66" width="11" height="11" rx="2.5" fill="#8b95a1" opacity="0.20"/>
<rect x="173" y="79" width="11" height="11" rx="2.5" fill="#8b95a1" opacity="0.20"/>
<rect x="173" y="92" width="11" height="11" rx="2.5" fill="#8b95a1" opacity="0.20"/>
<rect x="186" y="14" width="11" height="11" rx="2.5" fill="#8b95a1" opacity="0.20"/>
<rect x="186" y="27" width="11" height="11" rx="2.5" fill="#8b95a1" opacity="0.20"/>
<rect x="186" y="40" width="11" height="11" rx="2.5" fill="#8b95a1" opacity="0.20"/>
<rect x="186" y="53" width="11" height="11" rx="2.5" fill="#8b95a1" opacity="0.20"/>
<rect x="186" y="66" width="11" height="11" rx="2.5" fill="#8b95a1" opacity="0.20"/>
<rect x="186" y="79" width="11" height="11" rx="2.5" fill="#8b95a1" opacity="0.20"/>
<rect x="186" y="92" width="11" height="11" rx="2.5" fill="#8b95a1" opacity="0.20"/>
<rect x="199" y="14" width="11" height="11" rx="2.5" fill="#8b95a1" opacity="0.20"/>
<rect x="199" y="27" width="11" height="11" rx="2.5" fill="#8b95a1" opacity="0.20"/>
<rect x="199" y="40" width="11" height="11" rx="2.5" fill="#8b95a1" opacity="0.20"/>
<rect x="199" y="53" width="11" height="11" rx="2.5" fill="#8b95a1" opacity="0.20"/>
<rect x="199" y="66" width="11" height="11" rx="2.5" fill="#8b95a1" opacity="0.20"/>
<rect x="199" y="79" width="11" height="11" rx="2.5" fill="#8b95a1" opacity="0.20"/>
<rect x="199" y="92" width="11" height="11" rx="2.5" fill="#8b95a1" opacity="0.20"/>
<rect x="212" y="14" width="11" height="11" rx="2.5" fill="#8b95a1" opacity="0.20"/>
<rect x="212" y="27" width="11" height="11" rx="2.5" fill="#8b95a1" opacity="0.20"/>
<rect x="212" y="40" width="11" height="11" rx="2.5" fill="#8b95a1" opacity="0.20"/>
<rect x="212" y="53" width="11" height="11" rx="2.5" fill="#8b95a1" opacity="0.20"/>
<rect x="212" y="66" width="11" height="11" rx="2.5" fill="#8b95a1" opacity="0.20"/>
<rect x="212" y="79" width="11" height="11" rx="2.5" fill="#8b95a1" opacity="0.20"/>
<rect x="212" y="92" width="11" height="11" rx="2.5" fill="#8b95a1" opacity="0.20"/>
<rect x="225" y="14" width="11" height="11" rx="2.5" fill="#8b95a1" opacity="0.20"/>
<rect x="225" y="27" width="11" height="11" rx="2.5" fill="#8b95a1" opacity="0.20"/>
<rect x="225" y="40" width="11" height="11" rx="2.5" fill="#8b95a1" opacity="0.20"/>
<rect x="225" y="53" width="11" height="11" rx="2.5" fill="#8b95a1" opacity="0.20"/>
<rect x="225" y="66" width="11" height="11" rx="2.5" fill="#8b95a1" opacity="0.20"/>
<rect x="225" y="79" width="11" height="11" rx="2.5" fill="#8b95a1" opacity="0.20"/>
<rect x="225" y="92" width="11" height="11" rx="2.5" fill="#8b95a1" opacity="0.20"/>
<rect x="238" y="14" width="11" height="11" rx="2.5" fill="#8b95a1" opacity="0.20"/>
<rect x="238" y="27" width="11" height="11" rx="2.5" fill="#8b95a1" opacity="0.20"/>
<rect x="238" y="40" width="11" height="11" rx="2.5" fill="#8b95a1" opacity="0.20"/>
<rect x="238" y="53" width="11" height="11" rx="2.5" fill="#8b95a1" opacity="0.20"/>
<rect x="238" y="66" width="11" height="11" rx="2.5" fill="#8b95a1" opacity="0.20"/>
<rect x="238" y="79" width="11" height="11" rx="2.5" fill="#8b95a1" opacity="0.20"/>
<rect x="238" y="92" width="11" height="11" rx="2.5" fill="#8b95a1" opacity="0.20"/>
<rect x="251" y="14" width="11" height="11" rx="2.5" fill="#8b95a1" opacity="0.20"/>
<rect x="251" y="27" width="11" height="11" rx="2.5" fill="#8b95a1" opacity="0.20"/>
<rect x="251" y="40" width="11" height="11" rx="2.5" fill="#8b95a1" opacity="0.20"/>
<rect x="251" y="53" width="11" height="11" rx="2.5" fill="#8b95a1" opacity="0.20"/>
<rect x="251" y="66" width="11" height="11" rx="2.5" fill="#8b95a1" opacity="0.20"/>
<rect x="251" y="79" width="11" height="11" rx="2.5" fill="#8b95a1" opacity="0.20"/>
<rect x="251" y="92" width="11" height="11" rx="2.5" fill="#8b95a1" opacity="0.20"/>
<rect x="264" y="14" width="11" height="11" rx="2.5" fill="#8b95a1" opacity="0.20"/>
<rect x="264" y="27" width="11" height="11" rx="2.5" fill="#8b95a1" opacity="0.20"/>
<rect x="264" y="40" width="11" height="11" rx="2.5" fill="#8b95a1" opacity="0.20"/>
<rect x="264" y="53" width="11" height="11" rx="2.5" fill="#8b95a1" opacity="0.20"/>
<rect x="264" y="66" width="11" height="11" rx="2.5" fill="#8b95a1" opacity="0.20"/>
<rect x="264" y="79" width="11" height="11" rx="2.5" fill="#8b95a1" opacity="0.20"/>
<rect x="264" y="92" width="11" height="11" rx="2.5" fill="#8b95a1" opacity="0.20"/>
<rect x="277" y="14" width="11" height="11" rx="2.5" fill="#8b95a1" opacity="0.20"/>
<rect x="277" y="27" width="11" height="11" rx="2.5" fill="#8b95a1" opacity="0.20"/>
<rect x="277" y="40" width="11" height="11" rx="2.5" fill="#8b95a1" opacity="0.20"/>
<rect x="277" y="53" width="11" height="11" rx="2.5" fill="#8b95a1" opacity="0.20"/>
<rect x="277" y="66" width="11" height="11" rx="2.5" fill="#8b95a1" opacity="0.20"/>
<rect x="277" y="79" width="11" height="11" rx="2.5" fill="#8b95a1" opacity="0.20"/>
<rect x="277" y="92" width="11" height="11" rx="2.5" fill="#8b95a1" opacity="0.20"/>
<rect x="290" y="14" width="11" height="11" rx="2.5" fill="#8b95a1" opacity="0.20"/>
<rect x="290" y="27" width="11" height="11" rx="2.5" fill="#8b95a1" opacity="0.20"/>
<rect x="290" y="40" width="11" height="11" rx="2.5" fill="#8b95a1" opacity="0.20"/>
<rect x="290" y="53" width="11" height="11" rx="2.5" fill="#8b95a1" opacity="0.20"/>
<rect x="290" y="66" width="11" height="11" rx="2.5" fill="#8b95a1" opacity="0.20"/>
<rect x="290" y="79" width="11" height="11" rx="2.5" fill="#8b95a1" opacity="0.20"/>
<rect x="290" y="92" width="11" height="11" rx="2.5" fill="#8b95a1" opacity="0.20"/>
<rect x="303" y="14" width="11" height="11" rx="2.5" fill="#8b95a1" opacity="0.20"/>
<rect x="303" y="27" width="11" height="11" rx="2.5" fill="#8b95a1" opacity="0.20"/>
<rect x="303" y="40" width="11" height="11" rx="2.5" fill="#8b95a1" opacity="0.20"/>
<rect x="303" y="53" width="11" height="11" rx="2.5" fill="#8b95a1" opacity="0.20"/>
<rect x="303" y="66" width="11" height="11" rx="2.5" fill="#8b95a1" opacity="0.20"/>
<rect x="303" y="79" width="11" height="11" rx="2.5" fill="#8b95a1" opacity="0.20"/>
<rect x="303" y="92" width="11" height="11" rx="2.5" fill="#8b95a1" opacity="0.20"/>
<rect x="316" y="14" width="11" height="11" rx="2.5" fill="#8b95a1" opacity="0.20"/>
<rect x="316" y="27" width="11" height="11" rx="2.5" fill="#8b95a1" opacity="0.20"/>
<rect x="316" y="40" width="11" height="11" rx="2.5" fill="#8b95a1" opacity="0.20"/>
<rect x="316" y="53" width="11" height="11" rx="2.5" fill="#8b95a1" opacity="0.20"/>
<rect x="316" y="66" width="11" height="11" rx="2.5" fill="#8b95a1" opacity="0.20"/>
<rect x="316" y="79" width="11" height="11" rx="2.5" fill="#8b95a1" opacity="0.20"/>
<rect x="316" y="92" width="11" height="11" rx="2.5" fill="#8b95a1" opacity="0.20"/>
<rect x="329" y="14" width="11" height="11" rx="2.5" fill="#8b95a1" opacity="0.20"/>
<rect x="329" y="27" width="11" height="11" rx="2.5" fill="#8b95a1" opacity="0.20"/>
<rect x="329" y="40" width="11" height="11" rx="2.5" fill="#8b95a1" opacity="0.20"/>
<rect x="329" y="53" width="11" height="11" rx="2.5" fill="#8b95a1" opacity="0.20"/>
<rect x="329" y="66" width="11" height="11" rx="2.5" fill="#8b95a1" opacity="0.20"/>
<rect x="329" y="79" width="11" height="11" rx="2.5" fill="#8b95a1" opacity="0.20"/>
<rect x="329" y="92" width="11" height="11" rx="2.5" fill="#8b95a1" opacity="0.20"/>
<rect x="342" y="14" width="11" height="11" rx="2.5" fill="#8b95a1" opacity="0.20"/>
<rect x="342" y="27" width="11" height="11" rx="2.5" fill="#8b95a1" opacity="0.20"/>
<rect x="342" y="40" width="11" height="11" rx="2.5" fill="#8b95a1" opacity="0.20"/>
<rect x="342" y="53" width="11" height="11" rx="2.5" fill="#8b95a1" opacity="0.20"/>
<rect x="342" y="66" width="11" height="11" rx="2.5" fill="#8b95a1" opacity="0.20"/>
<rect x="342" y="79" width="11" height="11" rx="2.5" fill="#8b95a1" opacity="0.20"/>
<rect x="342" y="92" width="11" height="11" rx="2.5" fill="#8b95a1" opacity="0.20"/>
<rect x="355" y="14" width="11" height="11" rx="2.5" fill="#8b95a1" opacity="0.20"/>
<rect x="355" y="27" width="11" height="11" rx="2.5" fill="#8b95a1" opacity="0.20"/>
<rect x="355" y="40" width="11" height="11" rx="2.5" fill="#8b95a1" opacity="0.20"/>
<rect x="355" y="53" width="11" height="11" rx="2.5" fill="#8b95a1" opacity="0.20"/>
<rect x="355" y="66" width="11" height="11" rx="2.5" fill="#8b95a1" opacity="0.20"/>
<rect x="355" y="79" width="11" height="11" rx="2.5" fill="#8b95a1" opacity="0.20"/>
<rect x="355" y="92" width="11" height="11" rx="2.5" fill="#8b95a1" opacity="0.20"/>
<rect x="368" y="14" width="11" height="11" rx="2.5" fill="#8b95a1" opacity="0.20"/>
<rect x="368" y="27" width="11" height="11" rx="2.5" fill="#8b95a1" opacity="0.20"/>
<rect x="368" y="40" width="11" height="11" rx="2.5" fill="#8b95a1" opacity="0.20"/>
<rect x="368" y="53" width="11" height="11" rx="2.5" fill="#8b95a1" opacity="0.20"/>
<rect x="368" y="66" width="11" height="11" rx="2.5" fill="#8b95a1" opacity="0.20"/>
<rect x="368" y="79" width="11" height="11" rx="2.5" fill="#8b95a1" opacity="0.20"/>
<rect x="368" y="92" width="11" height="11" rx="2.5" fill="#8b95a1" opacity="0.20"/>
<rect x="381" y="14" width="11" height="11" rx="2.5" fill="#8b95a1" opacity="0.20"/>
<rect x="381" y="27" width="11" height="11" rx="2.5" fill="#8b95a1" opacity="0.20"/>
<rect x="381" y="40" width="11" height="11" rx="2.5" fill="#8b95a1" opacity="0.20"/>
<rect x="381" y="53" width="11" height="11" rx="2.5" fill="#8b95a1" opacity="0.20"/>
<rect x="381" y="66" width="11" height="11" rx="2.5" fill="#8b95a1" opacity="0.20"/>
<rect x="381" y="79" width="11" height="11" rx="2.5" fill="#8b95a1" opacity="0.20"/>
<rect x="381" y="92" width="11" height="11" rx="2.5" fill="#8b95a1" opacity="0.20"/>
<rect x="394" y="14" width="11" height="11" rx="2.5" fill="#8b95a1" opacity="0.20"/>
<rect x="394" y="27" width="11" height="11" rx="2.5" fill="#8b95a1" opacity="0.20"/>
<rect x="394" y="40" width="11" height="11" rx="2.5" fill="#8b95a1" opacity="0.20"/>
<rect x="394" y="53" width="11" height="11" rx="2.5" fill="#8b95a1" opacity="0.20"/>
<rect x="394" y="66" width="11" height="11" rx="2.5" fill="#8b95a1" opacity="0.20"/>
<rect x="394" y="79" width="11" height="11" rx="2.5" fill="#8b95a1" opacity="0.20"/>
<rect x="394" y="92" width="11" height="11" rx="2.5" fill="#8b95a1" opacity="0.20"/>
<rect x="407" y="14" width="11" height="11" rx="2.5" fill="#8b95a1" opacity="0.20"/>
<rect x="407" y="27" width="11" height="11" rx="2.5" fill="#8b95a1" opacity="0.20"/>
<rect x="407" y="40" width="11" height="11" rx="2.5" fill="#8b95a1" opacity="0.20"/>
<rect x="407" y="53" width="11" height="11" rx="2.5" fill="#8b95a1" opacity="0.20"/>
<rect x="407" y="66" width="11" height="11" rx="2.5" fill="#8b95a1" opacity="0.20"/>
<rect x="407" y="79" width="11" height="11" rx="2.5" fill="#8b95a1" opacity="0.20"/>
<rect x="407" y="92" width="11" height="11" rx="2.5" fill="#8b95a1" opacity="0.20"/>
<rect x="420" y="14" width="11" height="11" rx="2.5" fill="#8b95a1" opacity="0.20"/>
<rect x="420" y="27" width="11" height="11" rx="2.5" fill="#8b95a1" opacity="0.20"/>
<rect x="420" y="40" width="11" height="11" rx="2.5" fill="#8b95a1" opacity="0.20"/>
<rect x="420" y="53" width="11" height="11" rx="2.5" fill="#8b95a1" opacity="0.20"/>
<rect x="420" y="66" width="11" height="11" rx="2.5" fill="#8b95a1" opacity="0.20"/>
<rect x="420" y="79" width="11" height="11" rx="2.5" fill="#8b95a1" opacity="0.20"/>
<rect x="420" y="92" width="11" height="11" rx="2.5" fill="#8b95a1" opacity="0.20"/>
<rect x="433" y="14" width="11" height="11" rx="2.5" fill="#8b95a1" opacity="0.20"/>
<rect x="433" y="27" width="11" height="11" rx="2.5" fill="#8b95a1" opacity="0.20"/>
<rect x="433" y="40" width="11" height="11" rx="2.5" fill="#8b95a1" opacity="0.20"/>
<rect x="433" y="53" width="11" height="11" rx="2.5" fill="#8b95a1" opacity="0.20"/>
<rect x="433" y="66" width="11" height="11" rx="2.5" fill="#8b95a1" opacity="0.20"/>
<rect x="433" y="79" width="11" height="11" rx="2.5" fill="#8b95a1" opacity="0.20"/>
<rect x="433" y="92" width="11" height="11" rx="2.5" fill="#8b95a1" opacity="0.20"/>
<rect x="446" y="14" width="11" height="11" rx="2.5" fill="#8b95a1" opacity="0.20"/>
<rect x="446" y="27" width="11" height="11" rx="2.5" fill="#8b95a1" opacity="0.20"/>
<rect x="446" y="40" width="11" height="11" rx="2.5" fill="#8b95a1" opacity="0.20"/>
<rect x="446" y="53" width="11" height="11" rx="2.5" fill="#8b95a1" opacity="0.20"/>
<rect x="446" y="66" width="11" height="11" rx="2.5" fill="#8b95a1" opacity="0.20"/>
<rect x="446" y="79" width="11" height="11" rx="2.5" fill="#8b95a1" opacity="0.20"/>
<rect x="446" y="92" width="11" height="11" rx="2.5" fill="#8b95a1" opacity="0.20"/>
<rect x="459" y="14" width="11" height="11" rx="2.5" fill="#8b95a1" opacity="0.20"/>
<rect x="459" y="27" width="11" height="11" rx="2.5" fill="#8b95a1" opacity="0.20"/>
<rect x="459" y="40" width="11" height="11" rx="2.5" fill="#8b95a1" opacity="0.20"/>
<rect x="459" y="53" width="11" height="11" rx="2.5" fill="#8b95a1" opacity="0.20"/>
<rect x="459" y="66" width="11" height="11" rx="2.5" fill="#8b95a1" opacity="0.20"/>
<rect x="459" y="79" width="11" height="11" rx="2.5" fill="#8b95a1" opacity="0.20"/>
<rect x="459" y="92" width="11" height="11" rx="2.5" fill="#8b95a1" opacity="0.20"/>
<rect x="472" y="14" width="11" height="11" rx="2.5" fill="#8b95a1" opacity="0.20"/>
<rect x="472" y="27" width="11" height="11" rx="2.5" fill="#8b95a1" opacity="0.20"/>
<rect x="472" y="40" width="11" height="11" rx="2.5" fill="#8b95a1" opacity="0.20"/>
<rect x="472" y="53" width="11" height="11" rx="2.5" fill="#8b95a1" opacity="0.20"/>
<rect x="472" y="66" width="11" height="11" rx="2.5" fill="#8b95a1" opacity="0.20"/>
<rect x="472" y="79" width="11" height="11" rx="2.5" fill="#8b95a1" opacity="0.20"/>
<rect x="472" y="92" width="11" height="11" rx="2.5" fill="#8b95a1" opacity="0.20"/>
<rect x="485" y="14" width="11" height="11" rx="2.5" fill="#8b95a1" opacity="0.20"/>
<rect x="485" y="27" width="11" height="11" rx="2.5" fill="#8b95a1" opacity="0.20"/>
<rect x="485" y="40" width="11" height="11" rx="2.5" fill="#8b95a1" opacity="0.20"/>
<rect x="485" y="53" width="11" height="11" rx="2.5" fill="#8b95a1" opacity="0.20"/>
<rect x="485" y="66" width="11" height="11" rx="2.5" fill="#8b95a1" opacity="0.20"/>
<rect x="485" y="79" width="11" height="11" rx="2.5" fill="#8b95a1" opacity="0.20"/>
<rect x="485" y="92" width="11" height="11" rx="2.5" fill="#8b95a1" opacity="0.20"/>
<rect x="498" y="14" width="11" height="11" rx="2.5" fill="#8b95a1" opacity="0.20"/>
<rect x="498" y="27" width="11" height="11" rx="2.5" fill="#8b95a1" opacity="0.20"/>
<rect x="498" y="40" width="11" height="11" rx="2.5" fill="#8b95a1" opacity="0.20"/>
<rect x="498" y="53" width="11" height="11" rx="2.5" fill="#8b95a1" opacity="0.20"/>
<rect x="498" y="66" width="11" height="11" rx="2.5" fill="#8b95a1" opacity="0.20"/>
<rect x="498" y="79" width="11" height="11" rx="2.5" fill="#8b95a1" opacity="0.20"/>
<rect x="498" y="92" width="11" height="11" rx="2.5" fill="#8b95a1" opacity="0.20"/>
<rect x="511" y="14" width="11" height="11" rx="2.5" fill="#8b95a1" opacity="0.20"/>
<rect x="511" y="27" width="11" height="11" rx="2.5" fill="#8b95a1" opacity="0.20"/>
<rect x="511" y="40" width="11" height="11" rx="2.5" fill="#8b95a1" opacity="0.20"/>
<rect x="511" y="53" width="11" height="11" rx="2.5" fill="#8b95a1" opacity="0.20"/>
<rect x="511" y="66" width="11" height="11" rx="2.5" fill="#8b95a1" opacity="0.20"/>
<rect x="511" y="79" width="11" height="11" rx="2.5" fill="#8b95a1" opacity="0.20"/>
<rect x="511" y="92" width="11" height="11" rx="2.5" fill="#8b95a1" opacity="0.20"/>
<rect x="524" y="14" width="11" height="11" rx="2.5" fill="#8b95a1" opacity="0.20"/>
<rect x="524" y="27" width="11" height="11" rx="2.5" fill="#8b95a1" opacity="0.20"/>
<rect x="524" y="40" width="11" height="11" rx="2.5" fill="#8b95a1" opacity="0.20"/>
<rect x="524" y="53" width="11" height="11" rx="2.5" fill="#8b95a1" opacity="0.20"/>
<rect x="524" y="66" width="11" height="11" rx="2.5" fill="#8b95a1" opacity="0.20"/>
<rect x="524" y="79" width="11" height="11" rx="2.5" fill="#8b95a1" opacity="0.20"/>
<rect x="524" y="92" width="11" height="11" rx="2.5" fill="#8b95a1" opacity="0.20"/>
<rect x="537" y="14" width="11" height="11" rx="2.5" fill="#8b95a1" opacity="0.20"/>
<rect x="537" y="27" width="11" height="11" rx="2.5" fill="#8b95a1" opacity="0.20"/>
<rect x="537" y="40" width="11" height="11" rx="2.5" fill="#8b95a1" opacity="0.20"/>
<rect x="537" y="53" width="11" height="11" rx="2.5" fill="#8b95a1" opacity="0.20"/>
<rect x="537" y="66" width="11" height="11" rx="2.5" fill="#8b95a1" opacity="0.20"/>
<rect x="537" y="79" width="11" height="11" rx="2.5" fill="#8b95a1" opacity="0.20"/>
<rect x="537" y="92" width="11" height="11" rx="2.5" fill="#8b95a1" opacity="0.20"/>
<rect x="550" y="14" width="11" height="11" rx="2.5" fill="#8b95a1" opacity="0.20"/>
<rect x="550" y="27" width="11" height="11" rx="2.5" fill="#8b95a1" opacity="0.20"/>
<rect x="550" y="40" width="11" height="11" rx="2.5" fill="#8b95a1" opacity="0.20"/>
<rect x="550" y="53" width="11" height="11" rx="2.5" fill="#8b95a1" opacity="0.20"/>
<rect x="550" y="66" width="11" height="11" rx="2.5" fill="#8b95a1" opacity="0.20"/>
<rect x="550" y="79" width="11" height="11" rx="2.5" fill="#8b95a1" opacity="0.20"/>
<rect x="550" y="92" width="11" height="11" rx="2.5" fill="#8b95a1" opacity="0.20"/>
<rect x="563" y="14" width="11" height="11" rx="2.5" fill="#8b95a1" opacity="0.20"/>
<rect x="563" y="27" width="11" height="11" rx="2.5" fill="#8b95a1" opacity="0.20"/>
<rect x="563" y="40" width="11" height="11" rx="2.5" fill="#8b95a1" opacity="0.20"/>
<rect x="563" y="53" width="11" height="11" rx="2.5" fill="#8b95a1" opacity="0.20"/>
<rect x="563" y="66" width="11" height="11" rx="2.5" fill="#8b95a1" opacity="0.20"/>
<rect x="563" y="79" width="11" height="11" rx="2.5" fill="#8b95a1" opacity="0.20"/>
<rect x="563" y="92" width="11" height="11" rx="2.5" fill="#8b95a1" opacity="0.20"/>
<rect x="576" y="14" width="11" height="11" rx="2.5" fill="#8b95a1" opacity="0.20"/>
<rect x="576" y="27" width="11" height="11" rx="2.5" fill="#8b95a1" opacity="0.20"/>
<rect x="576" y="40" width="11" height="11" rx="2.5" fill="#8b95a1" opacity="0.20"/>
<rect x="576" y="53" width="11" height="11" rx="2.5" fill="#8b95a1" opacity="0.20"/>
<rect x="576" y="66" width="11" height="11" rx="2.5" fill="#8b95a1" opacity="0.20"/>
<rect x="576" y="79" width="11" height="11" rx="2.5" fill="#a7e8d8" class="c" style="animation-name:e42_5"/>
<rect x="576" y="92" width="11" height="11" rx="2.5" fill="#5fcdb5" class="c" style="animation-name:e42_6"/>
<rect x="589" y="14" width="11" height="11" rx="2.5" fill="#1f7a6b" class="c" style="animation-name:e43_0"/>
<rect x="589" y="27" width="11" height="11" rx="2.5" fill="#35a08e" class="c" style="animation-name:e43_1"/>
<rect x="589" y="40" width="11" height="11" rx="2.5" fill="#8b95a1" opacity="0.20"/>
<rect x="589" y="53" width="11" height="11" rx="2.5" fill="#35a08e" class="c" style="animation-name:e43_3"/>
<rect x="589" y="66" width="11" height="11" rx="2.5" fill="#8b95a1" opacity="0.20"/>
<rect x="589" y="79" width="11" height="11" rx="2.5" fill="#8b95a1" opacity="0.20"/>
<rect x="589" y="92" width="11" height="11" rx="2.5" fill="#8b95a1" opacity="0.20"/>
<rect x="602" y="14" width="11" height="11" rx="2.5" fill="#a7e8d8" class="c" style="animation-name:e44_0"/>
<rect x="602" y="27" width="11" height="11" rx="2.5" fill="#5fcdb5" class="c" style="animation-name:e44_1"/>
<rect x="602" y="40" width="11" height="11" rx="2.5" fill="#a7e8d8" class="c" style="animation-name:e44_2"/>
<rect x="602" y="53" width="11" height="11" rx="2.5" fill="#5fcdb5" class="c" style="animation-name:e44_3"/>
<rect x="602" y="66" width="11" height="11" rx="2.5" fill="#a7e8d8" class="c" style="animation-name:e44_4"/>
<rect x="602" y="79" width="11" height="11" rx="2.5" fill="#8b95a1" opacity="0.20"/>
<rect x="602" y="92" width="11" height="11" rx="2.5" fill="#8b95a1" opacity="0.20"/>
<rect x="615" y="14" width="11" height="11" rx="2.5" fill="#8b95a1" opacity="0.20"/>
<rect x="615" y="27" width="11" height="11" rx="2.5" fill="#a7e8d8" class="c" style="animation-name:e45_1"/>
<rect x="615" y="40" width="11" height="11" rx="2.5" fill="#a7e8d8" class="c" style="animation-name:e45_2"/>
<rect x="615" y="53" width="11" height="11" rx="2.5" fill="#8b95a1" opacity="0.20"/>
<rect x="615" y="66" width="11" height="11" rx="2.5" fill="#8b95a1" opacity="0.20"/>
<rect x="615" y="79" width="11" height="11" rx="2.5" fill="#8b95a1" opacity="0.20"/>
<rect x="615" y="92" width="11" height="11" rx="2.5" fill="#8b95a1" opacity="0.20"/>
<rect x="628" y="14" width="11" height="11" rx="2.5" fill="#8b95a1" opacity="0.20"/>
<rect x="628" y="27" width="11" height="11" rx="2.5" fill="#8b95a1" opacity="0.20"/>
<rect x="628" y="40" width="11" height="11" rx="2.5" fill="#8b95a1" opacity="0.20"/>
<rect x="628" y="53" width="11" height="11" rx="2.5" fill="#8b95a1" opacity="0.20"/>
<rect x="628" y="66" width="11" height="11" rx="2.5" fill="#8b95a1" opacity="0.20"/>
<rect x="628" y="79" width="11" height="11" rx="2.5" fill="#8b95a1" opacity="0.20"/>
<rect x="628" y="92" width="11" height="11" rx="2.5" fill="#8b95a1" opacity="0.20"/>
<rect x="641" y="14" width="11" height="11" rx="2.5" fill="#a7e8d8" class="c" style="animation-name:e47_0"/>
<rect x="641" y="27" width="11" height="11" rx="2.5" fill="#35a08e" class="c" style="animation-name:e47_1"/>
<rect x="641" y="40" width="11" height="11" rx="2.5" fill="#5fcdb5" class="c" style="animation-name:e47_2"/>
<rect x="641" y="53" width="11" height="11" rx="2.5" fill="#1f7a6b" class="c" style="animation-name:e47_3"/>
<rect x="641" y="66" width="11" height="11" rx="2.5" fill="#5fcdb5" class="c" style="animation-name:e47_4"/>
<rect x="641" y="79" width="11" height="11" rx="2.5" fill="#5fcdb5" class="c" style="animation-name:e47_5"/>
<rect x="641" y="92" width="11" height="11" rx="2.5" fill="#1f7a6b" class="c" style="animation-name:e47_6"/>
<rect x="654" y="14" width="11" height="11" rx="2.5" fill="#1f7a6b" class="c" style="animation-name:e48_0"/>
<rect x="654" y="27" width="11" height="11" rx="2.5" fill="#1f7a6b" class="c" style="animation-name:e48_1"/>
<rect x="654" y="40" width="11" height="11" rx="2.5" fill="#35a08e" class="c" style="animation-name:e48_2"/>
<rect x="654" y="53" width="11" height="11" rx="2.5" fill="#35a08e" class="c" style="animation-name:e48_3"/>
<rect x="654" y="66" width="11" height="11" rx="2.5" fill="#1f7a6b" class="c" style="animation-name:e48_4"/>
<rect x="654" y="79" width="11" height="11" rx="2.5" fill="#1f7a6b" class="c" style="animation-name:e48_5"/>
<rect x="654" y="92" width="11" height="11" rx="2.5" fill="#a7e8d8" class="c" style="animation-name:e48_6"/>
<rect x="667" y="14" width="11" height="11" rx="2.5" fill="#1f7a6b" class="c" style="animation-name:e49_0"/>
<rect x="667" y="27" width="11" height="11" rx="2.5" fill="#1f7a6b" class="c" style="animation-name:e49_1"/>
<rect x="667" y="40" width="11" height="11" rx="2.5" fill="#1f7a6b" class="c" style="animation-name:e49_2"/>
<rect x="667" y="53" width="11" height="11" rx="2.5" fill="#35a08e" class="c" style="animation-name:e49_3"/>
<rect x="667" y="66" width="11" height="11" rx="2.5" fill="#1f7a6b" class="c" style="animation-name:e49_4"/>
<rect x="667" y="79" width="11" height="11" rx="2.5" fill="#a7e8d8" class="c" style="animation-name:e49_5"/>
<rect x="667" y="92" width="11" height="11" rx="2.5" fill="#35a08e" class="c" style="animation-name:e49_6"/>
<rect x="680" y="14" width="11" height="11" rx="2.5" fill="#5fcdb5" class="c" style="animation-name:e50_0"/>
<rect x="680" y="27" width="11" height="11" rx="2.5" fill="#35a08e" class="c" style="animation-name:e50_1"/>
<rect x="680" y="40" width="11" height="11" rx="2.5" fill="#35a08e" class="c" style="animation-name:e50_2"/>
<rect x="680" y="53" width="11" height="11" rx="2.5" fill="#5fcdb5" class="c" style="animation-name:e50_3"/>
<rect x="680" y="66" width="11" height="11" rx="2.5" fill="#35a08e" class="c" style="animation-name:e50_4"/>
<rect x="680" y="79" width="11" height="11" rx="2.5" fill="#a7e8d8" class="c" style="animation-name:e50_5"/>
<rect x="680" y="92" width="11" height="11" rx="2.5" fill="#35a08e" class="c" style="animation-name:e50_6"/>
<rect x="693" y="14" width="11" height="11" rx="2.5" fill="#5fcdb5" class="c" style="animation-name:e51_0"/>
<rect x="693" y="27" width="11" height="11" rx="2.5" fill="#5fcdb5" class="c" style="animation-name:e51_1"/>
<rect x="693" y="40" width="11" height="11" rx="2.5" fill="#5fcdb5" class="c" style="animation-name:e51_2"/>
<rect x="693" y="53" width="11" height="11" rx="2.5" fill="#a7e8d8" class="c" style="animation-name:e51_3"/>
<rect x="693" y="66" width="11" height="11" rx="2.5" fill="#8b95a1" opacity="0.20"/>
<rect x="693" y="79" width="11" height="11" rx="2.5" fill="#8b95a1" opacity="0.20"/>
<rect x="693" y="92" width="11" height="11" rx="2.5" fill="#8b95a1" opacity="0.20"/>
<text x="3" y="35.5" font-size="9" fill="#8b95a1">Пн</text>
<text x="3" y="61.5" font-size="9" fill="#8b95a1">Ср</text>
<text x="3" y="87.5" font-size="9" fill="#8b95a1">Пт</text>
<clipPath id="gclip"><rect x="30" y="14" width="674" height="89"/></clipPath>
<g clip-path="url(#gclip)">
<rect class="sg" style="animation-name:snk,g5;animation-delay:0.325s,0s" x="0" y="0" width="11" height="11" rx="3"/>
<rect class="sg" style="animation-name:snk,g4;animation-delay:0.260s,0s" x="0" y="0" width="11" height="11" rx="3"/>
<rect class="sg" style="animation-delay:0.195s;opacity:0.875" x="0" y="0" width="11" height="11" rx="3"/>
<rect class="sg" style="animation-delay:0.130s;opacity:0.89" x="0" y="0" width="11" height="11" rx="3"/>
<rect class="sg" style="animation-delay:0.065s;opacity:0.905" x="0" y="0" width="11" height="11" rx="3"/>
<rect class="sg" style="animation-delay:0.000s;opacity:1" x="0" y="0" width="11" height="11" rx="5.5"/>
</g>
</svg>
