<svg xmlns="http://www.w3.org/2000/svg" viewBox="0 0 710 109" role="img" aria-label="git-активность candycate-studio за год: змейка съедает клетки коммитов">
<title>git-активность candycate-studio</title>
<style>.c{animation-duration:10.44s;animation-timing-function:linear;animation-iteration-count:infinite}.sg{transform-box:view-box;transform-origin:0 0;fill:#d8285a;animation:snk 10.44s linear infinite}@keyframes snk{0%{transform:translate(-22px,53px)}0.575%{transform:translate(-9px,53px)}1.149%{transform:translate(4px,53px)}1.724%{transform:translate(17px,53px)}2.299%{transform:translate(30px,53px)}2.874%{transform:translate(30px,66px)}3.448%{transform:translate(43px,66px)}4.023%{transform:translate(56px,66px)}4.598%{transform:translate(56px,53px)}5.172%{transform:translate(69px,53px)}5.747%{transform:translate(82px,53px)}6.322%{transform:translate(95px,53px)}6.897%{transform:translate(95px,40px)}7.471%{transform:translate(108px,40px)}8.046%{transform:translate(121px,40px)}8.621%{transform:translate(134px,40px)}9.195%{transform:translate(134px,53px)}9.77%{transform:translate(147px,53px)}10.345%{transform:translate(147px,40px)}10.92%{transform:translate(160px,40px)}11.494%{transform:translate(173px,40px)}12.069%{transform:translate(173px,53px)}12.644%{transform:translate(186px,53px)}13.218%{transform:translate(199px,53px)}13.793%{transform:translate(212px,53px)}14.368%{transform:translate(212px,40px)}14.943%{transform:translate(225px,40px)}15.517%{transform:translate(225px,53px)}16.092%{transform:translate(238px,53px)}16.667%{transform:translate(238px,40px)}17.241%{transform:translate(251px,40px)}17.816%{transform:translate(251px,53px)}18.391%{transform:translate(251px,66px)}18.966%{transform:translate(264px,66px)}19.54%{transform:translate(277px,66px)}20.115%{transform:translate(290px,66px)}20.69%{transform:translate(290px,53px)}21.264%{transform:translate(303px,53px)}21.839%{transform:translate(303px,66px)}22.414%{transform:translate(316px,66px)}22.989%{transform:translate(329px,66px)}23.563%{transform:translate(342px,66px)}24.138%{transform:translate(355px,66px)}24.713%{transform:translate(355px,53px)}25.287%{transform:translate(368px,53px)}25.862%{transform:translate(381px,53px)}26.437%{transform:translate(394px,53px)}27.011%{transform:translate(407px,53px)}27.586%{transform:translate(407px,66px)}28.161%{transform:translate(420px,66px)}28.736%{transform:translate(420px,53px)}29.31%{transform:translate(420px,40px)}29.885%{transform:translate(433px,40px)}30.46%{transform:translate(446px,40px)}31.034%{transform:translate(446px,53px)}31.609%{transform:translate(459px,53px)}32.184%{transform:translate(472px,53px)}32.759%{transform:translate(472px,40px)}33.333%{transform:translate(485px,40px)}33.908%{transform:translate(498px,40px)}34.483%{transform:translate(511px,40px)}35.057%{transform:translate(511px,53px)}35.632%{transform:translate(524px,53px)}36.207%{transform:translate(537px,53px)}36.782%{transform:translate(537px,40px)}37.356%{transform:translate(550px,40px)}37.931%{transform:translate(550px,53px)}38.506%{transform:translate(563px,53px)}39.08%{transform:translate(563px,40px)}39.655%{transform:translate(576px,40px)}40.23%{transform:translate(576px,53px)}40.805%{transform:translate(589px,53px)}41.379%{transform:translate(602px,53px)}41.954%{transform:translate(602px,66px)}42.529%{transform:translate(589px,66px)}43.103%{transform:translate(589px,79px)}43.678%{transform:translate(602px,79px)}44.253%{transform:translate(602px,92px)}44.828%{transform:translate(589px,92px)}45.402%{transform:translate(576px,92px)}45.977%{transform:translate(576px,79px)}46.552%{transform:translate(576px,66px)}47.126%{transform:translate(589px,66px)}47.701%{transform:translate(602px,66px)}48.276%{transform:translate(602px,53px)}48.851%{transform:translate(589px,53px)}49.425%{transform:translate(589px,40px)}50%{transform:translate(589px,27px)}50.575%{transform:translate(602px,27px)}51.149%{transform:translate(615px,27px)}51.724%{transform:translate(615px,40px)}52.299%{transform:translate(602px,40px)}52.874%{transform:translate(602px,53px)}53.448%{transform:translate(602px,66px)}54.023%{transform:translate(615px,66px)}54.598%{transform:translate(615px,53px)}55.172%{transform:translate(628px,53px)}55.747%{transform:translate(628px,40px)}56.322%{transform:translate(615px,40px)}56.897%{transform:translate(602px,40px)}57.471%{transform:translate(602px,27px)}58.046%{transform:translate(602px,14px)}58.621%{transform:translate(589px,14px)}59.195%{transform:translate(589px,27px)}59.77%{transform:translate(576px,27px)}60.345%{transform:translate(576px,14px)}60.92%{transform:translate(563px,14px)}61.494%{transform:translate(550px,14px)}62.069%{transform:translate(550px,27px)}62.644%{transform:translate(563px,27px)}63.218%{transform:translate(563px,40px)}63.793%{transform:translate(576px,40px)}64.368%{transform:translate(589px,40px)}64.943%{transform:translate(602px,40px)}65.517%{transform:translate(602px,27px)}66.092%{transform:translate(602px,14px)}66.667%{transform:translate(615px,14px)}67.241%{transform:translate(628px,14px)}67.816%{transform:translate(628px,27px)}68.391%{transform:translate(641px,27px)}68.966%{transform:translate(641px,14px)}69.54%{transform:translate(654px,14px)}70.115%{transform:translate(654px,27px)}70.69%{transform:translate(654px,40px)}71.264%{transform:translate(667px,40px)}71.839%{transform:translate(680px,40px)}72.414%{transform:translate(680px,27px)}72.989%{transform:translate(667px,27px)}73.563%{transform:translate(667px,14px)}74.138%{transform:translate(680px,14px)}74.713%{transform:translate(693px,14px)}75.287%{transform:translate(693px,27px)}75.862%{transform:translate(693px,40px)}76.437%{transform:translate(693px,53px)}77.011%{transform:translate(680px,53px)}77.586%{transform:translate(667px,53px)}78.161%{transform:translate(654px,53px)}78.736%{transform:translate(654px,66px)}79.31%{transform:translate(667px,66px)}79.885%{transform:translate(680px,66px)}80.46%{transform:translate(680px,79px)}81.034%{transform:translate(667px,79px)}81.609%{transform:translate(667px,92px)}82.184%{transform:translate(680px,92px)}82.759%{transform:translate(693px,92px)}83.333%{transform:translate(693px,79px)}83.908%{transform:translate(693px,66px)}84.483%{transform:translate(680px,66px)}85.057%{transform:translate(667px,66px)}85.632%{transform:translate(654px,66px)}86.207%{transform:translate(654px,79px)}86.782%{transform:translate(654px,92px)}87.356%{transform:translate(641px,92px)}87.931%{transform:translate(641px,79px)}88.506%{transform:translate(641px,66px)}89.08%{transform:translate(628px,66px)}89.655%{transform:translate(628px,53px)}90.23%{transform:translate(628px,40px)}90.805%{transform:translate(641px,40px)}91.379%{transform:translate(654px,40px)}91.954%{transform:translate(654px,53px)}92.529%{transform:translate(641px,53px)}93.103%{transform:translate(641px,66px)}93.678%{transform:translate(654px,66px)}94.253%{transform:translate(667px,66px)}94.828%{transform:translate(680px,66px)}95.402%{transform:translate(693px,66px)}95.977%{transform:translate(706px,66px)}96.552%{transform:translate(719px,66px)}97.126%{transform:translate(732px,66px)}97.701%{transform:translate(745px,66px)}98.276%{transform:translate(758px,66px)}98.851%{transform:translate(771px,66px)}99.425%{transform:translate(784px,66px)}100%{transform:translate(797px,66px)}}@keyframes e42_5{0%,45.977%{fill:#a7e8d8;opacity:1}46.437%,100%{fill:#8b95a1;opacity:.2}}@keyframes e42_6{0%,45.402%{fill:#5fcdb5;opacity:1}45.862%,100%{fill:#8b95a1;opacity:.2}}@keyframes e43_0{0%,58.621%{fill:#1f7a6b;opacity:1}59.08%,100%{fill:#8b95a1;opacity:.2}}@keyframes e43_1{0%,50%{fill:#35a08e;opacity:1}50.46%,100%{fill:#8b95a1;opacity:.2}}@keyframes e43_3{0%,40.805%{fill:#35a08e;opacity:1}41.264%,100%{fill:#8b95a1;opacity:.2}}@keyframes e44_0{0%,58.046%{fill:#a7e8d8;opacity:1}58.506%,100%{fill:#8b95a1;opacity:.2}}@keyframes e44_1{0%,50.575%{fill:#5fcdb5;opacity:1}51.034%,100%{fill:#8b95a1;opacity:.2}}@keyframes e44_2{0%,52.299%{fill:#a7e8d8;opacity:1}52.759%,100%{fill:#8b95a1;opacity:.2}}@keyframes e44_3{0%,41.379%{fill:#5fcdb5;opacity:1}41.839%,100%{fill:#8b95a1;opacity:.2}}@keyframes e44_4{0%,41.954%{fill:#a7e8d8;opacity:1}42.414%,100%{fill:#8b95a1;opacity:.2}}@keyframes e45_1{0%,51.149%{fill:#a7e8d8;opacity:1}51.609%,100%{fill:#8b95a1;opacity:.2}}@keyframes e45_2{0%,51.724%{fill:#a7e8d8;opacity:1}52.184%,100%{fill:#8b95a1;opacity:.2}}@keyframes e47_0{0%,68.966%{fill:#a7e8d8;opacity:1}69.425%,100%{fill:#8b95a1;opacity:.2}}@keyframes e47_1{0%,68.391%{fill:#5fcdb5;opacity:1}68.851%,100%{fill:#8b95a1;opacity:.2}}@keyframes e47_2{0%,90.805%{fill:#5fcdb5;opacity:1}91.264%,100%{fill:#8b95a1;opacity:.2}}@keyframes e47_3{0%,92.529%{fill:#1f7a6b;opacity:1}92.989%,100%{fill:#8b95a1;opacity:.2}}@keyframes e47_4{0%,88.506%{fill:#5fcdb5;opacity:1}88.966%,100%{fill:#8b95a1;opacity:.2}}@keyframes e47_5{0%,87.931%{fill:#5fcdb5;opacity:1}88.391%,100%{fill:#8b95a1;opacity:.2}}@keyframes e47_6{0%,87.356%{fill:#1f7a6b;opacity:1}87.816%,100%{fill:#8b95a1;opacity:.2}}@keyframes e48_0{0%,69.54%{fill:#1f7a6b;opacity:1}70%,100%{fill:#8b95a1;opacity:.2}}@keyframes e48_1{0%,70.115%{fill:#1f7a6b;opacity:1}70.575%,100%{fill:#8b95a1;opacity:.2}}@keyframes e48_2{0%,70.69%{fill:#35a08e;opacity:1}71.149%,100%{fill:#8b95a1;opacity:.2}}@keyframes e48_3{0%,78.161%{fill:#35a08e;opacity:1}78.621%,100%{fill:#8b95a1;opacity:.2}}@keyframes e48_4{0%,78.736%{fill:#1f7a6b;opacity:1}79.195%,100%{fill:#8b95a1;opacity:.2}}@keyframes e48_5{0%,86.207%{fill:#1f7a6b;opacity:1}86.667%,100%{fill:#8b95a1;opacity:.2}}@keyframes e48_6{0%,86.782%{fill:#a7e8d8;opacity:1}87.241%,100%{fill:#8b95a1;opacity:.2}}@keyframes e49_0{0%,73.563%{fill:#1f7a6b;opacity:1}74.023%,100%{fill:#8b95a1;opacity:.2}}@keyframes e49_1{0%,72.989%{fill:#1f7a6b;opacity:1}73.448%,100%{fill:#8b95a1;opacity:.2}}@keyframes e49_2{0%,71.264%{fill:#35a08e;opacity:1}71.724%,100%{fill:#8b95a1;opacity:.2}}@keyframes e49_3{0%,77.586%{fill:#35a08e;opacity:1}78.046%,100%{fill:#8b95a1;opacity:.2}}@keyframes e49_4{0%,79.31%{fill:#1f7a6b;opacity:1}79.77%,100%{fill:#8b95a1;opacity:.2}}@keyframes e49_5{0%,81.034%{fill:#a7e8d8;opacity:1}81.494%,100%{fill:#8b95a1;opacity:.2}}@keyframes e49_6{0%,81.609%{fill:#35a08e;opacity:1}82.069%,100%{fill:#8b95a1;opacity:.2}}@keyframes e50_0{0%,74.138%{fill:#5fcdb5;opacity:1}74.598%,100%{fill:#8b95a1;opacity:.2}}@keyframes e50_1{0%,72.414%{fill:#5fcdb5;opacity:1}72.874%,100%{fill:#8b95a1;opacity:.2}}@keyframes e50_2{0%,71.839%{fill:#5fcdb5;opacity:1}72.299%,100%{fill:#8b95a1;opacity:.2}}@keyframes e50_3{0%,77.011%{fill:#5fcdb5;opacity:1}77.471%,100%{fill:#8b95a1;opacity:.2}}@keyframes e50_4{0%,79.885%{fill:#35a08e;opacity:1}80.345%,100%{fill:#8b95a1;opacity:.2}}@keyframes e50_5{0%,80.46%{fill:#a7e8d8;opacity:1}80.92%,100%{fill:#8b95a1;opacity:.2}}@keyframes e50_6{0%,82.184%{fill:#35a08e;opacity:1}82.644%,100%{fill:#8b95a1;opacity:.2}}@keyframes e51_0{0%,74.713%{fill:#a7e8d8;opacity:1}75.172%,100%{fill:#8b95a1;opacity:.2}}@keyframes g5{0%,41.379%{opacity:0}41.667%,100%{opacity:0.845}}@keyframes g4{0%,40.805%{opacity:0}41.092%,100%{opacity:0.86}}@media(prefers-reduced-motion:reduce){.sg{display:none}.c{animation:none}}</style>
<rect x="30" y="14" width="11" height="11" rx="2.5" fill="#8b95a1" opacity="0.20"/>
<rect x="30" y="27" width="11" height="11" rx="2.5" fill="#8b95a1" opacity="0.20"/>
<rect x="30" y="40" width="11" height="11" rx="2.5" fill="#8b95a1" opacity="0.20"/>
<rect x="30" y="53" width="11" height="11" rx="2.5" fill="#8b95a1" opacity="0.20"/>
<rect x="30" y="66" width="11" height="11" rx="2.5" fill="#8b95a1" opacity="0.20"/>
<rect x="30" y="79" width="11" height="11" rx="2.5" fill="#8b95a1" opacity="0.20"/>
<rect x="30" y="92" width="11" height="11" rx="2.5" fill="#8b95a1" opacity="0.20"/>
<rect x="43" y="14" width="11" height="11" rx="2.5" fill="#8b95a1" opacity="0.20"/>
<rect x="43" y="27" width="11" height="11" rx="2.5" fill="#8b95a1" opacity="0.20"/>
<rect x="43" y="40" width="11" height="11" rx="2.5" fill="#8b95a1" opacity="0.20"/>
<rect x="43" y="53" width="11" height="11" rx="2.5" fill="#8b95a1" opacity="0.20"/>
<rect x="43" y="66" width="11" height="11" rx="2.5" fill="#8b95a1" opacity="0.20"/>
<rect x="43" y="79" width="11" height="11" rx="2.5" fill="#8b95a1" opacity="0.20"/>
<rect x="43" y="92" width="11" height="11" rx="2.5" fill="#8b95a1" opacity="0.20"/>
<rect x="56" y="14" width="11" height="11" rx="2.5" fill="#8b95a1" opacity="0.20"/>
<rect x="56" y="27" width="11" height="11" rx="2.5" fill="#8b95a1" opacity="0.20"/>
<rect x="56" y="40" width="11" height="11" rx="2.5" fill="#8b95a1" opacity="0.20"/>
<rect x="56" y="53" width="11" height="11" rx="2.5" fill="#8b95a1" opacity="0.20"/>
<rect x="56" y="66" width="11" height="11" rx="2.5" fill="#8b95a1" opacity="0.20"/>
<rect x="56" y="79" width="11" height="11" rx="2.5" fill="#8b95a1" opacity="0.20"/>
<rect x="56" y="92" width="11" height="11" rx="2.5" fill="#8b95a1" opacity="0.20"/>
<rect x="69" y="14" width="11" height="11" rx="2.5" fill="#8b95a1" opacity="0.20"/>
<rect x="69" y="27" width="11" height="11" rx="2.5" fill="#8b95a1" opacity="0.20"/>
<rect x="69" y="40" width="11" height="11" rx="2.5" fill="#8b95a1" opacity="0.20"/>
<rect x="69" y="53" width="11" height="11" rx="2.5" fill="#8b95a1" opacity="0.20"/>
<rect x="69" y="66" width="11" height="11" rx="2.5" fill="#8b95a1" opacity="0.20"/>
<rect x="69" y="79" width="11" height="11" rx="2.5" fill="#8b95a1" opacity="0.20"/>
<rect x="69" y="92" width="11" height="11" rx="2.5" fill="#8b95a1" opacity="0.20"/>
<rect x="82" y="14" width="11" height="11" rx="2.5" fill="#8b95a1" opacity="0.20"/>
<rect x="82" y="27" width="11" height="11" rx="2.5" fill="#8b95a1" opacity="0.20"/>
<rect x="82" y="40" width="11" height="11" rx="2.5" fill="#8b95a1" opacity="0.20"/>
<rect x="82" y="53" width="11" height="11" rx="2.5" fill="#8b95a1" opacity="0.20"/>
<rect x="82" y="66" width="11" height="11" rx="2.5" fill="#8b95a1" opacity="0.20"/>
<rect x="82" y="79" width="11" height="11" rx="2.5" fill="#8b95a1" opacity="0.20"/>
<rect x="82" y="92" width="11" height="11" rx="2.5" fill="#8b95a1" opacity="0.20"/>
<rect x="95" y="14" width="11" height="11" rx="2.5" fill="#8b95a1" opacity="0.20"/>
<rect x="95" y="27" width="11" height="11" rx="2.5" fill="#8b95a1" opacity="0.20"/>
<rect x="95" y="40" width="11" height="11" rx="2.5" fill="#8b95a1" opacity="0.20"/>
<rect x="95" y="53" width="11" height="11" rx="2.5" fill="#8b95a1" opacity="0.20"/>
<rect x="95" y="66" width="11" height="11" rx="2.5" fill="#8b95a1" opacity="0.20"/>
<rect x="95" y="79" width="11" height="11" rx="2.5" fill="#8b95a1" opacity="0.20"/>
<rect x="95" y="92" width="11" height="11" rx="2.5" fill="#8b95a1" opacity="0.20"/>
<rect x="108" y="14" width="11" height="11" rx="2.5" fill="#8b95a1" opacity="0.20"/>
<rect x="108" y="27" width="11" height="11" rx="2.5" fill="#8b95a1" opacity="0.20"/>
<rect x="108" y="40" width="11" height="11" rx="2.5" fill="#8b95a1" opacity="0.20"/>
<rect x="108" y="53" width="11" height="11" rx="2.5" fill="#8b95a1" opacity="0.20"/>
<rect x="108" y="66" width="11" height="11" rx="2.5" fill="#8b95a1" opacity="0.20"/>
<rect x="108" y="79" width="11" height="11" rx="2.5" fill="#8b95a1" opacity="0.20"/>
<rect x="108" y="92" width="11" height="11" rx="2.5" fill="#8b95a1" opacity="0.20"/>
<rect x="121" y="14" width="11" height="11" rx="2.5" fill="#8b95a1" opacity="0.20"/>
<rect x="121" y="27" width="11" height="11" rx="2.5" fill="#8b95a1" opacity="0.20"/>
<rect x="121" y="40" width="11" height="11" rx="2.5" fill="#8b95a1" opacity="0.20"/>
<rect x="121" y="53" width="11" height="11" rx="2.5" fill="#8b95a1" opacity="0.20"/>
<rect x="121" y="66" width="11" height="11" rx="2.5" fill="#8b95a1" opacity="0.20"/>
<rect x="121" y="79" width="11" height="11" rx="2.5" fill="#8b95a1" opacity="0.20"/>
<rect x="121" y="92" width="11" height="11" rx="2.5" fill="#8b95a1" opacity="0.20"/>
<rect x="134" y="14" width="11" height="11" rx="2.5" fill="#8b95a1" opacity="0.20"/>
<rect x="134" y="27" width="11" height="11" rx="2.5" fill="#8b95a1" opacity="0.20"/>
<rect x="134" y="40" width="11" height="11" rx="2.5" fill="#8b95a1" opacity="0.20"/>
<rect x="134" y="53" width="11" height="11" rx="2.5" fill="#8b95a1" opacity="0.20"/>
<rect x="134" y="66" width="11" height="11" rx="2.5" fill="#8b95a1" opacity="0.20"/>
<rect x="134" y="79" width="11" height="11" rx="2.5" fill="#8b95a1" opacity="0.20"/>
<rect x="134" y="92" width="11" height="11" rx="2.5" fill="#8b95a1" opacity="0.20"/>
<rect x="147" y="14" width="11" height="11" rx="2.5" fill="#8b95a1" opacity="0.20"/>
<rect x="147" y="27" width="11" height="11" rx="2.5" fill="#8b95a1" opacity="0.20"/>
<rect x="147" y="40" width="11" height="11" rx="2.5" fill="#8b95a1" opacity="0.20"/>
<rect x="147" y="53" width="11" height="11" rx="2.5" fill="#8b95a1" opacity="0.20"/>
<rect x="147" y="66" width="11" height="11" rx="2.5" fill="#8b95a1" opacity="0.20"/>
<rect x="147" y="79" width="11" height="11" rx="2.5" fill="#8b95a1" opacity="0.20"/>
<rect x="147" y="92" width="11" height="11" rx="2.5" fill="#8b95a1" opacity="0.20"/>
<rect x="160" y="14" width="11" height="11" rx="2.5" fill="#8b95a1" opacity="0.20"/>
<rect x="160" y="27" width="11" height="11" rx="2.5" fill="#8b95a1" opacity="0.20"/>
<rect x="160" y="40" width="11" height="11" rx="2.5" fill="#8b95a1" opacity="0.20"/>
<rect x="160" y="53" width="11" height="11" rx="2.5" fill="#8b95a1" opacity="0.20"/>
<rect x="160" y="66" width="11" height="11" rx="2.5" fill="#8b95a1" opacity="0.20"/>
<rect x="160" y="79" width="11" height="11" rx="2.5" fill="#8b95a1" opacity="0.20"/>
<rect x="160" y="92" width="11" height="11" rx="2.5" fill="#8b95a1" opacity="0.20"/>
<rect x="173" y="14" width="11" height="11" rx="2.5" fill="#8b95a1" opacity="0.20"/>
<rect x="173" y="27" width="11" height="11" rx="2.5" fill="#8b95a1" opacity="0.20"/>
<rect x="173" y="40" width="11" height="11" rx="2.5" fill="#8b95a1" opacity="0.20"/>
<rect x="173" y="53" width="11" height="11" rx="2.5" fill="#8b95a1" opacity="0.20"/>
<rect x="173" y="66" width="11" height="11" rx="2.5" fill="#8b95a1" opacity="0.20"/>
<rect x="173" y="79" width="11" height="11" rx="2.5" fill="#8b95a1" opacity="0.20"/>
<rect x="173" y="92" width="11" height="11" rx="2.5" fill="#8b95a1" opacity="0.20"/>
<rect x="186" y="14" width="11" height="11" rx="2.5" fill="#8b95a1" opacity="0.20"/>
<rect x="186" y="27" width="11" height="11" rx="2.5" fill="#8b95a1" opacity="0.20"/>
<rect x="186" y="40" width="11" height="11" rx="2.5" fill="#8b95a1" opacity="0.20"/>
<rect x="186" y="53" width="11" height="11" rx="2.5" fill="#8b95a1" opacity="0.20"/>
<rect x="186" y="66" width="11" height="11" rx="2.5" fill="#8b95a1" opacity="0.20"/>
<rect x="186" y="79" width="11" height="11" rx="2.5" fill="#8b95a1" opacity="0.20"/>
<rect x="186" y="92" width="11" height="11" rx="2.5" fill="#8b95a1" opacity="0.20"/>
<rect x="199" y="14" width="11" height="11" rx="2.5" fill="#8b95a1" opacity="0.20"/>
<rect x="199" y="27" width="11" height="11" rx="2.5" fill="#8b95a1" opacity="0.20"/>
<rect x="199" y="40" width="11" height="11" rx="2.5" fill="#8b95a1" opacity="0.20"/>
<rect x="199" y="53" width="11" height="11" rx="2.5" fill="#8b95a1" opacity="0.20"/>
<rect x="199" y="66" width="11" height="11" rx="2.5" fill="#8b95a1" opacity="0.20"/>
<rect x="199" y="79" width="11" height="11" rx="2.5" fill="#8b95a1" opacity="0.20"/>
<rect x="199" y="92" width="11" height="11" rx="2.5" fill="#8b95a1" opacity="0.20"/>
<rect x="212" y="14" width="11" height="11" rx="2.5" fill="#8b95a1" opacity="0.20"/>
<rect x="212" y="27" width="11" height="11" rx="2.5" fill="#8b95a1" opacity="0.20"/>
<rect x="212" y="40" width="11" height="11" rx="2.5" fill="#8b95a1" opacity="0.20"/>
<rect x="212" y="53" width="11" height="11" rx="2.5" fill="#8b95a1" opacity="0.20"/>
<rect x="212" y="66" width="11" height="11" rx="2.5" fill="#8b95a1" opacity="0.20"/>
<rect x="212" y="79" width="11" height="11" rx="2.5" fill="#8b95a1" opacity="0.20"/>
<rect x="212" y="92" width="11" height="11" rx="2.5" fill="#8b95a1" opacity="0.20"/>
<rect x="225" y="14" width="11" height="11" rx="2.5" fill="#8b95a1" opacity="0.20"/>
<rect x="225" y="27" width="11" height="11" rx="2.5" fill="#8b95a1" opacity="0.20"/>
<rect x="225" y="40" width="11" height="11" rx="2.5" fill="#8b95a1" opacity="0.20"/>
<rect x="225" y="53" width="11" height="11" rx="2.5" fill="#8b95a1" opacity="0.20"/>
<rect x="225" y="66" width="11" height="11" rx="2.5" fill="#8b95a1" opacity="0.20"/>
<rect x="225" y="79" width="11" height="11" rx="2.5" fill="#8b95a1" opacity="0.20"/>
<rect x="225" y="92" width="11" height="11" rx="2.5" fill="#8b95a1" opacity="0.20"/>
<rect x="238" y="14" width="11" height="11" rx="2.5" fill="#8b95a1" opacity="0.20"/>
<rect x="238" y="27" width="11" height="11" rx="2.5" fill="#8b95a1" opacity="0.20"/>
<rect x="238" y="40" width="11" height="11" rx="2.5" fill="#8b95a1" opacity="0.20"/>
<rect x="238" y="53" width="11" height="11" rx="2.5" fill="#8b95a1" opacity="0.20"/>
<rect x="238" y="66" width="11" height="11" rx="2.5" fill="#8b95a1" opacity="0.20"/>
<rect x="238" y="79" width="11" height="11" rx="2.5" fill="#8b95a1" opacity="0.20"/>
<rect x="238" y="92" width="11" height="11" rx="2.5" fill="#8b95a1" opacity="0.20"/>
<rect x="251" y="14" width="11" height="11" rx="2.5" fill="#8b95a1" opacity="0.20"/>
<rect x="251" y="27" width="11" height="11" rx="2.5" fill="#8b95a1" opacity="0.20"/>
<rect x="251" y="40" width="11" height="11" rx="2.5" fill="#8b95a1" opacity="0.20"/>
<rect x="251" y="53" width="11" height="11" rx="2.5" fill="#8b95a1" opacity="0.20"/>
<rect x="251" y="66" width="11" height="11" rx="2.5" fill="#8b95a1" opacity="0.20"/>
<rect x="251" y="79" width="11" height="11" rx="2.5" fill="#8b95a1" opacity="0.20"/>
<rect x="251" y="92" width="11" height="11" rx="2.5" fill="#8b95a1" opacity="0.20"/>
<rect x="264" y="14" width="11" height="11" rx="2.5" fill="#8b95a1" opacity="0.20"/>
<rect x="264" y="27" width="11" height="11" rx="2.5" fill="#8b95a1" opacity="0.20"/>
<rect x="264" y="40" width="11" height="11" rx="2.5" fill="#8b95a1" opacity="0.20"/>
<rect x="264" y="53" width="11" height="11" rx="2.5" fill="#8b95a1" opacity="0.20"/>
<rect x="264" y="66" width="11" height="11" rx="2.5" fill="#8b95a1" opacity="0.20"/>
<rect x="264" y="79" width="11" height="11" rx="2.5" fill="#8b95a1" opacity="0.20"/>
<rect x="264" y="92" width="11" height="11" rx="2.5" fill="#8b95a1" opacity="0.20"/>
<rect x="277" y="14" width="11" height="11" rx="2.5" fill="#8b95a1" opacity="0.20"/>
<rect x="277" y="27" width="11" height="11" rx="2.5" fill="#8b95a1" opacity="0.20"/>
<rect x="277" y="40" width="11" height="11" rx="2.5" fill="#8b95a1" opacity="0.20"/>
<rect x="277" y="53" width="11" height="11" rx="2.5" fill="#8b95a1" opacity="0.20"/>
<rect x="277" y="66" width="11" height="11" rx="2.5" fill="#8b95a1" opacity="0.20"/>
<rect x="277" y="79" width="11" height="11" rx="2.5" fill="#8b95a1" opacity="0.20"/>
<rect x="277" y="92" width="11" height="11" rx="2.5" fill="#8b95a1" opacity="0.20"/>
<rect x="290" y="14" width="11" height="11" rx="2.5" fill="#8b95a1" opacity="0.20"/>
<rect x="290" y="27" width="11" height="11" rx="2.5" fill="#8b95a1" opacity="0.20"/>
<rect x="290" y="40" width="11" height="11" rx="2.5" fill="#8b95a1" opacity="0.20"/>
<rect x="290" y="53" width="11" height="11" rx="2.5" fill="#8b95a1" opacity="0.20"/>
<rect x="290" y="66" width="11" height="11" rx="2.5" fill="#8b95a1" opacity="0.20"/>
<rect x="290" y="79" width="11" height="11" rx="2.5" fill="#8b95a1" opacity="0.20"/>
<rect x="290" y="92" width="11" height="11" rx="2.5" fill="#8b95a1" opacity="0.20"/>
<rect x="303" y="14" width="11" height="11" rx="2.5" fill="#8b95a1" opacity="0.20"/>
<rect x="303" y="27" width="11" height="11" rx="2.5" fill="#8b95a1" opacity="0.20"/>
<rect x="303" y="40" width="11" height="11" rx="2.5" fill="#8b95a1" opacity="0.20"/>
<rect x="303" y="53" width="11" height="11" rx="2.5" fill="#8b95a1" opacity="0.20"/>
<rect x="303" y="66" width="11" height="11" rx="2.5" fill="#8b95a1" opacity="0.20"/>
<rect x="303" y="79" width="11" height="11" rx="2.5" fill="#8b95a1" opacity="0.20"/>
<rect x="303" y="92" width="11" height="11" rx="2.5" fill="#8b95a1" opacity="0.20"/>
<rect x="316" y="14" width="11" height="11" rx="2.5" fill="#8b95a1" opacity="0.20"/>
<rect x="316" y="27" width="11" height="11" rx="2.5" fill="#8b95a1" opacity="0.20"/>
<rect x="316" y="40" width="11" height="11" rx="2.5" fill="#8b95a1" opacity="0.20"/>
<rect x="316" y="53" width="11" height="11" rx="2.5" fill="#8b95a1" opacity="0.20"/>
<rect x="316" y="66" width="11" height="11" rx="2.5" fill="#8b95a1" opacity="0.20"/>
<rect x="316" y="79" width="11" height="11" rx="2.5" fill="#8b95a1" opacity="0.20"/>
<rect x="316" y="92" width="11" height="11" rx="2.5" fill="#8b95a1" opacity="0.20"/>
<rect x="329" y="14" width="11" height="11" rx="2.5" fill="#8b95a1" opacity="0.20"/>
<rect x="329" y="27" width="11" height="11" rx="2.5" fill="#8b95a1" opacity="0.20"/>
<rect x="329" y="40" width="11" height="11" rx="2.5" fill="#8b95a1" opacity="0.20"/>
<rect x="329" y="53" width="11" height="11" rx="2.5" fill="#8b95a1" opacity="0.20"/>
<rect x="329" y="66" width="11" height="11" rx="2.5" fill="#8b95a1" opacity="0.20"/>
<rect x="329" y="79" width="11" height="11" rx="2.5" fill="#8b95a1" opacity="0.20"/>
<rect x="329" y="92" width="11" height="11" rx="2.5" fill="#8b95a1" opacity="0.20"/>
<rect x="342" y="14" width="11" height="11" rx="2.5" fill="#8b95a1" opacity="0.20"/>
<rect x="342" y="27" width="11" height="11" rx="2.5" fill="#8b95a1" opacity="0.20"/>
<rect x="342" y="40" width="11" height="11" rx="2.5" fill="#8b95a1" opacity="0.20"/>
<rect x="342" y="53" width="11" height="11" rx="2.5" fill="#8b95a1" opacity="0.20"/>
<rect x="342" y="66" width="11" height="11" rx="2.5" fill="#8b95a1" opacity="0.20"/>
<rect x="342" y="79" width="11" height="11" rx="2.5" fill="#8b95a1" opacity="0.20"/>
<rect x="342" y="92" width="11" height="11" rx="2.5" fill="#8b95a1" opacity="0.20"/>
<rect x="355" y="14" width="11" height="11" rx="2.5" fill="#8b95a1" opacity="0.20"/>
<rect x="355" y="27" width="11" height="11" rx="2.5" fill="#8b95a1" opacity="0.20"/>
<rect x="355" y="40" width="11" height="11" rx="2.5" fill="#8b95a1" opacity="0.20"/>
<rect x="355" y="53" width="11" height="11" rx="2.5" fill="#8b95a1" opacity="0.20"/>
<rect x="355" y="66" width="11" height="11" rx="2.5" fill="#8b95a1" opacity="0.20"/>
<rect x="355" y="79" width="11" height="11" rx="2.5" fill="#8b95a1" opacity="0.20"/>
<rect x="355" y="92" width="11" height="11" rx="2.5" fill="#8b95a1" opacity="0.20"/>
<rect x="368" y="14" width="11" height="11" rx="2.5" fill="#8b95a1" opacity="0.20"/>
<rect x="368" y="27" width="11" height="11" rx="2.5" fill="#8b95a1" opacity="0.20"/>
<rect x="368" y="40" width="11" height="11" rx="2.5" fill="#8b95a1" opacity="0.20"/>
<rect x="368" y="53" width="11" height="11" rx="2.5" fill="#8b95a1" opacity="0.20"/>
<rect x="368" y="66" width="11" height="11" rx="2.5" fill="#8b95a1" opacity="0.20"/>
<rect x="368" y="79" width="11" height="11" rx="2.5" fill="#8b95a1" opacity="0.20"/>
<rect x="368" y="92" width="11" height="11" rx="2.5" fill="#8b95a1" opacity="0.20"/>
<rect x="381" y="14" width="11" height="11" rx="2.5" fill="#8b95a1" opacity="0.20"/>
<rect x="381" y="27" width="11" height="11" rx="2.5" fill="#8b95a1" opacity="0.20"/>
<rect x="381" y="40" width="11" height="11" rx="2.5" fill="#8b95a1" opacity="0.20"/>
<rect x="381" y="53" width="11" height="11" rx="2.5" fill="#8b95a1" opacity="0.20"/>
<rect x="381" y="66" width="11" height="11" rx="2.5" fill="#8b95a1" opacity="0.20"/>
<rect x="381" y="79" width="11" height="11" rx="2.5" fill="#8b95a1" opacity="0.20"/>
<rect x="381" y="92" width="11" height="11" rx="2.5" fill="#8b95a1" opacity="0.20"/>
<rect x="394" y="14" width="11" height="11" rx="2.5" fill="#8b95a1" opacity="0.20"/>
<rect x="394" y="27" width="11" height="11" rx="2.5" fill="#8b95a1" opacity="0.20"/>
<rect x="394" y="40" width="11" height="11" rx="2.5" fill="#8b95a1" opacity="0.20"/>
<rect x="394" y="53" width="11" height="11" rx="2.5" fill="#8b95a1" opacity="0.20"/>
<rect x="394" y="66" width="11" height="11" rx="2.5" fill="#8b95a1" opacity="0.20"/>
<rect x="394" y="79" width="11" height="11" rx="2.5" fill="#8b95a1" opacity="0.20"/>
<rect x="394" y="92" width="11" height="11" rx="2.5" fill="#8b95a1" opacity="0.20"/>
<rect x="407" y="14" width="11" height="11" rx="2.5" fill="#8b95a1" opacity="0.20"/>
<rect x="407" y="27" width="11" height="11" rx="2.5" fill="#8b95a1" opacity="0.20"/>
<rect x="407" y="40" width="11" height="11" rx="2.5" fill="#8b95a1" opacity="0.20"/>
<rect x="407" y="53" width="11" height="11" rx="2.5" fill="#8b95a1" opacity="0.20"/>
<rect x="407" y="66" width="11" height="11" rx="2.5" fill="#8b95a1" opacity="0.20"/>
<rect x="407" y="79" width="11" height="11" rx="2.5" fill="#8b95a1" opacity="0.20"/>
<rect x="407" y="92" width="11" height="11" rx="2.5" fill="#8b95a1" opacity="0.20"/>
<rect x="420" y="14" width="11" height="11" rx="2.5" fill="#8b95a1" opacity="0.20"/>
<rect x="420" y="27" width="11" height="11" rx="2.5" fill="#8b95a1" opacity="0.20"/>
<rect x="420" y="40" width="11" height="11" rx="2.5" fill="#8b95a1" opacity="0.20"/>
<rect x="420" y="53" width="11" height="11" rx="2.5" fill="#8b95a1" opacity="0.20"/>
<rect x="420" y="66" width="11" height="11" rx="2.5" fill="#8b95a1" opacity="0.20"/>
<rect x="420" y="79" width="11" height="11" rx="2.5" fill="#8b95a1" opacity="0.20"/>
<rect x="420" y="92" width="11" height="11" rx="2.5" fill="#8b95a1" opacity="0.20"/>
<rect x="433" y="14" width="11" height="11" rx="2.5" fill="#8b95a1" opacity="0.20"/>
<rect x="433" y="27" width="11" height="11" rx="2.5" fill="#8b95a1" opacity="0.20"/>
<rect x="433" y="40" width="11" height="11" rx="2.5" fill="#8b95a1" opacity="0.20"/>
<rect x="433" y="53" width="11" height="11" rx="2.5" fill="#8b95a1" opacity="0.20"/>
<rect x="433" y="66" width="11" height="11" rx="2.5" fill="#8b95a1" opacity="0.20"/>
<rect x="433" y="79" width="11" height="11" rx="2.5" fill="#8b95a1" opacity="0.20"/>
<rect x="433" y="92" width="11" height="11" rx="2.5" fill="#8b95a1" opacity="0.20"/>
<rect x="446" y="14" width="11" height="11" rx="2.5" fill="#8b95a1" opacity="0.20"/>
<rect x="446" y="27" width="11" height="11" rx="2.5" fill="#8b95a1" opacity="0.20"/>
<rect x="446" y="40" width="11" height="11" rx="2.5" fill="#8b95a1" opacity="0.20"/>
<rect x="446" y="53" width="11" height="11" rx="2.5" fill="#8b95a1" opacity="0.20"/>
<rect x="446" y="66" width="11" height="11" rx="2.5" fill="#8b95a1" opacity="0.20"/>
<rect x="446" y="79" width="11" height="11" rx="2.5" fill="#8b95a1" opacity="0.20"/>
<rect x="446" y="92" width="11" height="11" rx="2.5" fill="#8b95a1" opacity="0.20"/>
<rect x="459" y="14" width="11" height="11" rx="2.5" fill="#8b95a1" opacity="0.20"/>
<rect x="459" y="27" width="11" height="11" rx="2.5" fill="#8b95a1" opacity="0.20"/>
<rect x="459" y="40" width="11" height="11" rx="2.5" fill="#8b95a1" opacity="0.20"/>
<rect x="459" y="53" width="11" height="11" rx="2.5" fill="#8b95a1" opacity="0.20"/>
<rect x="459" y="66" width="11" height="11" rx="2.5" fill="#8b95a1" opacity="0.20"/>
<rect x="459" y="79" width="11" height="11" rx="2.5" fill="#8b95a1" opacity="0.20"/>
<rect x="459" y="92" width="11" height="11" rx="2.5" fill="#8b95a1" opacity="0.20"/>
<rect x="472" y="14" width="11" height="11" rx="2.5" fill="#8b95a1" opacity="0.20"/>
<rect x="472" y="27" width="11" height="11" rx="2.5" fill="#8b95a1" opacity="0.20"/>
<rect x="472" y="40" width="11" height="11" rx="2.5" fill="#8b95a1" opacity="0.20"/>
<rect x="472" y="53" width="11" height="11" rx="2.5" fill="#8b95a1" opacity="0.20"/>
<rect x="472" y="66" width="11" height="11" rx="2.5" fill="#8b95a1" opacity="0.20"/>
<rect x="472" y="79" width="11" height="11" rx="2.5" fill="#8b95a1" opacity="0.20"/>
<rect x="472" y="92" width="11" height="11" rx="2.5" fill="#8b95a1" opacity="0.20"/>
<rect x="485" y="14" width="11" height="11" rx="2.5" fill="#8b95a1" opacity="0.20"/>
<rect x="485" y="27" width="11" height="11" rx="2.5" fill="#8b95a1" opacity="0.20"/>
<rect x="485" y="40" width="11" height="11" rx="2.5" fill="#8b95a1" opacity="0.20"/>
<rect x="485" y="53" width="11" height="11" rx="2.5" fill="#8b95a1" opacity="0.20"/>
<rect x="485" y="66" width="11" height="11" rx="2.5" fill="#8b95a1" opacity="0.20"/>
<rect x="485" y="79" width="11" height="11" rx="2.5" fill="#8b95a1" opacity="0.20"/>
<rect x="485" y="92" width="11" height="11" rx="2.5" fill="#8b95a1" opacity="0.20"/>
<rect x="498" y="14" width="11" height="11" rx="2.5" fill="#8b95a1" opacity="0.20"/>
<rect x="498" y="27" width="11" height="11" rx="2.5" fill="#8b95a1" opacity="0.20"/>
<rect x="498" y="40" width="11" height="11" rx="2.5" fill="#8b95a1" opacity="0.20"/>
<rect x="498" y="53" width="11" height="11" rx="2.5" fill="#8b95a1" opacity="0.20"/>
<rect x="498" y="66" width="11" height="11" rx="2.5" fill="#8b95a1" opacity="0.20"/>
<rect x="498" y="79" width="11" height="11" rx="2.5" fill="#8b95a1" opacity="0.20"/>
<rect x="498" y="92" width="11" height="11" rx="2.5" fill="#8b95a1" opacity="0.20"/>
<rect x="511" y="14" width="11" height="11" rx="2.5" fill="#8b95a1" opacity="0.20"/>
<rect x="511" y="27" width="11" height="11" rx="2.5" fill="#8b95a1" opacity="0.20"/>
<rect x="511" y="40" width="11" height="11" rx="2.5" fill="#8b95a1" opacity="0.20"/>
<rect x="511" y="53" width="11" height="11" rx="2.5" fill="#8b95a1" opacity="0.20"/>
<rect x="511" y="66" width="11" height="11" rx="2.5" fill="#8b95a1" opacity="0.20"/>
<rect x="511" y="79" width="11" height="11" rx="2.5" fill="#8b95a1" opacity="0.20"/>
<rect x="511" y="92" width="11" height="11" rx="2.5" fill="#8b95a1" opacity="0.20"/>
<rect x="524" y="14" width="11" height="11" rx="2.5" fill="#8b95a1" opacity="0.20"/>
<rect x="524" y="27" width="11" height="11" rx="2.5" fill="#8b95a1" opacity="0.20"/>
<rect x="524" y="40" width="11" height="11" rx="2.5" fill="#8b95a1" opacity="0.20"/>
<rect x="524" y="53" width="11" height="11" rx="2.5" fill="#8b95a1" opacity="0.20"/>
<rect x="524" y="66" width="11" height="11" rx="2.5" fill="#8b95a1" opacity="0.20"/>
<rect x="524" y="79" width="11" height="11" rx="2.5" fill="#8b95a1" opacity="0.20"/>
<rect x="524" y="92" width="11" height="11" rx="2.5" fill="#8b95a1" opacity="0.20"/>
<rect x="537" y="14" width="11" height="11" rx="2.5" fill="#8b95a1" opacity="0.20"/>
<rect x="537" y="27" width="11" height="11" rx="2.5" fill="#8b95a1" opacity="0.20"/>
<rect x="537" y="40" width="11" height="11" rx="2.5" fill="#8b95a1" opacity="0.20"/>
<rect x="537" y="53" width="11" height="11" rx="2.5" fill="#8b95a1" opacity="0.20"/>
<rect x="537" y="66" width="11" height="11" rx="2.5" fill="#8b95a1" opacity="0.20"/>
<rect x="537" y="79" width="11" height="11" rx="2.5" fill="#8b95a1" opacity="0.20"/>
<rect x="537" y="92" width="11" height="11" rx="2.5" fill="#8b95a1" opacity="0.20"/>
<rect x="550" y="14" width="11" height="11" rx="2.5" fill="#8b95a1" opacity="0.20"/>
<rect x="550" y="27" width="11" height="11" rx="2.5" fill="#8b95a1" opacity="0.20"/>
<rect x="550" y="40" width="11" height="11" rx="2.5" fill="#8b95a1" opacity="0.20"/>
<rect x="550" y="53" width="11" height="11" rx="2.5" fill="#8b95a1" opacity="0.20"/>
<rect x="550" y="66" width="11" height="11" rx="2.5" fill="#8b95a1" opacity="0.20"/>
<rect x="550" y="79" width="11" height="11" rx="2.5" fill="#8b95a1" opacity="0.20"/>
<rect x="550" y="92" width="11" height="11" rx="2.5" fill="#8b95a1" opacity="0.20"/>
<rect x="563" y="14" width="11" height="11" rx="2.5" fill="#8b95a1" opacity="0.20"/>
<rect x="563" y="27" width="11" height="11" rx="2.5" fill="#8b95a1" opacity="0.20"/>
<rect x="563" y="40" width="11" height="11" rx="2.5" fill="#8b95a1" opacity="0.20"/>
<rect x="563" y="53" width="11" height="11" rx="2.5" fill="#8b95a1" opacity="0.20"/>
<rect x="563" y="66" width="11" height="11" rx="2.5" fill="#8b95a1" opacity="0.20"/>
<rect x="563" y="79" width="11" height="11" rx="2.5" fill="#8b95a1" opacity="0.20"/>
<rect x="563" y="92" width="11" height="11" rx="2.5" fill="#8b95a1" opacity="0.20"/>
<rect x="576" y="14" width="11" height="11" rx="2.5" fill="#8b95a1" opacity="0.20"/>
<rect x="576" y="27" width="11" height="11" rx="2.5" fill="#8b95a1" opacity="0.20"/>
<rect x="576" y="40" width="11" height="11" rx="2.5" fill="#8b95a1" opacity="0.20"/>
<rect x="576" y="53" width="11" height="11" rx="2.5" fill="#8b95a1" opacity="0.20"/>
<rect x="576" y="66" width="11" height="11" rx="2.5" fill="#8b95a1" opacity="0.20"/>
<rect x="576" y="79" width="11" height="11" rx="2.5" fill="#a7e8d8" class="c" style="animation-name:e42_5"/>
<rect x="576" y="92" width="11" height="11" rx="2.5" fill="#5fcdb5" class="c" style="animation-name:e42_6"/>
<rect x="589" y="14" width="11" height="11" rx="2.5" fill="#1f7a6b" class="c" style="animation-name:e43_0"/>
<rect x="589" y="27" width="11" height="11" rx="2.5" fill="#35a08e" class="c" style="animation-name:e43_1"/>
<rect x="589" y="40" width="11" height="11" rx="2.5" fill="#8b95a1" opacity="0.20"/>
<rect x="589" y="53" width="11" height="11" rx="2.5" fill="#35a08e" class="c" style="animation-name:e43_3"/>
<rect x="589" y="66" width="11" height="11" rx="2.5" fill="#8b95a1" opacity="0.20"/>
<rect x="589" y="79" width="11" height="11" rx="2.5" fill="#8b95a1" opacity="0.20"/>
<rect x="589" y="92" width="11" height="11" rx="2.5" fill="#8b95a1" opacity="0.20"/>
<rect x="602" y="14" width="11" height="11" rx="2.5" fill="#a7e8d8" class="c" style="animation-name:e44_0"/>
<rect x="602" y="27" width="11" height="11" rx="2.5" fill="#5fcdb5" class="c" style="animation-name:e44_1"/>
<rect x="602" y="40" width="11" height="11" rx="2.5" fill="#a7e8d8" class="c" style="animation-name:e44_2"/>
<rect x="602" y="53" width="11" height="11" rx="2.5" fill="#5fcdb5" class="c" style="animation-name:e44_3"/>
<rect x="602" y="66" width="11" height="11" rx="2.5" fill="#a7e8d8" class="c" style="animation-name:e44_4"/>
<rect x="602" y="79" width="11" height="11" rx="2.5" fill="#8b95a1" opacity="0.20"/>
<rect x="602" y="92" width="11" height="11" rx="2.5" fill="#8b95a1" opacity="0.20"/>
<rect x="615" y="14" width="11" height="11" rx="2.5" fill="#8b95a1" opacity="0.20"/>
<rect x="615" y="27" width="11" height="11" rx="2.5" fill="#a7e8d8" class="c" style="animation-name:e45_1"/>
<rect x="615" y="40" width="11" height="11" rx="2.5" fill="#a7e8d8" class="c" style="animation-name:e45_2"/>
<rect x="615" y="53" width="11" height="11" rx="2.5" fill="#8b95a1" opacity="0.20"/>
<rect x="615" y="66" width="11" height="11" rx="2.5" fill="#8b95a1" opacity="0.20"/>
<rect x="615" y="79" width="11" height="11" rx="2.5" fill="#8b95a1" opacity="0.20"/>
<rect x="615" y="92" width="11" height="11" rx="2.5" fill="#8b95a1" opacity="0.20"/>
<rect x="628" y="14" width="11" height="11" rx="2.5" fill="#8b95a1" opacity="0.20"/>
<rect x="628" y="27" width="11" height="11" rx="2.5" fill="#8b95a1" opacity="0.20"/>
<rect x="628" y="40" width="11" height="11" rx="2.5" fill="#8b95a1" opacity="0.20"/>
<rect x="628" y="53" width="11" height="11" rx="2.5" fill="#8b95a1" opacity="0.20"/>
<rect x="628" y="66" width="11" height="11" rx="2.5" fill="#8b95a1" opacity="0.20"/>
<rect x="628" y="79" width="11" height="11" rx="2.5" fill="#8b95a1" opacity="0.20"/>
<rect x="628" y="92" width="11" height="11" rx="2.5" fill="#8b95a1" opacity="0.20"/>
<rect x="641" y="14" width="11" height="11" rx="2.5" fill="#a7e8d8" class="c" style="animation-name:e47_0"/>
<rect x="641" y="27" width="11" height="11" rx="2.5" fill="#5fcdb5" class="c" style="animation-name:e47_1"/>
<rect x="641" y="40" width="11" height="11" rx="2.5" fill="#5fcdb5" class="c" style="animation-name:e47_2"/>
<rect x="641" y="53" width="11" height="11" rx="2.5" fill="#1f7a6b" class="c" style="animation-name:e47_3"/>
<rect x="641" y="66" width="11" height="11" rx="2.5" fill="#5fcdb5" class="c" style="animation-name:e47_4"/>
<rect x="641" y="79" width="11" height="11" rx="2.5" fill="#5fcdb5" class="c" style="animation-name:e47_5"/>
<rect x="641" y="92" width="11" height="11" rx="2.5" fill="#1f7a6b" class="c" style="animation-name:e47_6"/>
<rect x="654" y="14" width="11" height="11" rx="2.5" fill="#1f7a6b" class="c" style="animation-name:e48_0"/>
<rect x="654" y="27" width="11" height="11" rx="2.5" fill="#1f7a6b" class="c" style="animation-name:e48_1"/>
<rect x="654" y="40" width="11" height="11" rx="2.5" fill="#35a08e" class="c" style="animation-name:e48_2"/>
<rect x="654" y="53" width="11" height="11" rx="2.5" fill="#35a08e" class="c" style="animation-name:e48_3"/>
<rect x="654" y="66" width="11" height="11" rx="2.5" fill="#1f7a6b" class="c" style="animation-name:e48_4"/>
<rect x="654" y="79" width="11" height="11" rx="2.5" fill="#1f7a6b" class="c" style="animation-name:e48_5"/>
<rect x="654" y="92" width="11" height="11" rx="2.5" fill="#a7e8d8" class="c" style="animation-name:e48_6"/>
<rect x="667" y="14" width="11" height="11" rx="2.5" fill="#1f7a6b" class="c" style="animation-name:e49_0"/>
<rect x="667" y="27" width="11" height="11" rx="2.5" fill="#1f7a6b" class="c" style="animation-name:e49_1"/>
<rect x="667" y="40" width="11" height="11" rx="2.5" fill="#35a08e" class="c" style="animation-name:e49_2"/>
<rect x="667" y="53" width="11" height="11" rx="2.5" fill="#35a08e" class="c" style="animation-name:e49_3"/>
<rect x="667" y="66" width="11" height="11" rx="2.5" fill="#1f7a6b" class="c" style="animation-name:e49_4"/>
<rect x="667" y="79" width="11" height="11" rx="2.5" fill="#a7e8d8" class="c" style="animation-name:e49_5"/>
<rect x="667" y="92" width="11" height="11" rx="2.5" fill="#35a08e" class="c" style="animation-name:e49_6"/>
<rect x="680" y="14" width="11" height="11" rx="2.5" fill="#5fcdb5" class="c" style="animation-name:e50_0"/>
<rect x="680" y="27" width="11" height="11" rx="2.5" fill="#5fcdb5" class="c" style="animation-name:e50_1"/>
<rect x="680" y="40" width="11" height="11" rx="2.5" fill="#5fcdb5" class="c" style="animation-name:e50_2"/>
<rect x="680" y="53" width="11" height="11" rx="2.5" fill="#5fcdb5" class="c" style="animation-name:e50_3"/>
<rect x="680" y="66" width="11" height="11" rx="2.5" fill="#35a08e" class="c" style="animation-name:e50_4"/>
<rect x="680" y="79" width="11" height="11" rx="2.5" fill="#a7e8d8" class="c" style="animation-name:e50_5"/>
<rect x="680" y="92" width="11" height="11" rx="2.5" fill="#35a08e" class="c" style="animation-name:e50_6"/>
<rect x="693" y="14" width="11" height="11" rx="2.5" fill="#a7e8d8" class="c" style="animation-name:e51_0"/>
<rect x="693" y="27" width="11" height="11" rx="2.5" fill="#8b95a1" opacity="0.20"/>
<rect x="693" y="40" width="11" height="11" rx="2.5" fill="#8b95a1" opacity="0.20"/>
<rect x="693" y="53" width="11" height="11" rx="2.5" fill="#8b95a1" opacity="0.20"/>
<rect x="693" y="66" width="11" height="11" rx="2.5" fill="#8b95a1" opacity="0.20"/>
<rect x="693" y="79" width="11" height="11" rx="2.5" fill="#8b95a1" opacity="0.20"/>
<rect x="693" y="92" width="11" height="11" rx="2.5" fill="#8b95a1" opacity="0.20"/>
<text x="3" y="35.5" font-size="9" fill="#8b95a1">Пн</text>
<text x="3" y="61.5" font-size="9" fill="#8b95a1">Ср</text>
<text x="3" y="87.5" font-size="9" fill="#8b95a1">Пт</text>
<clipPath id="gclip"><rect x="30" y="14" width="674" height="89"/></clipPath>
<g clip-path="url(#gclip)">
<rect class="sg" style="animation-name:snk,g5;animation-delay:0.300s,0s" x="0" y="0" width="11" height="11" rx="3"/>
<rect class="sg" style="animation-name:snk,g4;animation-delay:0.240s,0s" x="0" y="0" width="11" height="11" rx="3"/>
<rect class="sg" style="animation-delay:0.180s;opacity:0.875" x="0" y="0" width="11" height="11" rx="3"/>
<rect class="sg" style="animation-delay:0.120s;opacity:0.89" x="0" y="0" width="11" height="11" rx="3"/>
<rect class="sg" style="animation-delay:0.060s;opacity:0.905" x="0" y="0" width="11" height="11" rx="3"/>
<rect class="sg" style="animation-delay:0.000s;opacity:1" x="0" y="0" width="11" height="11" rx="5.5"/>
</g>
</svg>
