<svg xmlns="http://www.w3.org/2000/svg" viewBox="0 0 710 109" role="img" aria-label="git-активность candycate-studio за год: змейка съедает клетки коммитов">
<title>git-активность candycate-studio</title>
<style>.c{animation-duration:11.82s;animation-timing-function:linear;animation-iteration-count:infinite}.sg{transform-box:view-box;transform-origin:0 0;fill:#d8285a;animation:snk 11.82s linear infinite}@keyframes snk{0%{transform:translate(-22px,53px)}0.508%{transform:translate(-9px,53px)}1.015%{transform:translate(4px,53px)}1.523%{transform:translate(17px,53px)}2.03%{transform:translate(30px,53px)}2.538%{transform:translate(30px,66px)}3.046%{transform:translate(43px,66px)}3.553%{transform:translate(56px,66px)}4.061%{transform:translate(69px,66px)}4.569%{transform:translate(69px,53px)}5.076%{transform:translate(82px,53px)}5.584%{transform:translate(95px,53px)}6.091%{transform:translate(108px,53px)}6.599%{transform:translate(121px,53px)}7.107%{transform:translate(134px,53px)}7.614%{transform:translate(147px,53px)}8.122%{transform:translate(147px,40px)}8.629%{transform:translate(160px,40px)}9.137%{transform:translate(173px,40px)}9.645%{transform:translate(173px,53px)}10.152%{transform:translate(186px,53px)}10.66%{transform:translate(199px,53px)}11.168%{transform:translate(212px,53px)}11.675%{transform:translate(225px,53px)}12.183%{transform:translate(238px,53px)}12.69%{transform:translate(251px,53px)}13.198%{transform:translate(251px,66px)}13.706%{transform:translate(264px,66px)}14.213%{transform:translate(277px,66px)}14.721%{transform:translate(277px,53px)}15.228%{transform:translate(290px,53px)}15.736%{transform:translate(303px,53px)}16.244%{transform:translate(303px,40px)}16.751%{transform:translate(316px,40px)}17.259%{transform:translate(329px,40px)}17.766%{transform:translate(329px,53px)}18.274%{transform:translate(342px,53px)}18.782%{transform:translate(355px,53px)}19.289%{transform:translate(368px,53px)}19.797%{transform:translate(368px,66px)}20.305%{transform:translate(381px,66px)}20.812%{transform:translate(381px,53px)}21.32%{transform:translate(394px,53px)}21.827%{transform:translate(407px,53px)}22.335%{transform:translate(407px,40px)}22.843%{transform:translate(420px,40px)}23.35%{transform:translate(433px,40px)}23.858%{transform:translate(433px,53px)}24.365%{transform:translate(433px,66px)}24.873%{transform:translate(446px,66px)}25.381%{transform:translate(446px,53px)}25.888%{transform:translate(459px,53px)}26.396%{transform:translate(459px,66px)}26.904%{transform:translate(472px,66px)}27.411%{transform:translate(472px,53px)}27.919%{transform:translate(485px,53px)}28.426%{transform:translate(498px,53px)}28.934%{transform:translate(511px,53px)}29.442%{transform:translate(524px,53px)}29.949%{transform:translate(537px,53px)}30.457%{transform:translate(537px,40px)}30.964%{transform:translate(550px,40px)}31.472%{transform:translate(550px,53px)}31.98%{transform:translate(550px,66px)}32.487%{transform:translate(563px,66px)}32.995%{transform:translate(563px,53px)}33.503%{transform:translate(563px,40px)}34.01%{transform:translate(576px,40px)}34.518%{transform:translate(576px,53px)}35.025%{transform:translate(589px,53px)}35.533%{transform:translate(602px,53px)}36.041%{transform:translate(602px,66px)}36.548%{transform:translate(615px,66px)}37.056%{transform:translate(615px,53px)}37.563%{transform:translate(615px,40px)}38.071%{transform:translate(602px,40px)}38.579%{transform:translate(602px,27px)}39.086%{transform:translate(615px,27px)}39.594%{transform:translate(615px,14px)}40.102%{transform:translate(602px,14px)}40.609%{transform:translate(589px,14px)}41.117%{transform:translate(589px,27px)}41.624%{transform:translate(589px,40px)}42.132%{transform:translate(602px,40px)}42.64%{transform:translate(602px,27px)}43.147%{transform:translate(615px,27px)}43.655%{transform:translate(628px,27px)}44.162%{transform:translate(628px,40px)}44.67%{transform:translate(641px,40px)}45.178%{transform:translate(641px,27px)}45.685%{transform:translate(641px,14px)}46.193%{transform:translate(654px,14px)}46.701%{transform:translate(667px,14px)}47.208%{transform:translate(667px,27px)}47.716%{transform:translate(654px,27px)}48.223%{transform:translate(654px,40px)}48.731%{transform:translate(654px,53px)}49.239%{transform:translate(641px,53px)}49.746%{transform:translate(628px,53px)}50.254%{transform:translate(628px,66px)}50.761%{transform:translate(641px,66px)}51.269%{transform:translate(654px,66px)}51.777%{transform:translate(667px,66px)}52.284%{transform:translate(667px,79px)}52.792%{transform:translate(667px,92px)}53.299%{transform:translate(654px,92px)}53.807%{transform:translate(641px,92px)}54.315%{transform:translate(641px,79px)}54.822%{transform:translate(641px,66px)}55.33%{transform:translate(654px,66px)}55.838%{transform:translate(667px,66px)}56.345%{transform:translate(667px,79px)}56.853%{transform:translate(654px,79px)}57.36%{transform:translate(654px,92px)}57.868%{transform:translate(667px,92px)}58.376%{transform:translate(680px,92px)}58.883%{transform:translate(680px,79px)}59.391%{transform:translate(680px,66px)}59.898%{transform:translate(680px,53px)}60.406%{transform:translate(667px,53px)}60.914%{transform:translate(654px,53px)}61.421%{transform:translate(654px,40px)}61.929%{transform:translate(654px,27px)}62.437%{transform:translate(667px,27px)}62.944%{transform:translate(667px,40px)}63.452%{transform:translate(680px,40px)}63.959%{transform:translate(693px,40px)}64.467%{transform:translate(693px,27px)}64.975%{transform:translate(693px,14px)}65.482%{transform:translate(680px,14px)}65.99%{transform:translate(667px,14px)}66.497%{transform:translate(667px,27px)}67.005%{transform:translate(680px,27px)}67.513%{transform:translate(680px,40px)}68.02%{transform:translate(693px,40px)}68.528%{transform:translate(693px,27px)}69.036%{transform:translate(693px,14px)}69.543%{transform:translate(680px,14px)}70.051%{transform:translate(667px,14px)}70.558%{transform:translate(667px,27px)}71.066%{transform:translate(680px,27px)}71.574%{transform:translate(680px,40px)}72.081%{transform:translate(680px,53px)}72.589%{transform:translate(680px,66px)}73.096%{transform:translate(693px,66px)}73.604%{transform:translate(693px,53px)}74.112%{transform:translate(693px,40px)}74.619%{transform:translate(693px,27px)}75.127%{transform:translate(693px,14px)}75.635%{transform:translate(680px,14px)}76.142%{transform:translate(680px,27px)}76.65%{transform:translate(680px,40px)}77.157%{transform:translate(680px,53px)}77.665%{transform:translate(693px,53px)}78.173%{transform:translate(693px,66px)}78.68%{transform:translate(693px,79px)}79.188%{transform:translate(693px,92px)}79.695%{transform:translate(680px,92px)}80.203%{transform:translate(680px,79px)}80.711%{transform:translate(667px,79px)}81.218%{transform:translate(654px,79px)}81.726%{transform:translate(641px,79px)}82.234%{transform:translate(641px,92px)}82.741%{transform:translate(628px,92px)}83.249%{transform:translate(628px,79px)}83.756%{transform:translate(615px,79px)}84.264%{transform:translate(615px,66px)}84.772%{transform:translate(602px,66px)}85.279%{transform:translate(589px,66px)}85.787%{transform:translate(576px,66px)}86.294%{transform:translate(576px,79px)}86.802%{transform:translate(589px,79px)}87.31%{transform:translate(589px,92px)}87.817%{transform:translate(576px,92px)}88.325%{transform:translate(563px,92px)}88.832%{transform:translate(550px,92px)}89.34%{transform:translate(537px,92px)}89.848%{transform:translate(537px,79px)}90.355%{transform:translate(550px,79px)}90.863%{transform:translate(563px,79px)}91.371%{transform:translate(576px,79px)}91.878%{transform:translate(589px,79px)}92.386%{transform:translate(602px,79px)}92.893%{transform:translate(615px,79px)}93.401%{transform:translate(628px,79px)}93.909%{transform:translate(641px,79px)}94.416%{transform:translate(654px,79px)}94.924%{transform:translate(667px,79px)}95.431%{transform:translate(680px,79px)}95.939%{transform:translate(693px,79px)}96.447%{transform:translate(706px,79px)}96.954%{transform:translate(719px,79px)}97.462%{transform:translate(732px,79px)}97.97%{transform:translate(745px,79px)}98.477%{transform:translate(758px,79px)}98.985%{transform:translate(771px,79px)}99.492%{transform:translate(784px,79px)}100%{transform:translate(797px,79px)}}@keyframes e42_5{0%,86.294%{fill:#a7e8d8;opacity:1}86.701%,100%{fill:#8b95a1;opacity:.2}}@keyframes e42_6{0%,87.817%{fill:#5fcdb5;opacity:1}88.223%,100%{fill:#8b95a1;opacity:.2}}@keyframes e43_0{0%,40.609%{fill:#1f7a6b;opacity:1}41.015%,100%{fill:#8b95a1;opacity:.2}}@keyframes e43_1{0%,41.117%{fill:#35a08e;opacity:1}41.523%,100%{fill:#8b95a1;opacity:.2}}@keyframes e43_3{0%,35.025%{fill:#35a08e;opacity:1}35.431%,100%{fill:#8b95a1;opacity:.2}}@keyframes e44_0{0%,40.102%{fill:#a7e8d8;opacity:1}40.508%,100%{fill:#8b95a1;opacity:.2}}@keyframes e44_1{0%,38.579%{fill:#35a08e;opacity:1}38.985%,100%{fill:#8b95a1;opacity:.2}}@keyframes e44_2{0%,38.071%{fill:#a7e8d8;opacity:1}38.477%,100%{fill:#8b95a1;opacity:.2}}@keyframes e44_3{0%,35.533%{fill:#5fcdb5;opacity:1}35.939%,100%{fill:#8b95a1;opacity:.2}}@keyframes e44_4{0%,36.041%{fill:#a7e8d8;opacity:1}36.447%,100%{fill:#8b95a1;opacity:.2}}@keyframes e45_1{0%,39.086%{fill:#a7e8d8;opacity:1}39.492%,100%{fill:#8b95a1;opacity:.2}}@keyframes e45_2{0%,37.563%{fill:#a7e8d8;opacity:1}37.97%,100%{fill:#8b95a1;opacity:.2}}@keyframes e47_0{0%,45.685%{fill:#a7e8d8;opacity:1}46.091%,100%{fill:#8b95a1;opacity:.2}}@keyframes e47_1{0%,45.178%{fill:#35a08e;opacity:1}45.584%,100%{fill:#8b95a1;opacity:.2}}@keyframes e47_2{0%,44.67%{fill:#5fcdb5;opacity:1}45.076%,100%{fill:#8b95a1;opacity:.2}}@keyframes e47_3{0%,49.239%{fill:#1f7a6b;opacity:1}49.645%,100%{fill:#8b95a1;opacity:.2}}@keyframes e47_4{0%,50.761%{fill:#5fcdb5;opacity:1}51.168%,100%{fill:#8b95a1;opacity:.2}}@keyframes e47_5{0%,54.315%{fill:#5fcdb5;opacity:1}54.721%,100%{fill:#8b95a1;opacity:.2}}@keyframes e47_6{0%,53.807%{fill:#1f7a6b;opacity:1}54.213%,100%{fill:#8b95a1;opacity:.2}}@keyframes e48_0{0%,46.193%{fill:#1f7a6b;opacity:1}46.599%,100%{fill:#8b95a1;opacity:.2}}@keyframes e48_1{0%,47.716%{fill:#1f7a6b;opacity:1}48.122%,100%{fill:#8b95a1;opacity:.2}}@keyframes e48_2{0%,48.223%{fill:#35a08e;opacity:1}48.629%,100%{fill:#8b95a1;opacity:.2}}@keyframes e48_3{0%,48.731%{fill:#35a08e;opacity:1}49.137%,100%{fill:#8b95a1;opacity:.2}}@keyframes e48_4{0%,51.269%{fill:#1f7a6b;opacity:1}51.675%,100%{fill:#8b95a1;opacity:.2}}@keyframes e48_5{0%,56.853%{fill:#1f7a6b;opacity:1}57.259%,100%{fill:#8b95a1;opacity:.2}}@keyframes e48_6{0%,53.299%{fill:#a7e8d8;opacity:1}53.706%,100%{fill:#8b95a1;opacity:.2}}@keyframes e49_0{0%,46.701%{fill:#1f7a6b;opacity:1}47.107%,100%{fill:#8b95a1;opacity:.2}}@keyframes e49_1{0%,47.208%{fill:#1f7a6b;opacity:1}47.614%,100%{fill:#8b95a1;opacity:.2}}@keyframes e49_2{0%,62.944%{fill:#1f7a6b;opacity:1}63.35%,100%{fill:#8b95a1;opacity:.2}}@keyframes e49_3{0%,60.406%{fill:#35a08e;opacity:1}60.812%,100%{fill:#8b95a1;opacity:.2}}@keyframes e49_4{0%,51.777%{fill:#1f7a6b;opacity:1}52.183%,100%{fill:#8b95a1;opacity:.2}}@keyframes e49_5{0%,52.284%{fill:#a7e8d8;opacity:1}52.69%,100%{fill:#8b95a1;opacity:.2}}@keyframes e49_6{0%,52.792%{fill:#35a08e;opacity:1}53.198%,100%{fill:#8b95a1;opacity:.2}}@keyframes e50_0{0%,65.482%{fill:#5fcdb5;opacity:1}65.888%,100%{fill:#8b95a1;opacity:.2}}@keyframes e50_1{0%,67.005%{fill:#35a08e;opacity:1}67.411%,100%{fill:#8b95a1;opacity:.2}}@keyframes e50_2{0%,63.452%{fill:#35a08e;opacity:1}63.858%,100%{fill:#8b95a1;opacity:.2}}@keyframes e50_3{0%,59.898%{fill:#5fcdb5;opacity:1}60.305%,100%{fill:#8b95a1;opacity:.2}}@keyframes e50_4{0%,59.391%{fill:#35a08e;opacity:1}59.797%,100%{fill:#8b95a1;opacity:.2}}@keyframes e50_5{0%,58.883%{fill:#a7e8d8;opacity:1}59.289%,100%{fill:#8b95a1;opacity:.2}}@keyframes e50_6{0%,58.376%{fill:#35a08e;opacity:1}58.782%,100%{fill:#8b95a1;opacity:.2}}@keyframes e51_0{0%,64.975%{fill:#5fcdb5;opacity:1}65.381%,100%{fill:#8b95a1;opacity:.2}}@keyframes e51_1{0%,64.467%{fill:#5fcdb5;opacity:1}64.873%,100%{fill:#8b95a1;opacity:.2}}@keyframes e51_2{0%,63.959%{fill:#5fcdb5;opacity:1}64.365%,100%{fill:#8b95a1;opacity:.2}}@keyframes e51_3{0%,73.604%{fill:#a7e8d8;opacity:1}74.01%,100%{fill:#8b95a1;opacity:.2}}@keyframes e51_4{0%,73.096%{fill:#a7e8d8;opacity:1}73.503%,100%{fill:#8b95a1;opacity:.2}}@keyframes e51_5{0%,78.68%{fill:#a7e8d8;opacity:1}79.086%,100%{fill:#8b95a1;opacity:.2}}@keyframes g5{0%,35.533%{opacity:0}35.787%,100%{opacity:0.845}}@keyframes g4{0%,35.025%{opacity:0}35.279%,100%{opacity:0.86}}@media(prefers-reduced-motion:reduce){.sg{display:none}.c{animation:none}}</style>
<rect x="30" y="14" width="11" height="11" rx="2.5" fill="#8b95a1" opacity="0.20"/>
<rect x="30" y="27" width="11" height="11" rx="2.5" fill="#8b95a1" opacity="0.20"/>
<rect x="30" y="40" width="11" height="11" rx="2.5" fill="#8b95a1" opacity="0.20"/>
<rect x="30" y="53" width="11" height="11" rx="2.5" fill="#8b95a1" opacity="0.20"/>
<rect x="30" y="66" width="11" height="11" rx="2.5" fill="#8b95a1" opacity="0.20"/>
<rect x="30" y="79" width="11" height="11" rx="2.5" fill="#8b95a1" opacity="0.20"/>
<rect x="30" y="92" width="11" height="11" rx="2.5" fill="#8b95a1" opacity="0.20"/>
<rect x="43" y="14" width="11" height="11" rx="2.5" fill="#8b95a1" opacity="0.20"/>
<rect x="43" y="27" width="11" height="11" rx="2.5" fill="#8b95a1" opacity="0.20"/>
<rect x="43" y="40" width="11" height="11" rx="2.5" fill="#8b95a1" opacity="0.20"/>
<rect x="43" y="53" width="11" height="11" rx="2.5" fill="#8b95a1" opacity="0.20"/>
<rect x="43" y="66" width="11" height="11" rx="2.5" fill="#8b95a1" opacity="0.20"/>
<rect x="43" y="79" width="11" height="11" rx="2.5" fill="#8b95a1" opacity="0.20"/>
<rect x="43" y="92" width="11" height="11" rx="2.5" fill="#8b95a1" opacity="0.20"/>
<rect x="56" y="14" width="11" height="11" rx="2.5" fill="#8b95a1" opacity="0.20"/>
<rect x="56" y="27" width="11" height="11" rx="2.5" fill="#8b95a1" opacity="0.20"/>
<rect x="56" y="40" width="11" height="11" rx="2.5" fill="#8b95a1" opacity="0.20"/>
<rect x="56" y="53" width="11" height="11" rx="2.5" fill="#8b95a1" opacity="0.20"/>
<rect x="56" y="66" width="11" height="11" rx="2.5" fill="#8b95a1" opacity="0.20"/>
<rect x="56" y="79" width="11" height="11" rx="2.5" fill="#8b95a1" opacity="0.20"/>
<rect x="56" y="92" width="11" height="11" rx="2.5" fill="#8b95a1" opacity="0.20"/>
<rect x="69" y="14" width="11" height="11" rx="2.5" fill="#8b95a1" opacity="0.20"/>
<rect x="69" y="27" width="11" height="11" rx="2.5" fill="#8b95a1" opacity="0.20"/>
<rect x="69" y="40" width="11" height="11" rx="2.5" fill="#8b95a1" opacity="0.20"/>
<rect x="69" y="53" width="11" height="11" rx="2.5" fill="#8b95a1" opacity="0.20"/>
<rect x="69" y="66" width="11" height="11" rx="2.5" fill="#8b95a1" opacity="0.20"/>
<rect x="69" y="79" width="11" height="11" rx="2.5" fill="#8b95a1" opacity="0.20"/>
<rect x="69" y="92" width="11" height="11" rx="2.5" fill="#8b95a1" opacity="0.20"/>
<rect x="82" y="14" width="11" height="11" rx="2.5" fill="#8b95a1" opacity="0.20"/>
<rect x="82" y="27" width="11" height="11" rx="2.5" fill="#8b95a1" opacity="0.20"/>
<rect x="82" y="40" width="11" height="11" rx="2.5" fill="#8b95a1" opacity="0.20"/>
<rect x="82" y="53" width="11" height="11" rx="2.5" fill="#8b95a1" opacity="0.20"/>
<rect x="82" y="66" width="11" height="11" rx="2.5" fill="#8b95a1" opacity="0.20"/>
<rect x="82" y="79" width="11" height="11" rx="2.5" fill="#8b95a1" opacity="0.20"/>
<rect x="82" y="92" width="11" height="11" rx="2.5" fill="#8b95a1" opacity="0.20"/>
<rect x="95" y="14" width="11" height="11" rx="2.5" fill="#8b95a1" opacity="0.20"/>
<rect x="95" y="27" width="11" height="11" rx="2.5" fill="#8b95a1" opacity="0.20"/>
<rect x="95" y="40" width="11" height="11" rx="2.5" fill="#8b95a1" opacity="0.20"/>
<rect x="95" y="53" width="11" height="11" rx="2.5" fill="#8b95a1" opacity="0.20"/>
<rect x="95" y="66" width="11" height="11" rx="2.5" fill="#8b95a1" opacity="0.20"/>
<rect x="95" y="79" width="11" height="11" rx="2.5" fill="#8b95a1" opacity="0.20"/>
<rect x="95" y="92" width="11" height="11" rx="2.5" fill="#8b95a1" opacity="0.20"/>
<rect x="108" y="14" width="11" height="11" rx="2.5" fill="#8b95a1" opacity="0.20"/>
<rect x="108" y="27" width="11" height="11" rx="2.5" fill="#8b95a1" opacity="0.20"/>
<rect x="108" y="40" width="11" height="11" rx="2.5" fill="#8b95a1" opacity="0.20"/>
<rect x="108" y="53" width="11" height="11" rx="2.5" fill="#8b95a1" opacity="0.20"/>
<rect x="108" y="66" width="11" height="11" rx="2.5" fill="#8b95a1" opacity="0.20"/>
<rect x="108" y="79" width="11" height="11" rx="2.5" fill="#8b95a1" opacity="0.20"/>
<rect x="108" y="92" width="11" height="11" rx="2.5" fill="#8b95a1" opacity="0.20"/>
<rect x="121" y="14" width="11" height="11" rx="2.5" fill="#8b95a1" opacity="0.20"/>
<rect x="121" y="27" width="11" height="11" rx="2.5" fill="#8b95a1" opacity="0.20"/>
<rect x="121" y="40" width="11" height="11" rx="2.5" fill="#8b95a1" opacity="0.20"/>
<rect x="121" y="53" width="11" height="11" rx="2.5" fill="#8b95a1" opacity="0.20"/>
<rect x="121" y="66" width="11" height="11" rx="2.5" fill="#8b95a1" opacity="0.20"/>
<rect x="121" y="79" width="11" height="11" rx="2.5" fill="#8b95a1" opacity="0.20"/>
<rect x="121" y="92" width="11" height="11" rx="2.5" fill="#8b95a1" opacity="0.20"/>
<rect x="134" y="14" width="11" height="11" rx="2.5" fill="#8b95a1" opacity="0.20"/>
<rect x="134" y="27" width="11" height="11" rx="2.5" fill="#8b95a1" opacity="0.20"/>
<rect x="134" y="40" width="11" height="11" rx="2.5" fill="#8b95a1" opacity="0.20"/>
<rect x="134" y="53" width="11" height="11" rx="2.5" fill="#8b95a1" opacity="0.20"/>
<rect x="134" y="66" width="11" height="11" rx="2.5" fill="#8b95a1" opacity="0.20"/>
<rect x="134" y="79" width="11" height="11" rx="2.5" fill="#8b95a1" opacity="0.20"/>
<rect x="134" y="92" width="11" height="11" rx="2.5" fill="#8b95a1" opacity="0.20"/>
<rect x="147" y="14" width="11" height="11" rx="2.5" fill="#8b95a1" opacity="0.20"/>
<rect x="147" y="27" width="11" height="11" rx="2.5" fill="#8b95a1" opacity="0.20"/>
<rect x="147" y="40" width="11" height="11" rx="2.5" fill="#8b95a1" opacity="0.20"/>
<rect x="147" y="53" width="11" height="11" rx="2.5" fill="#8b95a1" opacity="0.20"/>
<rect x="147" y="66" width="11" height="11" rx="2.5" fill="#8b95a1" opacity="0.20"/>
<rect x="147" y="79" width="11" height="11" rx="2.5" fill="#8b95a1" opacity="0.20"/>
<rect x="147" y="92" width="11" height="11" rx="2.5" fill="#8b95a1" opacity="0.20"/>
<rect x="160" y="14" width="11" height="11" rx="2.5" fill="#8b95a1" opacity="0.20"/>
<rect x="160" y="27" width="11" height="11" rx="2.5" fill="#8b95a1" opacity="0.20"/>
<rect x="160" y="40" width="11" height="11" rx="2.5" fill="#8b95a1" opacity="0.20"/>
<rect x="160" y="53" width="11" height="11" rx="2.5" fill="#8b95a1" opacity="0.20"/>
<rect x="160" y="66" width="11" height="11" rx="2.5" fill="#8b95a1" opacity="0.20"/>
<rect x="160" y="79" width="11" height="11" rx="2.5" fill="#8b95a1" opacity="0.20"/>
<rect x="160" y="92" width="11" height="11" rx="2.5" fill="#8b95a1" opacity="0.20"/>
<rect x="173" y="14" width="11" height="11" rx="2.5" fill="#8b95a1" opacity="0.20"/>
<rect x="173" y="27" width="11" height="11" rx="2.5" fill="#8b95a1" opacity="0.20"/>
<rect x="173" y="40" width="11" height="11" rx="2.5" fill="#8b95a1" opacity="0.20"/>
<rect x="173" y="53" width="11" height="11" rx="2.5" fill="#8b95a1" opacity="0.20"/>
<rect x="173" y="66" width="11" height="11" rx="2.5" fill="#8b95a1" opacity="0.20"/>
<rect x="173" y="79" width="11" height="11" rx="2.5" fill="#8b95a1" opacity="0.20"/>
<rect x="173" y="92" width="11" height="11" rx="2.5" fill="#8b95a1" opacity="0.20"/>
<rect x="186" y="14" width="11" height="11" rx="2.5" fill="#8b95a1" opacity="0.20"/>
<rect x="186" y="27" width="11" height="11" rx="2.5" fill="#8b95a1" opacity="0.20"/>
<rect x="186" y="40" width="11" height="11" rx="2.5" fill="#8b95a1" opacity="0.20"/>
<rect x="186" y="53" width="11" height="11" rx="2.5" fill="#8b95a1" opacity="0.20"/>
<rect x="186" y="66" width="11" height="11" rx="2.5" fill="#8b95a1" opacity="0.20"/>
<rect x="186" y="79" width="11" height="11" rx="2.5" fill="#8b95a1" opacity="0.20"/>
<rect x="186" y="92" width="11" height="11" rx="2.5" fill="#8b95a1" opacity="0.20"/>
<rect x="199" y="14" width="11" height="11" rx="2.5" fill="#8b95a1" opacity="0.20"/>
<rect x="199" y="27" width="11" height="11" rx="2.5" fill="#8b95a1" opacity="0.20"/>
<rect x="199" y="40" width="11" height="11" rx="2.5" fill="#8b95a1" opacity="0.20"/>
<rect x="199" y="53" width="11" height="11" rx="2.5" fill="#8b95a1" opacity="0.20"/>
<rect x="199" y="66" width="11" height="11" rx="2.5" fill="#8b95a1" opacity="0.20"/>
<rect x="199" y="79" width="11" height="11" rx="2.5" fill="#8b95a1" opacity="0.20"/>
<rect x="199" y="92" width="11" height="11" rx="2.5" fill="#8b95a1" opacity="0.20"/>
<rect x="212" y="14" width="11" height="11" rx="2.5" fill="#8b95a1" opacity="0.20"/>
<rect x="212" y="27" width="11" height="11" rx="2.5" fill="#8b95a1" opacity="0.20"/>
<rect x="212" y="40" width="11" height="11" rx="2.5" fill="#8b95a1" opacity="0.20"/>
<rect x="212" y="53" width="11" height="11" rx="2.5" fill="#8b95a1" opacity="0.20"/>
<rect x="212" y="66" width="11" height="11" rx="2.5" fill="#8b95a1" opacity="0.20"/>
<rect x="212" y="79" width="11" height="11" rx="2.5" fill="#8b95a1" opacity="0.20"/>
<rect x="212" y="92" width="11" height="11" rx="2.5" fill="#8b95a1" opacity="0.20"/>
<rect x="225" y="14" width="11" height="11" rx="2.5" fill="#8b95a1" opacity="0.20"/>
<rect x="225" y="27" width="11" height="11" rx="2.5" fill="#8b95a1" opacity="0.20"/>
<rect x="225" y="40" width="11" height="11" rx="2.5" fill="#8b95a1" opacity="0.20"/>
<rect x="225" y="53" width="11" height="11" rx="2.5" fill="#8b95a1" opacity="0.20"/>
<rect x="225" y="66" width="11" height="11" rx="2.5" fill="#8b95a1" opacity="0.20"/>
<rect x="225" y="79" width="11" height="11" rx="2.5" fill="#8b95a1" opacity="0.20"/>
<rect x="225" y="92" width="11" height="11" rx="2.5" fill="#8b95a1" opacity="0.20"/>
<rect x="238" y="14" width="11" height="11" rx="2.5" fill="#8b95a1" opacity="0.20"/>
<rect x="238" y="27" width="11" height="11" rx="2.5" fill="#8b95a1" opacity="0.20"/>
<rect x="238" y="40" width="11" height="11" rx="2.5" fill="#8b95a1" opacity="0.20"/>
<rect x="238" y="53" width="11" height="11" rx="2.5" fill="#8b95a1" opacity="0.20"/>
<rect x="238" y="66" width="11" height="11" rx="2.5" fill="#8b95a1" opacity="0.20"/>
<rect x="238" y="79" width="11" height="11" rx="2.5" fill="#8b95a1" opacity="0.20"/>
<rect x="238" y="92" width="11" height="11" rx="2.5" fill="#8b95a1" opacity="0.20"/>
<rect x="251" y="14" width="11" height="11" rx="2.5" fill="#8b95a1" opacity="0.20"/>
<rect x="251" y="27" width="11" height="11" rx="2.5" fill="#8b95a1" opacity="0.20"/>
<rect x="251" y="40" width="11" height="11" rx="2.5" fill="#8b95a1" opacity="0.20"/>
<rect x="251" y="53" width="11" height="11" rx="2.5" fill="#8b95a1" opacity="0.20"/>
<rect x="251" y="66" width="11" height="11" rx="2.5" fill="#8b95a1" opacity="0.20"/>
<rect x="251" y="79" width="11" height="11" rx="2.5" fill="#8b95a1" opacity="0.20"/>
<rect x="251" y="92" width="11" height="11" rx="2.5" fill="#8b95a1" opacity="0.20"/>
<rect x="264" y="14" width="11" height="11" rx="2.5" fill="#8b95a1" opacity="0.20"/>
<rect x="264" y="27" width="11" height="11" rx="2.5" fill="#8b95a1" opacity="0.20"/>
<rect x="264" y="40" width="11" height="11" rx="2.5" fill="#8b95a1" opacity="0.20"/>
<rect x="264" y="53" width="11" height="11" rx="2.5" fill="#8b95a1" opacity="0.20"/>
<rect x="264" y="66" width="11" height="11" rx="2.5" fill="#8b95a1" opacity="0.20"/>
<rect x="264" y="79" width="11" height="11" rx="2.5" fill="#8b95a1" opacity="0.20"/>
<rect x="264" y="92" width="11" height="11" rx="2.5" fill="#8b95a1" opacity="0.20"/>
<rect x="277" y="14" width="11" height="11" rx="2.5" fill="#8b95a1" opacity="0.20"/>
<rect x="277" y="27" width="11" height="11" rx="2.5" fill="#8b95a1" opacity="0.20"/>
<rect x="277" y="40" width="11" height="11" rx="2.5" fill="#8b95a1" opacity="0.20"/>
<rect x="277" y="53" width="11" height="11" rx="2.5" fill="#8b95a1" opacity="0.20"/>
<rect x="277" y="66" width="11" height="11" rx="2.5" fill="#8b95a1" opacity="0.20"/>
<rect x="277" y="79" width="11" height="11" rx="2.5" fill="#8b95a1" opacity="0.20"/>
<rect x="277" y="92" width="11" height="11" rx="2.5" fill="#8b95a1" opacity="0.20"/>
<rect x="290" y="14" width="11" height="11" rx="2.5" fill="#8b95a1" opacity="0.20"/>
<rect x="290" y="27" width="11" height="11" rx="2.5" fill="#8b95a1" opacity="0.20"/>
<rect x="290" y="40" width="11" height="11" rx="2.5" fill="#8b95a1" opacity="0.20"/>
<rect x="290" y="53" width="11" height="11" rx="2.5" fill="#8b95a1" opacity="0.20"/>
<rect x="290" y="66" width="11" height="11" rx="2.5" fill="#8b95a1" opacity="0.20"/>
<rect x="290" y="79" width="11" height="11" rx="2.5" fill="#8b95a1" opacity="0.20"/>
<rect x="290" y="92" width="11" height="11" rx="2.5" fill="#8b95a1" opacity="0.20"/>
<rect x="303" y="14" width="11" height="11" rx="2.5" fill="#8b95a1" opacity="0.20"/>
<rect x="303" y="27" width="11" height="11" rx="2.5" fill="#8b95a1" opacity="0.20"/>
<rect x="303" y="40" width="11" height="11" rx="2.5" fill="#8b95a1" opacity="0.20"/>
<rect x="303" y="53" width="11" height="11" rx="2.5" fill="#8b95a1" opacity="0.20"/>
<rect x="303" y="66" width="11" height="11" rx="2.5" fill="#8b95a1" opacity="0.20"/>
<rect x="303" y="79" width="11" height="11" rx="2.5" fill="#8b95a1" opacity="0.20"/>
<rect x="303" y="92" width="11" height="11" rx="2.5" fill="#8b95a1" opacity="0.20"/>
<rect x="316" y="14" width="11" height="11" rx="2.5" fill="#8b95a1" opacity="0.20"/>
<rect x="316" y="27" width="11" height="11" rx="2.5" fill="#8b95a1" opacity="0.20"/>
<rect x="316" y="40" width="11" height="11" rx="2.5" fill="#8b95a1" opacity="0.20"/>
<rect x="316" y="53" width="11" height="11" rx="2.5" fill="#8b95a1" opacity="0.20"/>
<rect x="316" y="66" width="11" height="11" rx="2.5" fill="#8b95a1" opacity="0.20"/>
<rect x="316" y="79" width="11" height="11" rx="2.5" fill="#8b95a1" opacity="0.20"/>
<rect x="316" y="92" width="11" height="11" rx="2.5" fill="#8b95a1" opacity="0.20"/>
<rect x="329" y="14" width="11" height="11" rx="2.5" fill="#8b95a1" opacity="0.20"/>
<rect x="329" y="27" width="11" height="11" rx="2.5" fill="#8b95a1" opacity="0.20"/>
<rect x="329" y="40" width="11" height="11" rx="2.5" fill="#8b95a1" opacity="0.20"/>
<rect x="329" y="53" width="11" height="11" rx="2.5" fill="#8b95a1" opacity="0.20"/>
<rect x="329" y="66" width="11" height="11" rx="2.5" fill="#8b95a1" opacity="0.20"/>
<rect x="329" y="79" width="11" height="11" rx="2.5" fill="#8b95a1" opacity="0.20"/>
<rect x="329" y="92" width="11" height="11" rx="2.5" fill="#8b95a1" opacity="0.20"/>
<rect x="342" y="14" width="11" height="11" rx="2.5" fill="#8b95a1" opacity="0.20"/>
<rect x="342" y="27" width="11" height="11" rx="2.5" fill="#8b95a1" opacity="0.20"/>
<rect x="342" y="40" width="11" height="11" rx="2.5" fill="#8b95a1" opacity="0.20"/>
<rect x="342" y="53" width="11" height="11" rx="2.5" fill="#8b95a1" opacity="0.20"/>
<rect x="342" y="66" width="11" height="11" rx="2.5" fill="#8b95a1" opacity="0.20"/>
<rect x="342" y="79" width="11" height="11" rx="2.5" fill="#8b95a1" opacity="0.20"/>
<rect x="342" y="92" width="11" height="11" rx="2.5" fill="#8b95a1" opacity="0.20"/>
<rect x="355" y="14" width="11" height="11" rx="2.5" fill="#8b95a1" opacity="0.20"/>
<rect x="355" y="27" width="11" height="11" rx="2.5" fill="#8b95a1" opacity="0.20"/>
<rect x="355" y="40" width="11" height="11" rx="2.5" fill="#8b95a1" opacity="0.20"/>
<rect x="355" y="53" width="11" height="11" rx="2.5" fill="#8b95a1" opacity="0.20"/>
<rect x="355" y="66" width="11" height="11" rx="2.5" fill="#8b95a1" opacity="0.20"/>
<rect x="355" y="79" width="11" height="11" rx="2.5" fill="#8b95a1" opacity="0.20"/>
<rect x="355" y="92" width="11" height="11" rx="2.5" fill="#8b95a1" opacity="0.20"/>
<rect x="368" y="14" width="11" height="11" rx="2.5" fill="#8b95a1" opacity="0.20"/>
<rect x="368" y="27" width="11" height="11" rx="2.5" fill="#8b95a1" opacity="0.20"/>
<rect x="368" y="40" width="11" height="11" rx="2.5" fill="#8b95a1" opacity="0.20"/>
<rect x="368" y="53" width="11" height="11" rx="2.5" fill="#8b95a1" opacity="0.20"/>
<rect x="368" y="66" width="11" height="11" rx="2.5" fill="#8b95a1" opacity="0.20"/>
<rect x="368" y="79" width="11" height="11" rx="2.5" fill="#8b95a1" opacity="0.20"/>
<rect x="368" y="92" width="11" height="11" rx="2.5" fill="#8b95a1" opacity="0.20"/>
<rect x="381" y="14" width="11" height="11" rx="2.5" fill="#8b95a1" opacity="0.20"/>
<rect x="381" y="27" width="11" height="11" rx="2.5" fill="#8b95a1" opacity="0.20"/>
<rect x="381" y="40" width="11" height="11" rx="2.5" fill="#8b95a1" opacity="0.20"/>
<rect x="381" y="53" width="11" height="11" rx="2.5" fill="#8b95a1" opacity="0.20"/>
<rect x="381" y="66" width="11" height="11" rx="2.5" fill="#8b95a1" opacity="0.20"/>
<rect x="381" y="79" width="11" height="11" rx="2.5" fill="#8b95a1" opacity="0.20"/>
<rect x="381" y="92" width="11" height="11" rx="2.5" fill="#8b95a1" opacity="0.20"/>
<rect x="394" y="14" width="11" height="11" rx="2.5" fill="#8b95a1" opacity="0.20"/>
<rect x="394" y="27" width="11" height="11" rx="2.5" fill="#8b95a1" opacity="0.20"/>
<rect x="394" y="40" width="11" height="11" rx="2.5" fill="#8b95a1" opacity="0.20"/>
<rect x="394" y="53" width="11" height="11" rx="2.5" fill="#8b95a1" opacity="0.20"/>
<rect x="394" y="66" width="11" height="11" rx="2.5" fill="#8b95a1" opacity="0.20"/>
<rect x="394" y="79" width="11" height="11" rx="2.5" fill="#8b95a1" opacity="0.20"/>
<rect x="394" y="92" width="11" height="11" rx="2.5" fill="#8b95a1" opacity="0.20"/>
<rect x="407" y="14" width="11" height="11" rx="2.5" fill="#8b95a1" opacity="0.20"/>
<rect x="407" y="27" width="11" height="11" rx="2.5" fill="#8b95a1" opacity="0.20"/>
<rect x="407" y="40" width="11" height="11" rx="2.5" fill="#8b95a1" opacity="0.20"/>
<rect x="407" y="53" width="11" height="11" rx="2.5" fill="#8b95a1" opacity="0.20"/>
<rect x="407" y="66" width="11" height="11" rx="2.5" fill="#8b95a1" opacity="0.20"/>
<rect x="407" y="79" width="11" height="11" rx="2.5" fill="#8b95a1" opacity="0.20"/>
<rect x="407" y="92" width="11" height="11" rx="2.5" fill="#8b95a1" opacity="0.20"/>
<rect x="420" y="14" width="11" height="11" rx="2.5" fill="#8b95a1" opacity="0.20"/>
<rect x="420" y="27" width="11" height="11" rx="2.5" fill="#8b95a1" opacity="0.20"/>
<rect x="420" y="40" width="11" height="11" rx="2.5" fill="#8b95a1" opacity="0.20"/>
<rect x="420" y="53" width="11" height="11" rx="2.5" fill="#8b95a1" opacity="0.20"/>
<rect x="420" y="66" width="11" height="11" rx="2.5" fill="#8b95a1" opacity="0.20"/>
<rect x="420" y="79" width="11" height="11" rx="2.5" fill="#8b95a1" opacity="0.20"/>
<rect x="420" y="92" width="11" height="11" rx="2.5" fill="#8b95a1" opacity="0.20"/>
<rect x="433" y="14" width="11" height="11" rx="2.5" fill="#8b95a1" opacity="0.20"/>
<rect x="433" y="27" width="11" height="11" rx="2.5" fill="#8b95a1" opacity="0.20"/>
<rect x="433" y="40" width="11" height="11" rx="2.5" fill="#8b95a1" opacity="0.20"/>
<rect x="433" y="53" width="11" height="11" rx="2.5" fill="#8b95a1" opacity="0.20"/>
<rect x="433" y="66" width="11" height="11" rx="2.5" fill="#8b95a1" opacity="0.20"/>
<rect x="433" y="79" width="11" height="11" rx="2.5" fill="#8b95a1" opacity="0.20"/>
<rect x="433" y="92" width="11" height="11" rx="2.5" fill="#8b95a1" opacity="0.20"/>
<rect x="446" y="14" width="11" height="11" rx="2.5" fill="#8b95a1" opacity="0.20"/>
<rect x="446" y="27" width="11" height="11" rx="2.5" fill="#8b95a1" opacity="0.20"/>
<rect x="446" y="40" width="11" height="11" rx="2.5" fill="#8b95a1" opacity="0.20"/>
<rect x="446" y="53" width="11" height="11" rx="2.5" fill="#8b95a1" opacity="0.20"/>
<rect x="446" y="66" width="11" height="11" rx="2.5" fill="#8b95a1" opacity="0.20"/>
<rect x="446" y="79" width="11" height="11" rx="2.5" fill="#8b95a1" opacity="0.20"/>
<rect x="446" y="92" width="11" height="11" rx="2.5" fill="#8b95a1" opacity="0.20"/>
<rect x="459" y="14" width="11" height="11" rx="2.5" fill="#8b95a1" opacity="0.20"/>
<rect x="459" y="27" width="11" height="11" rx="2.5" fill="#8b95a1" opacity="0.20"/>
<rect x="459" y="40" width="11" height="11" rx="2.5" fill="#8b95a1" opacity="0.20"/>
<rect x="459" y="53" width="11" height="11" rx="2.5" fill="#8b95a1" opacity="0.20"/>
<rect x="459" y="66" width="11" height="11" rx="2.5" fill="#8b95a1" opacity="0.20"/>
<rect x="459" y="79" width="11" height="11" rx="2.5" fill="#8b95a1" opacity="0.20"/>
<rect x="459" y="92" width="11" height="11" rx="2.5" fill="#8b95a1" opacity="0.20"/>
<rect x="472" y="14" width="11" height="11" rx="2.5" fill="#8b95a1" opacity="0.20"/>
<rect x="472" y="27" width="11" height="11" rx="2.5" fill="#8b95a1" opacity="0.20"/>
<rect x="472" y="40" width="11" height="11" rx="2.5" fill="#8b95a1" opacity="0.20"/>
<rect x="472" y="53" width="11" height="11" rx="2.5" fill="#8b95a1" opacity="0.20"/>
<rect x="472" y="66" width="11" height="11" rx="2.5" fill="#8b95a1" opacity="0.20"/>
<rect x="472" y="79" width="11" height="11" rx="2.5" fill="#8b95a1" opacity="0.20"/>
<rect x="472" y="92" width="11" height="11" rx="2.5" fill="#8b95a1" opacity="0.20"/>
<rect x="485" y="14" width="11" height="11" rx="2.5" fill="#8b95a1" opacity="0.20"/>
<rect x="485" y="27" width="11" height="11" rx="2.5" fill="#8b95a1" opacity="0.20"/>
<rect x="485" y="40" width="11" height="11" rx="2.5" fill="#8b95a1" opacity="0.20"/>
<rect x="485" y="53" width="11" height="11" rx="2.5" fill="#8b95a1" opacity="0.20"/>
<rect x="485" y="66" width="11" height="11" rx="2.5" fill="#8b95a1" opacity="0.20"/>
<rect x="485" y="79" width="11" height="11" rx="2.5" fill="#8b95a1" opacity="0.20"/>
<rect x="485" y="92" width="11" height="11" rx="2.5" fill="#8b95a1" opacity="0.20"/>
<rect x="498" y="14" width="11" height="11" rx="2.5" fill="#8b95a1" opacity="0.20"/>
<rect x="498" y="27" width="11" height="11" rx="2.5" fill="#8b95a1" opacity="0.20"/>
<rect x="498" y="40" width="11" height="11" rx="2.5" fill="#8b95a1" opacity="0.20"/>
<rect x="498" y="53" width="11" height="11" rx="2.5" fill="#8b95a1" opacity="0.20"/>
<rect x="498" y="66" width="11" height="11" rx="2.5" fill="#8b95a1" opacity="0.20"/>
<rect x="498" y="79" width="11" height="11" rx="2.5" fill="#8b95a1" opacity="0.20"/>
<rect x="498" y="92" width="11" height="11" rx="2.5" fill="#8b95a1" opacity="0.20"/>
<rect x="511" y="14" width="11" height="11" rx="2.5" fill="#8b95a1" opacity="0.20"/>
<rect x="511" y="27" width="11" height="11" rx="2.5" fill="#8b95a1" opacity="0.20"/>
<rect x="511" y="40" width="11" height="11" rx="2.5" fill="#8b95a1" opacity="0.20"/>
<rect x="511" y="53" width="11" height="11" rx="2.5" fill="#8b95a1" opacity="0.20"/>
<rect x="511" y="66" width="11" height="11" rx="2.5" fill="#8b95a1" opacity="0.20"/>
<rect x="511" y="79" width="11" height="11" rx="2.5" fill="#8b95a1" opacity="0.20"/>
<rect x="511" y="92" width="11" height="11" rx="2.5" fill="#8b95a1" opacity="0.20"/>
<rect x="524" y="14" width="11" height="11" rx="2.5" fill="#8b95a1" opacity="0.20"/>
<rect x="524" y="27" width="11" height="11" rx="2.5" fill="#8b95a1" opacity="0.20"/>
<rect x="524" y="40" width="11" height="11" rx="2.5" fill="#8b95a1" opacity="0.20"/>
<rect x="524" y="53" width="11" height="11" rx="2.5" fill="#8b95a1" opacity="0.20"/>
<rect x="524" y="66" width="11" height="11" rx="2.5" fill="#8b95a1" opacity="0.20"/>
<rect x="524" y="79" width="11" height="11" rx="2.5" fill="#8b95a1" opacity="0.20"/>
<rect x="524" y="92" width="11" height="11" rx="2.5" fill="#8b95a1" opacity="0.20"/>
<rect x="537" y="14" width="11" height="11" rx="2.5" fill="#8b95a1" opacity="0.20"/>
<rect x="537" y="27" width="11" height="11" rx="2.5" fill="#8b95a1" opacity="0.20"/>
<rect x="537" y="40" width="11" height="11" rx="2.5" fill="#8b95a1" opacity="0.20"/>
<rect x="537" y="53" width="11" height="11" rx="2.5" fill="#8b95a1" opacity="0.20"/>
<rect x="537" y="66" width="11" height="11" rx="2.5" fill="#8b95a1" opacity="0.20"/>
<rect x="537" y="79" width="11" height="11" rx="2.5" fill="#8b95a1" opacity="0.20"/>
<rect x="537" y="92" width="11" height="11" rx="2.5" fill="#8b95a1" opacity="0.20"/>
<rect x="550" y="14" width="11" height="11" rx="2.5" fill="#8b95a1" opacity="0.20"/>
<rect x="550" y="27" width="11" height="11" rx="2.5" fill="#8b95a1" opacity="0.20"/>
<rect x="550" y="40" width="11" height="11" rx="2.5" fill="#8b95a1" opacity="0.20"/>
<rect x="550" y="53" width="11" height="11" rx="2.5" fill="#8b95a1" opacity="0.20"/>
<rect x="550" y="66" width="11" height="11" rx="2.5" fill="#8b95a1" opacity="0.20"/>
<rect x="550" y="79" width="11" height="11" rx="2.5" fill="#8b95a1" opacity="0.20"/>
<rect x="550" y="92" width="11" height="11" rx="2.5" fill="#8b95a1" opacity="0.20"/>
<rect x="563" y="14" width="11" height="11" rx="2.5" fill="#8b95a1" opacity="0.20"/>
<rect x="563" y="27" width="11" height="11" rx="2.5" fill="#8b95a1" opacity="0.20"/>
<rect x="563" y="40" width="11" height="11" rx="2.5" fill="#8b95a1" opacity="0.20"/>
<rect x="563" y="53" width="11" height="11" rx="2.5" fill="#8b95a1" opacity="0.20"/>
<rect x="563" y="66" width="11" height="11" rx="2.5" fill="#8b95a1" opacity="0.20"/>
<rect x="563" y="79" width="11" height="11" rx="2.5" fill="#8b95a1" opacity="0.20"/>
<rect x="563" y="92" width="11" height="11" rx="2.5" fill="#8b95a1" opacity="0.20"/>
<rect x="576" y="14" width="11" height="11" rx="2.5" fill="#8b95a1" opacity="0.20"/>
<rect x="576" y="27" width="11" height="11" rx="2.5" fill="#8b95a1" opacity="0.20"/>
<rect x="576" y="40" width="11" height="11" rx="2.5" fill="#8b95a1" opacity="0.20"/>
<rect x="576" y="53" width="11" height="11" rx="2.5" fill="#8b95a1" opacity="0.20"/>
<rect x="576" y="66" width="11" height="11" rx="2.5" fill="#8b95a1" opacity="0.20"/>
<rect x="576" y="79" width="11" height="11" rx="2.5" fill="#a7e8d8" class="c" style="animation-name:e42_5"/>
<rect x="576" y="92" width="11" height="11" rx="2.5" fill="#5fcdb5" class="c" style="animation-name:e42_6"/>
<rect x="589" y="14" width="11" height="11" rx="2.5" fill="#1f7a6b" class="c" style="animation-name:e43_0"/>
<rect x="589" y="27" width="11" height="11" rx="2.5" fill="#35a08e" class="c" style="animation-name:e43_1"/>
<rect x="589" y="40" width="11" height="11" rx="2.5" fill="#8b95a1" opacity="0.20"/>
<rect x="589" y="53" width="11" height="11" rx="2.5" fill="#35a08e" class="c" style="animation-name:e43_3"/>
<rect x="589" y="66" width="11" height="11" rx="2.5" fill="#8b95a1" opacity="0.20"/>
<rect x="589" y="79" width="11" height="11" rx="2.5" fill="#8b95a1" opacity="0.20"/>
<rect x="589" y="92" width="11" height="11" rx="2.5" fill="#8b95a1" opacity="0.20"/>
<rect x="602" y="14" width="11" height="11" rx="2.5" fill="#a7e8d8" class="c" style="animation-name:e44_0"/>
<rect x="602" y="27" width="11" height="11" rx="2.5" fill="#35a08e" class="c" style="animation-name:e44_1"/>
<rect x="602" y="40" width="11" height="11" rx="2.5" fill="#a7e8d8" class="c" style="animation-name:e44_2"/>
<rect x="602" y="53" width="11" height="11" rx="2.5" fill="#5fcdb5" class="c" style="animation-name:e44_3"/>
<rect x="602" y="66" width="11" height="11" rx="2.5" fill="#a7e8d8" class="c" style="animation-name:e44_4"/>
<rect x="602" y="79" width="11" height="11" rx="2.5" fill="#8b95a1" opacity="0.20"/>
<rect x="602" y="92" width="11" height="11" rx="2.5" fill="#8b95a1" opacity="0.20"/>
<rect x="615" y="14" width="11" height="11" rx="2.5" fill="#8b95a1" opacity="0.20"/>
<rect x="615" y="27" width="11" height="11" rx="2.5" fill="#a7e8d8" class="c" style="animation-name:e45_1"/>
<rect x="615" y="40" width="11" height="11" rx="2.5" fill="#a7e8d8" class="c" style="animation-name:e45_2"/>
<rect x="615" y="53" width="11" height="11" rx="2.5" fill="#8b95a1" opacity="0.20"/>
<rect x="615" y="66" width="11" height="11" rx="2.5" fill="#8b95a1" opacity="0.20"/>
<rect x="615" y="79" width="11" height="11" rx="2.5" fill="#8b95a1" opacity="0.20"/>
<rect x="615" y="92" width="11" height="11" rx="2.5" fill="#8b95a1" opacity="0.20"/>
<rect x="628" y="14" width="11" height="11" rx="2.5" fill="#8b95a1" opacity="0.20"/>
<rect x="628" y="27" width="11" height="11" rx="2.5" fill="#8b95a1" opacity="0.20"/>
<rect x="628" y="40" width="11" height="11" rx="2.5" fill="#8b95a1" opacity="0.20"/>
<rect x="628" y="53" width="11" height="11" rx="2.5" fill="#8b95a1" opacity="0.20"/>
<rect x="628" y="66" width="11" height="11" rx="2.5" fill="#8b95a1" opacity="0.20"/>
<rect x="628" y="79" width="11" height="11" rx="2.5" fill="#8b95a1" opacity="0.20"/>
<rect x="628" y="92" width="11" height="11" rx="2.5" fill="#8b95a1" opacity="0.20"/>
<rect x="641" y="14" width="11" height="11" rx="2.5" fill="#a7e8d8" class="c" style="animation-name:e47_0"/>
<rect x="641" y="27" width="11" height="11" rx="2.5" fill="#35a08e" class="c" style="animation-name:e47_1"/>
<rect x="641" y="40" width="11" height="11" rx="2.5" fill="#5fcdb5" class="c" style="animation-name:e47_2"/>
<rect x="641" y="53" width="11" height="11" rx="2.5" fill="#1f7a6b" class="c" style="animation-name:e47_3"/>
<rect x="641" y="66" width="11" height="11" rx="2.5" fill="#5fcdb5" class="c" style="animation-name:e47_4"/>
<rect x="641" y="79" width="11" height="11" rx="2.5" fill="#5fcdb5" class="c" style="animation-name:e47_5"/>
<rect x="641" y="92" width="11" height="11" rx="2.5" fill="#1f7a6b" class="c" style="animation-name:e47_6"/>
<rect x="654" y="14" width="11" height="11" rx="2.5" fill="#1f7a6b" class="c" style="animation-name:e48_0"/>
<rect x="654" y="27" width="11" height="11" rx="2.5" fill="#1f7a6b" class="c" style="animation-name:e48_1"/>
<rect x="654" y="40" width="11" height="11" rx="2.5" fill="#35a08e" class="c" style="animation-name:e48_2"/>
<rect x="654" y="53" width="11" height="11" rx="2.5" fill="#35a08e" class="c" style="animation-name:e48_3"/>
<rect x="654" y="66" width="11" height="11" rx="2.5" fill="#1f7a6b" class="c" style="animation-name:e48_4"/>
<rect x="654" y="79" width="11" height="11" rx="2.5" fill="#1f7a6b" class="c" style="animation-name:e48_5"/>
<rect x="654" y="92" width="11" height="11" rx="2.5" fill="#a7e8d8" class="c" style="animation-name:e48_6"/>
<rect x="667" y="14" width="11" height="11" rx="2.5" fill="#1f7a6b" class="c" style="animation-name:e49_0"/>
<rect x="667" y="27" width="11" height="11" rx="2.5" fill="#1f7a6b" class="c" style="animation-name:e49_1"/>
<rect x="667" y="40" width="11" height="11" rx="2.5" fill="#1f7a6b" class="c" style="animation-name:e49_2"/>
<rect x="667" y="53" width="11" height="11" rx="2.5" fill="#35a08e" class="c" style="animation-name:e49_3"/>
<rect x="667" y="66" width="11" height="11" rx="2.5" fill="#1f7a6b" class="c" style="animation-name:e49_4"/>
<rect x="667" y="79" width="11" height="11" rx="2.5" fill="#a7e8d8" class="c" style="animation-name:e49_5"/>
<rect x="667" y="92" width="11" height="11" rx="2.5" fill="#35a08e" class="c" style="animation-name:e49_6"/>
<rect x="680" y="14" width="11" height="11" rx="2.5" fill="#5fcdb5" class="c" style="animation-name:e50_0"/>
<rect x="680" y="27" width="11" height="11" rx="2.5" fill="#35a08e" class="c" style="animation-name:e50_1"/>
<rect x="680" y="40" width="11" height="11" rx="2.5" fill="#35a08e" class="c" style="animation-name:e50_2"/>
<rect x="680" y="53" width="11" height="11" rx="2.5" fill="#5fcdb5" class="c" style="animation-name:e50_3"/>
<rect x="680" y="66" width="11" height="11" rx="2.5" fill="#35a08e" class="c" style="animation-name:e50_4"/>
<rect x="680" y="79" width="11" height="11" rx="2.5" fill="#a7e8d8" class="c" style="animation-name:e50_5"/>
<rect x="680" y="92" width="11" height="11" rx="2.5" fill="#35a08e" class="c" style="animation-name:e50_6"/>
<rect x="693" y="14" width="11" height="11" rx="2.5" fill="#5fcdb5" class="c" style="animation-name:e51_0"/>
<rect x="693" y="27" width="11" height="11" rx="2.5" fill="#5fcdb5" class="c" style="animation-name:e51_1"/>
<rect x="693" y="40" width="11" height="11" rx="2.5" fill="#5fcdb5" class="c" style="animation-name:e51_2"/>
<rect x="693" y="53" width="11" height="11" rx="2.5" fill="#a7e8d8" class="c" style="animation-name:e51_3"/>
<rect x="693" y="66" width="11" height="11" rx="2.5" fill="#a7e8d8" class="c" style="animation-name:e51_4"/>
<rect x="693" y="79" width="11" height="11" rx="2.5" fill="#a7e8d8" class="c" style="animation-name:e51_5"/>
<rect x="693" y="92" width="11" height="11" rx="2.5" fill="#8b95a1" opacity="0.20"/>
<text x="3" y="35.5" font-size="9" fill="#8b95a1">Пн</text>
<text x="3" y="61.5" font-size="9" fill="#8b95a1">Ср</text>
<text x="3" y="87.5" font-size="9" fill="#8b95a1">Пт</text>
<clipPath id="gclip"><rect x="30" y="14" width="674" height="89"/></clipPath>
<g clip-path="url(#gclip)">
<rect class="sg" style="animation-name:snk,g5;animation-delay:0.300s,0s" x="0" y="0" width="11" height="11" rx="3"/>
<rect class="sg" style="animation-name:snk,g4;animation-delay:0.240s,0s" x="0" y="0" width="11" height="11" rx="3"/>
<rect class="sg" style="animation-delay:0.180s;opacity:0.875" x="0" y="0" width="11" height="11" rx="3"/>
<rect class="sg" style="animation-delay:0.120s;opacity:0.89" x="0" y="0" width="11" height="11" rx="3"/>
<rect class="sg" style="animation-delay:0.060s;opacity:0.905" x="0" y="0" width="11" height="11" rx="3"/>
<rect class="sg" style="animation-delay:0.000s;opacity:1" x="0" y="0" width="11" height="11" rx="5.5"/>
</g>
</svg>
