<svg xmlns="http://www.w3.org/2000/svg" viewBox="0 0 710 109" role="img" aria-label="git-активность candycate-studio за год: змейка съедает клетки коммитов">
<title>git-активность candycate-studio</title>
<style>.c{animation-duration:20s;animation-timing-function:linear;animation-iteration-count:infinite}.sg{transform-box:view-box;transform-origin:0 0;fill:#d8285a;animation:snk 20s linear infinite}@keyframes snk{0%{transform:translate(-22px,14px)}0.27%{transform:translate(-9px,14px)}0.539%{transform:translate(4px,14px)}0.809%{transform:translate(17px,14px)}1.078%{transform:translate(30px,14px)}1.348%{transform:translate(30px,27px)}1.617%{transform:translate(30px,40px)}1.887%{transform:translate(30px,53px)}2.156%{transform:translate(30px,66px)}2.426%{transform:translate(30px,79px)}2.695%{transform:translate(30px,92px)}2.965%{transform:translate(43px,92px)}3.235%{transform:translate(43px,79px)}3.504%{transform:translate(43px,66px)}3.774%{transform:translate(43px,53px)}4.043%{transform:translate(43px,40px)}4.313%{transform:translate(43px,27px)}4.582%{transform:translate(43px,14px)}4.852%{transform:translate(56px,14px)}5.121%{transform:translate(56px,27px)}5.391%{transform:translate(56px,40px)}5.66%{transform:translate(56px,53px)}5.93%{transform:translate(56px,66px)}6.199%{transform:translate(56px,79px)}6.469%{transform:translate(56px,92px)}6.739%{transform:translate(69px,92px)}7.008%{transform:translate(69px,79px)}7.278%{transform:translate(69px,66px)}7.547%{transform:translate(69px,53px)}7.817%{transform:translate(69px,40px)}8.086%{transform:translate(69px,27px)}8.356%{transform:translate(69px,14px)}8.625%{transform:translate(82px,14px)}8.895%{transform:translate(82px,27px)}9.164%{transform:translate(82px,40px)}9.434%{transform:translate(82px,53px)}9.704%{transform:translate(82px,66px)}9.973%{transform:translate(82px,79px)}10.243%{transform:translate(82px,92px)}10.512%{transform:translate(95px,92px)}10.782%{transform:translate(95px,79px)}11.051%{transform:translate(95px,66px)}11.321%{transform:translate(95px,53px)}11.59%{transform:translate(95px,40px)}11.86%{transform:translate(95px,27px)}12.129%{transform:translate(95px,14px)}12.399%{transform:translate(108px,14px)}12.668%{transform:translate(108px,27px)}12.938%{transform:translate(108px,40px)}13.208%{transform:translate(108px,53px)}13.477%{transform:translate(108px,66px)}13.747%{transform:translate(108px,79px)}14.016%{transform:translate(108px,92px)}14.286%{transform:translate(121px,92px)}14.555%{transform:translate(121px,79px)}14.825%{transform:translate(121px,66px)}15.094%{transform:translate(121px,53px)}15.364%{transform:translate(121px,40px)}15.633%{transform:translate(121px,27px)}15.903%{transform:translate(121px,14px)}16.173%{transform:translate(134px,14px)}16.442%{transform:translate(134px,27px)}16.712%{transform:translate(134px,40px)}16.981%{transform:translate(134px,53px)}17.251%{transform:translate(134px,66px)}17.52%{transform:translate(134px,79px)}17.79%{transform:translate(134px,92px)}18.059%{transform:translate(147px,92px)}18.329%{transform:translate(147px,79px)}18.598%{transform:translate(147px,66px)}18.868%{transform:translate(147px,53px)}19.137%{transform:translate(147px,40px)}19.407%{transform:translate(147px,27px)}19.677%{transform:translate(147px,14px)}19.946%{transform:translate(160px,14px)}20.216%{transform:translate(160px,27px)}20.485%{transform:translate(160px,40px)}20.755%{transform:translate(160px,53px)}21.024%{transform:translate(160px,66px)}21.294%{transform:translate(160px,79px)}21.563%{transform:translate(160px,92px)}21.833%{transform:translate(173px,92px)}22.102%{transform:translate(173px,79px)}22.372%{transform:translate(173px,66px)}22.642%{transform:translate(173px,53px)}22.911%{transform:translate(173px,40px)}23.181%{transform:translate(173px,27px)}23.45%{transform:translate(173px,14px)}23.72%{transform:translate(186px,14px)}23.989%{transform:translate(186px,27px)}24.259%{transform:translate(186px,40px)}24.528%{transform:translate(186px,53px)}24.798%{transform:translate(186px,66px)}25.067%{transform:translate(186px,79px)}25.337%{transform:translate(186px,92px)}25.606%{transform:translate(199px,92px)}25.876%{transform:translate(199px,79px)}26.146%{transform:translate(199px,66px)}26.415%{transform:translate(199px,53px)}26.685%{transform:translate(199px,40px)}26.954%{transform:translate(199px,27px)}27.224%{transform:translate(199px,14px)}27.493%{transform:translate(212px,14px)}27.763%{transform:translate(212px,27px)}28.032%{transform:translate(212px,40px)}28.302%{transform:translate(212px,53px)}28.571%{transform:translate(212px,66px)}28.841%{transform:translate(212px,79px)}29.111%{transform:translate(212px,92px)}29.38%{transform:translate(225px,92px)}29.65%{transform:translate(225px,79px)}29.919%{transform:translate(225px,66px)}30.189%{transform:translate(225px,53px)}30.458%{transform:translate(225px,40px)}30.728%{transform:translate(225px,27px)}30.997%{transform:translate(225px,14px)}31.267%{transform:translate(238px,14px)}31.536%{transform:translate(238px,27px)}31.806%{transform:translate(238px,40px)}32.075%{transform:translate(238px,53px)}32.345%{transform:translate(238px,66px)}32.615%{transform:translate(238px,79px)}32.884%{transform:translate(238px,92px)}33.154%{transform:translate(251px,92px)}33.423%{transform:translate(251px,79px)}33.693%{transform:translate(251px,66px)}33.962%{transform:translate(251px,53px)}34.232%{transform:translate(251px,40px)}34.501%{transform:translate(251px,27px)}34.771%{transform:translate(251px,14px)}35.04%{transform:translate(264px,14px)}35.31%{transform:translate(264px,27px)}35.58%{transform:translate(264px,40px)}35.849%{transform:translate(264px,53px)}36.119%{transform:translate(264px,66px)}36.388%{transform:translate(264px,79px)}36.658%{transform:translate(264px,92px)}36.927%{transform:translate(277px,92px)}37.197%{transform:translate(277px,79px)}37.466%{transform:translate(277px,66px)}37.736%{transform:translate(277px,53px)}38.005%{transform:translate(277px,40px)}38.275%{transform:translate(277px,27px)}38.544%{transform:translate(277px,14px)}38.814%{transform:translate(290px,14px)}39.084%{transform:translate(290px,27px)}39.353%{transform:translate(290px,40px)}39.623%{transform:translate(290px,53px)}39.892%{transform:translate(290px,66px)}40.162%{transform:translate(290px,79px)}40.431%{transform:translate(290px,92px)}40.701%{transform:translate(303px,92px)}40.97%{transform:translate(303px,79px)}41.24%{transform:translate(303px,66px)}41.509%{transform:translate(303px,53px)}41.779%{transform:translate(303px,40px)}42.049%{transform:translate(303px,27px)}42.318%{transform:translate(303px,14px)}42.588%{transform:translate(316px,14px)}42.857%{transform:translate(316px,27px)}43.127%{transform:translate(316px,40px)}43.396%{transform:translate(316px,53px)}43.666%{transform:translate(316px,66px)}43.935%{transform:translate(316px,79px)}44.205%{transform:translate(316px,92px)}44.474%{transform:translate(329px,92px)}44.744%{transform:translate(329px,79px)}45.013%{transform:translate(329px,66px)}45.283%{transform:translate(329px,53px)}45.553%{transform:translate(329px,40px)}45.822%{transform:translate(329px,27px)}46.092%{transform:translate(329px,14px)}46.361%{transform:translate(342px,14px)}46.631%{transform:translate(342px,27px)}46.9%{transform:translate(342px,40px)}47.17%{transform:translate(342px,53px)}47.439%{transform:translate(342px,66px)}47.709%{transform:translate(342px,79px)}47.978%{transform:translate(342px,92px)}48.248%{transform:translate(355px,92px)}48.518%{transform:translate(355px,79px)}48.787%{transform:translate(355px,66px)}49.057%{transform:translate(355px,53px)}49.326%{transform:translate(355px,40px)}49.596%{transform:translate(355px,27px)}49.865%{transform:translate(355px,14px)}50.135%{transform:translate(368px,14px)}50.404%{transform:translate(368px,27px)}50.674%{transform:translate(368px,40px)}50.943%{transform:translate(368px,53px)}51.213%{transform:translate(368px,66px)}51.482%{transform:translate(368px,79px)}51.752%{transform:translate(368px,92px)}52.022%{transform:translate(381px,92px)}52.291%{transform:translate(381px,79px)}52.561%{transform:translate(381px,66px)}52.83%{transform:translate(381px,53px)}53.1%{transform:translate(381px,40px)}53.369%{transform:translate(381px,27px)}53.639%{transform:translate(381px,14px)}53.908%{transform:translate(394px,14px)}54.178%{transform:translate(394px,27px)}54.447%{transform:translate(394px,40px)}54.717%{transform:translate(394px,53px)}54.987%{transform:translate(394px,66px)}55.256%{transform:translate(394px,79px)}55.526%{transform:translate(394px,92px)}55.795%{transform:translate(407px,92px)}56.065%{transform:translate(407px,79px)}56.334%{transform:translate(407px,66px)}56.604%{transform:translate(407px,53px)}56.873%{transform:translate(407px,40px)}57.143%{transform:translate(407px,27px)}57.412%{transform:translate(407px,14px)}57.682%{transform:translate(420px,14px)}57.951%{transform:translate(420px,27px)}58.221%{transform:translate(420px,40px)}58.491%{transform:translate(420px,53px)}58.76%{transform:translate(420px,66px)}59.03%{transform:translate(420px,79px)}59.299%{transform:translate(420px,92px)}59.569%{transform:translate(433px,92px)}59.838%{transform:translate(433px,79px)}60.108%{transform:translate(433px,66px)}60.377%{transform:translate(433px,53px)}60.647%{transform:translate(433px,40px)}60.916%{transform:translate(433px,27px)}61.186%{transform:translate(433px,14px)}61.456%{transform:translate(446px,14px)}61.725%{transform:translate(446px,27px)}61.995%{transform:translate(446px,40px)}62.264%{transform:translate(446px,53px)}62.534%{transform:translate(446px,66px)}62.803%{transform:translate(446px,79px)}63.073%{transform:translate(446px,92px)}63.342%{transform:translate(459px,92px)}63.612%{transform:translate(459px,79px)}63.881%{transform:translate(459px,66px)}64.151%{transform:translate(459px,53px)}64.42%{transform:translate(459px,40px)}64.69%{transform:translate(459px,27px)}64.96%{transform:translate(459px,14px)}65.229%{transform:translate(472px,14px)}65.499%{transform:translate(472px,27px)}65.768%{transform:translate(472px,40px)}66.038%{transform:translate(472px,53px)}66.307%{transform:translate(472px,66px)}66.577%{transform:translate(472px,79px)}66.846%{transform:translate(472px,92px)}67.116%{transform:translate(485px,92px)}67.385%{transform:translate(485px,79px)}67.655%{transform:translate(485px,66px)}67.925%{transform:translate(485px,53px)}68.194%{transform:translate(485px,40px)}68.464%{transform:translate(485px,27px)}68.733%{transform:translate(485px,14px)}69.003%{transform:translate(498px,14px)}69.272%{transform:translate(498px,27px)}69.542%{transform:translate(498px,40px)}69.811%{transform:translate(498px,53px)}70.081%{transform:translate(498px,66px)}70.35%{transform:translate(498px,79px)}70.62%{transform:translate(498px,92px)}70.889%{transform:translate(511px,92px)}71.159%{transform:translate(511px,79px)}71.429%{transform:translate(511px,66px)}71.698%{transform:translate(511px,53px)}71.968%{transform:translate(511px,40px)}72.237%{transform:translate(511px,27px)}72.507%{transform:translate(511px,14px)}72.776%{transform:translate(524px,14px)}73.046%{transform:translate(524px,27px)}73.315%{transform:translate(524px,40px)}73.585%{transform:translate(524px,53px)}73.854%{transform:translate(524px,66px)}74.124%{transform:translate(524px,79px)}74.394%{transform:translate(524px,92px)}74.663%{transform:translate(537px,92px)}74.933%{transform:translate(537px,79px)}75.202%{transform:translate(537px,66px)}75.472%{transform:translate(537px,53px)}75.741%{transform:translate(537px,40px)}76.011%{transform:translate(537px,27px)}76.28%{transform:translate(537px,14px)}76.55%{transform:translate(550px,14px)}76.819%{transform:translate(550px,27px)}77.089%{transform:translate(550px,40px)}77.358%{transform:translate(550px,53px)}77.628%{transform:translate(550px,66px)}77.898%{transform:translate(550px,79px)}78.167%{transform:translate(550px,92px)}78.437%{transform:translate(563px,92px)}78.706%{transform:translate(563px,79px)}78.976%{transform:translate(563px,66px)}79.245%{transform:translate(563px,53px)}79.515%{transform:translate(563px,40px)}79.784%{transform:translate(563px,27px)}80.054%{transform:translate(563px,14px)}80.323%{transform:translate(576px,14px)}80.593%{transform:translate(576px,27px)}80.863%{transform:translate(576px,40px)}81.132%{transform:translate(576px,53px)}81.402%{transform:translate(576px,66px)}81.671%{transform:translate(576px,79px)}81.941%{transform:translate(576px,92px)}82.21%{transform:translate(589px,92px)}82.48%{transform:translate(589px,79px)}82.749%{transform:translate(589px,66px)}83.019%{transform:translate(589px,53px)}83.288%{transform:translate(589px,40px)}83.558%{transform:translate(589px,27px)}83.827%{transform:translate(589px,14px)}84.097%{transform:translate(602px,14px)}84.367%{transform:translate(602px,27px)}84.636%{transform:translate(602px,40px)}84.906%{transform:translate(602px,53px)}85.175%{transform:translate(602px,66px)}85.445%{transform:translate(602px,79px)}85.714%{transform:translate(602px,92px)}85.984%{transform:translate(615px,92px)}86.253%{transform:translate(615px,79px)}86.523%{transform:translate(615px,66px)}86.792%{transform:translate(615px,53px)}87.062%{transform:translate(615px,40px)}87.332%{transform:translate(615px,27px)}87.601%{transform:translate(615px,14px)}87.871%{transform:translate(628px,14px)}88.14%{transform:translate(628px,27px)}88.41%{transform:translate(628px,40px)}88.679%{transform:translate(628px,53px)}88.949%{transform:translate(628px,66px)}89.218%{transform:translate(628px,79px)}89.488%{transform:translate(628px,92px)}89.757%{transform:translate(641px,92px)}90.027%{transform:translate(641px,79px)}90.296%{transform:translate(641px,66px)}90.566%{transform:translate(641px,53px)}90.836%{transform:translate(641px,40px)}91.105%{transform:translate(641px,27px)}91.375%{transform:translate(641px,14px)}91.644%{transform:translate(654px,14px)}91.914%{transform:translate(654px,27px)}92.183%{transform:translate(654px,40px)}92.453%{transform:translate(654px,53px)}92.722%{transform:translate(654px,66px)}92.992%{transform:translate(654px,79px)}93.261%{transform:translate(654px,92px)}93.531%{transform:translate(667px,92px)}93.801%{transform:translate(667px,79px)}94.07%{transform:translate(667px,66px)}94.34%{transform:translate(667px,53px)}94.609%{transform:translate(667px,40px)}94.879%{transform:translate(667px,27px)}95.148%{transform:translate(667px,14px)}95.418%{transform:translate(680px,14px)}95.687%{transform:translate(680px,27px)}95.957%{transform:translate(680px,40px)}96.226%{transform:translate(680px,53px)}96.496%{transform:translate(680px,66px)}96.765%{transform:translate(680px,79px)}97.035%{transform:translate(680px,92px)}97.305%{transform:translate(693px,92px)}97.574%{transform:translate(693px,79px)}97.844%{transform:translate(693px,66px)}98.113%{transform:translate(693px,53px)}98.383%{transform:translate(693px,40px)}98.652%{transform:translate(693px,27px)}98.922%{transform:translate(693px,14px)}99.191%{transform:translate(706px,14px)}99.461%{transform:translate(719px,14px)}99.73%{transform:translate(732px,14px)}100%{transform:translate(745px,14px)}}@keyframes e45_5{0%,86.253%{fill:#a7e8d8;opacity:1}86.469%,100%{fill:#8b95a1;opacity:.2}}@keyframes e45_6{0%,85.984%{fill:#5fcdb5;opacity:1}86.199%,100%{fill:#8b95a1;opacity:.2}}@keyframes e46_0{0%,87.871%{fill:#1f7a6b;opacity:1}88.086%,100%{fill:#8b95a1;opacity:.2}}@keyframes e46_1{0%,88.14%{fill:#35a08e;opacity:1}88.356%,100%{fill:#8b95a1;opacity:.2}}@keyframes e46_3{0%,88.679%{fill:#35a08e;opacity:1}88.895%,100%{fill:#8b95a1;opacity:.2}}@keyframes e47_0{0%,91.375%{fill:#a7e8d8;opacity:1}91.59%,100%{fill:#8b95a1;opacity:.2}}@keyframes e47_1{0%,91.105%{fill:#35a08e;opacity:1}91.321%,100%{fill:#8b95a1;opacity:.2}}@keyframes e47_2{0%,90.836%{fill:#5fcdb5;opacity:1}91.051%,100%{fill:#8b95a1;opacity:.2}}@keyframes e47_3{0%,90.566%{fill:#35a08e;opacity:1}90.782%,100%{fill:#8b95a1;opacity:.2}}@keyframes e47_4{0%,90.296%{fill:#a7e8d8;opacity:1}90.512%,100%{fill:#8b95a1;opacity:.2}}@keyframes e48_1{0%,91.914%{fill:#a7e8d8;opacity:1}92.129%,100%{fill:#8b95a1;opacity:.2}}@keyframes e48_2{0%,92.183%{fill:#a7e8d8;opacity:1}92.399%,100%{fill:#8b95a1;opacity:.2}}@keyframes e50_0{0%,95.418%{fill:#a7e8d8;opacity:1}95.633%,100%{fill:#8b95a1;opacity:.2}}@keyframes e50_1{0%,95.687%{fill:#35a08e;opacity:1}95.903%,100%{fill:#8b95a1;opacity:.2}}@keyframes e50_2{0%,95.957%{fill:#5fcdb5;opacity:1}96.173%,100%{fill:#8b95a1;opacity:.2}}@keyframes e50_3{0%,96.226%{fill:#1f7a6b;opacity:1}96.442%,100%{fill:#8b95a1;opacity:.2}}@keyframes e50_4{0%,96.496%{fill:#5fcdb5;opacity:1}96.712%,100%{fill:#8b95a1;opacity:.2}}@keyframes e50_5{0%,96.765%{fill:#5fcdb5;opacity:1}96.981%,100%{fill:#8b95a1;opacity:.2}}@keyframes e50_6{0%,97.035%{fill:#1f7a6b;opacity:1}97.251%,100%{fill:#8b95a1;opacity:.2}}@keyframes e51_0{0%,98.922%{fill:#1f7a6b;opacity:1}99.137%,100%{fill:#8b95a1;opacity:.2}}@keyframes e51_1{0%,98.652%{fill:#1f7a6b;opacity:1}98.868%,100%{fill:#8b95a1;opacity:.2}}@keyframes e51_2{0%,98.383%{fill:#5fcdb5;opacity:1}98.598%,100%{fill:#8b95a1;opacity:.2}}@media(prefers-reduced-motion:reduce){.sg{display:none}.c{animation:none}}</style>
<rect x="30" y="14" width="11" height="11" rx="2.5" fill="#8b95a1" opacity="0.20"/>
<rect x="30" y="27" width="11" height="11" rx="2.5" fill="#8b95a1" opacity="0.20"/>
<rect x="30" y="40" width="11" height="11" rx="2.5" fill="#8b95a1" opacity="0.20"/>
<rect x="30" y="53" width="11" height="11" rx="2.5" fill="#8b95a1" opacity="0.20"/>
<rect x="30" y="66" width="11" height="11" rx="2.5" fill="#8b95a1" opacity="0.20"/>
<rect x="30" y="79" width="11" height="11" rx="2.5" fill="#8b95a1" opacity="0.20"/>
<rect x="30" y="92" width="11" height="11" rx="2.5" fill="#8b95a1" opacity="0.20"/>
<rect x="43" y="14" width="11" height="11" rx="2.5" fill="#8b95a1" opacity="0.20"/>
<rect x="43" y="27" width="11" height="11" rx="2.5" fill="#8b95a1" opacity="0.20"/>
<rect x="43" y="40" width="11" height="11" rx="2.5" fill="#8b95a1" opacity="0.20"/>
<rect x="43" y="53" width="11" height="11" rx="2.5" fill="#8b95a1" opacity="0.20"/>
<rect x="43" y="66" width="11" height="11" rx="2.5" fill="#8b95a1" opacity="0.20"/>
<rect x="43" y="79" width="11" height="11" rx="2.5" fill="#8b95a1" opacity="0.20"/>
<rect x="43" y="92" width="11" height="11" rx="2.5" fill="#8b95a1" opacity="0.20"/>
<rect x="56" y="14" width="11" height="11" rx="2.5" fill="#8b95a1" opacity="0.20"/>
<rect x="56" y="27" width="11" height="11" rx="2.5" fill="#8b95a1" opacity="0.20"/>
<rect x="56" y="40" width="11" height="11" rx="2.5" fill="#8b95a1" opacity="0.20"/>
<rect x="56" y="53" width="11" height="11" rx="2.5" fill="#8b95a1" opacity="0.20"/>
<rect x="56" y="66" width="11" height="11" rx="2.5" fill="#8b95a1" opacity="0.20"/>
<rect x="56" y="79" width="11" height="11" rx="2.5" fill="#8b95a1" opacity="0.20"/>
<rect x="56" y="92" width="11" height="11" rx="2.5" fill="#8b95a1" opacity="0.20"/>
<rect x="69" y="14" width="11" height="11" rx="2.5" fill="#8b95a1" opacity="0.20"/>
<rect x="69" y="27" width="11" height="11" rx="2.5" fill="#8b95a1" opacity="0.20"/>
<rect x="69" y="40" width="11" height="11" rx="2.5" fill="#8b95a1" opacity="0.20"/>
<rect x="69" y="53" width="11" height="11" rx="2.5" fill="#8b95a1" opacity="0.20"/>
<rect x="69" y="66" width="11" height="11" rx="2.5" fill="#8b95a1" opacity="0.20"/>
<rect x="69" y="79" width="11" height="11" rx="2.5" fill="#8b95a1" opacity="0.20"/>
<rect x="69" y="92" width="11" height="11" rx="2.5" fill="#8b95a1" opacity="0.20"/>
<rect x="82" y="14" width="11" height="11" rx="2.5" fill="#8b95a1" opacity="0.20"/>
<rect x="82" y="27" width="11" height="11" rx="2.5" fill="#8b95a1" opacity="0.20"/>
<rect x="82" y="40" width="11" height="11" rx="2.5" fill="#8b95a1" opacity="0.20"/>
<rect x="82" y="53" width="11" height="11" rx="2.5" fill="#8b95a1" opacity="0.20"/>
<rect x="82" y="66" width="11" height="11" rx="2.5" fill="#8b95a1" opacity="0.20"/>
<rect x="82" y="79" width="11" height="11" rx="2.5" fill="#8b95a1" opacity="0.20"/>
<rect x="82" y="92" width="11" height="11" rx="2.5" fill="#8b95a1" opacity="0.20"/>
<rect x="95" y="14" width="11" height="11" rx="2.5" fill="#8b95a1" opacity="0.20"/>
<rect x="95" y="27" width="11" height="11" rx="2.5" fill="#8b95a1" opacity="0.20"/>
<rect x="95" y="40" width="11" height="11" rx="2.5" fill="#8b95a1" opacity="0.20"/>
<rect x="95" y="53" width="11" height="11" rx="2.5" fill="#8b95a1" opacity="0.20"/>
<rect x="95" y="66" width="11" height="11" rx="2.5" fill="#8b95a1" opacity="0.20"/>
<rect x="95" y="79" width="11" height="11" rx="2.5" fill="#8b95a1" opacity="0.20"/>
<rect x="95" y="92" width="11" height="11" rx="2.5" fill="#8b95a1" opacity="0.20"/>
<rect x="108" y="14" width="11" height="11" rx="2.5" fill="#8b95a1" opacity="0.20"/>
<rect x="108" y="27" width="11" height="11" rx="2.5" fill="#8b95a1" opacity="0.20"/>
<rect x="108" y="40" width="11" height="11" rx="2.5" fill="#8b95a1" opacity="0.20"/>
<rect x="108" y="53" width="11" height="11" rx="2.5" fill="#8b95a1" opacity="0.20"/>
<rect x="108" y="66" width="11" height="11" rx="2.5" fill="#8b95a1" opacity="0.20"/>
<rect x="108" y="79" width="11" height="11" rx="2.5" fill="#8b95a1" opacity="0.20"/>
<rect x="108" y="92" width="11" height="11" rx="2.5" fill="#8b95a1" opacity="0.20"/>
<rect x="121" y="14" width="11" height="11" rx="2.5" fill="#8b95a1" opacity="0.20"/>
<rect x="121" y="27" width="11" height="11" rx="2.5" fill="#8b95a1" opacity="0.20"/>
<rect x="121" y="40" width="11" height="11" rx="2.5" fill="#8b95a1" opacity="0.20"/>
<rect x="121" y="53" width="11" height="11" rx="2.5" fill="#8b95a1" opacity="0.20"/>
<rect x="121" y="66" width="11" height="11" rx="2.5" fill="#8b95a1" opacity="0.20"/>
<rect x="121" y="79" width="11" height="11" rx="2.5" fill="#8b95a1" opacity="0.20"/>
<rect x="121" y="92" width="11" height="11" rx="2.5" fill="#8b95a1" opacity="0.20"/>
<rect x="134" y="14" width="11" height="11" rx="2.5" fill="#8b95a1" opacity="0.20"/>
<rect x="134" y="27" width="11" height="11" rx="2.5" fill="#8b95a1" opacity="0.20"/>
<rect x="134" y="40" width="11" height="11" rx="2.5" fill="#8b95a1" opacity="0.20"/>
<rect x="134" y="53" width="11" height="11" rx="2.5" fill="#8b95a1" opacity="0.20"/>
<rect x="134" y="66" width="11" height="11" rx="2.5" fill="#8b95a1" opacity="0.20"/>
<rect x="134" y="79" width="11" height="11" rx="2.5" fill="#8b95a1" opacity="0.20"/>
<rect x="134" y="92" width="11" height="11" rx="2.5" fill="#8b95a1" opacity="0.20"/>
<rect x="147" y="14" width="11" height="11" rx="2.5" fill="#8b95a1" opacity="0.20"/>
<rect x="147" y="27" width="11" height="11" rx="2.5" fill="#8b95a1" opacity="0.20"/>
<rect x="147" y="40" width="11" height="11" rx="2.5" fill="#8b95a1" opacity="0.20"/>
<rect x="147" y="53" width="11" height="11" rx="2.5" fill="#8b95a1" opacity="0.20"/>
<rect x="147" y="66" width="11" height="11" rx="2.5" fill="#8b95a1" opacity="0.20"/>
<rect x="147" y="79" width="11" height="11" rx="2.5" fill="#8b95a1" opacity="0.20"/>
<rect x="147" y="92" width="11" height="11" rx="2.5" fill="#8b95a1" opacity="0.20"/>
<rect x="160" y="14" width="11" height="11" rx="2.5" fill="#8b95a1" opacity="0.20"/>
<rect x="160" y="27" width="11" height="11" rx="2.5" fill="#8b95a1" opacity="0.20"/>
<rect x="160" y="40" width="11" height="11" rx="2.5" fill="#8b95a1" opacity="0.20"/>
<rect x="160" y="53" width="11" height="11" rx="2.5" fill="#8b95a1" opacity="0.20"/>
<rect x="160" y="66" width="11" height="11" rx="2.5" fill="#8b95a1" opacity="0.20"/>
<rect x="160" y="79" width="11" height="11" rx="2.5" fill="#8b95a1" opacity="0.20"/>
<rect x="160" y="92" width="11" height="11" rx="2.5" fill="#8b95a1" opacity="0.20"/>
<rect x="173" y="14" width="11" height="11" rx="2.5" fill="#8b95a1" opacity="0.20"/>
<rect x="173" y="27" width="11" height="11" rx="2.5" fill="#8b95a1" opacity="0.20"/>
<rect x="173" y="40" width="11" height="11" rx="2.5" fill="#8b95a1" opacity="0.20"/>
<rect x="173" y="53" width="11" height="11" rx="2.5" fill="#8b95a1" opacity="0.20"/>
<rect x="173" y="66" width="11" height="11" rx="2.5" fill="#8b95a1" opacity="0.20"/>
<rect x="173" y="79" width="11" height="11" rx="2.5" fill="#8b95a1" opacity="0.20"/>
<rect x="173" y="92" width="11" height="11" rx="2.5" fill="#8b95a1" opacity="0.20"/>
<rect x="186" y="14" width="11" height="11" rx="2.5" fill="#8b95a1" opacity="0.20"/>
<rect x="186" y="27" width="11" height="11" rx="2.5" fill="#8b95a1" opacity="0.20"/>
<rect x="186" y="40" width="11" height="11" rx="2.5" fill="#8b95a1" opacity="0.20"/>
<rect x="186" y="53" width="11" height="11" rx="2.5" fill="#8b95a1" opacity="0.20"/>
<rect x="186" y="66" width="11" height="11" rx="2.5" fill="#8b95a1" opacity="0.20"/>
<rect x="186" y="79" width="11" height="11" rx="2.5" fill="#8b95a1" opacity="0.20"/>
<rect x="186" y="92" width="11" height="11" rx="2.5" fill="#8b95a1" opacity="0.20"/>
<rect x="199" y="14" width="11" height="11" rx="2.5" fill="#8b95a1" opacity="0.20"/>
<rect x="199" y="27" width="11" height="11" rx="2.5" fill="#8b95a1" opacity="0.20"/>
<rect x="199" y="40" width="11" height="11" rx="2.5" fill="#8b95a1" opacity="0.20"/>
<rect x="199" y="53" width="11" height="11" rx="2.5" fill="#8b95a1" opacity="0.20"/>
<rect x="199" y="66" width="11" height="11" rx="2.5" fill="#8b95a1" opacity="0.20"/>
<rect x="199" y="79" width="11" height="11" rx="2.5" fill="#8b95a1" opacity="0.20"/>
<rect x="199" y="92" width="11" height="11" rx="2.5" fill="#8b95a1" opacity="0.20"/>
<rect x="212" y="14" width="11" height="11" rx="2.5" fill="#8b95a1" opacity="0.20"/>
<rect x="212" y="27" width="11" height="11" rx="2.5" fill="#8b95a1" opacity="0.20"/>
<rect x="212" y="40" width="11" height="11" rx="2.5" fill="#8b95a1" opacity="0.20"/>
<rect x="212" y="53" width="11" height="11" rx="2.5" fill="#8b95a1" opacity="0.20"/>
<rect x="212" y="66" width="11" height="11" rx="2.5" fill="#8b95a1" opacity="0.20"/>
<rect x="212" y="79" width="11" height="11" rx="2.5" fill="#8b95a1" opacity="0.20"/>
<rect x="212" y="92" width="11" height="11" rx="2.5" fill="#8b95a1" opacity="0.20"/>
<rect x="225" y="14" width="11" height="11" rx="2.5" fill="#8b95a1" opacity="0.20"/>
<rect x="225" y="27" width="11" height="11" rx="2.5" fill="#8b95a1" opacity="0.20"/>
<rect x="225" y="40" width="11" height="11" rx="2.5" fill="#8b95a1" opacity="0.20"/>
<rect x="225" y="53" width="11" height="11" rx="2.5" fill="#8b95a1" opacity="0.20"/>
<rect x="225" y="66" width="11" height="11" rx="2.5" fill="#8b95a1" opacity="0.20"/>
<rect x="225" y="79" width="11" height="11" rx="2.5" fill="#8b95a1" opacity="0.20"/>
<rect x="225" y="92" width="11" height="11" rx="2.5" fill="#8b95a1" opacity="0.20"/>
<rect x="238" y="14" width="11" height="11" rx="2.5" fill="#8b95a1" opacity="0.20"/>
<rect x="238" y="27" width="11" height="11" rx="2.5" fill="#8b95a1" opacity="0.20"/>
<rect x="238" y="40" width="11" height="11" rx="2.5" fill="#8b95a1" opacity="0.20"/>
<rect x="238" y="53" width="11" height="11" rx="2.5" fill="#8b95a1" opacity="0.20"/>
<rect x="238" y="66" width="11" height="11" rx="2.5" fill="#8b95a1" opacity="0.20"/>
<rect x="238" y="79" width="11" height="11" rx="2.5" fill="#8b95a1" opacity="0.20"/>
<rect x="238" y="92" width="11" height="11" rx="2.5" fill="#8b95a1" opacity="0.20"/>
<rect x="251" y="14" width="11" height="11" rx="2.5" fill="#8b95a1" opacity="0.20"/>
<rect x="251" y="27" width="11" height="11" rx="2.5" fill="#8b95a1" opacity="0.20"/>
<rect x="251" y="40" width="11" height="11" rx="2.5" fill="#8b95a1" opacity="0.20"/>
<rect x="251" y="53" width="11" height="11" rx="2.5" fill="#8b95a1" opacity="0.20"/>
<rect x="251" y="66" width="11" height="11" rx="2.5" fill="#8b95a1" opacity="0.20"/>
<rect x="251" y="79" width="11" height="11" rx="2.5" fill="#8b95a1" opacity="0.20"/>
<rect x="251" y="92" width="11" height="11" rx="2.5" fill="#8b95a1" opacity="0.20"/>
<rect x="264" y="14" width="11" height="11" rx="2.5" fill="#8b95a1" opacity="0.20"/>
<rect x="264" y="27" width="11" height="11" rx="2.5" fill="#8b95a1" opacity="0.20"/>
<rect x="264" y="40" width="11" height="11" rx="2.5" fill="#8b95a1" opacity="0.20"/>
<rect x="264" y="53" width="11" height="11" rx="2.5" fill="#8b95a1" opacity="0.20"/>
<rect x="264" y="66" width="11" height="11" rx="2.5" fill="#8b95a1" opacity="0.20"/>
<rect x="264" y="79" width="11" height="11" rx="2.5" fill="#8b95a1" opacity="0.20"/>
<rect x="264" y="92" width="11" height="11" rx="2.5" fill="#8b95a1" opacity="0.20"/>
<rect x="277" y="14" width="11" height="11" rx="2.5" fill="#8b95a1" opacity="0.20"/>
<rect x="277" y="27" width="11" height="11" rx="2.5" fill="#8b95a1" opacity="0.20"/>
<rect x="277" y="40" width="11" height="11" rx="2.5" fill="#8b95a1" opacity="0.20"/>
<rect x="277" y="53" width="11" height="11" rx="2.5" fill="#8b95a1" opacity="0.20"/>
<rect x="277" y="66" width="11" height="11" rx="2.5" fill="#8b95a1" opacity="0.20"/>
<rect x="277" y="79" width="11" height="11" rx="2.5" fill="#8b95a1" opacity="0.20"/>
<rect x="277" y="92" width="11" height="11" rx="2.5" fill="#8b95a1" opacity="0.20"/>
<rect x="290" y="14" width="11" height="11" rx="2.5" fill="#8b95a1" opacity="0.20"/>
<rect x="290" y="27" width="11" height="11" rx="2.5" fill="#8b95a1" opacity="0.20"/>
<rect x="290" y="40" width="11" height="11" rx="2.5" fill="#8b95a1" opacity="0.20"/>
<rect x="290" y="53" width="11" height="11" rx="2.5" fill="#8b95a1" opacity="0.20"/>
<rect x="290" y="66" width="11" height="11" rx="2.5" fill="#8b95a1" opacity="0.20"/>
<rect x="290" y="79" width="11" height="11" rx="2.5" fill="#8b95a1" opacity="0.20"/>
<rect x="290" y="92" width="11" height="11" rx="2.5" fill="#8b95a1" opacity="0.20"/>
<rect x="303" y="14" width="11" height="11" rx="2.5" fill="#8b95a1" opacity="0.20"/>
<rect x="303" y="27" width="11" height="11" rx="2.5" fill="#8b95a1" opacity="0.20"/>
<rect x="303" y="40" width="11" height="11" rx="2.5" fill="#8b95a1" opacity="0.20"/>
<rect x="303" y="53" width="11" height="11" rx="2.5" fill="#8b95a1" opacity="0.20"/>
<rect x="303" y="66" width="11" height="11" rx="2.5" fill="#8b95a1" opacity="0.20"/>
<rect x="303" y="79" width="11" height="11" rx="2.5" fill="#8b95a1" opacity="0.20"/>
<rect x="303" y="92" width="11" height="11" rx="2.5" fill="#8b95a1" opacity="0.20"/>
<rect x="316" y="14" width="11" height="11" rx="2.5" fill="#8b95a1" opacity="0.20"/>
<rect x="316" y="27" width="11" height="11" rx="2.5" fill="#8b95a1" opacity="0.20"/>
<rect x="316" y="40" width="11" height="11" rx="2.5" fill="#8b95a1" opacity="0.20"/>
<rect x="316" y="53" width="11" height="11" rx="2.5" fill="#8b95a1" opacity="0.20"/>
<rect x="316" y="66" width="11" height="11" rx="2.5" fill="#8b95a1" opacity="0.20"/>
<rect x="316" y="79" width="11" height="11" rx="2.5" fill="#8b95a1" opacity="0.20"/>
<rect x="316" y="92" width="11" height="11" rx="2.5" fill="#8b95a1" opacity="0.20"/>
<rect x="329" y="14" width="11" height="11" rx="2.5" fill="#8b95a1" opacity="0.20"/>
<rect x="329" y="27" width="11" height="11" rx="2.5" fill="#8b95a1" opacity="0.20"/>
<rect x="329" y="40" width="11" height="11" rx="2.5" fill="#8b95a1" opacity="0.20"/>
<rect x="329" y="53" width="11" height="11" rx="2.5" fill="#8b95a1" opacity="0.20"/>
<rect x="329" y="66" width="11" height="11" rx="2.5" fill="#8b95a1" opacity="0.20"/>
<rect x="329" y="79" width="11" height="11" rx="2.5" fill="#8b95a1" opacity="0.20"/>
<rect x="329" y="92" width="11" height="11" rx="2.5" fill="#8b95a1" opacity="0.20"/>
<rect x="342" y="14" width="11" height="11" rx="2.5" fill="#8b95a1" opacity="0.20"/>
<rect x="342" y="27" width="11" height="11" rx="2.5" fill="#8b95a1" opacity="0.20"/>
<rect x="342" y="40" width="11" height="11" rx="2.5" fill="#8b95a1" opacity="0.20"/>
<rect x="342" y="53" width="11" height="11" rx="2.5" fill="#8b95a1" opacity="0.20"/>
<rect x="342" y="66" width="11" height="11" rx="2.5" fill="#8b95a1" opacity="0.20"/>
<rect x="342" y="79" width="11" height="11" rx="2.5" fill="#8b95a1" opacity="0.20"/>
<rect x="342" y="92" width="11" height="11" rx="2.5" fill="#8b95a1" opacity="0.20"/>
<rect x="355" y="14" width="11" height="11" rx="2.5" fill="#8b95a1" opacity="0.20"/>
<rect x="355" y="27" width="11" height="11" rx="2.5" fill="#8b95a1" opacity="0.20"/>
<rect x="355" y="40" width="11" height="11" rx="2.5" fill="#8b95a1" opacity="0.20"/>
<rect x="355" y="53" width="11" height="11" rx="2.5" fill="#8b95a1" opacity="0.20"/>
<rect x="355" y="66" width="11" height="11" rx="2.5" fill="#8b95a1" opacity="0.20"/>
<rect x="355" y="79" width="11" height="11" rx="2.5" fill="#8b95a1" opacity="0.20"/>
<rect x="355" y="92" width="11" height="11" rx="2.5" fill="#8b95a1" opacity="0.20"/>
<rect x="368" y="14" width="11" height="11" rx="2.5" fill="#8b95a1" opacity="0.20"/>
<rect x="368" y="27" width="11" height="11" rx="2.5" fill="#8b95a1" opacity="0.20"/>
<rect x="368" y="40" width="11" height="11" rx="2.5" fill="#8b95a1" opacity="0.20"/>
<rect x="368" y="53" width="11" height="11" rx="2.5" fill="#8b95a1" opacity="0.20"/>
<rect x="368" y="66" width="11" height="11" rx="2.5" fill="#8b95a1" opacity="0.20"/>
<rect x="368" y="79" width="11" height="11" rx="2.5" fill="#8b95a1" opacity="0.20"/>
<rect x="368" y="92" width="11" height="11" rx="2.5" fill="#8b95a1" opacity="0.20"/>
<rect x="381" y="14" width="11" height="11" rx="2.5" fill="#8b95a1" opacity="0.20"/>
<rect x="381" y="27" width="11" height="11" rx="2.5" fill="#8b95a1" opacity="0.20"/>
<rect x="381" y="40" width="11" height="11" rx="2.5" fill="#8b95a1" opacity="0.20"/>
<rect x="381" y="53" width="11" height="11" rx="2.5" fill="#8b95a1" opacity="0.20"/>
<rect x="381" y="66" width="11" height="11" rx="2.5" fill="#8b95a1" opacity="0.20"/>
<rect x="381" y="79" width="11" height="11" rx="2.5" fill="#8b95a1" opacity="0.20"/>
<rect x="381" y="92" width="11" height="11" rx="2.5" fill="#8b95a1" opacity="0.20"/>
<rect x="394" y="14" width="11" height="11" rx="2.5" fill="#8b95a1" opacity="0.20"/>
<rect x="394" y="27" width="11" height="11" rx="2.5" fill="#8b95a1" opacity="0.20"/>
<rect x="394" y="40" width="11" height="11" rx="2.5" fill="#8b95a1" opacity="0.20"/>
<rect x="394" y="53" width="11" height="11" rx="2.5" fill="#8b95a1" opacity="0.20"/>
<rect x="394" y="66" width="11" height="11" rx="2.5" fill="#8b95a1" opacity="0.20"/>
<rect x="394" y="79" width="11" height="11" rx="2.5" fill="#8b95a1" opacity="0.20"/>
<rect x="394" y="92" width="11" height="11" rx="2.5" fill="#8b95a1" opacity="0.20"/>
<rect x="407" y="14" width="11" height="11" rx="2.5" fill="#8b95a1" opacity="0.20"/>
<rect x="407" y="27" width="11" height="11" rx="2.5" fill="#8b95a1" opacity="0.20"/>
<rect x="407" y="40" width="11" height="11" rx="2.5" fill="#8b95a1" opacity="0.20"/>
<rect x="407" y="53" width="11" height="11" rx="2.5" fill="#8b95a1" opacity="0.20"/>
<rect x="407" y="66" width="11" height="11" rx="2.5" fill="#8b95a1" opacity="0.20"/>
<rect x="407" y="79" width="11" height="11" rx="2.5" fill="#8b95a1" opacity="0.20"/>
<rect x="407" y="92" width="11" height="11" rx="2.5" fill="#8b95a1" opacity="0.20"/>
<rect x="420" y="14" width="11" height="11" rx="2.5" fill="#8b95a1" opacity="0.20"/>
<rect x="420" y="27" width="11" height="11" rx="2.5" fill="#8b95a1" opacity="0.20"/>
<rect x="420" y="40" width="11" height="11" rx="2.5" fill="#8b95a1" opacity="0.20"/>
<rect x="420" y="53" width="11" height="11" rx="2.5" fill="#8b95a1" opacity="0.20"/>
<rect x="420" y="66" width="11" height="11" rx="2.5" fill="#8b95a1" opacity="0.20"/>
<rect x="420" y="79" width="11" height="11" rx="2.5" fill="#8b95a1" opacity="0.20"/>
<rect x="420" y="92" width="11" height="11" rx="2.5" fill="#8b95a1" opacity="0.20"/>
<rect x="433" y="14" width="11" height="11" rx="2.5" fill="#8b95a1" opacity="0.20"/>
<rect x="433" y="27" width="11" height="11" rx="2.5" fill="#8b95a1" opacity="0.20"/>
<rect x="433" y="40" width="11" height="11" rx="2.5" fill="#8b95a1" opacity="0.20"/>
<rect x="433" y="53" width="11" height="11" rx="2.5" fill="#8b95a1" opacity="0.20"/>
<rect x="433" y="66" width="11" height="11" rx="2.5" fill="#8b95a1" opacity="0.20"/>
<rect x="433" y="79" width="11" height="11" rx="2.5" fill="#8b95a1" opacity="0.20"/>
<rect x="433" y="92" width="11" height="11" rx="2.5" fill="#8b95a1" opacity="0.20"/>
<rect x="446" y="14" width="11" height="11" rx="2.5" fill="#8b95a1" opacity="0.20"/>
<rect x="446" y="27" width="11" height="11" rx="2.5" fill="#8b95a1" opacity="0.20"/>
<rect x="446" y="40" width="11" height="11" rx="2.5" fill="#8b95a1" opacity="0.20"/>
<rect x="446" y="53" width="11" height="11" rx="2.5" fill="#8b95a1" opacity="0.20"/>
<rect x="446" y="66" width="11" height="11" rx="2.5" fill="#8b95a1" opacity="0.20"/>
<rect x="446" y="79" width="11" height="11" rx="2.5" fill="#8b95a1" opacity="0.20"/>
<rect x="446" y="92" width="11" height="11" rx="2.5" fill="#8b95a1" opacity="0.20"/>
<rect x="459" y="14" width="11" height="11" rx="2.5" fill="#8b95a1" opacity="0.20"/>
<rect x="459" y="27" width="11" height="11" rx="2.5" fill="#8b95a1" opacity="0.20"/>
<rect x="459" y="40" width="11" height="11" rx="2.5" fill="#8b95a1" opacity="0.20"/>
<rect x="459" y="53" width="11" height="11" rx="2.5" fill="#8b95a1" opacity="0.20"/>
<rect x="459" y="66" width="11" height="11" rx="2.5" fill="#8b95a1" opacity="0.20"/>
<rect x="459" y="79" width="11" height="11" rx="2.5" fill="#8b95a1" opacity="0.20"/>
<rect x="459" y="92" width="11" height="11" rx="2.5" fill="#8b95a1" opacity="0.20"/>
<rect x="472" y="14" width="11" height="11" rx="2.5" fill="#8b95a1" opacity="0.20"/>
<rect x="472" y="27" width="11" height="11" rx="2.5" fill="#8b95a1" opacity="0.20"/>
<rect x="472" y="40" width="11" height="11" rx="2.5" fill="#8b95a1" opacity="0.20"/>
<rect x="472" y="53" width="11" height="11" rx="2.5" fill="#8b95a1" opacity="0.20"/>
<rect x="472" y="66" width="11" height="11" rx="2.5" fill="#8b95a1" opacity="0.20"/>
<rect x="472" y="79" width="11" height="11" rx="2.5" fill="#8b95a1" opacity="0.20"/>
<rect x="472" y="92" width="11" height="11" rx="2.5" fill="#8b95a1" opacity="0.20"/>
<rect x="485" y="14" width="11" height="11" rx="2.5" fill="#8b95a1" opacity="0.20"/>
<rect x="485" y="27" width="11" height="11" rx="2.5" fill="#8b95a1" opacity="0.20"/>
<rect x="485" y="40" width="11" height="11" rx="2.5" fill="#8b95a1" opacity="0.20"/>
<rect x="485" y="53" width="11" height="11" rx="2.5" fill="#8b95a1" opacity="0.20"/>
<rect x="485" y="66" width="11" height="11" rx="2.5" fill="#8b95a1" opacity="0.20"/>
<rect x="485" y="79" width="11" height="11" rx="2.5" fill="#8b95a1" opacity="0.20"/>
<rect x="485" y="92" width="11" height="11" rx="2.5" fill="#8b95a1" opacity="0.20"/>
<rect x="498" y="14" width="11" height="11" rx="2.5" fill="#8b95a1" opacity="0.20"/>
<rect x="498" y="27" width="11" height="11" rx="2.5" fill="#8b95a1" opacity="0.20"/>
<rect x="498" y="40" width="11" height="11" rx="2.5" fill="#8b95a1" opacity="0.20"/>
<rect x="498" y="53" width="11" height="11" rx="2.5" fill="#8b95a1" opacity="0.20"/>
<rect x="498" y="66" width="11" height="11" rx="2.5" fill="#8b95a1" opacity="0.20"/>
<rect x="498" y="79" width="11" height="11" rx="2.5" fill="#8b95a1" opacity="0.20"/>
<rect x="498" y="92" width="11" height="11" rx="2.5" fill="#8b95a1" opacity="0.20"/>
<rect x="511" y="14" width="11" height="11" rx="2.5" fill="#8b95a1" opacity="0.20"/>
<rect x="511" y="27" width="11" height="11" rx="2.5" fill="#8b95a1" opacity="0.20"/>
<rect x="511" y="40" width="11" height="11" rx="2.5" fill="#8b95a1" opacity="0.20"/>
<rect x="511" y="53" width="11" height="11" rx="2.5" fill="#8b95a1" opacity="0.20"/>
<rect x="511" y="66" width="11" height="11" rx="2.5" fill="#8b95a1" opacity="0.20"/>
<rect x="511" y="79" width="11" height="11" rx="2.5" fill="#8b95a1" opacity="0.20"/>
<rect x="511" y="92" width="11" height="11" rx="2.5" fill="#8b95a1" opacity="0.20"/>
<rect x="524" y="14" width="11" height="11" rx="2.5" fill="#8b95a1" opacity="0.20"/>
<rect x="524" y="27" width="11" height="11" rx="2.5" fill="#8b95a1" opacity="0.20"/>
<rect x="524" y="40" width="11" height="11" rx="2.5" fill="#8b95a1" opacity="0.20"/>
<rect x="524" y="53" width="11" height="11" rx="2.5" fill="#8b95a1" opacity="0.20"/>
<rect x="524" y="66" width="11" height="11" rx="2.5" fill="#8b95a1" opacity="0.20"/>
<rect x="524" y="79" width="11" height="11" rx="2.5" fill="#8b95a1" opacity="0.20"/>
<rect x="524" y="92" width="11" height="11" rx="2.5" fill="#8b95a1" opacity="0.20"/>
<rect x="537" y="14" width="11" height="11" rx="2.5" fill="#8b95a1" opacity="0.20"/>
<rect x="537" y="27" width="11" height="11" rx="2.5" fill="#8b95a1" opacity="0.20"/>
<rect x="537" y="40" width="11" height="11" rx="2.5" fill="#8b95a1" opacity="0.20"/>
<rect x="537" y="53" width="11" height="11" rx="2.5" fill="#8b95a1" opacity="0.20"/>
<rect x="537" y="66" width="11" height="11" rx="2.5" fill="#8b95a1" opacity="0.20"/>
<rect x="537" y="79" width="11" height="11" rx="2.5" fill="#8b95a1" opacity="0.20"/>
<rect x="537" y="92" width="11" height="11" rx="2.5" fill="#8b95a1" opacity="0.20"/>
<rect x="550" y="14" width="11" height="11" rx="2.5" fill="#8b95a1" opacity="0.20"/>
<rect x="550" y="27" width="11" height="11" rx="2.5" fill="#8b95a1" opacity="0.20"/>
<rect x="550" y="40" width="11" height="11" rx="2.5" fill="#8b95a1" opacity="0.20"/>
<rect x="550" y="53" width="11" height="11" rx="2.5" fill="#8b95a1" opacity="0.20"/>
<rect x="550" y="66" width="11" height="11" rx="2.5" fill="#8b95a1" opacity="0.20"/>
<rect x="550" y="79" width="11" height="11" rx="2.5" fill="#8b95a1" opacity="0.20"/>
<rect x="550" y="92" width="11" height="11" rx="2.5" fill="#8b95a1" opacity="0.20"/>
<rect x="563" y="14" width="11" height="11" rx="2.5" fill="#8b95a1" opacity="0.20"/>
<rect x="563" y="27" width="11" height="11" rx="2.5" fill="#8b95a1" opacity="0.20"/>
<rect x="563" y="40" width="11" height="11" rx="2.5" fill="#8b95a1" opacity="0.20"/>
<rect x="563" y="53" width="11" height="11" rx="2.5" fill="#8b95a1" opacity="0.20"/>
<rect x="563" y="66" width="11" height="11" rx="2.5" fill="#8b95a1" opacity="0.20"/>
<rect x="563" y="79" width="11" height="11" rx="2.5" fill="#8b95a1" opacity="0.20"/>
<rect x="563" y="92" width="11" height="11" rx="2.5" fill="#8b95a1" opacity="0.20"/>
<rect x="576" y="14" width="11" height="11" rx="2.5" fill="#8b95a1" opacity="0.20"/>
<rect x="576" y="27" width="11" height="11" rx="2.5" fill="#8b95a1" opacity="0.20"/>
<rect x="576" y="40" width="11" height="11" rx="2.5" fill="#8b95a1" opacity="0.20"/>
<rect x="576" y="53" width="11" height="11" rx="2.5" fill="#8b95a1" opacity="0.20"/>
<rect x="576" y="66" width="11" height="11" rx="2.5" fill="#8b95a1" opacity="0.20"/>
<rect x="576" y="79" width="11" height="11" rx="2.5" fill="#8b95a1" opacity="0.20"/>
<rect x="576" y="92" width="11" height="11" rx="2.5" fill="#8b95a1" opacity="0.20"/>
<rect x="589" y="14" width="11" height="11" rx="2.5" fill="#8b95a1" opacity="0.20"/>
<rect x="589" y="27" width="11" height="11" rx="2.5" fill="#8b95a1" opacity="0.20"/>
<rect x="589" y="40" width="11" height="11" rx="2.5" fill="#8b95a1" opacity="0.20"/>
<rect x="589" y="53" width="11" height="11" rx="2.5" fill="#8b95a1" opacity="0.20"/>
<rect x="589" y="66" width="11" height="11" rx="2.5" fill="#8b95a1" opacity="0.20"/>
<rect x="589" y="79" width="11" height="11" rx="2.5" fill="#8b95a1" opacity="0.20"/>
<rect x="589" y="92" width="11" height="11" rx="2.5" fill="#8b95a1" opacity="0.20"/>
<rect x="602" y="14" width="11" height="11" rx="2.5" fill="#8b95a1" opacity="0.20"/>
<rect x="602" y="27" width="11" height="11" rx="2.5" fill="#8b95a1" opacity="0.20"/>
<rect x="602" y="40" width="11" height="11" rx="2.5" fill="#8b95a1" opacity="0.20"/>
<rect x="602" y="53" width="11" height="11" rx="2.5" fill="#8b95a1" opacity="0.20"/>
<rect x="602" y="66" width="11" height="11" rx="2.5" fill="#8b95a1" opacity="0.20"/>
<rect x="602" y="79" width="11" height="11" rx="2.5" fill="#8b95a1" opacity="0.20"/>
<rect x="602" y="92" width="11" height="11" rx="2.5" fill="#8b95a1" opacity="0.20"/>
<rect x="615" y="14" width="11" height="11" rx="2.5" fill="#8b95a1" opacity="0.20"/>
<rect x="615" y="27" width="11" height="11" rx="2.5" fill="#8b95a1" opacity="0.20"/>
<rect x="615" y="40" width="11" height="11" rx="2.5" fill="#8b95a1" opacity="0.20"/>
<rect x="615" y="53" width="11" height="11" rx="2.5" fill="#8b95a1" opacity="0.20"/>
<rect x="615" y="66" width="11" height="11" rx="2.5" fill="#8b95a1" opacity="0.20"/>
<rect x="615" y="79" width="11" height="11" rx="2.5" fill="#a7e8d8" class="c" style="animation-name:e45_5"/>
<rect x="615" y="92" width="11" height="11" rx="2.5" fill="#5fcdb5" class="c" style="animation-name:e45_6"/>
<rect x="628" y="14" width="11" height="11" rx="2.5" fill="#1f7a6b" class="c" style="animation-name:e46_0"/>
<rect x="628" y="27" width="11" height="11" rx="2.5" fill="#35a08e" class="c" style="animation-name:e46_1"/>
<rect x="628" y="40" width="11" height="11" rx="2.5" fill="#8b95a1" opacity="0.20"/>
<rect x="628" y="53" width="11" height="11" rx="2.5" fill="#35a08e" class="c" style="animation-name:e46_3"/>
<rect x="628" y="66" width="11" height="11" rx="2.5" fill="#8b95a1" opacity="0.20"/>
<rect x="628" y="79" width="11" height="11" rx="2.5" fill="#8b95a1" opacity="0.20"/>
<rect x="628" y="92" width="11" height="11" rx="2.5" fill="#8b95a1" opacity="0.20"/>
<rect x="641" y="14" width="11" height="11" rx="2.5" fill="#a7e8d8" class="c" style="animation-name:e47_0"/>
<rect x="641" y="27" width="11" height="11" rx="2.5" fill="#35a08e" class="c" style="animation-name:e47_1"/>
<rect x="641" y="40" width="11" height="11" rx="2.5" fill="#5fcdb5" class="c" style="animation-name:e47_2"/>
<rect x="641" y="53" width="11" height="11" rx="2.5" fill="#35a08e" class="c" style="animation-name:e47_3"/>
<rect x="641" y="66" width="11" height="11" rx="2.5" fill="#a7e8d8" class="c" style="animation-name:e47_4"/>
<rect x="641" y="79" width="11" height="11" rx="2.5" fill="#8b95a1" opacity="0.20"/>
<rect x="641" y="92" width="11" height="11" rx="2.5" fill="#8b95a1" opacity="0.20"/>
<rect x="654" y="14" width="11" height="11" rx="2.5" fill="#8b95a1" opacity="0.20"/>
<rect x="654" y="27" width="11" height="11" rx="2.5" fill="#a7e8d8" class="c" style="animation-name:e48_1"/>
<rect x="654" y="40" width="11" height="11" rx="2.5" fill="#a7e8d8" class="c" style="animation-name:e48_2"/>
<rect x="654" y="53" width="11" height="11" rx="2.5" fill="#8b95a1" opacity="0.20"/>
<rect x="654" y="66" width="11" height="11" rx="2.5" fill="#8b95a1" opacity="0.20"/>
<rect x="654" y="79" width="11" height="11" rx="2.5" fill="#8b95a1" opacity="0.20"/>
<rect x="654" y="92" width="11" height="11" rx="2.5" fill="#8b95a1" opacity="0.20"/>
<rect x="667" y="14" width="11" height="11" rx="2.5" fill="#8b95a1" opacity="0.20"/>
<rect x="667" y="27" width="11" height="11" rx="2.5" fill="#8b95a1" opacity="0.20"/>
<rect x="667" y="40" width="11" height="11" rx="2.5" fill="#8b95a1" opacity="0.20"/>
<rect x="667" y="53" width="11" height="11" rx="2.5" fill="#8b95a1" opacity="0.20"/>
<rect x="667" y="66" width="11" height="11" rx="2.5" fill="#8b95a1" opacity="0.20"/>
<rect x="667" y="79" width="11" height="11" rx="2.5" fill="#8b95a1" opacity="0.20"/>
<rect x="667" y="92" width="11" height="11" rx="2.5" fill="#8b95a1" opacity="0.20"/>
<rect x="680" y="14" width="11" height="11" rx="2.5" fill="#a7e8d8" class="c" style="animation-name:e50_0"/>
<rect x="680" y="27" width="11" height="11" rx="2.5" fill="#35a08e" class="c" style="animation-name:e50_1"/>
<rect x="680" y="40" width="11" height="11" rx="2.5" fill="#5fcdb5" class="c" style="animation-name:e50_2"/>
<rect x="680" y="53" width="11" height="11" rx="2.5" fill="#1f7a6b" class="c" style="animation-name:e50_3"/>
<rect x="680" y="66" width="11" height="11" rx="2.5" fill="#5fcdb5" class="c" style="animation-name:e50_4"/>
<rect x="680" y="79" width="11" height="11" rx="2.5" fill="#5fcdb5" class="c" style="animation-name:e50_5"/>
<rect x="680" y="92" width="11" height="11" rx="2.5" fill="#1f7a6b" class="c" style="animation-name:e50_6"/>
<rect x="693" y="14" width="11" height="11" rx="2.5" fill="#1f7a6b" class="c" style="animation-name:e51_0"/>
<rect x="693" y="27" width="11" height="11" rx="2.5" fill="#1f7a6b" class="c" style="animation-name:e51_1"/>
<rect x="693" y="40" width="11" height="11" rx="2.5" fill="#5fcdb5" class="c" style="animation-name:e51_2"/>
<rect x="693" y="53" width="11" height="11" rx="2.5" fill="#8b95a1" opacity="0.20"/>
<rect x="693" y="66" width="11" height="11" rx="2.5" fill="#8b95a1" opacity="0.20"/>
<rect x="693" y="79" width="11" height="11" rx="2.5" fill="#8b95a1" opacity="0.20"/>
<rect x="693" y="92" width="11" height="11" rx="2.5" fill="#8b95a1" opacity="0.20"/>
<text x="3" y="35.5" font-size="9" fill="#8b95a1">Пн</text>
<text x="3" y="61.5" font-size="9" fill="#8b95a1">Ср</text>
<text x="3" y="87.5" font-size="9" fill="#8b95a1">Пт</text>
<rect class="sg" style="animation-delay:0.216s;opacity:0.36" x="0" y="0" width="11" height="11" rx="3"/>
<rect class="sg" style="animation-delay:0.162s;opacity:0.52" x="0" y="0" width="11" height="11" rx="3"/>
<rect class="sg" style="animation-delay:0.108s;opacity:0.68" x="0" y="0" width="11" height="11" rx="3"/>
<rect class="sg" style="animation-delay:0.054s;opacity:0.84" x="0" y="0" width="11" height="11" rx="3"/>
<rect class="sg" style="animation-delay:0.000s;opacity:1" x="0" y="0" width="11" height="11" rx="5.5"/>
</svg>
